<svg version="1.1" preserveAspectRatio="none" xmlns="http://www.w3.org/2000/svg" width="500" height="500" viewBox="0 0 500 500"><rect width="100%" height="100%" fill="#F7F4F2" fill-opacity="1"/><svg viewBox="145.41 127.6284 366.8219 360.5" width="333" height="327.2609950496412" x="83.5px" y="86.3695px" xmlns="http://www.w3.org/2000/svg" xmlns:xlink="http://www.w3.org/1999/xlink" preserveAspectRatio="none"><defs></defs><style>.companyName {fill:#161616;fill-opacity:1;}.icon1 {fill:#161616;fill-opacity:1;}.icon2 {fill:#E5B7D2;fill-opacity:1;}.icon3 {fill:#848282;fill-opacity:1;}.icon3-str {stroke:#848282;stroke-opacity:1;}.text {fill:#161616;fill-opacity:1;}</style><g opacity="1" transform="rotate(0 220.0032 465.6284)">
<svg width="217.6356" height="22.5" x="220.0032" y="465.6284" version="1.1" preserveAspectRatio="none" viewBox="3 -29.2 368.67999999999995 38.120000000000005">
  <g transform="matrix(1 0 0 1 0 0)" class="text"><path id="id-6izo4zJp17" d="M20.52-12.20L20.52 0L17.80 0L17.80-11.64Q17.80-15.36 16.70-17.04Q15.60-18.72 13.32-18.72L13.32-18.72Q12.12-18.72 10.92-18.28Q9.72-17.84 8.70-17.04Q7.68-16.24 6.88-15.14Q6.08-14.04 5.72-12.76L5.72-12.76L5.72 0L3 0L3-20.84L5.48-20.84L5.48-16.12Q6.76-18.40 9.14-19.80Q11.52-21.20 14.32-21.20L14.32-21.20Q16.04-21.20 17.24-20.56Q18.44-19.92 19.16-18.76Q19.88-17.60 20.20-15.92Q20.52-14.24 20.52-12.20L20.52-12.20Z M36.80 0.40L36.80 0.40Q34.52 0.40 32.64-0.46Q30.76-1.32 29.38-2.80Q28-4.28 27.24-6.24Q26.48-8.20 26.48-10.36L26.48-10.36Q26.48-12.56 27.26-14.52Q28.04-16.48 29.42-17.96Q30.80-19.44 32.68-20.32Q34.56-21.20 36.80-21.20L36.80-21.20Q39.04-21.20 40.94-20.32Q42.84-19.44 44.22-17.96Q45.60-16.48 46.38-14.52Q47.16-12.56 47.16-10.36L47.16-10.36Q47.16-8.20 46.40-6.24Q45.64-4.28 44.26-2.80Q42.88-1.32 40.98-0.46Q39.08 0.40 36.80 0.40ZM29.24-10.32L29.24-10.32Q29.24-8.56 29.84-7.06Q30.44-5.56 31.46-4.42Q32.48-3.28 33.86-2.64Q35.24-2 36.80-2L36.80-2Q38.36-2 39.74-2.66Q41.12-3.32 42.16-4.46Q43.20-5.60 43.80-7.12Q44.40-8.64 44.40-10.40L44.40-10.40Q44.40-12.12 43.80-13.66Q43.20-15.20 42.16-16.34Q41.12-17.48 39.74-18.14Q38.36-18.80 36.80-18.80L36.80-18.80Q35.24-18.80 33.88-18.14Q32.52-17.48 31.48-16.32Q30.44-15.16 29.84-13.62Q29.24-12.08 29.24-10.32Z M62.32-3.20L63.04-1Q62.80-0.88 62.34-0.68Q61.88-0.48 61.28-0.28Q60.68-0.08 59.92 0.08Q59.16 0.24 58.32 0.24L58.32 0.24Q57.44 0.24 56.64 0Q55.84-0.24 55.24-0.74Q54.64-1.24 54.28-2Q53.92-2.76 53.92-3.76L53.92-3.76L53.92-18.68L51.04-18.68L51.04-20.84L53.92-20.84L53.92-27.88L56.64-27.88L56.64-20.84L61.44-20.84L61.44-18.68L56.64-18.68L56.64-4.52Q56.72-3.36 57.46-2.82Q58.20-2.28 59.16-2.28L59.16-2.28Q60.32-2.28 61.20-2.66Q62.08-3.04 62.32-3.20L62.32-3.20Z M85.08 0.40L85.08 0.40Q83.60 0.40 82.34-0.10Q81.08-0.60 80.14-1.48Q79.20-2.36 78.68-3.54Q78.16-4.72 78.16-6.08L78.16-6.08Q78.16-7.44 78.80-8.60Q79.44-9.76 80.60-10.60Q81.76-11.44 83.36-11.90Q84.96-12.36 86.88-12.36L86.88-12.36Q88.48-12.36 90.12-12.08Q91.76-11.80 93.04-11.28L93.04-11.28L93.04-13.16Q93.04-15.92 91.48-17.54Q89.92-19.16 87.16-19.16L87.16-19.16Q85.56-19.16 83.88-18.52Q82.20-17.88 80.48-16.68L80.48-16.68L79.52-18.48Q83.56-21.20 87.36-21.20L87.36-21.20Q91.28-21.20 93.52-19Q95.76-16.80 95.76-12.92L95.76-12.92L95.76-3.52Q95.76-2.40 96.76-2.40L96.76-2.40L96.76 0Q96.08 0.12 95.72 0.12L95.72 0.12Q94.68 0.12 94.10-0.40Q93.52-0.92 93.48-1.84L93.48-1.84L93.40-3.48Q91.96-1.60 89.78-0.60Q87.60 0.40 85.08 0.40ZM85.72-1.68L85.72-1.68Q87.84-1.68 89.62-2.48Q91.40-3.28 92.32-4.60L92.32-4.60Q92.68-4.96 92.86-5.38Q93.04-5.80 93.04-6.16L93.04-6.16L93.04-9.56Q91.68-10.08 90.22-10.36Q88.76-10.64 87.24-10.64L87.24-10.64Q84.36-10.64 82.56-9.44Q80.76-8.24 80.76-6.28L80.76-6.28Q80.76-5.32 81.14-4.48Q81.52-3.64 82.18-3.02Q82.84-2.40 83.76-2.04Q84.68-1.68 85.72-1.68Z M103.36-3.80L103.36-29.20L106.08-29.20L106.08-4.72Q106.08-3.56 106.72-2.90Q107.36-2.24 108.52-2.24L108.52-2.24Q108.96-2.24 109.56-2.36Q110.16-2.48 110.68-2.68L110.68-2.68L111.16-0.48Q110.40-0.16 109.30 0.04Q108.20 0.24 107.40 0.24L107.40 0.24Q105.52 0.24 104.44-0.82Q103.36-1.88 103.36-3.80L103.36-3.80Z M124.60 0.40L124.60 0.40Q122.32 0.40 120.44-0.46Q118.56-1.32 117.18-2.80Q115.80-4.28 115.04-6.24Q114.28-8.20 114.28-10.36L114.28-10.36Q114.28-12.56 115.06-14.52Q115.84-16.48 117.22-17.96Q118.60-19.44 120.48-20.32Q122.36-21.20 124.60-21.20L124.60-21.20Q126.84-21.20 128.74-20.32Q130.64-19.44 132.02-17.96Q133.40-16.48 134.18-14.52Q134.96-12.56 134.96-10.36L134.96-10.36Q134.96-8.20 134.20-6.24Q133.44-4.28 132.06-2.80Q130.68-1.32 128.78-0.46Q126.88 0.40 124.60 0.40ZM117.04-10.32L117.04-10.32Q117.04-8.56 117.64-7.06Q118.24-5.56 119.26-4.42Q120.28-3.28 121.66-2.64Q123.04-2 124.60-2L124.60-2Q126.16-2 127.54-2.66Q128.92-3.32 129.96-4.46Q131.00-5.60 131.60-7.12Q132.20-8.64 132.20-10.40L132.20-10.40Q132.20-12.12 131.60-13.66Q131.00-15.20 129.96-16.34Q128.92-17.48 127.54-18.14Q126.16-18.80 124.60-18.80L124.60-18.80Q123.04-18.80 121.68-18.14Q120.32-17.48 119.28-16.32Q118.24-15.16 117.64-13.62Q117.04-12.08 117.04-10.32Z M158.64-12.20L158.64 0L155.92 0L155.92-11.64Q155.92-15.36 154.82-17.04Q153.72-18.72 151.44-18.72L151.44-18.72Q150.24-18.72 149.04-18.28Q147.84-17.84 146.82-17.04Q145.80-16.24 145.00-15.14Q144.20-14.04 143.84-12.76L143.84-12.76L143.84 0L141.12 0L141.12-20.84L143.60-20.84L143.60-16.12Q144.88-18.40 147.26-19.80Q149.64-21.20 152.44-21.20L152.44-21.20Q154.16-21.20 155.36-20.56Q156.56-19.92 157.28-18.76Q158.00-17.60 158.32-15.92Q158.64-14.24 158.64-12.20L158.64-12.20Z M175.04 0.40L175.04 0.40Q172.76 0.40 170.86-0.46Q168.96-1.32 167.56-2.82Q166.16-4.32 165.38-6.28Q164.60-8.24 164.60-10.48L164.60-10.48Q164.60-12.68 165.38-14.62Q166.16-16.56 167.54-18.02Q168.92-19.48 170.84-20.34Q172.76-21.20 175.00-21.20L175.00-21.20Q177.28-21.20 179.18-20.34Q181.08-19.48 182.44-18Q183.80-16.52 184.56-14.60Q185.32-12.68 185.32-10.52L185.32-10.52Q185.32-10.20 185.32-9.88Q185.32-9.56 185.28-9.44L185.28-9.44L167.44-9.44Q167.56-7.76 168.22-6.34Q168.88-4.92 169.92-3.88Q170.96-2.84 172.30-2.26Q173.64-1.68 175.16-1.68L175.16-1.68Q176.16-1.68 177.16-1.96Q178.16-2.24 179.00-2.72Q179.84-3.20 180.52-3.90Q181.20-4.60 181.56-5.44L181.56-5.44L183.92-4.80Q183.44-3.64 182.56-2.70Q181.68-1.76 180.52-1.06Q179.36-0.36 177.96 0.02Q176.56 0.40 175.04 0.40ZM167.40-11.52L182.72-11.52Q182.60-13.20 181.94-14.58Q181.28-15.96 180.26-16.96Q179.24-17.96 177.90-18.52Q176.56-19.08 175.04-19.08L175.04-19.08Q173.52-19.08 172.16-18.52Q170.80-17.96 169.78-16.96Q168.76-15.96 168.14-14.56Q167.52-13.16 167.40-11.52L167.40-11.52Z M208.16 0.40L208.16 0.40Q206.68 0.40 205.42-0.10Q204.16-0.60 203.22-1.48Q202.28-2.36 201.76-3.54Q201.24-4.72 201.24-6.08L201.24-6.08Q201.24-7.44 201.88-8.60Q202.52-9.76 203.68-10.60Q204.84-11.44 206.44-11.90Q208.04-12.36 209.96-12.36L209.96-12.36Q211.56-12.36 213.20-12.08Q214.84-11.80 216.12-11.28L216.12-11.28L216.12-13.16Q216.12-15.92 214.56-17.54Q213.00-19.16 210.24-19.16L210.24-19.16Q208.64-19.16 206.96-18.52Q205.28-17.88 203.56-16.68L203.56-16.68L202.60-18.48Q206.64-21.20 210.44-21.20L210.44-21.20Q214.36-21.20 216.60-19Q218.84-16.80 218.84-12.92L218.84-12.92L218.84-3.52Q218.84-2.40 219.84-2.40L219.84-2.40L219.84 0Q219.16 0.12 218.80 0.12L218.80 0.12Q217.76 0.12 217.18-0.40Q216.60-0.92 216.56-1.84L216.56-1.84L216.48-3.48Q215.04-1.60 212.86-0.60Q210.68 0.40 208.16 0.40ZM208.80-1.68L208.80-1.68Q210.92-1.68 212.70-2.48Q214.48-3.28 215.40-4.60L215.40-4.60Q215.76-4.96 215.94-5.38Q216.12-5.80 216.12-6.16L216.12-6.16L216.12-9.56Q214.76-10.08 213.30-10.36Q211.84-10.64 210.32-10.64L210.32-10.64Q207.44-10.64 205.64-9.44Q203.84-8.24 203.84-6.28L203.84-6.28Q203.84-5.32 204.22-4.48Q204.60-3.64 205.26-3.02Q205.92-2.40 206.84-2.04Q207.76-1.68 208.80-1.68Z M243.84-12.20L243.84 0L241.12 0L241.12-11.64Q241.12-15.36 240.02-17.04Q238.92-18.72 236.64-18.72L236.64-18.72Q235.44-18.72 234.24-18.28Q233.04-17.84 232.02-17.04Q231.00-16.24 230.20-15.14Q229.40-14.04 229.04-12.76L229.04-12.76L229.04 0L226.32 0L226.32-20.84L228.80-20.84L228.80-16.12Q230.08-18.40 232.46-19.80Q234.84-21.20 237.64-21.20L237.64-21.20Q239.36-21.20 240.56-20.56Q241.76-19.92 242.48-18.76Q243.20-17.60 243.52-15.92Q243.84-14.24 243.84-12.20L243.84-12.20Z M251.96 8.80L251.96 6.40Q252.28 6.44 252.58 6.46Q252.88 6.48 253.16 6.48L253.16 6.48Q253.88 6.48 254.30 6.28Q254.72 6.08 255.12 5.40Q255.52 4.72 256.02 3.44Q256.52 2.16 257.44 0L257.44 0L248.36-20.84L251.16-20.84L258.88-2.52L266.04-20.84L268.64-20.84L257.84 6.04Q257.40 7.20 256.38 8.06Q255.36 8.92 253.60 8.92L253.60 8.92Q253.20 8.92 252.84 8.90Q252.48 8.88 251.96 8.80L251.96 8.80Z M305.04-12.20L305.04 0L302.32 0L302.32-11.64Q302.32-15.28 301.16-17Q300.00-18.72 297.72-18.72L297.72-18.72Q296.52-18.72 295.46-18.28Q294.40-17.84 293.50-17.04Q292.60-16.24 291.92-15.14Q291.24-14.04 290.88-12.72L290.88-12.72L290.88 0L288.16 0L288.16-11.64Q288.16-15.36 287.04-17.04Q285.92-18.72 283.60-18.72L283.60-18.72Q281.24-18.72 279.40-17.08Q277.56-15.44 276.76-12.76L276.76-12.76L276.76 0L274.04 0L274.04-20.84L276.52-20.84L276.52-16.12Q277.80-18.52 279.88-19.86Q281.96-21.20 284.48-21.20L284.48-21.20Q287.12-21.20 288.70-19.72Q290.28-18.24 290.64-15.84L290.64-15.84Q293.56-21.20 298.68-21.20L298.68-21.20Q300.44-21.20 301.66-20.56Q302.88-19.92 303.62-18.74Q304.36-17.56 304.70-15.90Q305.04-14.24 305.04-12.20L305.04-12.20Z M321.28 0.40L321.28 0.40Q319 0.40 317.12-0.46Q315.24-1.32 313.86-2.80Q312.48-4.28 311.72-6.24Q310.96-8.20 310.96-10.36L310.96-10.36Q310.96-12.56 311.74-14.52Q312.52-16.48 313.90-17.96Q315.28-19.44 317.16-20.32Q319.04-21.20 321.28-21.20L321.28-21.20Q323.52-21.20 325.42-20.32Q327.32-19.44 328.70-17.96Q330.08-16.48 330.86-14.52Q331.64-12.56 331.64-10.36L331.64-10.36Q331.64-8.20 330.88-6.24Q330.12-4.28 328.74-2.80Q327.36-1.32 325.46-0.46Q323.56 0.40 321.28 0.40ZM313.72-10.32L313.72-10.32Q313.72-8.56 314.32-7.06Q314.92-5.56 315.94-4.42Q316.96-3.28 318.34-2.64Q319.72-2 321.28-2L321.28-2Q322.84-2 324.22-2.66Q325.60-3.32 326.64-4.46Q327.68-5.60 328.28-7.12Q328.88-8.64 328.88-10.40L328.88-10.40Q328.88-12.12 328.28-13.66Q327.68-15.20 326.64-16.34Q325.60-17.48 324.22-18.14Q322.84-18.80 321.28-18.80L321.28-18.80Q319.72-18.80 318.36-18.14Q317-17.48 315.96-16.32Q314.92-15.16 314.32-13.62Q313.72-12.08 313.72-10.32Z M348.20-20.92L348.20-18.44Q345.44-18.36 343.40-16.92Q341.36-15.48 340.52-12.96L340.52-12.96L340.52 0L337.80 0L337.80-20.84L340.36-20.84L340.36-15.84Q341.52-18.24 343.48-19.60Q345.44-20.96 347.68-20.96L347.68-20.96Q348-20.96 348.20-20.92L348.20-20.92Z M361.40 0.40L361.40 0.40Q359.12 0.40 357.22-0.46Q355.32-1.32 353.92-2.82Q352.52-4.32 351.74-6.28Q350.96-8.24 350.96-10.48L350.96-10.48Q350.96-12.68 351.74-14.62Q352.52-16.56 353.90-18.02Q355.28-19.48 357.20-20.34Q359.12-21.20 361.36-21.20L361.36-21.20Q363.64-21.20 365.54-20.34Q367.44-19.48 368.80-18Q370.16-16.52 370.92-14.60Q371.68-12.68 371.68-10.52L371.68-10.52Q371.68-10.20 371.68-9.88Q371.68-9.56 371.64-9.44L371.64-9.44L353.80-9.44Q353.92-7.76 354.58-6.34Q355.24-4.92 356.28-3.88Q357.32-2.84 358.66-2.26Q360.00-1.68 361.52-1.68L361.52-1.68Q362.52-1.68 363.52-1.96Q364.52-2.24 365.36-2.72Q366.20-3.20 366.88-3.90Q367.56-4.60 367.92-5.44L367.92-5.44L370.28-4.80Q369.80-3.64 368.92-2.70Q368.04-1.76 366.88-1.06Q365.72-0.36 364.32 0.02Q362.92 0.40 361.40 0.40ZM353.76-11.52L369.08-11.52Q368.96-13.20 368.30-14.58Q367.64-15.96 366.62-16.96Q365.60-17.96 364.26-18.52Q362.92-19.08 361.40-19.08L361.40-19.08Q359.88-19.08 358.52-18.52Q357.16-17.96 356.14-16.96Q355.12-15.96 354.50-14.56Q353.88-13.16 353.76-11.52L353.76-11.52Z"/></g>
</svg>
</g><g opacity="1" transform="rotate(0 145.41 357.6284)">
<svg width="366.8219" height="90" x="145.41" y="357.6284" version="1.1" preserveAspectRatio="none" viewBox="-2.9297 -29.3266 122.793 30.1274">
  <g transform="matrix(1 0 0 1 0 0)" class="companyName"><path id="id-D6z1nYkh8" d="M10.84-2.44L10.84-2.44Q7.21 0.80 2.17 0.80L2.17 0.80Q-0.88 0.80-2.19-0.49L-2.19-0.49Q-2.93-1.19-2.93-2.97L-2.93-2.97Q-2.93-5.70 1.23-6.50L1.23-6.50Q2.54-6.76 4.38-6.76Q6.21-6.76 9.39-6.07L9.39-6.07Q11.09-7.97 13.45-11.65Q15.80-15.33 17.17-17.32Q18.54-19.32 20.27-21.40Q22.01-23.48 23.91-25.16L23.91-25.16Q27.75-28.59 31.52-28.59L31.52-28.59Q33.20-28.59 33.95-27.74Q34.69-26.89 34.69-25.73Q34.69-24.57 33.62-23.03Q32.56-21.48 31.16-20.29Q29.77-19.10 28.41-18.27Q27.05-17.44 26.27-17.44Q25.49-17.44 24.92-18.11Q24.36-18.77 24.36-19.38Q24.36-20 24.52-20.24Q24.69-20.49 24.86-20.49Q25.04-20.49 25.08-20.27L25.08-20.27Q25.70-20.47 27.08-21.49Q28.46-22.52 29.59-23.63Q30.72-24.75 30.72-25.03Q30.72-25.31 30.38-25.31Q30.04-25.31 29.45-25.08Q28.87-24.84 27.89-24.11Q26.91-23.38 25.78-22.23L25.78-22.23Q23.05-19.49 19.69-14.47L19.69-14.47Q18.91-13.34 17.48-11.17L17.48-11.17Q14.57-6.78 13.32-5.16L13.32-5.16Q23.34-2.52 27.64-2.52L27.64-2.52Q29.63-2.52 30.43-3.03L30.43-3.03Q30.72-3.20 30.82-3.20Q30.92-3.20 30.92-3.05Q30.92-2.89 30.74-2.58Q30.57-2.27 29.87-1.25Q29.18-0.23 28.85-0.04L28.85-0.04Q27.89 0.53 25.60 0.53Q23.30 0.53 21.22 0.20Q19.14-0.14 17.87-0.46Q16.60-0.78 14.11-1.50Q11.62-2.23 10.84-2.44ZM3.71-3.63L3.71-3.63Q1.15-3.63 1.15-3.03L1.15-3.03Q1.15-2.79 1.59-2.62Q2.03-2.44 2.64-2.44L2.64-2.44Q4.53-2.44 6.29-3.44L6.29-3.44Q4.79-3.63 3.71-3.63Z M46.58-6.13L46.58-6.13Q46.95-6.13 47.03-5.57Q47.11-5 47.11-4.39Q47.11-3.79 46.99-3.55L46.99-3.55Q46.43-2.46 44.51-0.89Q42.60 0.68 40.88 0.68L40.88 0.68Q39.82 0.68 38.93 0.05Q38.03-0.59 38.03-2.17Q38.03-3.75 38.87-5.27L38.87-5.27Q34.02 0.80 31.27 0.80L31.27 0.80Q30.18 0.80 29.50 0.02Q28.83-0.76 28.83-1.59Q28.83-2.42 29.06-3.31Q29.30-4.20 29.56-4.90Q29.82-5.61 30.34-6.64Q30.86-7.68 31.11-8.14Q31.37-8.61 31.92-9.56Q32.48-10.51 33.39-12.11Q34.30-13.71 34.89-14.48Q35.49-15.25 36.05-15.26Q36.62-15.27 37.05-14.80Q37.48-14.34 37.48-14.04Q37.48-13.75 36.17-11.41L36.17-11.41Q32.30-4.41 32.30-3.26L32.30-3.26Q32.30-2.97 32.52-2.97L32.52-2.97Q33.46-2.97 37.19-7.03Q40.92-11.09 41.50-12.24Q42.09-13.38 42.65-14.16Q43.20-14.94 43.48-15.12L43.48-15.12Q44.32-15.66 45.64-15.70L45.64-15.70Q45.86-15.70 45.98-15.68Q46.09-15.66 46.25-15.35Q46.41-15.04 46.41-14.86L46.41-14.86Q46.23-14.32 44.85-11.95Q43.48-9.59 43.32-9.28L43.32-9.28Q41.02-4.51 41.02-3.07L41.02-3.07Q41.02-2.25 41.64-2.25L41.64-2.25Q42.77-2.40 44.38-4.06L44.38-4.06Q44.96-4.67 45.54-5.29Q46.11-5.92 46.25-6.03Q46.39-6.13 46.58-6.13Z M58.56-4.34Q59.57-4.98 59.86-5.22Q60.16-5.47 60.55-5.80Q60.94-6.13 61.19-6.13L61.19-6.13Q61.58-6.13 61.58-5.24Q61.58-4.36 60.71-3.33Q59.84-2.30 58.55-1.59Q57.27-0.88 55.80-0.35L55.80-0.35Q52.89 0.72 50.85 0.72Q48.81 0.72 47.17-0.62Q45.53-1.95 45.53-4.11Q45.53-6.27 46.60-8.43Q47.68-10.59 49.37-12.22Q51.05-13.85 53.29-14.86Q55.53-15.88 57.71-15.88L57.71-15.88Q58.77-15.88 59.61-15.27Q60.45-14.67 60.45-13.61Q60.45-12.56 59.40-11.08Q58.36-9.61 57.29-9.61L57.29-9.61Q56.04-9.61 56.04-10.80L56.04-10.80Q56.04-11.11 56.62-11.91Q57.21-12.71 57.21-13.00Q57.21-13.28 56.99-13.28L56.99-13.28Q55.92-13.28 54.69-12.54Q53.46-11.80 52.45-10.98Q51.45-10.16 50.55-9.14L50.55-9.14Q48.59-6.93 48.59-4.55L48.59-4.55Q48.59-3.59 49.21-2.90Q49.82-2.21 51.28-2.21Q52.73-2.21 54.20-2.55Q55.66-2.89 56.61-3.29Q57.56-3.69 58.56-4.34Z M73.16-21.45L73.16-21.45Q73.16-20.33 72.13-19.21Q71.09-18.09 69.97-18.09Q68.85-18.09 68.85-19.26Q68.85-20.43 69.83-21.49Q70.82-22.56 72.01-22.56L72.01-22.56Q72.54-22.56 72.85-22.27Q73.16-21.97 73.16-21.45ZM70-4.39L70-4.39Q70-3.81 69.88-3.55L69.88-3.55Q68.93-1.60 66.84-0.40Q64.75 0.80 63.20 0.80Q61.66 0.80 60.55-0.23Q59.43-1.27 59.43-2.34Q59.43-3.42 60.51-5.47Q61.58-7.52 62.66-9.26Q63.73-11.00 63.73-11.14Q63.73-11.29 63.33-11.72Q62.93-12.15 62.93-12.35Q62.93-12.56 63.74-13.43Q64.55-14.30 65.71-15.15Q66.88-16.00 67.49-16.00Q68.11-16.00 68.59-15.45Q69.08-14.90 69.08-14.45Q69.08-14.00 64.43-6.00L64.43-6.00Q64.38-5.88 64.11-5.48Q63.85-5.08 63.70-4.81Q63.55-4.55 63.36-4.18L63.36-4.18Q62.97-3.40 62.97-2.87L62.97-2.87Q62.97-2.21 63.87-2.21Q64.77-2.21 65.73-2.82Q66.70-3.44 67.40-4.18L67.40-4.18Q69.24-6.15 69.49-6.15L69.49-6.15Q70-6.15 70-4.39Z M93.09-29.28Q93.46-29.28 93.67-29.04Q93.89-28.81 93.89-28.56Q93.89-28.32 93.51-27.67Q93.13-27.01 91.76-24.81Q90.39-22.62 89.63-21.37L89.63-21.37Q85.20-14.16 82.68-9.18Q80.16-4.20 80.16-3.16L80.16-3.16L80.16-3.01Q80.16-2.21 80.74-2.21Q81.33-2.21 82.16-2.75Q82.99-3.30 83.61-3.93Q84.24-4.55 84.87-5.22Q85.51-5.90 85.64-6.02Q85.78-6.13 86.00-6.13L86.00-6.13Q86.33-6.13 86.43-5.71Q86.52-5.29 86.52-4.54Q86.52-3.79 86.41-3.55L86.41-3.55Q85.84-2.46 83.92-0.89Q81.99 0.68 80.27 0.68L80.27 0.68Q77.34 0.68 77.34-1.80L77.34-1.80Q77.34-3.34 78.52-5.84L78.52-5.84Q76.93-3.79 75.29-2.34L75.29-2.34Q72.25 0.31 70 0.31L70 0.31Q68.75 0.31 68.15-0.57Q67.56-1.45 67.56-3.10Q67.56-4.75 68.85-7.05Q70.14-9.36 72.06-11.20Q73.98-13.05 76.33-14.29Q78.67-15.53 80.64-15.53L80.64-15.53Q81.27-15.53 82.11-14.77L82.11-14.77Q82.68-15.66 84.20-18.36L84.20-18.36Q88.98-26.43 90.53-28.20L90.53-28.20Q91.35-29.28 93.09-29.28L93.09-29.28ZM80.92-12.93L80.92-12.93Q78.11-12.30 75.68-10.31Q73.26-8.32 72.05-6.14Q70.84-3.96 70.84-3.32Q70.84-2.68 71.11-2.68L71.11-2.68Q72.29-2.68 76.91-7.91L76.91-7.91Q79.22-10.49 80.92-12.93Z M101.21-29.32Q102.15-29.32 102.86-28.76Q103.57-28.20 103.57-27.11Q103.57-26.02 102.36-23.68Q101.15-21.35 99.45-18.92Q97.75-16.48 95.61-13.75L95.61-13.75Q92.21-9.41 89.08-5.96L89.08-5.96Q89.06-5.72 88.92-5.09Q88.77-4.45 88.77-3.81Q88.77-3.16 89.37-2.65Q89.96-2.13 90.84-2.13Q91.72-2.13 92.72-2.75Q93.73-3.38 94.47-4.14L94.47-4.14Q96.43-6.15 96.89-6.15Q97.36-6.15 97.36-4.73L97.36-4.73L97.36-4.34Q97.36-3.57 97.09-3.22L97.09-3.22Q95.45-1.21 93.40-0.22Q91.35 0.76 89.51 0.76Q87.68 0.76 86.72-0.36Q85.76-1.48 85.76-3.44L85.76-3.44Q85.76-7.25 87.80-12.39Q89.84-17.54 92.40-21.15L92.40-21.15Q98.16-29.32 101.21-29.32L101.21-29.32ZM100.33-26.07L100.33-26.07Q100.33-26.37 100.14-26.37L100.14-26.37Q99.45-26.37 96.54-22.46Q93.63-18.55 92.33-16.23Q91.04-13.91 89.88-10.39L89.88-10.39Q92.19-13.13 96.26-18.92Q100.33-24.71 100.33-26.07Z M108.05-21.45L108.05-21.45Q108.05-20.33 107.01-19.21Q105.98-18.09 104.85-18.09Q103.73-18.09 103.73-19.26Q103.73-20.43 104.72-21.49Q105.70-22.56 106.89-22.56L106.89-22.56Q107.42-22.56 107.73-22.27Q108.05-21.97 108.05-21.45ZM104.88-4.39L104.88-4.39Q104.88-3.81 104.77-3.55L104.77-3.55Q103.81-1.60 101.72-0.40Q99.63 0.80 98.09 0.80Q96.54 0.80 95.43-0.23Q94.32-1.27 94.32-2.34Q94.32-3.42 95.39-5.47Q96.46-7.52 97.54-9.26Q98.61-11.00 98.61-11.14Q98.61-11.29 98.21-11.72Q97.81-12.15 97.81-12.35Q97.81-12.56 98.62-13.43Q99.43-14.30 100.60-15.15Q101.76-16.00 102.37-16.00Q102.99-16.00 103.48-15.45Q103.96-14.90 103.96-14.45Q103.96-14.00 99.32-6.00L99.32-6.00Q99.26-5.88 98.99-5.48Q98.73-5.08 98.58-4.81Q98.44-4.55 98.24-4.18L98.24-4.18Q97.85-3.40 97.85-2.87L97.85-2.87Q97.85-2.21 98.75-2.21Q99.65-2.21 100.62-2.82Q101.58-3.44 102.29-4.18L102.29-4.18Q104.12-6.15 104.38-6.15L104.38-6.15Q104.88-6.15 104.88-4.39Z M119.51-27.87L119.51-27.87Q115.39-21.68 111.48-14.92L111.48-14.92Q112.38-15.39 113.51-15.60Q114.63-15.80 115.09-15.80Q115.55-15.80 115.88-15.77Q116.21-15.74 116.73-15.56Q117.25-15.37 117.62-15.04L117.62-15.04Q118.52-14.24 118.52-12.77Q118.52-11.31 117.72-9.56Q116.93-7.81 115.58-6.05Q114.22-4.30 112.61-2.78Q111.00-1.27 109.14-0.31Q107.29 0.64 105.68 0.64L105.68 0.64Q104.94 0.64 103.97-0.31Q103.01-1.27 103.01-2.83Q103.01-4.39 104.36-7.68Q105.70-10.96 107.63-14.35Q109.55-17.73 111.55-20.96Q113.55-24.18 114.96-26.23Q116.37-28.28 116.68-28.59Q116.99-28.91 117.82-29.12Q118.65-29.34 119.26-29.33Q119.86-29.32 119.86-28.77L119.86-28.77Q119.86-28.42 119.51-27.87ZM114.24-9.12L114.24-9.12Q115.04-10.53 115.04-11.68Q115.04-12.83 114.31-12.83Q113.57-12.83 112.06-12.20Q110.55-11.56 110.33-11.56Q110.12-11.56 109.77-11.91L109.77-11.91Q105.96-5.06 105.96-3.16L105.96-3.16Q105.96-2.29 106.52-2.29L106.52-2.29Q107.87-2.29 110.41-4.54Q112.95-6.80 114.24-9.12Z"/></g>
</svg>
</g><g opacity="1" transform="rotate(0 318.8209 127.6284)">
<svg width="20.0001" height="200" x="318.8209" y="127.6284" version="1.1" preserveAspectRatio="none" viewBox="92 20 16 160">
  <g transform="matrix(1 0 0 1 0 0)" ><g><path d="M100.4 20h-.8l-.539 41.348h1.878L100.4 20z" data-color="1" class="icon1"></path><path d="M101.37 65.03v-2.669h.74v-.998h-4.22v.998h.74v2.669h-2.403v1.227h7.546V65.03h-2.403z" data-color="1" class="icon1"></path><path d="M102.529 97.764h-5.058L95.124 180h9.752l-2.347-82.236z" data-color="1" class="icon1"></path><path d="M102.529 97.764h-1.913L101.35 180h3.526l-2.347-82.236z" opacity=".1"></path><path d="M103.599 94.727v3.05h-7.197v-3.05h7.197z" data-color="1" class="icon1"></path><path d="M103.598 94.727v3.05H100v-3.05h3.598z" opacity=".1"></path><path d="M103.599 95.949v.605h-7.197v-.605h7.197z" opacity=".2"></path><path d="M102.34 90.291v4.436h-4.681v-4.436h4.681z" data-color="1" class="icon1"></path><path d="M102.341 90.291v4.436h-1.724v-4.436h1.724z" opacity=".1"></path><path d="M108 83.394c0 4.383-3.582 7.936-8 7.936s-8-3.553-8-7.936 3.582-7.936 8-7.936 8 3.553 8 7.936z" data-color="2" class="icon2"></path><path d="M108 83.394c0 4.383-3.582 7.936-8 7.936s-8-3.553-8-7.936 3.582-7.936 8-7.936 8 3.553 8 7.936z" opacity=".4" data-color="1" class="icon1"></path><path opacity=".5" d="M95.842 80.606c-.806 1.447-1.054 2.092-1.879 1.865-.665-.183-.793-1.481.013-2.928.806-1.447 2.231-2.395 2.783-1.984.366.273-.111 1.6-.917 3.047z" data-color="1" class="icon1"></path><path opacity=".1" d="M108 83.394c0 4.383-3.582 7.936-8 7.936.781-1.151 2.42-3.567 2.769-7.936.37-4.63-.739-6.51-1.007-7.743 3.57.796 6.238 3.961 6.238 7.743z"></path><path d="M92.151 84.927a7.914 7.914 0 002.774 4.601h10.152a7.927 7.927 0 002.774-4.601h-15.7z" data-color="2" class="icon2"></path><path opacity=".3" d="M94.518 87.021h-.91l-1.041-1.64h1.058l.893 1.64zm.836-1.64h-1.058l.8 1.64h.91l-.652-1.64zm1.73 0h-1.058l.558 1.64h.91l-.41-1.64zm1.73 0h-1.058l.316 1.64h.91l-.168-1.64zm1.729 0h-1.058l.074 1.64h.91l.074-1.64zm1.73 0h-1.058l-.168 1.64h.91l.316-1.64zm1.729 0h-1.058l-.41 1.64h.91l.558-1.64zm1.73 0h-1.058l-.652 1.64h.91l.8-1.64zm1.73 0h-1.058l-.894 1.64h.91l1.042-1.64zm-12.357 2.717h-.813l.635 1h.722l-.544-1zm1.329 0h-.813l.488 1h.722l-.397-1zm1.329 0h-.813l.34 1h.722l-.249-1zm1.329 0h-.813l.193 1h.722l-.102-1zm1.329 0h-.813l.045 1h.722l.046-1zm1.329 0h-.813l-.102 1h.722l.193-1zm1.329 0h-.813l-.25 1h.723l.34-1zm1.328 0h-.813l-.398 1h.723l.488-1zm1.329 0h-.813l-.545 1h.723l.635-1z"></path><path d="M103.773 74.933v1.227h-7.546v-1.227h7.546z" data-color="1" class="icon1"></path><path d="M103.173 66.257v8.676h-6.345v-8.676h6.345z" data-color="1" class="icon1"></path><path d="M103.173 66.257v8.676h-6.345v-8.676h6.345z" opacity=".1"></path><path d="M100.814 66.685v2.142h-1.641v-2.142h1.641z" opacity=".3"></path><path d="M98.7 66.685v2.142h-.944v-2.142h.944z" opacity=".3"></path><path d="M97.386 66.685v2.142h-.295v-2.142h.295z" opacity=".3"></path><path d="M102.266 66.685v2.142h-.944v-2.142h.944z" opacity=".3"></path><path d="M102.93 66.685v2.142h-.295v-2.142h.295z" opacity=".3"></path><path d="M100.814 69.524v2.142h-1.641v-2.142h1.641z" opacity=".3"></path><path d="M98.7 69.524v2.142h-.944v-2.142h.944z" opacity=".3"></path><path d="M97.386 69.524v2.142h-.295v-2.142h.295z" opacity=".3"></path><path d="M102.266 69.524v2.142h-.944v-2.142h.944z" opacity=".3"></path><path d="M102.93 69.524v2.142h-.295v-2.142h.295z" opacity=".3"></path><path d="M100.814 72.363v2.142h-1.641v-2.142h1.641z" opacity=".3"></path><path d="M98.7 72.363v2.142h-.944v-2.142h.944z" opacity=".3"></path><path d="M97.386 72.363v2.142h-.295v-2.142h.295z" opacity=".3"></path><path d="M102.266 72.363v2.142h-.944v-2.142h.944z" opacity=".3"></path><path d="M102.93 72.363v2.142h-.295v-2.142h.295z" opacity=".3"></path><path d="M99.279 44.614l-.044 3.382h1.53l-.044-3.382h-1.442z" data-color="3" class="icon3"></path><path d="M99.2 50.727l-.045 3.381h1.69l-.044-3.381H99.2z" data-color="3" class="icon3"></path><path d="M100.916 59.61l-.044-3.382h-1.744l-.044 3.382h1.832z" data-color="3" class="icon3"></path><path d="M99.353 38.93l-.044 3.381h1.382l-.044-3.381h-1.294z" data-color="3" class="icon3"></path><path d="M99.6 20l-.053 4.034h.906L100.4 20h-.8z" data-color="3" class="icon3"></path><path d="M99.433 32.817l-.044 3.381h1.222l-.044-3.381h-1.134z" data-color="3" class="icon3"></path><path d="M99.509 26.949l-.044 3.381h1.07l-.044-3.381h-.982z" data-color="3" class="icon3"></path><path d="M101.37 65.03v-2.669h.74v-.998h-1.655v.998h-.201v2.715h.269v1.181h3.25V65.03h-2.403z" opacity=".15"></path><path d="M101.432 48.771v.998h-2.864v-.998h2.864z" data-color="1" class="icon1"></path><path d="M101.432 37.401v.998h-2.864v-.998h2.864z" data-color="1" class="icon1"></path><path d="M101.432 48.771v.998h-2.864v-.998h2.864z" opacity=".15"></path><path d="M101.432 37.401v.998h-2.864v-.998h2.864z" opacity=".15"></path></g></g>
</svg>
</g></svg></svg>