<svg version="1.1" preserveAspectRatio="none" xmlns="http://www.w3.org/2000/svg" width="500" height="500" viewBox="0 0 500 500"><rect width="100%" height="100%" fill="#F9F9F9" fill-opacity="1"/><svg viewBox="96.5803 241.7957 352.4888 257.7536" width="333" height="243.50262703382347" x="83.5px" y="128.2487px" xmlns="http://www.w3.org/2000/svg" xmlns:xlink="http://www.w3.org/1999/xlink" preserveAspectRatio="none"><defs></defs><style>.companyName {fill:#F3A7DC;fill-opacity:1;}.icon1 {fill:#DBDBDB;fill-opacity:1;}.icon2 {fill:#F3A7DC;fill-opacity:1;}.icon3 {fill:#E7E7E7;fill-opacity:1;}.icon3-str {stroke:#E7E7E7;stroke-opacity:1;}.text {fill:#A0A0A0;fill-opacity:1;}</style><g opacity="1" transform="rotate(0 158.4551 477.0493)">
<svg width="228.7392" height="22.5" x="158.4551" y="477.0493" version="1.1" preserveAspectRatio="none" viewBox="3.24 -31 396.04 38.96">
  <g transform="matrix(1 0 0 1 0 0)" class="text"><path id="id-6izo4zJp17" d="M13.52-17.20Q15.84-17.20 17.36-15.82Q18.88-14.44 18.92-12.24L18.92-12.24L18.92 0L15.16 0L15.16-10.96Q15.08-12.36 14.32-13.16Q13.56-13.96 12.04-14L12.04-14Q9.84-14 8.40-12.24Q6.96-10.48 6.96-7.76L6.96-7.76L6.96 0L3.24 0L3.24-16.56L6.60-16.56L6.84-13.36Q7.72-15.16 9.48-16.18Q11.24-17.20 13.52-17.20L13.52-17.20Z M27.92-8.44Q27.92-10.88 29.10-12.90Q30.28-14.92 32.38-16.08Q34.48-17.24 37.12-17.24L37.12-17.24Q39.76-17.24 41.82-16.08Q43.88-14.92 45.02-12.92Q46.16-10.92 46.16-8.44L46.16-8.44Q46.16-5.96 45.02-3.94Q43.88-1.92 41.80-0.76Q39.72 0.40 37.04 0.40L37.04 0.40Q34.44 0.40 32.36-0.70Q30.28-1.80 29.10-3.80Q27.92-5.80 27.92-8.44L27.92-8.44ZM31.68-8.40Q31.68-6.84 32.38-5.52Q33.08-4.20 34.30-3.44Q35.52-2.68 37-2.68L37-2.68Q39.32-2.68 40.84-4.32Q42.36-5.96 42.36-8.40L42.36-8.40Q42.36-10.84 40.84-12.50Q39.32-14.16 37-14.16L37-14.16Q35.48-14.16 34.28-13.38Q33.08-12.60 32.38-11.28Q31.68-9.96 31.68-8.40L31.68-8.40Z M56.76-23.84L60.52-23.84L60.52-16.52L65.04-16.52L65.04-13.56L60.52-13.56L60.52 0L56.76 0L56.76-13.56L53.72-13.56L53.72-16.52L56.76-16.52L56.76-23.84Z M103.76-16.56L107.20-16.56L107.20 0L103.48 0L103.48-2.72Q102.60-1.56 100.92-0.58Q99.24 0.40 97.12 0.40L97.12 0.40Q94.76 0.40 92.86-0.62Q90.96-1.64 89.86-3.60Q88.76-5.56 88.76-8.28L88.76-8.28Q88.76-11 89.90-13.02Q91.04-15.04 92.98-16.14Q94.92-17.24 97.28-17.24L97.28-17.24Q99.40-17.24 100.96-16.32Q102.52-15.40 103.48-13.92L103.48-13.92L103.76-16.56ZM98.12-2.68Q100.16-2.68 101.62-3.82Q103.08-4.96 103.48-6.92L103.48-6.92L103.48-10.20Q103-11.96 101.48-13.06Q99.96-14.16 98.00-14.16L98.00-14.16Q96.52-14.16 95.26-13.44Q94.00-12.72 93.26-11.42Q92.52-10.12 92.52-8.48L92.52-8.48Q92.52-6.88 93.28-5.56Q94.04-4.24 95.32-3.46Q96.60-2.68 98.12-2.68L98.12-2.68Z M117.68-31L121.40-31L121.40 0L117.68 0L117.68-31Z M130.44-8.44Q130.44-10.88 131.62-12.90Q132.80-14.92 134.90-16.08Q137-17.24 139.64-17.24L139.64-17.24Q142.28-17.24 144.34-16.08Q146.40-14.92 147.54-12.92Q148.68-10.92 148.68-8.44L148.68-8.44Q148.68-5.96 147.54-3.94Q146.40-1.92 144.32-0.76Q142.24 0.40 139.56 0.40L139.56 0.40Q136.96 0.40 134.88-0.70Q132.80-1.80 131.62-3.80Q130.44-5.80 130.44-8.44L130.44-8.44ZM134.20-8.40Q134.20-6.84 134.90-5.52Q135.60-4.20 136.82-3.44Q138.04-2.68 139.52-2.68L139.52-2.68Q141.84-2.68 143.36-4.32Q144.88-5.96 144.88-8.40L144.88-8.40Q144.88-10.84 143.36-12.50Q141.84-14.16 139.52-14.16L139.52-14.16Q138-14.16 136.80-13.38Q135.60-12.60 134.90-11.28Q134.20-9.96 134.20-8.40L134.20-8.40Z M167.96-17.20Q170.28-17.20 171.80-15.82Q173.32-14.44 173.36-12.24L173.36-12.24L173.36 0L169.60 0L169.60-10.96Q169.52-12.36 168.76-13.16Q168.00-13.96 166.48-14L166.48-14Q164.28-14 162.84-12.24Q161.40-10.48 161.40-7.76L161.40-7.76L161.40 0L157.68 0L157.68-16.56L161.04-16.56L161.28-13.36Q162.16-15.16 163.92-16.18Q165.68-17.20 167.96-17.20L167.96-17.20Z M191.56-2.80Q193.64-2.80 195.60-4.24L195.60-4.24L197.32-1.48Q196.00-0.60 194.46-0.10Q192.92 0.40 191.48 0.40L191.48 0.40Q188.72 0.40 186.66-0.74Q184.60-1.88 183.48-3.88Q182.36-5.88 182.36-8.40L182.36-8.40Q182.36-10.84 183.58-12.86Q184.80-14.88 186.92-16.06Q189.04-17.24 191.56-17.24L191.56-17.24Q194.80-17.24 196.98-15.34Q199.16-13.44 199.96-10.04L199.96-10.04L186.84-5.44Q187.56-4.20 188.78-3.50Q190.00-2.80 191.56-2.80L191.56-2.80ZM191.28-14.28Q189.00-14.28 187.52-12.68Q186.04-11.08 186.04-8.60L186.04-8.60Q186.04-8 186.08-7.68L186.08-7.68L195.72-11.24Q195.12-12.60 194.02-13.44Q192.92-14.28 191.28-14.28L191.28-14.28Z M238.80-16.56L242.24-16.56L242.24 0L238.52 0L238.52-2.72Q237.64-1.56 235.96-0.58Q234.28 0.40 232.16 0.40L232.16 0.40Q229.80 0.40 227.90-0.62Q226.00-1.64 224.90-3.60Q223.80-5.56 223.80-8.28L223.80-8.28Q223.80-11 224.94-13.02Q226.08-15.04 228.02-16.14Q229.96-17.24 232.32-17.24L232.32-17.24Q234.44-17.24 236.00-16.32Q237.56-15.40 238.52-13.92L238.52-13.92L238.80-16.56ZM233.16-2.68Q235.20-2.68 236.66-3.82Q238.12-4.96 238.52-6.92L238.52-6.92L238.52-10.20Q238.04-11.96 236.52-13.06Q235.00-14.16 233.04-14.16L233.04-14.16Q231.56-14.16 230.30-13.44Q229.04-12.72 228.30-11.42Q227.56-10.12 227.56-8.48L227.56-8.48Q227.56-6.88 228.32-5.56Q229.08-4.24 230.36-3.46Q231.64-2.68 233.16-2.68L233.16-2.68Z M263.00-17.20Q265.32-17.20 266.84-15.82Q268.36-14.44 268.40-12.24L268.40-12.24L268.40 0L264.64 0L264.64-10.96Q264.56-12.36 263.80-13.16Q263.04-13.96 261.52-14L261.52-14Q259.32-14 257.88-12.24Q256.44-10.48 256.44-7.76L256.44-7.76L256.44 0L252.72 0L252.72-16.56L256.08-16.56L256.32-13.36Q257.20-15.16 258.96-16.18Q260.72-17.20 263.00-17.20L263.00-17.20Z M290.56-16.56L294-16.56L283.32 7.96L279.64 7.96L283.44-0.56L275.76-16.56L279.96-16.56L285.32-4.76L290.56-16.56Z M323.24-17.24Q325.64-17.24 327.06-15.88Q328.48-14.52 328.56-12.28L328.56-12.28L328.56 0L324.84 0L324.84-10.92Q324.72-13.84 322.20-14L322.20-14Q320.76-14 319.62-13.14Q318.48-12.28 317.84-10.88Q317.20-9.48 317.16-7.88L317.16-7.88L317.16 0L313.40 0L313.40-10.92Q313.28-13.84 310.68-14L310.68-14Q309.28-14 308.14-13.14Q307-12.28 306.36-10.86Q305.72-9.44 305.72-7.84L305.72-7.84L305.72 0L302 0L302-16.56L305.36-16.56L305.64-13.44Q306.60-15.24 308.26-16.24Q309.92-17.24 312.04-17.24L312.04-17.24Q314.04-17.24 315.40-16.30Q316.76-15.36 317.16-13.72L317.16-13.72Q318.20-15.36 319.80-16.30Q321.40-17.24 323.24-17.24L323.24-17.24Z M337.56-8.44Q337.56-10.88 338.74-12.90Q339.92-14.92 342.02-16.08Q344.12-17.24 346.76-17.24L346.76-17.24Q349.40-17.24 351.46-16.08Q353.52-14.92 354.66-12.92Q355.80-10.92 355.80-8.44L355.80-8.44Q355.80-5.96 354.66-3.94Q353.52-1.92 351.44-0.76Q349.36 0.40 346.68 0.40L346.68 0.40Q344.08 0.40 342-0.70Q339.92-1.80 338.74-3.80Q337.56-5.80 337.56-8.44L337.56-8.44ZM341.32-8.40Q341.32-6.84 342.02-5.52Q342.72-4.20 343.94-3.44Q345.16-2.68 346.64-2.68L346.64-2.68Q348.96-2.68 350.48-4.32Q352-5.96 352-8.40L352-8.40Q352-10.84 350.48-12.50Q348.96-14.16 346.64-14.16L346.64-14.16Q345.12-14.16 343.92-13.38Q342.72-12.60 342.02-11.28Q341.32-9.96 341.32-8.40L341.32-8.40Z M368.40-12.64Q369.04-14 370.22-15.04Q371.40-16.08 372.72-16.64Q374.04-17.20 375.04-17.24L375.04-17.24L374.88-13.52Q373.08-13.60 371.62-12.80Q370.16-12 369.34-10.58Q368.52-9.16 368.52-7.56L368.52-7.56L368.52 0L364.80 0L364.80-16.56L368.12-16.56L368.40-12.64Z M390.88-2.80Q392.96-2.80 394.92-4.24L394.92-4.24L396.64-1.48Q395.32-0.60 393.78-0.10Q392.24 0.40 390.80 0.40L390.80 0.40Q388.04 0.40 385.98-0.74Q383.92-1.88 382.80-3.88Q381.68-5.88 381.68-8.40L381.68-8.40Q381.68-10.84 382.90-12.86Q384.12-14.88 386.24-16.06Q388.36-17.24 390.88-17.24L390.88-17.24Q394.12-17.24 396.30-15.34Q398.48-13.44 399.28-10.04L399.28-10.04L386.16-5.44Q386.88-4.20 388.10-3.50Q389.32-2.80 390.88-2.80L390.88-2.80ZM390.60-14.28Q388.32-14.28 386.84-12.68Q385.36-11.08 385.36-8.60L385.36-8.60Q385.36-8 385.40-7.68L385.40-7.68L395.04-11.24Q394.44-12.60 393.34-13.44Q392.24-14.28 390.60-14.28L390.60-14.28Z"/></g>
</svg>
</g><g opacity="1" transform="rotate(0 96.5803 409.0493)">
<svg width="352.4888" height="50" x="96.5803" y="409.0493" version="1.1" preserveAspectRatio="none" viewBox="1.04 -28.48 204.16000000000003 28.96">
  <g transform="matrix(1 0 0 1 0 0)" class="companyName"><path id="id-D6z1nYkh8" d="M3.48-26Q3.48-26.44 3.30-26.60Q3.12-26.76 2.52-26.88L2.52-26.88L1.04-27.20L1.04-28L14.32-28L14.32-27.20L12.60-26.84Q12-26.72 11.82-26.56Q11.64-26.40 11.64-25.96L11.64-25.96L11.64-1.20L16.68-1.20Q19.04-1.20 20.36-1.92Q21.68-2.64 22.42-3.96Q23.16-5.28 24.08-7.96L24.08-7.96L25.20-7.96L25.20 0L1.04 0L1.04-0.80L2.52-1.12Q3.12-1.24 3.30-1.40Q3.48-1.56 3.48-2L3.48-2L3.48-26Z M53.72-10.40Q53.64-5.36 51-2.44Q48.36 0.48 42.48 0.48L42.48 0.48Q36.08 0.48 33.02-2.12Q29.96-4.72 29.96-10.56L29.96-10.56L29.96-26Q29.96-26.44 29.78-26.60Q29.60-26.76 29-26.88L29-26.88L27.52-27.20L27.52-28L40.48-28L40.48-27.20L39.04-26.88Q38.48-26.76 38.30-26.62Q38.12-26.48 38.12-26.04L38.12-26.04L38.12-9.84Q38.12-6.44 38.60-4.56Q39.08-2.68 40.46-1.78Q41.84-0.88 44.52-0.88L44.52-0.88Q48.36-0.88 50.40-3.40Q52.44-5.92 52.44-10.08L52.44-10.08L52.44-26Q52.44-26.44 52.26-26.60Q52.08-26.76 51.48-26.88L51.48-26.88L50-27.20L50-28L56.08-28L56.08-27.20L54.64-26.88Q54.08-26.76 53.90-26.62Q53.72-26.48 53.72-26.04L53.72-26.04L53.72-10.40Z M77.12-1.52Q79.32-1.52 81.10-2.24Q82.88-2.96 84.48-4.24L84.48-4.24L85.28-3.36Q83.52-1.72 80.70-0.62Q77.88 0.48 74.48 0.48L74.48 0.48Q67.76 0.48 63.44-3.06Q59.12-6.60 59.12-14.40L59.12-14.40Q59.12-21.64 63.42-25.06Q67.72-28.48 74.68-28.48L74.68-28.48Q77.48-28.48 80.20-27.96Q82.92-27.44 84.48-26.68L84.48-26.68L83.92-19.80L82.80-19.80Q81.68-23.20 79.78-25.26Q77.88-27.32 74.72-27.32L74.72-27.32Q71.08-27.32 69.50-24.34Q67.92-21.36 67.92-15.44L67.92-15.44Q67.92-8.44 69.96-4.98Q72-1.52 77.12-1.52L77.12-1.52Z M90.68-26Q90.68-26.44 90.50-26.60Q90.32-26.76 89.72-26.88L89.72-26.88L88.24-27.20L88.24-28L101.28-28L101.28-27.20L99.80-26.88Q99.20-26.76 99.02-26.60Q98.84-26.44 98.84-26L98.84-26L98.84-2Q98.84-1.56 99.02-1.40Q99.20-1.24 99.80-1.12L99.80-1.12L101.28-0.80L101.28 0L88.24 0L88.24-0.80L89.72-1.12Q90.32-1.24 90.50-1.40Q90.68-1.56 90.68-2L90.68-2L90.68-26Z M103.52-0.80L105.00-1.12Q105.60-1.24 105.78-1.40Q105.96-1.56 105.96-2L105.96-2L105.96-26Q105.96-26.44 105.78-26.60Q105.60-26.76 105.00-26.88L105.00-26.88L103.52-27.20L103.52-28L115.76-28Q124.16-28 128.56-24.84Q132.96-21.68 132.96-14L132.96-14Q132.96-6.32 128.56-3.16Q124.16 0 115.76 0L115.76 0L103.52 0L103.52-0.80ZM114.12-26.80L114.12-1.20L115.76-1.20Q119.08-1.20 120.88-2.38Q122.68-3.56 123.40-6.28Q124.12-9 124.12-14L124.12-14Q124.12-19 123.40-21.72Q122.68-24.44 120.88-25.62Q119.08-26.80 115.76-26.80L115.76-26.80L114.12-26.80Z M138.68-26Q138.68-26.44 138.50-26.60Q138.32-26.76 137.72-26.88L137.72-26.88L136.24-27.20L136.24-28L149.52-28L149.52-27.20L147.80-26.84Q147.20-26.72 147.02-26.56Q146.84-26.40 146.84-25.96L146.84-25.96L146.84-1.20L151.88-1.20Q154.24-1.20 155.56-1.92Q156.88-2.64 157.62-3.96Q158.36-5.28 159.28-7.96L159.28-7.96L160.40-7.96L160.40 0L136.24 0L136.24-0.80L137.72-1.12Q138.32-1.24 138.50-1.40Q138.68-1.56 138.68-2L138.68-2L138.68-26Z M165.56-26Q165.56-26.44 165.38-26.60Q165.20-26.76 164.60-26.88L164.60-26.88L163.12-27.20L163.12-28L176.16-28L176.16-27.20L174.68-26.88Q174.08-26.76 173.90-26.60Q173.72-26.44 173.72-26L173.72-26L173.72-2Q173.72-1.56 173.90-1.40Q174.08-1.24 174.68-1.12L174.68-1.12L176.16-0.80L176.16 0L163.12 0L163.12-0.80L164.60-1.12Q165.20-1.24 165.38-1.40Q165.56-1.56 165.56-2L165.56-2L165.56-26Z M190.68-28Q195.52-28 198.34-27.36Q201.16-26.72 202.42-25.32Q203.68-23.92 203.68-21.52L203.68-21.52Q203.68-18.32 201.76-16.80Q199.84-15.28 195.64-14.84L195.64-14.84Q199.08-14.56 201.16-13.76Q203.24-12.96 204.22-11.42Q205.20-9.88 205.20-7.36L205.20-7.36Q205.20-4.56 203.68-2.96Q202.16-1.36 198.98-0.68Q195.80 0 190.44 0L190.44 0L178.40 0L178.40-0.80L179.88-1.12Q180.48-1.24 180.66-1.40Q180.84-1.56 180.84-2L180.84-2L180.84-26Q180.84-26.44 180.66-26.60Q180.48-26.76 179.88-26.88L179.88-26.88L178.40-27.20L178.40-28L190.68-28ZM189-15.36L190.96-15.36Q193.44-15.36 194.64-16.88Q195.84-18.40 195.84-21.52L195.84-21.52Q195.84-24.20 194.66-25.50Q193.48-26.80 190.96-26.80L190.96-26.80L189-26.80L189-15.36ZM189-14.16L189-1.20L190.80-1.20Q196.96-1.20 196.96-7.36L196.96-7.36Q196.96-10.96 195.68-12.56Q194.40-14.16 191.12-14.16L191.12-14.16L189-14.16Z"/></g>
</svg>
</g><g opacity="1" transform="rotate(0 184.7025 241.7957)">
<svg width="176.2444" height="137.2536" x="184.7025" y="241.7957" version="1.1" preserveAspectRatio="none" viewBox="43.5 55.99999237060547 112.99899291992188 88.0000228881836">
  <g transform="matrix(1 0 0 1 0 0)" ><g><path d="M70.681 61.009H55.257a2.375 2.375 0 0 0-2.382 2.368v8.248a2.375 2.375 0 0 0 2.382 2.368h15.424a2.375 2.375 0 0 0 2.382-2.368v-8.248a2.375 2.375 0 0 0-2.382-2.368z" data-color="1" class="icon1"></path><path d="M153.128 144H46.872a3.362 3.362 0 0 1-3.372-3.353V71.88a3.362 3.362 0 0 1 3.327-3.353l31.057-.419 2.12-9.482A3.367 3.367 0 0 1 83.296 56h34.2a3.37 3.37 0 0 1 3.279 2.568l2.303 9.504h30.049a3.362 3.362 0 0 1 3.372 3.353v69.221a3.361 3.361 0 0 1-3.371 3.354zm-102.883-6.707h99.51V74.779h-29.334a3.37 3.37 0 0 1-3.279-2.568l-2.303-9.504H86.002l-2.112 9.446a3.37 3.37 0 0 1-3.246 2.626l-30.399.409v62.105z" data-color="2" class="icon2"></path><path d="M139.6 86.604c0 2.28-1.859 4.129-4.152 4.129s-4.152-1.849-4.152-4.129c0-2.28 1.859-4.129 4.152-4.129s4.152 1.849 4.152 4.129z" data-color="2" class="icon2"></path><path d="M100 132.219c-14.635 0-26.541-11.838-26.541-26.389S85.366 79.441 100 79.441s26.54 11.838 26.54 26.389-11.905 26.389-26.54 26.389zm0-46.742c-11.287 0-20.471 9.131-20.471 20.353s9.183 20.353 20.471 20.353 20.469-9.131 20.469-20.353S111.288 85.477 100 85.477z" data-color="2" class="icon2"></path><path d="M115.422 105.83c0 8.469-6.905 15.334-15.422 15.334s-15.422-6.865-15.422-15.334S91.483 90.496 100 90.496s15.422 6.865 15.422 15.334z" data-color="1" class="icon1"></path></g></g>
</svg>
</g></svg></svg>