<svg version="1.1" preserveAspectRatio="none" xmlns="http://www.w3.org/2000/svg" width="500" height="500" viewBox="0 0 500 500"><rect width="100%" height="100%" fill="#FFFFFF" fill-opacity="1"/><svg viewBox="88.8661 116.9235 372.2482 227.04" width="333" height="203.10190888767227" x="83.5px" y="148.449px" xmlns="http://www.w3.org/2000/svg" xmlns:xlink="http://www.w3.org/1999/xlink" preserveAspectRatio="none"><defs></defs><style>.companyName {fill:#285380;fill-opacity:1;}.icon3 {fill:#E7A0AE;fill-opacity:1;}.icon3-str {stroke:#E7A0AE;stroke-opacity:1;}.shape {fill:#F9E9ED;fill-opacity:1;}.text {fill:#285380;fill-opacity:1;}</style><g opacity="1" transform="rotate(0 148.3403 116.9235)">
<svg width="253.2999" height="227.04" x="148.3403" y="116.9235" version="1.1" preserveAspectRatio="none" viewBox="5.976081848144531 15.80335807800293 188.02392578125 168.53155517578125">
  <g transform="matrix(1 0 0 1 0 0)" ><g><path d="M91.052 173.189C119.033 208.059 194 154.166 194 107.109 194 72.067 160 19 113.041 16 71.147 13.324 9.093 38.026 6.094 86.084S58 132 91.052 173.189z" data-color="1" class="shape"></path></g></g>
</svg>
</g><g opacity="1" transform="rotate(0 160.5837 269.8435)">
<svg width="228.8131" height="13.2" x="160.5837" y="269.8435" version="1.1" preserveAspectRatio="none" viewBox="4.2 -28.32 496.44 28.64">
  <g transform="matrix(1 0 0 1 0 0)" class="text"><path id="id-6izo4zJp17" d="M24.28-28L28.28-28L28.28 0L25 0L8.20-20.88L8.20 0L4.20 0L4.20-28L7.48-28L24.28-7.12L24.28-28Z M51.32 0.32Q47.08 0.32 43.68-1.54Q40.28-3.40 38.34-6.68Q36.40-9.96 36.40-14L36.40-14Q36.40-18.04 38.34-21.32Q40.28-24.60 43.68-26.46Q47.08-28.32 51.32-28.32L51.32-28.32Q55.52-28.32 58.92-26.46Q62.32-24.60 64.24-21.34Q66.16-18.08 66.16-14L66.16-14Q66.16-9.92 64.24-6.66Q62.32-3.40 58.92-1.54Q55.52 0.32 51.32 0.32L51.32 0.32ZM51.32-3.24Q54.40-3.24 56.86-4.64Q59.32-6.04 60.74-8.50Q62.16-10.96 62.16-14L62.16-14Q62.16-17.04 60.74-19.50Q59.32-21.96 56.86-23.36Q54.40-24.76 51.32-24.76L51.32-24.76Q48.24-24.76 45.74-23.36Q43.24-21.96 41.82-19.50Q40.40-17.04 40.40-14L40.40-14Q40.40-10.96 41.82-8.50Q43.24-6.04 45.74-4.64Q48.24-3.24 51.32-3.24L51.32-3.24Z M79.44 0L79.44-24.52L69.84-24.52L69.84-28L93-28L93-24.52L83.40-24.52L83.40 0L79.44 0Z M133.04 0L129.96-7L115.08-7L112.00 0L107.88 0L120.56-28L124.52-28L137.24 0L133.04 0ZM116.48-10.20L128.56-10.20L122.52-23.92L116.48-10.20Z M143.40 0L143.40-28L147.40-28L147.40-3.48L162.56-3.48L162.56 0L143.40 0Z M181.28 0.32Q177.04 0.32 173.64-1.54Q170.24-3.40 168.30-6.68Q166.36-9.96 166.36-14L166.36-14Q166.36-18.04 168.30-21.32Q170.24-24.60 173.64-26.46Q177.04-28.32 181.28-28.32L181.28-28.32Q185.48-28.32 188.88-26.46Q192.28-24.60 194.20-21.34Q196.12-18.08 196.12-14L196.12-14Q196.12-9.92 194.20-6.66Q192.28-3.40 188.88-1.54Q185.48 0.32 181.28 0.32L181.28 0.32ZM181.28-3.24Q184.36-3.24 186.82-4.64Q189.28-6.04 190.70-8.50Q192.12-10.96 192.12-14L192.12-14Q192.12-17.04 190.70-19.50Q189.28-21.96 186.82-23.36Q184.36-24.76 181.28-24.76L181.28-24.76Q178.20-24.76 175.70-23.36Q173.20-21.96 171.78-19.50Q170.36-17.04 170.36-14L170.36-14Q170.36-10.96 171.78-8.50Q173.20-6.04 175.70-4.64Q178.20-3.24 181.28-3.24L181.28-3.24Z M224.32-28L228.32-28L228.32 0L225.04 0L208.24-20.88L208.24 0L204.24 0L204.24-28L207.52-28L224.32-7.12L224.32-28Z M242.72-3.48L259.04-3.48L259.04 0L238.72 0L238.72-28L258.48-28L258.48-24.52L242.72-24.52L242.72-15.92L256.76-15.92L256.76-12.52L242.72-12.52L242.72-3.48Z M301.20 0L298.12-7L283.24-7L280.16 0L276.04 0L288.72-28L292.68-28L305.40 0L301.20 0ZM284.64-10.20L296.72-10.20L290.68-23.92L284.64-10.20Z M331.64-28L335.64-28L335.64 0L332.36 0L315.56-20.88L315.56 0L311.56 0L311.56-28L314.84-28L331.64-7.12L331.64-28Z M367.88-28L356.76-9.68L356.76 0L352.80 0L352.80-9.76L341.68-28L345.96-28L354.92-13.24L363.92-28L367.88-28Z M403.24 0L399.40 0L399.36-20.40L389.24-3.40L387.40-3.40L377.28-20.28L377.28 0L373.44 0L373.44-28L376.72-28L388.40-8.32L399.92-28L403.20-28L403.24 0Z M426.28 0.32Q422.04 0.32 418.64-1.54Q415.24-3.40 413.30-6.68Q411.36-9.96 411.36-14L411.36-14Q411.36-18.04 413.30-21.32Q415.24-24.60 418.64-26.46Q422.04-28.32 426.28-28.32L426.28-28.32Q430.48-28.32 433.88-26.46Q437.28-24.60 439.20-21.34Q441.12-18.08 441.12-14L441.12-14Q441.12-9.92 439.20-6.66Q437.28-3.40 433.88-1.54Q430.48 0.32 426.28 0.32L426.28 0.32ZM426.28-3.24Q429.36-3.24 431.82-4.64Q434.28-6.04 435.70-8.50Q437.12-10.96 437.12-14L437.12-14Q437.12-17.04 435.70-19.50Q434.28-21.96 431.82-23.36Q429.36-24.76 426.28-24.76L426.28-24.76Q423.20-24.76 420.70-23.36Q418.20-21.96 416.78-19.50Q415.36-17.04 415.36-14L415.36-14Q415.36-10.96 416.78-8.50Q418.20-6.04 420.70-4.64Q423.20-3.24 426.28-3.24L426.28-3.24Z M472.32 0L467.96 0L461.92-8.60Q460.80-8.52 460.16-8.52L460.16-8.52L453.24-8.52L453.24 0L449.24 0L449.24-28L460.16-28Q465.60-28 468.72-25.40Q471.84-22.80 471.84-18.24L471.84-18.24Q471.84-15 470.24-12.72Q468.64-10.44 465.68-9.40L465.68-9.40L472.32 0ZM460.04-11.92Q463.84-11.92 465.84-13.56Q467.84-15.20 467.84-18.24L467.84-18.24Q467.84-21.28 465.84-22.90Q463.84-24.52 460.04-24.52L460.04-24.52L453.24-24.52L453.24-11.92L460.04-11.92Z M484.32-3.48L500.64-3.48L500.64 0L480.32 0L480.32-28L500.08-28L500.08-24.52L484.32-24.52L484.32-15.92L498.36-15.92L498.36-12.52L484.32-12.52L484.32-3.48Z"/></g>
</svg>
</g><g opacity="1" transform="rotate(0 88.8661 179.8435)">
<svg width="372.2482" height="60" x="88.8661" y="179.8435" version="1.1" preserveAspectRatio="none" viewBox="-1.4 -28.88 182.64 29.44">
  <g transform="matrix(1 0 0 1 0 0)" class="companyName"><path id="id-D6z1nYkh8" d="M21.40-8.40Q21.12-7.64 20.40-5.12L20.40-5.12Q19.76-2.88 19.32 0L19.32 0Q16.60-0.12 10.16-0.12L10.16-0.12Q2.48-0.12-1.40 0L-1.40 0L-1.20-0.80Q0.24-0.88 0.94-1.12Q1.64-1.36 2.08-2.04Q2.52-2.72 2.92-4.24L2.92-4.24L8.24-24.08Q8.60-25.36 8.60-26.04L8.60-26.04Q8.60-26.88 8.02-27.16Q7.44-27.44 5.92-27.52L5.92-27.52L6.12-28.32Q7.80-28.20 11.24-28.20L11.24-28.20Q14.48-28.20 16.32-28.32L16.32-28.32L16.12-27.52Q14.64-27.44 13.94-27.20Q13.24-26.96 12.80-26.28Q12.36-25.60 11.96-24.08L11.96-24.08L6.64-4.24Q6.28-3 6.28-2.28L6.28-2.28Q6.28-1.44 6.88-1.18Q7.48-0.92 9-0.92L9-0.92L11.92-0.92Q14.40-0.92 15.90-1.62Q17.40-2.32 18.40-3.88Q19.40-5.44 20.48-8.40L20.48-8.40L21.40-8.40Z M48.68-23.68Q48.96-24.68 48.96-25.44L48.96-25.44Q48.96-26.56 48.28-27Q47.60-27.44 46-27.52L46-27.52L46.20-28.32Q47.60-28.20 50.24-28.20L50.24-28.20Q52.60-28.20 54-28.32L54-28.32L53.80-27.52Q52.40-27.44 51.62-27.10Q50.84-26.76 50.38-25.98Q49.92-25.20 49.56-23.68L49.56-23.68L46.44-11.64Q45-6.12 42.52-3.16L42.52-3.16Q41.04-1.44 38.90-0.44Q36.76 0.56 34.32 0.56L34.32 0.56Q30.04 0.56 28.16-1.60L28.16-1.60Q27.44-2.44 27.10-3.42Q26.76-4.40 26.76-5.68L26.76-5.68Q26.76-7.84 27.76-11.52L27.76-11.52L31.08-24.08Q31.40-25.44 31.40-26L31.40-26Q31.40-26.88 30.82-27.16Q30.24-27.44 28.72-27.52L28.72-27.52L28.96-28.32Q30.56-28.20 34.12-28.20L34.12-28.20Q37.20-28.20 39.12-28.32L39.12-28.32L38.88-27.52Q37.40-27.44 36.70-27.20Q36-26.96 35.58-26.28Q35.16-25.60 34.76-24.08L34.76-24.08L31.24-10.84Q30.36-7.44 30.36-5.44L30.36-5.44Q30.36-3.24 31.46-2.04Q32.56-0.84 35.08-0.84L35.08-0.84Q39.28-0.84 41.70-3.56Q44.12-6.28 45.40-11.20L45.40-11.20L48.68-23.68Z M79.20-28.32Q77.88-24.88 76.64-19.12L76.64-19.12L75.76-19.12Q76-20.68 76-21.88L76-21.88Q76-23.80 75.36-25.04L75.36-25.04Q74.64-26.52 73.22-27.34Q71.80-28.16 70.12-28.16L70.12-28.16Q66.80-28.16 63.70-25.04Q60.60-21.92 58.68-17.18Q56.76-12.44 56.76-8L56.76-8Q56.76-4.16 58.28-2.16Q59.80-0.16 62.48-0.16L62.48-0.16Q64.24-0.16 66.20-0.98Q68.16-1.80 69.60-3.28L69.60-3.28Q70.64-4.32 71.40-5.70Q72.16-7.08 73.20-9.60L73.20-9.60L74.08-9.60Q72.20-2.68 71.72 0L71.72 0L70.84 0Q70.96-0.84 70.96-1.36L70.96-1.36Q70.96-2.40 70.48-2.40L70.48-2.40Q70.20-2.40 69.64-2.04L69.64-2.04Q67.56-0.68 66-0.06Q64.44 0.56 62.08 0.56L62.08 0.56Q57.64 0.56 55.20-1.84Q52.76-4.24 52.76-8.84L52.76-8.84Q52.76-13.44 55.06-18.12Q57.36-22.80 61.38-25.84Q65.40-28.88 70.20-28.88L70.20-28.88Q72.52-28.88 73.74-28.22Q74.96-27.56 76.16-26.28L76.16-26.28Q76.44-25.92 76.76-25.92L76.76-25.92Q77.12-25.92 77.50-26.50Q77.88-27.08 78.36-28.32L78.36-28.32L79.20-28.32Z M84.16-4.24Q83.80-2.72 83.80-2.28L83.80-2.28Q83.80-1.44 84.38-1.16Q84.96-0.88 86.52-0.80L86.52-0.80L86.36 0Q84.52-0.12 81.28-0.12L81.28-0.12Q77.92-0.12 76.20 0L76.20 0L76.40-0.80Q77.80-0.88 78.50-1.12Q79.20-1.36 79.62-2.06Q80.04-2.76 80.44-4.24L80.44-4.24L85.72-24.08Q86.04-25.44 86.04-26L86.04-26Q86.04-26.88 85.46-27.16Q84.88-27.44 83.36-27.52L83.36-27.52L83.56-28.32Q85.20-28.20 88.64-28.20L88.64-28.20Q91.84-28.20 93.76-28.32L93.76-28.32L93.56-27.52Q92.08-27.44 91.38-27.20Q90.68-26.96 90.26-26.28Q89.84-25.60 89.44-24.08L89.44-24.08L84.16-4.24Z M119.32-19.48Q119.32-14.48 116.84-9.98Q114.36-5.48 110.02-2.74Q105.68 0 100.36 0L100.36 0L98.04-0.04Q95.80-0.12 94.76-0.12L94.76-0.12Q91.52-0.12 89.96 0L89.96 0L90.08-0.80Q91.44-0.88 92.14-1.12Q92.84-1.36 93.26-2.06Q93.68-2.76 94.08-4.24L94.08-4.24L99.32-24.08Q99.68-25.60 99.68-26.04L99.68-26.04Q99.68-26.84 99.10-27.16Q98.52-27.48 97-27.52L97-27.52L97.12-28.32Q98.48-28.20 101-28.20L101-28.20L104.40-28.24Q107.12-28.32 108.04-28.32L108.04-28.32Q113.68-28.32 116.50-26.08Q119.32-23.84 119.32-19.48L119.32-19.48ZM99.88-0.72Q104.84-0.72 108.36-3.42Q111.88-6.12 113.68-10.64Q115.48-15.16 115.48-20.48L115.48-20.48Q115.48-24.12 113.44-25.86Q111.40-27.60 106.92-27.60L106.92-27.60Q105.68-27.60 104.98-27.32Q104.28-27.04 103.84-26.32Q103.40-25.60 103.04-24.16L103.04-24.16L97.80-4.16Q97.44-2.72 97.44-2.20L97.44-2.20Q97.44-1.44 97.98-1.08Q98.52-0.72 99.88-0.72L99.88-0.72Z M141.56-8.40Q141.28-7.64 140.56-5.12L140.56-5.12Q139.92-2.88 139.48 0L139.48 0Q136.76-0.12 130.32-0.12L130.32-0.12Q122.64-0.12 118.76 0L118.76 0L118.96-0.80Q120.40-0.88 121.10-1.12Q121.80-1.36 122.24-2.04Q122.68-2.72 123.08-4.24L123.08-4.24L128.40-24.08Q128.76-25.36 128.76-26.04L128.76-26.04Q128.76-26.88 128.18-27.16Q127.60-27.44 126.08-27.52L126.08-27.52L126.28-28.32Q127.96-28.20 131.40-28.20L131.40-28.20Q134.64-28.20 136.48-28.32L136.48-28.32L136.28-27.52Q134.80-27.44 134.10-27.20Q133.40-26.96 132.96-26.28Q132.52-25.60 132.12-24.08L132.12-24.08L126.80-4.24Q126.44-3 126.44-2.28L126.44-2.28Q126.44-1.44 127.04-1.18Q127.64-0.92 129.16-0.92L129.16-0.92L132.08-0.92Q134.56-0.92 136.06-1.62Q137.56-2.32 138.56-3.88Q139.56-5.44 140.64-8.40L140.64-8.40L141.56-8.40Z M150.24-4.24Q149.88-2.72 149.88-2.28L149.88-2.28Q149.88-1.44 150.46-1.16Q151.04-0.88 152.60-0.80L152.60-0.80L152.44 0Q150.60-0.12 147.36-0.12L147.36-0.12Q144-0.12 142.28 0L142.28 0L142.48-0.80Q143.88-0.88 144.58-1.12Q145.28-1.36 145.70-2.06Q146.12-2.76 146.52-4.24L146.52-4.24L151.80-24.08Q152.12-25.44 152.12-26L152.12-26Q152.12-26.88 151.54-27.16Q150.96-27.44 149.44-27.52L149.44-27.52L149.64-28.32Q151.28-28.20 154.72-28.20L154.72-28.20Q157.92-28.20 159.84-28.32L159.84-28.32L159.64-27.52Q158.16-27.44 157.46-27.20Q156.76-26.96 156.34-26.28Q155.92-25.60 155.52-24.08L155.52-24.08L150.24-4.24Z M173.04-14.96Q176.52-14.40 178.06-12.68Q179.60-10.96 179.60-8.44L179.60-8.44Q179.60-5.72 177.88-3.82Q176.16-1.92 173.42-0.96Q170.68 0 167.68 0L167.68 0L164.76-0.04Q162.36-0.12 160.80-0.12L160.80-0.12Q157.60-0.12 155.92 0L155.92 0L156.08-0.80Q157.52-0.88 158.24-1.12Q158.96-1.36 159.38-2.04Q159.80-2.72 160.20-4.24L160.20-4.24L165.48-24.08Q165.80-25.28 165.80-26L165.80-26Q165.80-26.76 165.22-27.12Q164.64-27.48 163.12-27.52L163.12-27.52L163.32-28.32Q164.92-28.20 168.08-28.20L168.08-28.20Q169.88-28.20 170.80-28.24L170.80-28.24L173.72-28.28Q177.44-28.28 179.34-26.92Q181.24-25.56 181.24-23.16L181.24-23.16Q181.24-20.28 178.86-18.16Q176.48-16.04 173.04-14.96L173.04-14.96ZM169.32-24.68L166.76-15.04L169.40-15.04Q171.76-15.04 173.54-16.12Q175.32-17.20 176.30-19Q177.28-20.80 177.28-22.88L177.28-22.88Q177.28-25.24 176.24-26.38Q175.20-27.52 172.96-27.52L172.96-27.52Q171.20-27.52 170.48-26.96Q169.76-26.40 169.32-24.68L169.32-24.68ZM165.96-0.92Q171.04-0.92 173.32-2.98Q175.60-5.04 175.60-9.04L175.60-9.04Q175.60-14.36 169.88-14.36L169.88-14.36L166.60-14.36L163.92-4.24Q163.56-2.80 163.56-2.28L163.56-2.28Q163.56-1.56 164.10-1.24Q164.64-0.92 165.96-0.92L165.96-0.92Z"/></g>
</svg>
</g></svg></svg>