<svg version="1.1" preserveAspectRatio="none" xmlns="http://www.w3.org/2000/svg" width="500" height="500" viewBox="0 0 500 500"><rect width="100%" height="100%" fill="#FFFFFF" fill-opacity="1"/><svg viewBox="140.106 271.1852 373.246 95.8" width="333" height="85.47017248677815" x="83.5px" y="207.2649px" xmlns="http://www.w3.org/2000/svg" xmlns:xlink="http://www.w3.org/1999/xlink" preserveAspectRatio="none"><defs></defs><style>.companyName {fill:#F1B9C7;fill-opacity:1;}.icon1 {fill:#607890;fill-opacity:1;}.icon3-str {stroke:#F1F1F1;stroke-opacity:1;}</style><g opacity="1" transform="rotate(0 209.5842 347.1852)">
<svg width="234.2896" height="19.8" x="209.5842" y="347.1852" version="1.1" preserveAspectRatio="none" viewBox="-0.8203 -31.0547 503.71099999999996 42.578100000000006">
  <g transform="matrix(1 0 0 1 0 0)" class="icon1"><path id="id-6izo4zJp17" d="M8.52-6.45L4.16-0.82Q2.95 0.72 2.18 0.89Q1.41 1.05 0.90 0.92Q0.39 0.78 0 0.47L0 0.47Q-0.82-0.23-0.82-1.41L-0.82-1.41Q-0.82-2.27-0.29-3.13L-0.29-3.13Q11.09-21.23 12.09-22.73L12.09-22.73Q14.43-26.21 14.80-26.64L14.80-26.64L15.29-27.23Q17.48-29.75 20.98-29.75L20.98-29.75Q23.69-29.75 24.69-28.55L24.69-28.55Q24.92-28.30 24.93-27.58Q24.94-26.86 25-25.27L25-25.27L25.10-21.91Q25.16-20.14 25.23-18.28L25.23-18.28L25.35-14.65Q25.51-11.13 25.63-8.59L25.63-8.59Q26.39-9.94 27.17-11.74L27.17-11.74L28.83-15.53Q31.09-20.61 33.20-23.55L33.20-23.55Q34.53-25.45 37.58-25.45L37.58-25.45Q39.82-25.45 41.60-24.47L41.60-24.47Q42.68-23.89 42.66-23.44L42.66-23.44Q42.66-23.03 42.36-22.66L42.36-22.66L41.95-22.09Q40.57-20.16 39.22-18.07L39.22-18.07L36.60-13.91Q31.09-4.80 30.21-3.46Q29.34-2.11 28.88-1.57Q28.42-1.04 27.69-0.66Q26.95-0.29 26.02 0L26.02 0Q23.98 0.64 22.64 0.64L22.64 0.64Q20.37 0.64 19.57 0L19.57 0Q18.71-0.78 17.15-9.06L17.15-9.06L16.48-12.73Q16.17-14.61 15.92-16.46L15.92-16.46Q15.27-15.47 14.26-14.10L14.26-14.10L8.52-6.45Z M60.57-12.03L60.57-12.03Q60.57-10.98 62.36-10.98L62.36-10.98Q63.69-10.98 65.84-12.27L65.84-12.27L67.40-13.13Q68.13-13.54 68.66-13.54Q69.20-13.54 69.51-13.20Q69.82-12.87 69.82-12.29Q69.82-11.70 69.43-10.93Q69.04-10.16 68.36-9.31Q67.68-8.46 66.76-7.63Q65.84-6.80 64.79-6.13L64.79-6.13Q62.44-4.67 60.43-4.67L60.43-4.67Q58.30-4.67 57.03-5.39L57.03-5.39Q56.64-5.63 56.27-5.88L56.27-5.88Q54.18-3.50 50.21-1.50L50.21-1.50Q46.00 0.61 42.85 0.61L42.85 0.61Q39.55 0.61 37.64-1.99L37.64-1.99Q36.09-4.10 36.09-6.27L36.09-6.27Q36.09-9.39 39.43-12.23L39.43-12.23Q41.89-14.30 44.19-15.37Q46.48-16.45 48.34-17.03L48.34-17.03Q52.27-18.26 55.41-18.26L55.41-18.26Q56.82-18.26 57.92-17.72Q59.02-17.19 59.55-16.64L59.55-16.64Q60.80-15.41 60.80-13.50L60.80-13.50Q60.80-12.93 60.68-12.62Q60.57-12.30 60.57-12.03ZM44.59-8.34L44.59-8.34L44.57-8.28L44.57-8.26Q44.57-7.42 44.94-7.17L44.94-7.17Q45.84-6.62 46.84-6.88Q47.83-7.15 48.73-7.54L48.73-7.54Q50.96-8.50 52.75-9.96L52.75-9.96Q52.44-10.59 52.44-11.25L52.44-11.25Q52.44-12.66 53.67-14.06L53.67-14.06Q52.11-14.06 49.45-12.60L49.45-12.60Q46.52-10.98 45.06-9.26L45.06-9.26Q44.59-8.67 44.59-8.34Z M88.01-13.38L88.01-13.38Q89.92-13.38 89.92-12.05L89.92-12.05Q89.92-10.78 88.13-8.77L88.13-8.77L87.17-7.77Q85.43-6.00 83.12-4.28Q80.80-2.56 79.04-1.56L79.04-1.56Q74.96 0.70 71.64 0.70L71.64 0.70Q68.52 0.70 66.54-1.17L66.54-1.17Q64.84-2.79 64.84-4.59Q64.84-6.39 65.20-8.16Q65.55-9.94 66.11-11.64L66.11-11.64Q67.25-15.10 68.59-17.52L68.59-17.52Q68.95-18.18 68.95-18.38L68.95-18.38L66.43-18.38Q65-18.38 64.22-19.04Q63.44-19.71 63.44-20.55Q63.44-21.39 63.75-21.78Q64.06-22.17 64.53-22.34L64.53-22.34Q65.20-22.62 66.48-22.62L66.48-22.62L71.27-22.60Q71.43-22.66 71.89-23.44L71.89-23.44L73.09-25.49Q73.85-26.86 74.62-27.50Q75.39-28.14 76.44-28.14Q77.48-28.14 78.19-27.95Q78.91-27.75 79.39-27.46L79.39-27.46Q80.35-26.84 80.35-26.09L80.35-26.09Q80.35-25.78 80.14-25.25L80.14-25.25L79.04-22.60L88.32-22.62Q89.53-22.62 89.53-21.37L89.53-21.37Q89.53-18.40 84.24-18.40L84.24-18.40L77.09-18.38Q76.86-18.26 76.29-17.25L76.29-17.25L75.41-15.63Q75.08-15.02 74.94-14.71L74.94-14.71L74.51-13.75Q73.20-10.80 73.20-9.49Q73.20-8.18 73.90-7.30Q74.59-6.43 75.74-6.43Q76.89-6.43 78.00-6.88Q79.10-7.32 80.16-7.97L80.16-7.97Q82.07-9.16 83.16-10.18Q84.26-11.19 84.98-11.72L84.98-11.72Q84.98-11.72 86.35-12.68L86.35-12.68Q87.40-13.38 88.01-13.38Z M107.99 1.31L107.99 1.31Q106.97 1.31 106.06 0.83Q105.16 0.35 104.41-0.53L104.41-0.53Q102.75-2.54 102.75-5.35L102.75-5.35Q102.75-6.50 103.66-7.67Q104.57-8.83 106.64-9.77L106.64-9.77Q111.29-11.86 120.21-11.86L120.21-11.86Q120.21-11.86 136.56-24.53L136.56-24.53Q137.38-25.18 137.54-25.31L137.54-25.31Q137.79-25.59 138.19-25.59Q138.59-25.59 138.97-25.51Q139.36-25.43 139.67-25.29L139.67-25.29Q140.35-25 140.35-24.61L140.35-24.61Q140.35-24.34 140.21-24.18L140.21-24.18L129.04-11.91L133.81-11.91Q134.12-12.62 134.84-13.87L134.84-13.87L136.64-16.80Q137.70-18.48 138.71-19.96L138.71-19.96L140.68-22.70Q143.71-26.74 145.06-26.74L145.06-26.74Q145.20-26.74 146.12-26.38Q147.05-26.02 147.70-25.66L147.70-25.66Q149.26-24.84 149.26-24.12L149.26-24.12Q149.26-23.44 148.65-22.69Q148.05-21.93 147.37-20.92Q146.70-19.90 145.93-18.62Q145.16-17.34 144.38-15.91Q143.59-14.47 142.97-13.13L142.97-13.13Q141.54-10.06 141.54-8.97Q141.54-7.89 141.71-7.40Q141.88-6.91 142.11-6.68L142.11-6.68Q142.48-6.31 143.30-6.31Q144.12-6.31 144.97-6.61Q145.82-6.91 146.63-7.37Q147.44-7.83 148.22-8.37Q149.00-8.91 149.75-9.38L149.75-9.38Q151.46-10.43 152.29-10.43Q153.11-10.43 153.39-10.05Q153.67-9.67 153.67-9.06Q153.67-8.46 153.16-7.43Q152.66-6.41 151.74-5.31Q150.82-4.22 149.57-3.15Q148.32-2.09 146.84-1.25L146.84-1.25Q143.50 0.61 140.29 0.61L140.29 0.61Q137.40 0.61 135.20-1.43L135.20-1.43Q132.73-3.67 132.73-7.23L132.73-7.23Q132.73-7.40 132.73-7.58Q132.73-7.75 132.75-7.95L132.75-7.95L124.57-6.91Q121.11-3.52 116.21-1.09L116.21-1.09Q111.29 1.31 107.99 1.31Z M175.88-13.79L175.88-13.79Q177.13-13.79 177.13-12.75L177.13-12.75Q177.13-11.48 175.61-9.73L175.61-9.73Q173.09-6.80 169.67-4.02L169.67-4.02Q164.10 0.43 159.73 0.43L159.73 0.43Q156.58 0.43 154.57-2.30L154.57-2.30Q152.48-5.16 152.48-9.96L152.48-9.96Q152.48-16.27 158.63-23.91L158.63-23.91Q162.54-28.77 166.00-30.51L166.00-30.51Q167.07-31.05 167.65-31.05Q168.22-31.05 168.70-30.87Q169.18-30.68 169.59-30.35L169.59-30.35Q170.55-29.55 170.55-28.42Q170.55-27.29 169.92-25.73Q169.30-24.18 168.11-22.42L168.11-22.42Q165.59-18.69 161.29-15.27L161.29-15.27Q160.18-13.14 160.18-10.16L160.18-10.16Q160.18-8.81 161.04-7.62L161.04-7.62Q161.91-6.43 162.97-6.43L162.97-6.43Q164.41-6.43 168.50-9.41L168.50-9.41L171.97-12.09Q174.10-13.79 175.88-13.79Z M193.44-12.03L193.44-12.03Q193.44-10.98 195.23-10.98L195.23-10.98Q196.56-10.98 198.71-12.27L198.71-12.27L200.27-13.13Q201.00-13.54 201.53-13.54Q202.07-13.54 202.38-13.20Q202.70-12.87 202.70-12.29Q202.70-11.70 202.30-10.93Q201.91-10.16 201.23-9.31Q200.55-8.46 199.63-7.63Q198.71-6.80 197.66-6.13L197.66-6.13Q195.31-4.67 193.30-4.67L193.30-4.67Q191.17-4.67 189.90-5.39L189.90-5.39Q189.51-5.63 189.14-5.88L189.14-5.88Q187.05-3.50 183.09-1.50L183.09-1.50Q178.87 0.61 175.72 0.61L175.72 0.61Q172.42 0.61 170.51-1.99L170.51-1.99Q168.96-4.10 168.96-6.27L168.96-6.27Q168.96-9.39 172.30-12.23L172.30-12.23Q174.77-14.30 177.06-15.37Q179.36-16.45 181.21-17.03L181.21-17.03Q185.14-18.26 188.28-18.26L188.28-18.26Q189.69-18.26 190.79-17.72Q191.89-17.19 192.42-16.64L192.42-16.64Q193.67-15.41 193.67-13.50L193.67-13.50Q193.67-12.93 193.55-12.62Q193.44-12.30 193.44-12.03ZM177.46-8.34L177.46-8.34L177.44-8.28L177.44-8.26Q177.44-7.42 177.81-7.17L177.81-7.17Q178.71-6.62 179.71-6.88Q180.70-7.15 181.60-7.54L181.60-7.54Q183.83-8.50 185.63-9.96L185.63-9.96Q185.31-10.59 185.31-11.25L185.31-11.25Q185.31-12.66 186.54-14.06L186.54-14.06Q184.98-14.06 182.32-12.60L182.32-12.60Q179.39-10.98 177.93-9.26L177.93-9.26Q177.46-8.67 177.46-8.34Z M221.04-10.49L221.04-10.49Q221.04-8.71 222.07-8.71L222.07-8.71Q224.61-8.71 228.67-12.15L228.67-12.15L229.20-12.60Q230.78-13.65 231.77-13.65Q232.75-13.65 233.02-13.36Q233.28-13.07 233.28-12.42L233.28-12.42Q233.28-10.98 231.82-9.36L231.82-9.36Q229.63-6.70 225.82-4.32L225.82-4.32Q221.41-1.54 217.91-1.54L217.91-1.54Q215.47-1.54 214.84-4.26L214.84-4.26Q214.67-4.96 214.59-5.61L214.59-5.61Q214.39-7.17 214.18-7.34Q213.96-7.52 213.33-7.31Q212.70-7.11 211.83-6.63Q210.96-6.15 209.90-5.47L209.90-5.47Q204.32-1.76 203.48-1.23L203.48-1.23Q201.46 0.02 200.76 0.02Q200.06 0.02 199.38-0.27Q198.71-0.57 198.20-1.02L198.20-1.02Q197.15-2.01 197.15-3.05L197.15-3.05Q197.15-8.96 199.73-13.40L199.73-13.40Q201.45-16.39 203.95-17.54L203.95-17.54Q205.21-18.14 206.68-18.14L206.68-18.14Q209.36-18.14 209.36-16.39L209.36-16.39Q209.36-15.31 208.09-12.87L208.09-12.87L207.50-11.72Q206.88-10.53 206.89-10.37L206.89-10.37Q207.01-9.79 207.42-9.79L207.42-9.79Q207.87-9.79 208.75-10.45L208.75-10.45L212.34-13.13L214.14-14.38Q217.25-16.41 218.71-16.41L218.71-16.41Q219.49-16.41 220.14-15.78L220.14-15.78Q221.33-14.65 221.33-13.81L221.33-13.81Q221.33-13.54 221.28-13.14Q221.23-12.75 221.17-12.30L221.17-12.30L221.09-11.39Q221.04-10.92 221.04-10.49Z M256.21-14.36L256.21-14.36Q257.15-14.36 257.15-13.30L257.15-13.30Q257.15-12.60 256.67-11.53Q256.19-10.47 255.29-9.54Q254.39-8.61 253.23-7.62Q252.07-6.62 250.52-5.53Q248.96-4.43 247.09-3.36Q245.21-2.29 243.11-1.43L243.11-1.43Q238.44 0.49 234.06 0.49L234.06 0.49Q230.72 0.49 228.22-1.25L228.22-1.25Q225.61-3.07 225.61-5.66L225.61-5.66Q225.61-9.75 230-13.42L230-13.42Q233.79-16.58 238.93-18.32L238.93-18.32Q242.05-19.38 244.22-19.38L244.22-19.38Q245.98-19.38 247.19-18.52L247.19-18.52Q248.48-17.58 248.48-16.00L248.48-16.00Q248.48-13.52 244.55-10.51L244.55-10.51Q243.93-10.02 243.42-9.69L243.42-9.69L242.71-9.22Q240.76-7.85 236.78-6.15L236.78-6.15Q238.01-5.51 239.07-5.51Q240.14-5.51 240.99-5.76Q241.84-6.02 242.91-6.48Q243.98-6.95 245.21-7.61Q246.43-8.26 247.68-9.04L247.68-9.04Q250.47-10.78 252.52-12.60L252.52-12.60Q253.59-13.59 255.25-14.18L255.25-14.18Q255.80-14.36 256.21-14.36ZM234.67-8.87L234.67-8.87L235.74-9.41Q236.27-9.69 236.68-9.92L236.68-9.92Q240.63-12.19 241.17-12.71Q241.72-13.24 241.72-13.45Q241.72-13.65 241.60-13.93Q241.48-14.20 241.29-14.41L241.29-14.41Q240.82-14.96 240.29-14.96Q239.77-14.96 239.13-14.77Q238.50-14.57 237.85-14.23Q237.21-13.89 236.61-13.41Q236.02-12.93 235.57-12.38L235.57-12.38Q234.53-11.15 234.53-10.25Q234.53-9.36 234.67-8.87Z M274.08 1.31L274.08 1.31Q273.07 1.31 272.16 0.83Q271.25 0.35 270.51-0.53L270.51-0.53Q268.85-2.54 268.85-5.35L268.85-5.35Q268.85-6.50 269.76-7.67Q270.66-8.83 272.73-9.77L272.73-9.77Q277.38-11.86 286.31-11.86L286.31-11.86Q286.31-11.86 302.66-24.53L302.66-24.53Q303.48-25.18 303.63-25.31L303.63-25.31Q303.89-25.59 304.29-25.59Q304.69-25.59 305.07-25.51Q305.45-25.43 305.76-25.29L305.76-25.29Q306.45-25 306.45-24.61L306.45-24.61Q306.45-24.34 306.31-24.18L306.31-24.18L295.14-11.91L299.90-11.91Q300.21-12.62 300.94-13.87L300.94-13.87L302.73-16.80Q303.79-18.48 304.80-19.96L304.80-19.96L306.78-22.70Q309.80-26.74 311.15-26.74L311.15-26.74Q311.29-26.74 312.22-26.38Q313.14-26.02 313.79-25.66L313.79-25.66Q315.35-24.84 315.35-24.12L315.35-24.12Q315.35-23.44 314.75-22.69Q314.14-21.93 313.47-20.92Q312.79-19.90 312.02-18.62Q311.25-17.34 310.47-15.91Q309.69-14.47 309.06-13.13L309.06-13.13Q307.64-10.06 307.64-8.97Q307.64-7.89 307.80-7.40Q307.97-6.91 308.20-6.68L308.20-6.68Q308.57-6.31 309.39-6.31Q310.21-6.31 311.06-6.61Q311.91-6.91 312.72-7.37Q313.54-7.83 314.32-8.37Q315.10-8.91 315.84-9.38L315.84-9.38Q317.56-10.43 318.38-10.43Q319.20-10.43 319.48-10.05Q319.77-9.67 319.77-9.06Q319.77-8.46 319.26-7.43Q318.75-6.41 317.83-5.31Q316.91-4.22 315.66-3.15Q314.41-2.09 312.93-1.25L312.93-1.25Q309.59 0.61 306.39 0.61L306.39 0.61Q303.50 0.61 301.29-1.43L301.29-1.43Q298.83-3.67 298.83-7.23L298.83-7.23Q298.83-7.40 298.83-7.58Q298.83-7.75 298.85-7.95L298.85-7.95L290.66-6.91Q287.21-3.52 282.30-1.09L282.30-1.09Q277.38 1.31 274.08 1.31Z M340.63-10.49L340.63-10.49Q340.63-8.71 341.66-8.71L341.66-8.71Q344.20-8.71 348.26-12.15L348.26-12.15L348.79-12.60Q350.37-13.65 351.36-13.65Q352.34-13.65 352.61-13.36Q352.87-13.07 352.87-12.42L352.87-12.42Q352.87-10.98 351.41-9.36L351.41-9.36Q349.22-6.70 345.41-4.32L345.41-4.32Q341.00-1.54 337.50-1.54L337.50-1.54Q335.06-1.54 334.43-4.26L334.43-4.26Q334.26-4.96 334.18-5.61L334.18-5.61Q333.98-7.17 333.77-7.34Q333.55-7.52 332.92-7.31Q332.29-7.11 331.42-6.63Q330.55-6.15 329.49-5.47L329.49-5.47Q323.91-1.76 323.07-1.23L323.07-1.23Q321.05 0.02 320.35 0.02Q319.65 0.02 318.97-0.27Q318.30-0.57 317.79-1.02L317.79-1.02Q316.74-2.01 316.74-3.05L316.74-3.05Q316.74-8.96 319.32-13.40L319.32-13.40Q321.04-16.39 323.54-17.54L323.54-17.54Q324.80-18.14 326.27-18.14L326.27-18.14Q328.95-18.14 328.95-16.39L328.95-16.39Q328.95-15.31 327.68-12.87L327.68-12.87L327.09-11.72Q326.46-10.53 326.48-10.37L326.48-10.37Q326.60-9.79 327.01-9.79L327.01-9.79Q327.46-9.79 328.34-10.45L328.34-10.45L331.93-13.13L333.73-14.38Q336.84-16.41 338.30-16.41L338.30-16.41Q339.08-16.41 339.73-15.78L339.73-15.78Q340.92-14.65 340.92-13.81L340.92-13.81Q340.92-13.54 340.87-13.14Q340.82-12.75 340.76-12.30L340.76-12.30L340.68-11.39Q340.63-10.92 340.63-10.49Z M355.74-8.30L355.74-8.30Q355.74-7.40 356.93-7.40L356.93-7.40Q359.36-7.40 365.18-13.44L365.18-13.44L367.07-15.35Q369.00-17.25 369.63-17.25Q370.25-17.25 370.74-17.03Q371.23-16.82 371.60-16.48L371.60-16.48Q372.36-15.80 372.36-15.03Q372.36-14.26 372.20-13.33Q372.03-12.40 371.68-11.25L371.68-11.25Q371.04-9.10 369.36-5.49L369.36-5.49L368.55-3.77L371.88-6.78L378.67-12.60Q379.71-13.38 380.39-13.38L380.39-13.38Q381.88-13.38 381.88-11.95L381.88-11.95Q381.88-10.49 379.96-8.18L379.96-8.18Q379.38-7.46 378.69-6.84L378.69-6.84L374.08-2.83L365.10 4.77Q363.91 5.80 363.30 6.41L363.30 6.41Q362.58 7.58 362.18 8.15Q361.78 8.73 361.39 9.38Q361.00 10.04 360.63 10.51L360.63 10.51Q359.82 11.52 359.02 11.52L359.02 11.52Q358.18 11.52 357.40 10.84L357.40 10.84Q355.96 9.57 355.96 8.57Q355.96 7.58 356.50 6.26Q357.05 4.94 357.93 3.24L357.93 3.24L362.07-4.39Q359.08-1.70 357.38-0.83Q355.68 0.04 354.52 0.32Q353.36 0.61 352.06 0.61Q350.76 0.61 349.79 0.07Q348.81-0.47 348.16-1.37L348.16-1.37Q346.91-3.14 346.91-6.00L346.91-6.00Q346.91-9.02 348.44-11.97L348.44-11.97Q349.90-14.86 352.30-16.62L352.30-16.62Q354.84-18.50 357.52-18.50Q360.20-18.50 360.20-16.41L360.20-16.41Q360.20-15.10 357.97-12.53Q355.74-9.96 355.74-8.30Z M415.74-10.70L415.74-10.70Q415.74-7.83 417.54-7.83L417.54-7.83Q418.79-7.83 421.86-10.02L421.86-10.02Q424.63-12.07 425.16-12.60L425.16-12.60Q426.37-13.61 427.70-13.61L427.70-13.61Q428.26-13.61 428.66-13.23Q429.06-12.85 429.06-12.09Q429.06-11.33 428.69-10.70Q428.32-10.08 427.74-9.41Q427.17-8.75 426.32-7.93Q425.47-7.11 424.38-6.20Q423.28-5.29 421.98-4.39Q420.68-3.50 419.30-2.77L419.30-2.77Q416.17-1.17 413.65-1.17L413.65-1.17Q410.76-1.17 409.73-3.79L409.73-3.79Q409.12-5.29 409.12-7.40L409.12-7.40L403.44-3.55Q397.60 0.55 396.48 0.80L396.48 0.80Q395.92 0.94 395.34 0.94Q394.77 0.94 394.26 0.83Q393.75 0.72 393.36 0.47L393.36 0.47Q392.46-0.06 392.46-1.09L392.46-1.09Q392.46-1.50 393.01-3.09L393.01-3.09L394.69-7.70Q395.47-9.92 395.47-10.37L395.47-10.37Q395.47-10.53 395.27-10.53Q395.08-10.53 394.55-10.12Q394.02-9.71 393.28-9.06L393.28-9.06L388.63-5L386.19-2.97Q382.44 0.02 380.08 0.02L380.08 0.02Q378.96 0.02 377.83-0.98L377.83-0.98Q376.60-2.03 376.60-3.52Q376.60-5 376.88-6.76Q377.17-8.52 377.70-10.15Q378.22-11.78 379.00-13.21Q379.79-14.65 380.78-15.70L380.78-15.70Q382.93-18.01 385.85-18.01Q388.77-18.01 388.77-16.29L388.77-16.29Q388.77-15.55 387.97-14.02L387.97-14.02Q386.27-10.66 386.27-10.40Q386.27-10.14 386.44-9.99Q386.60-9.84 386.80-9.84L386.80-9.84Q387.21-9.84 387.97-10.51L387.97-10.51Q392.99-14.90 394.29-15.96Q395.59-17.01 396.80-17.81L396.80-17.81Q399.57-19.63 401.21-19.63L401.21-19.63Q402.56-19.63 403.40-19.20L403.40-19.20Q404.86-18.44 404.86-17.48Q404.86-16.52 404.60-15.31Q404.34-14.10 404.02-12.97L404.02-12.97L403.44-10.98Q403.16-10.12 403.16-9.66Q403.16-9.20 403.55-9.20L403.55-9.20Q404.49-9.20 407.29-11.86L407.29-11.86L409.18-13.63Q412.44-16.56 414.12-16.56L414.12-16.56Q414.92-16.56 415.55-15.94L415.55-15.94Q416.64-14.84 416.64-14.02L416.64-14.02Q416.64-13.57 416.33-12.81L416.33-12.81Q415.74-11.39 415.74-10.70Z M445.84-12.03L445.84-12.03Q445.84-10.98 447.64-10.98L447.64-10.98Q448.96-10.98 451.11-12.27L451.11-12.27L452.68-13.13Q453.40-13.54 453.94-13.54Q454.47-13.54 454.79-13.20Q455.10-12.87 455.10-12.29Q455.10-11.70 454.71-10.93Q454.32-10.16 453.63-9.31Q452.95-8.46 452.03-7.63Q451.11-6.80 450.06-6.13L450.06-6.13Q447.71-4.67 445.70-4.67L445.70-4.67Q443.57-4.67 442.30-5.39L442.30-5.39Q441.91-5.63 441.54-5.88L441.54-5.88Q439.45-3.50 435.49-1.50L435.49-1.50Q431.27 0.61 428.13 0.61L428.13 0.61Q424.82 0.61 422.91-1.99L422.91-1.99Q421.37-4.10 421.37-6.27L421.37-6.27Q421.37-9.39 424.71-12.23L424.71-12.23Q427.17-14.30 429.46-15.37Q431.76-16.45 433.61-17.03L433.61-17.03Q437.54-18.26 440.68-18.26L440.68-18.26Q442.09-18.26 443.19-17.72Q444.30-17.19 444.82-16.64L444.82-16.64Q446.07-15.41 446.07-13.50L446.07-13.50Q446.07-12.93 445.96-12.62Q445.84-12.30 445.84-12.03ZM429.86-8.34L429.86-8.34L429.84-8.28L429.84-8.26Q429.84-7.42 430.21-7.17L430.21-7.17Q431.11-6.62 432.11-6.88Q433.11-7.15 434.00-7.54L434.00-7.54Q436.23-8.50 438.03-9.96L438.03-9.96Q437.71-10.59 437.71-11.25L437.71-11.25Q437.71-12.66 438.95-14.06L438.95-14.06Q437.38-14.06 434.73-12.60L434.73-12.60Q431.80-10.98 430.33-9.26L430.33-9.26Q429.86-8.67 429.86-8.34Z M450.64-6.45L450.64-6.45Q450.27-6.45 449.91-6.62Q449.55-6.80 449.24-7.19L449.24-7.19Q448.55-8.05 448.55-9.53L448.55-9.53Q448.55-11.11 450.45-13.48L450.45-13.48Q452.29-15.76 454.73-17.42L454.73-17.42Q457.34-19.22 459.22-19.22L459.22-19.22Q460.88-19.22 461.46-18.28L461.46-18.28L461.74-17.85Q462.05-17.36 462.36-17.36Q462.68-17.36 463.34-17.42L463.34-17.42L466.11-17.62Q466.76-17.68 467.13-17.68Q467.50-17.68 467.98-17.41Q468.46-17.15 468.83-16.72L468.83-16.72Q469.65-15.74 469.65-14.57L469.65-14.57Q469.65-13.36 466.97-10.76L466.97-10.76L465.68-9.47Q464.30-8.05 464.30-7.68Q464.30-7.30 464.65-7.02Q465-6.74 465.41-6.74Q465.82-6.74 466.34-6.96Q466.86-7.19 467.62-7.63Q468.38-8.07 469.36-8.69L469.36-8.69Q472.03-10.45 472.93-11.11L472.93-11.11L474.55-12.27Q476.21-13.44 476.91-13.44Q477.62-13.44 478.07-13.13Q478.52-12.83 478.52-12.09Q478.52-11.35 477.75-10.10Q476.99-8.85 476.10-7.93Q475.21-7.01 474.38-6.23Q473.54-5.45 472.39-4.54Q471.25-3.63 469.86-2.71Q468.48-1.78 466.93-1.04L466.93-1.04Q463.44 0.66 460.51 0.66L460.51 0.66Q456.23 0.66 455.29-1.54L455.29-1.54Q455-2.21 455-3.03Q455-3.85 455.31-4.79Q455.63-5.74 456.13-6.68L456.13-6.68Q457.15-8.54 458.54-9.96L458.54-9.96Q459.71-11.19 459.71-11.43L459.71-11.43Q459.71-11.80 459.29-11.89Q458.87-11.99 458.05-11.99L458.05-11.99Q457.70-11.99 456.54-10.98L456.54-10.98L454.63-9.22Q451.58-6.45 450.64-6.45Z M501.95-14.36L501.95-14.36Q502.89-14.36 502.89-13.30L502.89-13.30Q502.89-12.60 502.41-11.53Q501.93-10.47 501.04-9.54Q500.14-8.61 498.97-7.62Q497.81-6.62 496.26-5.53Q494.71-4.43 492.83-3.36Q490.96-2.29 488.85-1.43L488.85-1.43Q484.18 0.49 479.80 0.49L479.80 0.49Q476.46 0.49 473.96-1.25L473.96-1.25Q471.35-3.07 471.35-5.66L471.35-5.66Q471.35-9.75 475.74-13.42L475.74-13.42Q479.53-16.58 484.67-18.32L484.67-18.32Q487.79-19.38 489.96-19.38L489.96-19.38Q491.72-19.38 492.93-18.52L492.93-18.52Q494.22-17.58 494.22-16.00L494.22-16.00Q494.22-13.52 490.29-10.51L490.29-10.51Q489.67-10.02 489.16-9.69L489.16-9.69L488.46-9.22Q486.50-7.85 482.52-6.15L482.52-6.15Q483.75-5.51 484.81-5.51Q485.88-5.51 486.73-5.76Q487.58-6.02 488.65-6.48Q489.73-6.95 490.95-7.61Q492.17-8.26 493.42-9.04L493.42-9.04Q496.21-10.78 498.26-12.60L498.26-12.60Q499.34-13.59 501.00-14.18L501.00-14.18Q501.54-14.36 501.95-14.36ZM480.41-8.87L480.41-8.87L481.48-9.41Q482.01-9.69 482.42-9.92L482.42-9.92Q486.37-12.19 486.91-12.71Q487.46-13.24 487.46-13.45Q487.46-13.65 487.34-13.93Q487.23-14.20 487.03-14.41L487.03-14.41Q486.56-14.96 486.04-14.96Q485.51-14.96 484.87-14.77Q484.24-14.57 483.59-14.23Q482.95-13.89 482.35-13.41Q481.76-12.93 481.31-12.38L481.31-12.38Q480.27-11.15 480.27-10.25Q480.27-9.36 480.41-8.87Z"/></g>
</svg>
</g><g opacity="1" transform="rotate(0 140.106 271.1852)">
<svg width="373.246" height="60" x="140.106" y="271.1852" version="1.1" preserveAspectRatio="none" viewBox="3.8 -29.76 187.12 30.080000000000002">
  <g transform="matrix(1 0 0 1 0 0)" class="companyName"><path id="id-D6z1nYkh8" d="M3.80-29.44L9.60-29.44L9.60-5.60L23.44-5.60L23.44 0L3.80 0L3.80-29.44Z M34.64-10.88Q34.64-9.48 35.48-8.20Q36.32-6.92 37.72-6.12Q39.12-5.32 40.72-5.32L40.72-5.32Q42.44-5.32 43.88-6.12Q45.32-6.92 46.14-8.20Q46.96-9.48 46.96-10.88L46.96-10.88L46.96-29.44L52.68-29.44L52.68-10.76Q52.68-7.60 51.08-5.06Q49.48-2.52 46.74-1.10Q44 0.32 40.72 0.32L40.72 0.32Q37.44 0.32 34.72-1.10Q32-2.52 30.42-5.06Q28.84-7.60 28.84-10.76L28.84-10.76L28.84-29.44L34.64-29.44L34.64-10.88Z M81.76-2.44Q80.64-1.52 78.20-0.60Q75.76 0.32 72.88 0.32L72.88 0.32Q68.28 0.32 64.88-1.68Q61.48-3.68 59.68-7.06Q57.88-10.44 57.88-14.48L57.88-14.48Q57.88-18.92 59.68-22.40Q61.48-25.88 64.72-27.82Q67.96-29.76 72.20-29.76L72.20-29.76Q74.88-29.76 77.16-29.04Q79.44-28.32 81.16-27.24L81.16-27.24L78.88-21.76Q75.72-24.16 72.40-24.16L72.40-24.16Q70.16-24.16 68.20-22.92Q66.24-21.68 65.08-19.54Q63.92-17.40 63.92-14.80L63.92-14.80Q63.92-11.96 65-9.82Q66.08-7.68 68.08-6.48Q70.08-5.28 72.76-5.28L72.76-5.28Q74.92-5.28 76.64-5.98Q78.36-6.68 79.36-7.64L79.36-7.64L81.76-2.44Z M87.56-29.44L93.36-29.44L93.36 0L87.56 0L87.56-29.44Z M100.96 0L100.96-29.44L109.76-29.44Q115.40-29.44 119.04-27.26Q122.68-25.08 124.34-21.62Q126.00-18.16 126.00-14.20L126.00-14.20Q126.00-9.96 124.00-6.72Q122.00-3.48 118.62-1.74Q115.24 0 111.20 0L111.20 0L100.96 0ZM106.76-5.60L110.20-5.60Q114.72-5.60 117.36-7.92Q120.00-10.24 120.00-14.60L120.00-14.60Q120.00-18.12 118.54-20.20Q117.08-22.28 115.14-23.08Q113.20-23.88 111.48-23.88L111.48-23.88L106.76-23.88L106.76-5.60Z M131.80-29.44L137.60-29.44L137.60-5.60L151.44-5.60L151.44 0L131.80 0L131.80-29.44Z M157.44-29.44L163.24-29.44L163.24 0L157.44 0L157.44-29.44Z M186-15.52Q188.32-14.44 189.62-12.70Q190.92-10.96 190.92-8.68L190.92-8.68Q190.92-4.20 187.98-2.10Q185.04 0 180.64 0L180.64 0L170.84 0L170.84-29.44L179.48-29.44Q184.16-29.44 186.84-27.54Q189.52-25.64 189.52-22.04L189.52-22.04Q189.52-19.84 188.60-18.18Q187.68-16.52 186-15.52L186-15.52ZM176.64-23.84L176.64-17.40L180.16-17.40Q181.76-17.40 182.64-18.38Q183.52-19.36 183.52-20.80L183.52-20.80Q183.52-22.28 182.52-23.06Q181.52-23.84 179.76-23.84L179.76-23.84L176.64-23.84ZM180.36-5.40Q182.40-5.40 183.66-6.22Q184.92-7.04 184.92-8.68L184.92-8.68Q184.92-11.80 179.96-11.80L179.96-11.80L176.64-11.80L176.64-5.40L180.36-5.40Z"/></g>
</svg>
</g></svg></svg>