<svg version="1.1" preserveAspectRatio="none" xmlns="http://www.w3.org/2000/svg" width="500" height="500" viewBox="0 0 500 500"><rect width="100%" height="100%" fill="#0A0A0A" fill-opacity="1"/><svg viewBox="69.3373 202.5 334.53 220" width="333" height="218.9938122141512" x="83.5px" y="140.5031px" xmlns="http://www.w3.org/2000/svg" xmlns:xlink="http://www.w3.org/1999/xlink" preserveAspectRatio="none"><defs></defs><style>.companyName {fill:#E9E9E9;fill-opacity:1;}.icon2 {fill:#7065EF;fill-opacity:1;}.icon3 {fill:#C4C4C4;fill-opacity:1;}.icon3-str {stroke:#C4C4C4;stroke-opacity:1;}.shape {fill:#28208C;fill-opacity:1;}.text {fill:#E9E9E9;fill-opacity:1;}</style><g opacity="1" transform="rotate(0 71.0295 202.5)">
<svg width="331.1457" height="220" x="71.0295" y="202.5" version="1.1" preserveAspectRatio="none" viewBox="4.200999736785889 21.96699905395508 89.02999114990234 59.14799880981445">
  <g transform="matrix(1 0 0 1 0 0)" class="shape"><g><circle cx="46.796" cy="22.734" r="0.767"></circle><circle cx="46.796" cy="26.58" r="0.886"></circle><circle cx="46.796" cy="30.425" r="1.004"></circle><circle cx="46.797" cy="34.271" r="1.12"></circle><circle cx="46.796" cy="38.079" r="1.24"></circle><circle cx="46.797" cy="41.963" r="1.356"></circle><circle cx="46.797" cy="45.809" r="1.476"></circle><circle cx="43.004" cy="22.734" r="0.767"></circle><circle cx="43.004" cy="26.58" r="0.886"></circle><circle cx="43.004" cy="30.425" r="1.004"></circle><circle cx="43.004" cy="34.271" r="1.12"></circle><circle cx="43.004" cy="38.079" r="1.24"></circle><circle cx="43.004" cy="41.963" r="1.356"></circle><circle cx="43.004" cy="80.348" r="0.767"></circle><circle cx="43.004" cy="76.57" r="0.886"></circle><circle cx="43.004" cy="72.723" r="1.003"></circle><circle cx="43.004" cy="68.876" r="1.121"></circle><circle cx="43.004" cy="65.031" r="1.239"></circle><circle cx="43.004" cy="61.186" r="1.356"></circle><circle cx="46.796" cy="80.348" r="0.767"></circle><circle cx="46.796" cy="76.57" r="0.886"></circle><circle cx="46.796" cy="72.723" r="1.003"></circle><circle cx="46.797" cy="68.876" r="1.121"></circle><circle cx="46.796" cy="65.031" r="1.239"></circle><circle cx="46.797" cy="61.186" r="1.356"></circle><circle cx="43.004" cy="45.809" r="1.476"></circle><circle cx="46.797" cy="49.447" r="1.476"></circle><circle cx="43.004" cy="49.447" r="1.476"></circle><circle cx="46.797" cy="53.083" r="1.475"></circle><circle cx="43.004" cy="53.083" r="1.475"></circle><circle cx="46.797" cy="57.024" r="1.475"></circle><circle cx="50.594" cy="22.734" r="0.767"></circle><circle cx="50.591" cy="26.58" r="0.886"></circle><circle cx="50.586" cy="30.425" r="1.004"></circle><circle cx="50.582" cy="34.271" r="1.12"></circle><circle cx="50.578" cy="38.079" r="1.24"></circle><circle cx="50.573" cy="41.963" r="1.356"></circle><circle cx="50.57" cy="45.809" r="1.476"></circle><circle cx="50.594" cy="80.348" r="0.767"></circle><circle cx="50.591" cy="76.57" r="0.886"></circle><circle cx="50.586" cy="72.723" r="1.003"></circle><circle cx="50.582" cy="68.876" r="1.121"></circle><circle cx="50.578" cy="65.031" r="1.239"></circle><circle cx="50.573" cy="61.186" r="1.356"></circle><circle cx="50.57" cy="49.447" r="1.476"></circle><circle cx="50.57" cy="53.083" r="1.475"></circle><circle cx="50.57" cy="57.024" r="1.475"></circle><circle cx="54.53" cy="76.57" r="0.886"></circle><circle cx="54.525" cy="72.723" r="1.003"></circle><circle cx="54.522" cy="68.876" r="1.121"></circle><circle cx="54.52" cy="65.031" r="1.239"></circle><circle cx="58.309" cy="49.571" r="1.24"></circle><circle cx="62.145" cy="49.571" r="1.144"></circle><circle cx="65.983" cy="49.571" r="1.049"></circle><circle cx="69.821" cy="49.571" r="0.954"></circle><circle cx="73.659" cy="49.571" r="0.859"></circle><circle cx="77.497" cy="49.571" r="0.763"></circle><circle cx="81.334" cy="49.571" r="0.668"></circle><circle cx="85.172" cy="49.571" r="0.573"></circle><circle cx="89.01" cy="49.571" r="0.479"></circle><circle cx="92.848" cy="49.571" r="0.383"></circle><path d="M35.535,52.165c0.684,0,1.239,0.553,1.239,1.238s-0.556,1.24-1.239,1.24s-1.238-0.555-1.238-1.24   C34.297,52.722,34.852,52.165,35.535,52.165z"></path><circle cx="31.698" cy="53.403" r="1.144"></circle><circle cx="27.713" cy="53.403" r="0.764"></circle><circle cx="23.876" cy="53.403" r="0.668"></circle><circle cx="20.038" cy="53.403" r="0.573"></circle><circle cx="16.2" cy="53.403" r="0.479"></circle><circle cx="12.363" cy="53.403" r="0.383"></circle><circle cx="58.356" cy="57.149" r="1.144"></circle><circle cx="62.194" cy="57.149" r="1.049"></circle><circle cx="66.032" cy="57.149" r="0.953"></circle><circle cx="69.87" cy="57.149" r="0.858"></circle><circle cx="73.707" cy="57.149" r="0.763"></circle><circle cx="77.545" cy="57.149" r="0.669"></circle><circle cx="81.383" cy="57.149" r="0.572"></circle><circle cx="85.221" cy="57.149" r="0.479"></circle><circle cx="89.058" cy="57.149" r="0.383"></circle><circle cx="58.356" cy="60.788" r="1.144"></circle><circle cx="62.194" cy="60.788" r="1.049"></circle><circle cx="66.032" cy="60.788" r="0.953"></circle><path d="M70.729,60.788c0,0.473-0.384,0.857-0.859,0.857c-0.474,0-0.857-0.385-0.857-0.857c0-0.477,0.384-0.859,0.857-0.859   C70.345,59.929,70.729,60.312,70.729,60.788z"></path><circle cx="73.707" cy="60.788" r="0.763"></circle><circle cx="77.545" cy="60.788" r="0.669"></circle><circle cx="81.383" cy="60.788" r="0.572"></circle><circle cx="85.221" cy="60.788" r="0.479"></circle><circle cx="89.058" cy="60.788" r="0.383"></circle><circle cx="58.449" cy="65.032" r="0.668"></circle><circle cx="62.286" cy="65.032" r="0.573"></circle><circle cx="66.124" cy="65.032" r="0.477"></circle><circle cx="69.963" cy="65.031" r="0.384"></circle><circle cx="58.449" cy="68.972" r="0.668"></circle><circle cx="62.286" cy="68.972" r="0.573"></circle><circle cx="66.124" cy="68.972" r="0.477"></circle><circle cx="69.963" cy="68.973" r="0.382"></circle><circle cx="58.449" cy="72.761" r="0.668"></circle><circle cx="62.286" cy="72.761" r="0.573"></circle><circle cx="66.124" cy="72.761" r="0.477"></circle><circle cx="69.963" cy="72.762" r="0.382"></circle><path d="M59.117,76.548c0,0.369-0.3,0.67-0.669,0.67s-0.668-0.301-0.668-0.67c0-0.367,0.299-0.666,0.668-0.666   S59.117,76.181,59.117,76.548z"></path><path d="M62.858,76.548c0,0.318-0.255,0.576-0.572,0.576c-0.316,0-0.573-0.258-0.573-0.576c0-0.314,0.257-0.57,0.573-0.57   C62.604,75.978,62.858,76.233,62.858,76.548z"></path><path d="M66.601,76.548c0,0.264-0.212,0.48-0.478,0.48c-0.263,0-0.477-0.217-0.477-0.48c0-0.262,0.214-0.477,0.477-0.477   C66.389,76.071,66.601,76.286,66.601,76.548z"></path><circle cx="39.236" cy="80.348" r="0.767"></circle><circle cx="35.301" cy="80.349" r="0.573"></circle><circle cx="31.464" cy="80.349" r="0.478"></circle><circle cx="27.627" cy="80.349" r="0.383"></circle><circle cx="58.309" cy="53.209" r="1.239"></circle><circle cx="62.145" cy="53.21" r="1.144"></circle><circle cx="65.983" cy="53.21" r="1.049"></circle><circle cx="69.821" cy="53.21" r="0.954"></circle><circle cx="73.659" cy="53.21" r="0.859"></circle><circle cx="77.497" cy="53.21" r="0.763"></circle><circle cx="81.334" cy="53.21" r="0.668"></circle><circle cx="85.172" cy="53.21" r="0.573"></circle><circle cx="89.01" cy="53.21" r="0.479"></circle><circle cx="54.514" cy="61.186" r="1.356"></circle><circle cx="54.511" cy="49.447" r="1.476"></circle><circle cx="58.309" cy="45.783" r="1.239"></circle><circle cx="62.145" cy="45.782" r="1.144"></circle><circle cx="65.983" cy="45.782" r="1.049"></circle><circle cx="69.821" cy="45.782" r="0.954"></circle><circle cx="73.659" cy="45.782" r="0.859"></circle><circle cx="77.497" cy="45.782" r="0.763"></circle><path d="M82.002,45.782c0,0.369-0.299,0.67-0.667,0.67c-0.369,0-0.669-0.301-0.669-0.67c0-0.367,0.3-0.668,0.669-0.668   C81.703,45.114,82.002,45.415,82.002,45.782z"></path><circle cx="85.172" cy="45.782" r="0.573"></circle><circle cx="89.01" cy="45.782" r="0.479"></circle><circle cx="92.848" cy="45.782" r="0.383"></circle><circle cx="35.441" cy="45.632" r="0.954"></circle><circle cx="31.604" cy="45.632" r="0.858"></circle><circle cx="27.766" cy="45.632" r="0.764"></circle><circle cx="23.928" cy="45.632" r="0.668"></circle><circle cx="20.09" cy="45.632" r="0.573"></circle><circle cx="16.252" cy="45.632" r="0.478"></circle><circle cx="12.414" cy="45.631" r="0.382"></circle><circle cx="35.368" cy="30.323" r="0.574"></circle><circle cx="31.529" cy="30.323" r="0.479"></circle><circle cx="27.692" cy="30.323" r="0.383"></circle><circle cx="35.368" cy="34.265" r="0.689"></circle><circle cx="31.529" cy="34.265" r="0.479"></circle><circle cx="27.692" cy="34.265" r="0.383"></circle><circle cx="35.463" cy="26.687" r="0.478"></circle><path d="M54.52,43.233c-0.686,0-1.24-0.555-1.24-1.24c0-0.682,0.555-1.238,1.24-1.238c0.683,0,1.237,0.557,1.237,1.238   C55.757,42.679,55.202,43.233,54.52,43.233z"></path><circle cx="58.356" cy="41.993" r="1.144"></circle><circle cx="62.194" cy="41.993" r="1.049"></circle><circle cx="54.52" cy="38.079" r="1.24"></circle><circle cx="58.356" cy="38.079" r="1.144"></circle><circle cx="62.194" cy="38.079" r="1.049"></circle><circle cx="66.032" cy="41.993" r="0.953"></circle><path d="M70.729,41.993c0,0.473-0.384,0.861-0.859,0.861c-0.474,0-0.857-0.389-0.857-0.861s0.384-0.859,0.857-0.859   C70.345,41.134,70.729,41.521,70.729,41.993z"></path><circle cx="54.464" cy="34.265" r="1.049"></circle><circle cx="58.302" cy="34.265" r="0.954"></circle><circle cx="62.14" cy="34.265" r="0.859"></circle><circle cx="73.707" cy="41.993" r="0.763"></circle><circle cx="77.545" cy="41.993" r="0.669"></circle><circle cx="66.027" cy="38.079" r="0.667"></circle><circle cx="81.383" cy="41.993" r="0.572"></circle><circle cx="69.864" cy="38.079" r="0.573"></circle><circle cx="85.221" cy="41.993" r="0.479"></circle><circle cx="89.058" cy="41.995" r="0.383"></circle><circle cx="73.6" cy="38.079" r="0.383"></circle><circle cx="35.251" cy="38.079" r="1.144"></circle><circle cx="31.413" cy="38.079" r="1.049"></circle><circle cx="27.58" cy="38.079" r="0.668"></circle><circle cx="23.743" cy="38.079" r="0.573"></circle><circle cx="20.008" cy="38.079" r="0.383"></circle><circle cx="35.251" cy="42.019" r="1.144"></circle><circle cx="31.413" cy="42.019" r="1.049"></circle><circle cx="27.58" cy="42.019" r="0.668"></circle><circle cx="23.743" cy="42.019" r="0.573"></circle><circle cx="20.008" cy="42.021" r="0.383"></circle><circle cx="54.616" cy="30.349" r="1.048"></circle><path d="M59.117,30.349c0,0.369-0.3,0.67-0.669,0.67s-0.668-0.301-0.668-0.67c0-0.367,0.299-0.668,0.668-0.668   S59.117,29.981,59.117,30.349z"></path><circle cx="62.286" cy="30.349" r="0.573"></circle><circle cx="66.021" cy="30.35" r="0.384"></circle><circle cx="54.405" cy="26.712" r="0.573"></circle><circle cx="58.141" cy="26.712" r="0.383"></circle><circle cx="54.511" cy="45.658" r="1.476"></circle><circle cx="54.511" cy="53.083" r="1.475"></circle><circle cx="54.511" cy="57.024" r="1.475"></circle><circle cx="43.004" cy="57.024" r="1.475"></circle><circle cx="39.237" cy="26.58" r="0.886"></circle><circle cx="39.237" cy="30.425" r="1.004"></circle><circle cx="35.368" cy="76.399" r="0.574"></circle><circle cx="31.529" cy="76.399" r="0.479"></circle><circle cx="27.692" cy="76.397" r="0.383"></circle><circle cx="39.237" cy="76.5" r="1.003"></circle><circle cx="39.237" cy="34.271" r="1.12"></circle><circle cx="39.237" cy="38.079" r="1.24"></circle><path d="M34.107,72.329c0-0.629,0.512-1.143,1.143-1.143c0.633,0,1.146,0.514,1.146,1.143c0,0.635-0.513,1.146-1.146,1.146   C34.619,73.476,34.107,72.964,34.107,72.329z"></path><path d="M30.364,72.329c0-0.576,0.47-1.047,1.049-1.047c0.58,0,1.049,0.471,1.049,1.047c0,0.584-0.469,1.053-1.049,1.053   C30.834,73.382,30.364,72.913,30.364,72.329z"></path><path d="M26.912,72.329c0-0.365,0.301-0.666,0.669-0.666c0.369,0,0.667,0.301,0.667,0.666c0,0.371-0.298,0.67-0.667,0.67   C27.213,72.999,26.912,72.7,26.912,72.329z"></path><path d="M23.17,72.329c0-0.314,0.257-0.57,0.573-0.57s0.572,0.256,0.572,0.57c0,0.318-0.256,0.574-0.572,0.574   S23.17,72.647,23.17,72.329z"></path><path d="M20.008,71.948c0.212,0,0.384,0.17,0.384,0.381c0,0.215-0.172,0.385-0.384,0.385c-0.21,0-0.383-0.17-0.383-0.385   C19.625,72.118,19.798,71.948,20.008,71.948z"></path><path d="M39.237,71.093c-0.687,0-1.24,0.553-1.24,1.236c0,0.688,0.554,1.24,1.24,1.24c0.684,0,1.238-0.553,1.238-1.24   C40.476,71.646,39.921,71.093,39.237,71.093z"></path><circle cx="39.237" cy="41.963" r="1.356"></circle><circle cx="35.251" cy="49.446" r="1.144"></circle><circle cx="31.413" cy="49.446" r="1.049"></circle><circle cx="27.58" cy="49.446" r="0.668"></circle><circle cx="23.743" cy="49.446" r="0.573"></circle><circle cx="20.008" cy="49.446" r="0.383"></circle><path d="M39.237,48.032c-0.751,0-1.357,0.609-1.357,1.359c0,0.746,0.606,1.355,1.357,1.355c0.748,0,1.356-0.609,1.356-1.355   C40.594,48.642,39.985,48.032,39.237,48.032z"></path><circle cx="39.237" cy="45.809" r="1.476"></circle><circle cx="39.237" cy="53.404" r="1.474"></circle><circle cx="35.535" cy="57.193" r="1.239"></circle><circle cx="31.698" cy="57.192" r="1.144"></circle><circle cx="27.713" cy="57.192" r="0.764"></circle><circle cx="23.876" cy="57.192" r="0.668"></circle><circle cx="20.038" cy="57.192" r="0.573"></circle><circle cx="16.2" cy="57.192" r="0.479"></circle><circle cx="12.363" cy="57.193" r="0.382"></circle><circle cx="8.422" cy="57.191" r="0.317"></circle><circle cx="4.481" cy="57.193" r="0.28"></circle><circle cx="39.237" cy="57.192" r="1.475"></circle><circle cx="35.535" cy="60.981" r="1.238"></circle><circle cx="31.698" cy="60.981" r="1.144"></circle><path d="M26.949,60.981c0-0.422,0.343-0.762,0.766-0.762c0.42,0,0.762,0.34,0.762,0.762c0,0.424-0.342,0.764-0.762,0.764   C27.292,61.745,26.949,61.405,26.949,60.981z"></path><path d="M23.208,60.983c0-0.369,0.299-0.67,0.668-0.67s0.669,0.299,0.669,0.67c-0.001,0.367-0.3,0.666-0.669,0.666   S23.208,61.351,23.208,60.983z"></path><circle cx="20.038" cy="60.983" r="0.573"></circle><circle cx="16.2" cy="60.981" r="0.479"></circle><circle cx="12.363" cy="60.982" r="0.382"></circle><circle cx="8.422" cy="60.982" r="0.317"></circle><circle cx="4.481" cy="60.982" r="0.28"></circle><circle cx="73.796" cy="65.074" r="0.28"></circle><circle cx="73.796" cy="68.862" r="0.279"></circle><circle cx="39.236" cy="64.923" r="1.238"></circle><circle cx="35.487" cy="64.923" r="1.144"></circle><circle cx="31.503" cy="64.923" r="0.764"></circle><circle cx="27.665" cy="64.923" r="0.669"></circle><circle cx="23.828" cy="64.923" r="0.574"></circle><circle cx="19.989" cy="64.923" r="0.478"></circle><circle cx="16.151" cy="64.923" r="0.383"></circle><circle cx="12.212" cy="64.923" r="0.316"></circle><circle cx="8.271" cy="64.923" r="0.279"></circle><circle cx="39.236" cy="68.711" r="1.239"></circle><circle cx="35.487" cy="68.712" r="1.144"></circle><circle cx="31.503" cy="68.712" r="0.764"></circle><circle cx="27.665" cy="68.712" r="0.669"></circle><circle cx="23.828" cy="68.712" r="0.574"></circle><circle cx="19.989" cy="68.712" r="0.478"></circle><circle cx="16.151" cy="68.712" r="0.383"></circle><circle cx="12.212" cy="68.713" r="0.317"></circle><circle cx="39.237" cy="60.982" r="1.476"></circle></g></g>
</svg>
</g><g opacity="1" transform="rotate(0 121.6043 359.5)">
<svg width="229.996" height="21" x="121.6043" y="359.5" version="1.1" preserveAspectRatio="none" viewBox="2.6 -28 393.35999999999996 35.92">
  <g transform="matrix(1 0 0 1 0 0)" class="text"><path id="id-6izo4zJp17" d="M2.60-20L5.60-20L5.60-16.88Q6.68-18.32 8.24-19.32Q9.80-20.32 11.80-20.32Q13.80-20.32 15.24-19.76Q16.68-19.20 17.76-18.08L17.76-18.08Q20.24-15.64 20.24-11.64L20.24-11.64L20.24 0L17.24 0L17.24-11.56Q17.24-14.32 15.68-15.96Q14.12-17.60 11.64-17.60L11.64-17.60Q9.12-17.60 7.36-15.92L7.36-15.92Q5.60-14.20 5.60-11.52L5.60-11.52L5.60 0L2.60 0L2.60-20Z M37.92-20.32L37.92-20.32Q42.40-20.32 45.20-17.32L45.20-17.32Q47.84-14.44 47.84-10L47.84-10Q47.84-5.56 45.20-2.68L45.20-2.68Q42.40 0.32 37.92 0.32L37.92 0.32Q33.44 0.32 30.64-2.68L30.64-2.68Q28-5.56 28-10L28-10Q28-14.44 30.64-17.32L30.64-17.32Q33.44-20.32 37.92-20.32ZM37.92-2.40L37.92-2.40Q41.16-2.40 43.04-4.64L43.04-4.64Q44.84-6.76 44.84-10L44.84-10Q44.84-13.24 43.04-15.36L43.04-15.36Q41.16-17.60 37.92-17.60L37.92-17.60Q34.68-17.60 32.80-15.36L32.80-15.36Q31-13.24 31-10L31-10Q31-6.76 32.80-4.64L32.80-4.64Q34.68-2.40 37.92-2.40Z M60.60 0L57.60 0L57.60-17.36L53.52-17.36L53.52-20L57.60-20L57.60-27.16L60.60-27.16L60.60-20L65.20-20L65.20-17.36L60.60-17.36L60.60 0Z M100.60 0L100.60-3.20Q98.20 0.32 93.44 0.32L93.44 0.32Q89.12 0.32 86.40-2.68L86.40-2.68Q83.76-5.64 83.76-10L83.76-10Q83.76-14.36 86.40-17.32L86.40-17.32Q89.12-20.32 93.64-20.32Q98.16-20.32 100.60-16.76L100.60-16.76L100.60-20L103.60-20L103.60 0L100.60 0ZM93.84-2.40L93.84-2.40Q97.08-2.40 98.96-4.64L98.96-4.64Q100.76-6.76 100.76-10L100.76-10Q100.76-13.24 98.96-15.36L98.96-15.36Q97.08-17.60 93.84-17.60L93.84-17.60Q90.64-17.60 88.64-15.36L88.64-15.36Q86.76-13.24 86.76-10L86.76-10Q86.76-6.76 88.64-4.64L88.64-4.64Q90.64-2.40 93.84-2.40Z M115.80-28L115.80 0L112.80 0L112.80-28L115.80-28Z M133.68-20.32L133.68-20.32Q138.16-20.32 140.96-17.32L140.96-17.32Q143.60-14.44 143.60-10L143.60-10Q143.60-5.56 140.96-2.68L140.96-2.68Q138.16 0.32 133.68 0.32L133.68 0.32Q129.20 0.32 126.40-2.68L126.40-2.68Q123.76-5.56 123.76-10L123.76-10Q123.76-14.44 126.40-17.32L126.40-17.32Q129.20-20.32 133.68-20.32ZM133.68-2.40L133.68-2.40Q136.92-2.40 138.80-4.64L138.80-4.64Q140.60-6.76 140.60-10L140.60-10Q140.60-13.24 138.80-15.36L138.80-15.36Q136.92-17.60 133.68-17.60L133.68-17.60Q130.44-17.60 128.56-15.36L128.56-15.36Q126.76-13.24 126.76-10L126.76-10Q126.76-6.76 128.56-4.64L128.56-4.64Q130.44-2.40 133.68-2.40Z M151.56-20L154.56-20L154.56-16.88Q155.64-18.32 157.20-19.32Q158.76-20.32 160.76-20.32Q162.76-20.32 164.20-19.76Q165.64-19.20 166.72-18.08L166.72-18.08Q169.20-15.64 169.20-11.64L169.20-11.64L169.20 0L166.20 0L166.20-11.56Q166.20-14.32 164.64-15.96Q163.08-17.60 160.60-17.60L160.60-17.60Q158.08-17.60 156.32-15.92L156.32-15.92Q154.56-14.20 154.56-11.52L154.56-11.52L154.56 0L151.56 0L151.56-20Z M187.12-2.40L187.12-2.40Q191.16-2.40 192.92-5.76L192.92-5.76L196.20-5.76Q195.16-3.04 192.90-1.36Q190.64 0.32 187.08 0.32L187.08 0.32Q182.56 0.32 179.72-2.68L179.72-2.68Q176.96-5.60 176.96-10L176.96-10Q176.96-14.44 179.60-17.32L179.60-17.32Q182.40-20.32 186.88-20.32L186.88-20.32Q191.36-20.32 194.16-17.32L194.16-17.32Q196.80-14.44 196.80-10L196.80-10L196.80-8.80L180.04-8.80Q180.36-6.04 182.24-4.24L182.24-4.24Q184.16-2.40 187.12-2.40ZM186.88-17.60L186.88-17.60Q184.12-17.60 182.24-15.88L182.24-15.88Q180.48-14.24 180.08-11.60L180.08-11.60L193.68-11.60Q193.28-14.24 191.52-15.88L191.52-15.88Q189.64-17.60 186.88-17.60Z M232.60 0L232.60-3.20Q230.20 0.32 225.44 0.32L225.44 0.32Q221.12 0.32 218.40-2.68L218.40-2.68Q215.76-5.64 215.76-10L215.76-10Q215.76-14.36 218.40-17.32L218.40-17.32Q221.12-20.32 225.64-20.32Q230.16-20.32 232.60-16.76L232.60-16.76L232.60-20L235.60-20L235.60 0L232.60 0ZM225.84-2.40L225.84-2.40Q229.08-2.40 230.96-4.64L230.96-4.64Q232.76-6.76 232.76-10L232.76-10Q232.76-13.24 230.96-15.36L230.96-15.36Q229.08-17.60 225.84-17.60L225.84-17.60Q222.64-17.60 220.64-15.36L220.64-15.36Q218.76-13.24 218.76-10L218.76-10Q218.76-6.76 220.64-4.64L220.64-4.64Q222.64-2.40 225.84-2.40Z M244.80-20L247.80-20L247.80-16.88Q248.88-18.32 250.44-19.32Q252.00-20.32 254.00-20.32Q256.00-20.32 257.44-19.76Q258.88-19.20 259.96-18.08L259.96-18.08Q262.44-15.64 262.44-11.64L262.44-11.64L262.44 0L259.44 0L259.44-11.56Q259.44-14.32 257.88-15.96Q256.32-17.60 253.84-17.60L253.84-17.60Q251.32-17.60 249.56-15.92L249.56-15.92Q247.80-14.20 247.80-11.52L247.80-11.52L247.80 0L244.80 0L244.80-20Z M288.08-20L276.24 7.92L273.00 7.92L276.64-0.28L268.48-20L271.80-20L278.24-3.60L284.80-20L288.08-20Z M297.80-20L297.80-16.96Q299.80-20.32 303.88-20.32L303.88-20.32Q305.88-20.32 307.58-19.26Q309.28-18.20 310.24-16.28L310.24-16.28Q311.60-18.80 314.48-19.88L314.48-19.88Q315.64-20.32 317.10-20.32Q318.56-20.32 319.90-19.74Q321.24-19.16 322.28-18.08L322.28-18.08Q324.52-15.68 324.52-12.08L324.52-12.08L324.52 0L321.52 0L321.52-12Q321.52-14.48 320.12-16.08L320.12-16.08Q318.72-17.60 316.56-17.60L316.56-17.60Q314.28-17.60 312.76-16.12L312.76-16.12Q311.16-14.60 311.16-11.96L311.16-11.96L311.16 0L308.16 0L308.16-12Q308.16-14.48 306.76-16.08L306.76-16.08Q305.36-17.60 303.20-17.60L303.20-17.60Q300.92-17.60 299.40-16.12L299.40-16.12Q297.80-14.60 297.80-11.96L297.80-11.96L297.80 0L294.80 0L294.80-20L297.80-20Z M342.20-20.32L342.20-20.32Q346.68-20.32 349.48-17.32L349.48-17.32Q352.12-14.44 352.12-10L352.12-10Q352.12-5.56 349.48-2.68L349.48-2.68Q346.68 0.32 342.20 0.32L342.20 0.32Q337.72 0.32 334.92-2.68L334.92-2.68Q332.28-5.56 332.28-10L332.28-10Q332.28-14.44 334.92-17.32L334.92-17.32Q337.72-20.32 342.20-20.32ZM342.20-2.40L342.20-2.40Q345.44-2.40 347.32-4.64L347.32-4.64Q349.12-6.76 349.12-10L349.12-10Q349.12-13.24 347.32-15.36L347.32-15.36Q345.44-17.60 342.20-17.60L342.20-17.60Q338.96-17.60 337.08-15.36L337.08-15.36Q335.28-13.24 335.28-10L335.28-10Q335.28-6.76 337.08-4.64L337.08-4.64Q338.96-2.40 342.20-2.40Z M370.44-20.32L370.64-20.32L370.64-17.32L370.28-17.32Q367.04-17.32 365.00-14.72L365.00-14.72Q363.08-12.24 363.08-8.80L363.08-8.80L363.08 0L360.08 0L360.08-20L363.08-20L363.08-15.08Q364.04-18.20 367.24-19.68L367.24-19.68Q368.56-20.32 370.44-20.32L370.44-20.32Z M386.28-2.40L386.28-2.40Q390.32-2.40 392.08-5.76L392.08-5.76L395.36-5.76Q394.32-3.04 392.06-1.36Q389.80 0.32 386.24 0.32L386.24 0.32Q381.72 0.32 378.88-2.68L378.88-2.68Q376.12-5.60 376.12-10L376.12-10Q376.12-14.44 378.76-17.32L378.76-17.32Q381.56-20.32 386.04-20.32L386.04-20.32Q390.52-20.32 393.32-17.32L393.32-17.32Q395.96-14.44 395.96-10L395.96-10L395.96-8.80L379.20-8.80Q379.52-6.04 381.40-4.24L381.40-4.24Q383.32-2.40 386.28-2.40ZM386.04-17.60L386.04-17.60Q383.28-17.60 381.40-15.88L381.40-15.88Q379.64-14.24 379.24-11.60L379.24-11.60L392.84-11.60Q392.44-14.24 390.68-15.88L390.68-15.88Q388.80-17.60 386.04-17.60Z"/></g>
</svg>
</g><g opacity="1" transform="rotate(0 69.3373 287.5)">
<svg width="334.53" height="50" x="69.3373" y="287.5" version="1.1" preserveAspectRatio="none" viewBox="3.32 -28.48 193.76000000000002 28.96">
  <g transform="matrix(1 0 0 1 0 0)" class="companyName"><path id="id-D6z1nYkh8" d="M3.32 0L3.32-28L9.80-28L9.80-5.28L23.84-5.28L23.84 0L3.32 0Z M39.56 0.48Q33.56 0.48 30.22-2.84Q26.88-6.16 26.88-12.32L26.88-12.32L26.88-28L33.36-28L33.36-12.56Q33.36-5.04 39.60-5.04L39.60-5.04Q42.64-5.04 44.24-6.86Q45.84-8.68 45.84-12.56L45.84-12.56L45.84-28L52.24-28L52.24-12.32Q52.24-6.16 48.90-2.84Q45.56 0.48 39.56 0.48L39.56 0.48Z M72.04 0.48Q67.76 0.48 64.30-1.38Q60.84-3.24 58.86-6.54Q56.88-9.84 56.88-14L56.88-14Q56.88-18.16 58.86-21.46Q60.84-24.76 64.30-26.62Q67.76-28.48 72.08-28.48L72.08-28.48Q75.72-28.48 78.66-27.20Q81.60-25.92 83.60-23.52L83.60-23.52L79.44-19.68Q76.60-22.96 72.40-22.96L72.40-22.96Q69.80-22.96 67.76-21.82Q65.72-20.68 64.58-18.64Q63.44-16.60 63.44-14L63.44-14Q63.44-11.40 64.58-9.36Q65.72-7.32 67.76-6.18Q69.80-5.04 72.40-5.04L72.40-5.04Q76.60-5.04 79.44-8.36L79.44-8.36L83.60-4.52Q81.60-2.08 78.64-0.80Q75.68 0.48 72.04 0.48L72.04 0.48Z M87.96 0L87.96-28L94.44-28L94.44 0L87.96 0Z M101.08 0L101.08-28L113.80-28Q118.36-28 121.86-26.26Q125.36-24.52 127.30-21.36Q129.24-18.20 129.24-14L129.24-14Q129.24-9.80 127.30-6.64Q125.36-3.48 121.86-1.74Q118.36 0 113.80 0L113.80 0L101.08 0ZM107.56-5.32L113.48-5.32Q117.68-5.32 120.18-7.66Q122.68-10 122.68-14L122.68-14Q122.68-18 120.18-20.34Q117.68-22.68 113.48-22.68L113.48-22.68L107.56-22.68L107.56-5.32Z M134.12 0L134.12-28L140.60-28L140.60-5.28L154.64-5.28L154.64 0L134.12 0Z M158.28 0L158.28-28L164.76-28L164.76 0L158.28 0Z M191.96-14.56Q194.36-13.80 195.72-12.02Q197.08-10.24 197.08-7.64L197.08-7.64Q197.08-3.96 194.22-1.98Q191.36 0 185.88 0L185.88 0L171.40 0L171.40-28L185.08-28Q190.20-28 192.94-26.04Q195.68-24.08 195.68-20.72L195.68-20.72Q195.68-18.68 194.70-17.08Q193.72-15.48 191.96-14.56L191.96-14.56ZM184.28-23.12L177.84-23.12L177.84-16.52L184.28-16.52Q186.68-16.52 187.92-17.36Q189.16-18.20 189.16-19.84L189.16-19.84Q189.16-21.48 187.92-22.30Q186.68-23.12 184.28-23.12L184.28-23.12ZM185.40-4.88Q187.96-4.88 189.26-5.72Q190.56-6.56 190.56-8.32L190.56-8.32Q190.56-11.80 185.40-11.80L185.40-11.80L177.84-11.80L177.84-4.88L185.40-4.88Z"/></g>
</svg>
</g></svg></svg>