<svg version="1.1" preserveAspectRatio="none" xmlns="http://www.w3.org/2000/svg" width="500" height="500" viewBox="0 0 500 500"><rect width="100%" height="100%" fill="#D7D7D7" fill-opacity="1"/><svg viewBox="48.7984 233.8791 431.8937 119.8" width="333" height="92.36856198643324" x="83.5px" y="203.8157px" xmlns="http://www.w3.org/2000/svg" xmlns:xlink="http://www.w3.org/1999/xlink" preserveAspectRatio="none"><defs></defs><style>.companyName {fill:#2D2D2D;fill-opacity:1;}.icon1 {fill:#517BFF;fill-opacity:1;}.icon3-str {stroke:#1B3C9D;stroke-opacity:1;}.shapeStroke-str {stroke:#2D2D2D;stroke-opacity:1;}.text {fill:#2D2D2D;fill-opacity:1;}</style><g opacity="1" transform="rotate(0 48.7984 307.8791)">
<svg width="431.8937" height="2" x="48.7984" y="307.8791" version="1.1" preserveAspectRatio="none" viewBox="0 0 431.8937 2">
  <rect x="0" y="0" width="431.8937" height="2" class="icon1 shapeStroke-str" style="stroke-width:0;" rx="0%" ry="0%" />
</svg>
</g><g opacity="1" transform="rotate(0 134.4514 324.8791)">
<svg width="260.5877" height="28.8" x="134.4514" y="324.8791" version="1.1" preserveAspectRatio="none" viewBox="3.56 -30.4 343.08 37.92">
  <g transform="matrix(1 0 0 1 0 0)" class="text"><path id="id-6izo4zJp17" d="M11.96-16.08Q14.12-16.08 15.48-14.78Q16.84-13.48 16.92-11.40L16.92-11.40L16.92 0L15 0L15-10.88Q14.92-12.44 14-13.42Q13.08-14.40 11.36-14.44L11.36-14.44Q9.76-14.44 8.42-13.68Q7.08-12.92 6.26-11.54Q5.44-10.16 5.44-8.40L5.44-8.40L5.44 0L3.56 0L3.56-15.64L5.20-15.64L5.36-12.16Q6.12-13.96 7.94-15.02Q9.76-16.08 11.96-16.08L11.96-16.08Z M24.52-7.92Q24.52-10.16 25.62-12.06Q26.72-13.96 28.64-15.06Q30.56-16.16 32.88-16.16L32.88-16.16Q35.20-16.16 37.12-15.06Q39.04-13.96 40.12-12.06Q41.20-10.16 41.20-7.92L41.20-7.92Q41.20-5.64 40.10-3.76Q39-1.88 37.10-0.78Q35.20 0.32 32.84 0.32L32.84 0.32Q30.48 0.32 28.58-0.74Q26.68-1.80 25.60-3.68Q24.52-5.56 24.52-7.92L24.52-7.92ZM26.40-7.88Q26.40-6.08 27.26-4.56Q28.12-3.04 29.60-2.16Q31.08-1.28 32.84-1.28L32.84-1.28Q34.60-1.28 36.08-2.16Q37.56-3.04 38.42-4.56Q39.28-6.08 39.28-7.88L39.28-7.88Q39.28-9.68 38.42-11.22Q37.56-12.76 36.08-13.64Q34.60-14.52 32.84-14.52L32.84-14.52Q31.04-14.52 29.56-13.58Q28.08-12.64 27.24-11.12Q26.40-9.60 26.40-7.88L26.40-7.88Z M50.36-22.52L52.28-22.52L52.28-15.44L57.12-15.44L57.12-13.92L52.28-13.92L52.28 0L50.36 0L50.36-13.92L47.04-13.92L47.04-15.44L50.36-15.44L50.36-22.52Z M91.64-15.64L93.32-15.64L93.32 0L91.44 0L91.44-3.32Q90.52-1.80 88.64-0.74Q86.76 0.32 84.56 0.32L84.56 0.32Q82.32 0.32 80.50-0.70Q78.68-1.72 77.62-3.58Q76.56-5.44 76.56-7.84L76.56-7.84Q76.56-10.40 77.66-12.26Q78.76-14.12 80.70-15.12Q82.64-16.12 85.08-16.12L85.08-16.12Q87.00-16.12 88.76-15.04Q90.52-13.96 91.44-12.24L91.44-12.24L91.64-15.64ZM84.96-1.28Q87.60-1.28 89.44-2.92Q91.28-4.56 91.44-7.12L91.44-7.12L91.44-9.36Q90.96-11.56 89.12-13.04Q87.28-14.52 84.92-14.52L84.92-14.52Q83.12-14.52 81.64-13.70Q80.16-12.88 79.30-11.38Q78.44-9.88 78.44-7.92L78.44-7.92Q78.44-6.12 79.32-4.60Q80.20-3.08 81.70-2.18Q83.20-1.28 84.96-1.28L84.96-1.28Z M102.44-30.40L104.32-30.40L104.32 0L102.44 0L102.44-30.40Z M111.92-7.92Q111.92-10.16 113.02-12.06Q114.12-13.96 116.04-15.06Q117.96-16.16 120.28-16.16L120.28-16.16Q122.60-16.16 124.52-15.06Q126.44-13.96 127.52-12.06Q128.60-10.16 128.60-7.92L128.60-7.92Q128.60-5.64 127.50-3.76Q126.40-1.88 124.50-0.78Q122.60 0.32 120.24 0.32L120.24 0.32Q117.88 0.32 115.98-0.74Q114.08-1.80 113.00-3.68Q111.92-5.56 111.92-7.92L111.92-7.92ZM113.80-7.88Q113.80-6.08 114.66-4.56Q115.52-3.04 117.00-2.16Q118.48-1.28 120.24-1.28L120.24-1.28Q122.00-1.28 123.48-2.16Q124.96-3.04 125.82-4.56Q126.68-6.08 126.68-7.88L126.68-7.88Q126.68-9.68 125.82-11.22Q124.96-12.76 123.48-13.64Q122.00-14.52 120.24-14.52L120.24-14.52Q118.44-14.52 116.96-13.58Q115.48-12.64 114.64-11.12Q113.80-9.60 113.80-7.88L113.80-7.88Z M144.60-16.08Q146.76-16.08 148.12-14.78Q149.48-13.48 149.56-11.40L149.56-11.40L149.56 0L147.64 0L147.64-10.88Q147.56-12.44 146.64-13.42Q145.72-14.40 144-14.44L144-14.44Q142.40-14.44 141.06-13.68Q139.72-12.92 138.90-11.54Q138.08-10.16 138.08-8.40L138.08-8.40L138.08 0L136.20 0L136.20-15.64L137.84-15.64L138.00-12.16Q138.76-13.96 140.58-15.02Q142.40-16.08 144.60-16.08L144.60-16.08Z M165.52-1.32Q168.04-1.32 170.08-3.04L170.08-3.04L171.04-1.68Q169.88-0.76 168.42-0.22Q166.96 0.32 165.48 0.32L165.48 0.32Q163.08 0.32 161.18-0.76Q159.28-1.84 158.22-3.70Q157.16-5.56 157.16-7.88L157.16-7.88Q157.16-10.12 158.28-12.02Q159.40-13.92 161.32-15.04Q163.24-16.16 165.52-16.16L165.52-16.16Q168.24-16.16 170.16-14.56Q172.08-12.96 172.96-10.24L172.96-10.24L159.60-5.08Q160.36-3.40 161.94-2.36Q163.52-1.32 165.52-1.32L165.52-1.32ZM165.40-14.56Q163.64-14.56 162.16-13.68Q160.68-12.80 159.84-11.30Q159-9.80 159-7.96L159-7.96Q159-7.12 159.16-6.48L159.16-6.48L170.68-11Q169.92-12.60 168.56-13.58Q167.20-14.56 165.40-14.56L165.40-14.56Z M208-15.64L209.68-15.64L209.68 0L207.80 0L207.80-3.32Q206.88-1.80 205-0.74Q203.12 0.32 200.92 0.32L200.92 0.32Q198.68 0.32 196.86-0.70Q195.04-1.72 193.98-3.58Q192.92-5.44 192.92-7.84L192.92-7.84Q192.92-10.40 194.02-12.26Q195.12-14.12 197.06-15.12Q199-16.12 201.44-16.12L201.44-16.12Q203.36-16.12 205.12-15.04Q206.88-13.96 207.80-12.24L207.80-12.24L208-15.64ZM201.32-1.28Q203.96-1.28 205.80-2.92Q207.64-4.56 207.80-7.12L207.80-7.12L207.80-9.36Q207.32-11.56 205.48-13.04Q203.64-14.52 201.28-14.52L201.28-14.52Q199.48-14.52 198-13.70Q196.52-12.88 195.66-11.38Q194.80-9.88 194.80-7.92L194.80-7.92Q194.80-6.12 195.68-4.60Q196.56-3.08 198.06-2.18Q199.56-1.28 201.32-1.28L201.32-1.28Z M227.20-16.08Q229.36-16.08 230.72-14.78Q232.08-13.48 232.16-11.40L232.16-11.40L232.16 0L230.24 0L230.24-10.88Q230.16-12.44 229.24-13.42Q228.32-14.40 226.60-14.44L226.60-14.44Q225-14.44 223.66-13.68Q222.32-12.92 221.50-11.54Q220.68-10.16 220.68-8.40L220.68-8.40L220.68 0L218.80 0L218.80-15.64L220.44-15.64L220.60-12.16Q221.36-13.96 223.18-15.02Q225-16.08 227.20-16.08L227.20-16.08Z M252.56-15.64L254.40-15.64L244.32 7.52L242.36 7.52L245.72-0.16L238.48-15.64L240.60-15.64L246.68-2.32L252.56-15.64Z M280.52-16.08Q282.72-16.08 284.04-14.80Q285.36-13.52 285.44-11.40L285.44-11.40L285.44 0L283.56 0L283.56-11Q283.48-12.44 282.62-13.40Q281.76-14.36 280.12-14.44L280.12-14.44Q278.56-14.44 277.24-13.64Q275.92-12.84 275.10-11.50Q274.28-10.16 274.20-8.56L274.20-8.56L274.20 0L272.32 0L272.32-11Q272.24-12.44 271.36-13.40Q270.48-14.36 268.84-14.44L268.84-14.44Q267.28-14.44 265.92-13.64Q264.56-12.84 263.76-11.44Q262.96-10.04 262.96-8.40L262.96-8.40L262.96 0L261.08 0L261.08-15.64L262.72-15.64L262.88-12.20Q263.76-14 265.52-15.04Q267.28-16.08 269.36-16.08L269.36-16.08Q271.24-16.08 272.60-15.06Q273.96-14.04 274.20-12.44L274.20-12.44Q275.12-14.16 276.82-15.12Q278.52-16.08 280.52-16.08L280.52-16.08Z M293.04-7.92Q293.04-10.16 294.14-12.06Q295.24-13.96 297.16-15.06Q299.08-16.16 301.40-16.16L301.40-16.16Q303.72-16.16 305.64-15.06Q307.56-13.96 308.64-12.06Q309.72-10.16 309.72-7.92L309.72-7.92Q309.72-5.64 308.62-3.76Q307.52-1.88 305.62-0.78Q303.72 0.32 301.36 0.32L301.36 0.32Q299 0.32 297.10-0.74Q295.20-1.80 294.12-3.68Q293.04-5.56 293.04-7.92L293.04-7.92ZM294.92-7.88Q294.92-6.08 295.78-4.56Q296.64-3.04 298.12-2.16Q299.60-1.28 301.36-1.28L301.36-1.28Q303.12-1.28 304.60-2.16Q306.08-3.04 306.94-4.56Q307.80-6.08 307.80-7.88L307.80-7.88Q307.80-9.68 306.94-11.22Q306.08-12.76 304.60-13.64Q303.12-14.52 301.36-14.52L301.36-14.52Q299.56-14.52 298.08-13.58Q296.60-12.64 295.76-11.12Q294.92-9.60 294.92-7.88L294.92-7.88Z M319.12-11.92Q319.96-13.80 321.88-14.92Q323.80-16.04 325.72-16.08L325.72-16.08L325.64-14.24Q323.88-14.24 322.40-13.46Q320.92-12.68 320.06-11.30Q319.20-9.92 319.20-8.28L319.20-8.28L319.20 0L317.32 0L317.32-15.64L318.96-15.64L319.12-11.92Z M339.20-1.32Q341.72-1.32 343.76-3.04L343.76-3.04L344.72-1.68Q343.56-0.76 342.10-0.22Q340.64 0.32 339.16 0.32L339.16 0.32Q336.76 0.32 334.86-0.76Q332.96-1.84 331.90-3.70Q330.84-5.56 330.84-7.88L330.84-7.88Q330.84-10.12 331.96-12.02Q333.08-13.92 335-15.04Q336.92-16.16 339.20-16.16L339.20-16.16Q341.92-16.16 343.84-14.56Q345.76-12.96 346.64-10.24L346.64-10.24L333.28-5.08Q334.04-3.40 335.62-2.36Q337.20-1.32 339.20-1.32L339.20-1.32ZM339.08-14.56Q337.32-14.56 335.84-13.68Q334.36-12.80 333.52-11.30Q332.68-9.80 332.68-7.96L332.68-7.96Q332.68-7.12 332.84-6.48L332.84-6.48L344.36-11Q343.60-12.60 342.24-13.58Q340.88-14.56 339.08-14.56L339.08-14.56Z"/></g>
</svg>
</g><g opacity="1" transform="rotate(0 68.7984 233.8791)">
<svg width="391.8937" height="60" x="68.7984" y="233.8791" version="1.1" preserveAspectRatio="none" viewBox="1.36 -25.44 169.55999999999997 25.96">
  <g transform="matrix(1 0 0 1 0 0)" class="companyName"><path id="id-D6z1nYkh8" d="M7.12-21.72L7.12-3.40Q7.12-2.24 7.38-1.70Q7.64-1.16 8.34-0.96Q9.04-0.76 10.56-0.76L10.56-0.76L15.68-0.76Q19.64-0.76 20.36-5.84L20.36-5.84Q20.36-5.96 20.58-5.94Q20.80-5.92 20.80-5.80L20.80-5.80Q20.44-2.64 20.44-0.60L20.44-0.60Q20.44-0.28 20.32-0.14Q20.20 0 19.84 0L19.84 0L1.44 0Q1.36 0 1.36-0.24Q1.36-0.48 1.44-0.48L1.44-0.48Q3-0.48 3.74-0.68Q4.48-0.88 4.74-1.46Q5-2.04 5-3.24L5-3.24L5-21.76Q5-22.96 4.74-23.52Q4.48-24.08 3.74-24.30Q3-24.52 1.44-24.52L1.44-24.52Q1.36-24.52 1.36-24.76Q1.36-25 1.44-25L1.44-25L3.40-24.96Q5.08-24.88 6.04-24.88L6.04-24.88Q7.12-24.88 8.80-24.96L8.80-24.96L10.68-25Q10.76-25 10.76-24.76Q10.76-24.52 10.68-24.52L10.68-24.52Q9.12-24.52 8.38-24.30Q7.64-24.08 7.38-23.50Q7.12-22.92 7.12-21.72L7.12-21.72Z M44.08-20.80Q44.08-22.72 43.26-23.62Q42.44-24.52 40.68-24.52L40.68-24.52Q40.56-24.52 40.56-24.76Q40.56-25 40.68-25L40.68-25L42.36-24.96Q43.72-24.88 44.56-24.88L44.56-24.88Q45.28-24.88 46.48-24.96L46.48-24.96L48.12-25Q48.20-25 48.20-24.76Q48.20-24.52 48.12-24.52L48.12-24.52Q46.48-24.52 45.72-23.62Q44.96-22.72 44.96-20.80L44.96-20.80L44.96-9.36Q44.96-4.68 42.44-2.08Q39.92 0.52 35.64 0.52L35.64 0.52Q32.68 0.52 30.48-0.66Q28.28-1.84 27.08-4Q25.88-6.16 25.88-9L25.88-9L25.88-21.76Q25.88-22.96 25.62-23.52Q25.36-24.08 24.62-24.30Q23.88-24.52 22.32-24.52L22.32-24.52Q22.24-24.52 22.24-24.76Q22.24-25 22.32-25L22.32-25L24.24-24.96Q25.92-24.88 26.92-24.88L26.92-24.88Q28-24.88 29.68-24.96L29.68-24.96L31.52-25Q31.64-25 31.64-24.76Q31.64-24.52 31.52-24.52L31.52-24.52Q29.96-24.52 29.24-24.28Q28.52-24.04 28.26-23.46Q28-22.88 28-21.68L28-21.68L28-10.40Q28-5.72 30.20-3.18Q32.40-0.64 36.36-0.64L36.36-0.64Q40-0.64 42.04-2.94Q44.08-5.24 44.08-9.32L44.08-9.32L44.08-20.80Z M65.60-25.44Q67.56-25.44 69.54-25.04Q71.52-24.64 72.72-23.96L72.72-23.96Q73.04-23.76 73.14-23.58Q73.24-23.40 73.28-23L73.28-23L73.72-18.80Q73.72-18.68 73.52-18.66Q73.32-18.64 73.28-18.76L73.28-18.76Q71.84-24.60 64.04-24.60L64.04-24.60Q60.92-24.60 58.54-23.26Q56.16-21.92 54.84-19.48Q53.52-17.04 53.52-13.84L53.52-13.84Q53.52-10.08 55.16-6.90Q56.80-3.72 59.52-1.86Q62.24 0 65.40 0L65.40 0Q68.36 0 70.50-1.56Q72.64-3.12 73.64-6.32L73.64-6.32Q73.64-6.44 73.80-6.44L73.80-6.44Q73.92-6.44 74.02-6.40Q74.12-6.36 74.12-6.28L74.12-6.28L73.56-2Q73.48-1.52 73.38-1.38Q73.28-1.24 72.92-1.08L72.92-1.08Q69.36 0.48 65.28 0.48L65.28 0.48Q60.48 0.48 57.28-1.46Q54.08-3.40 52.56-6.42Q51.04-9.44 51.04-12.76L51.04-12.76Q51.04-16.40 53.08-19.30Q55.12-22.20 58.48-23.82Q61.84-25.44 65.60-25.44L65.60-25.44Z M83.52-3.24Q83.52-2 83.78-1.44Q84.04-0.88 84.76-0.68Q85.48-0.48 87.08-0.48L87.08-0.48Q87.16-0.48 87.16-0.24Q87.16 0 87.08 0L87.08 0Q85.88 0 85.20-0.04L85.20-0.04L82.40-0.08L79.72-0.04Q79 0 77.76 0L77.76 0Q77.64 0 77.64-0.24Q77.64-0.48 77.76-0.48L77.76-0.48Q79.32-0.48 80.06-0.68Q80.80-0.88 81.08-1.46Q81.36-2.04 81.36-3.24L81.36-3.24L81.36-21.76Q81.36-22.96 81.08-23.52Q80.80-24.08 80.06-24.30Q79.32-24.52 77.76-24.52L77.76-24.52Q77.64-24.52 77.64-24.76Q77.64-25 77.76-25L77.76-25L79.72-24.96Q81.40-24.88 82.40-24.88L82.40-24.88Q83.52-24.88 85.20-24.96L85.20-24.96L87.08-25Q87.16-25 87.16-24.76Q87.16-24.52 87.08-24.52L87.08-24.52Q85.52-24.52 84.78-24.28Q84.04-24.04 83.78-23.46Q83.52-22.88 83.52-21.68L83.52-21.68L83.52-3.24Z M100.92 0.16Q99.76 0.16 98.32 0.04L98.32 0.04Q97.76 0 96.94-0.04Q96.12-0.08 95.12-0.08L95.12-0.08L92.48-0.04Q91.76 0 90.48 0L90.48 0Q90.40 0 90.40-0.24Q90.40-0.48 90.48-0.48L90.48-0.48Q92.04-0.48 92.78-0.68Q93.52-0.88 93.80-1.46Q94.08-2.04 94.08-3.24L94.08-3.24L94.08-21.76Q94.08-22.96 93.82-23.52Q93.56-24.08 92.82-24.30Q92.08-24.52 90.52-24.52L90.52-24.52Q90.44-24.52 90.44-24.76Q90.44-25 90.52-25L90.52-25L92.48-24.96Q94.16-24.88 95.12-24.88L95.12-24.88Q96.52-24.88 97.96-25L97.96-25Q99.72-25.08 100.36-25.08L100.36-25.08Q104.56-25.08 107.80-23.48Q111.04-21.88 112.82-19.12Q114.60-16.36 114.60-12.92L114.60-12.92Q114.60-9.04 112.74-6.06Q110.88-3.08 107.76-1.46Q104.64 0.16 100.92 0.16L100.92 0.16ZM100.52-0.36Q103.88-0.36 106.48-1.72Q109.08-3.08 110.54-5.72Q112-8.36 112-12.04L112-12.04Q112-15.56 110.62-18.40Q109.24-21.24 106.66-22.90Q104.08-24.56 100.72-24.56L100.72-24.56Q98.96-24.56 98.02-24.36Q97.08-24.16 96.64-23.54Q96.20-22.92 96.20-21.68L96.20-21.68L96.20-3.68Q96.20-2.48 96.56-1.76Q96.92-1.04 97.84-0.70Q98.76-0.36 100.52-0.36L100.52-0.36Z M123.68-21.72L123.68-3.40Q123.68-2.24 123.94-1.70Q124.20-1.16 124.90-0.96Q125.60-0.76 127.12-0.76L127.12-0.76L132.24-0.76Q136.20-0.76 136.92-5.84L136.92-5.84Q136.92-5.96 137.14-5.94Q137.36-5.92 137.36-5.80L137.36-5.80Q137-2.64 137-0.60L137-0.60Q137-0.28 136.88-0.14Q136.76 0 136.40 0L136.40 0L118 0Q117.92 0 117.92-0.24Q117.92-0.48 118-0.48L118-0.48Q119.56-0.48 120.30-0.68Q121.04-0.88 121.30-1.46Q121.56-2.04 121.56-3.24L121.56-3.24L121.56-21.76Q121.56-22.96 121.30-23.52Q121.04-24.08 120.30-24.30Q119.56-24.52 118-24.52L118-24.52Q117.92-24.52 117.92-24.76Q117.92-25 118-25L118-25L119.96-24.96Q121.64-24.88 122.60-24.88L122.60-24.88Q123.68-24.88 125.36-24.96L125.36-24.96L127.24-25Q127.32-25 127.32-24.76Q127.32-24.52 127.24-24.52L127.24-24.52Q125.68-24.52 124.94-24.30Q124.20-24.08 123.94-23.50Q123.68-22.92 123.68-21.72L123.68-21.72Z M145.44-3.24Q145.44-2 145.70-1.44Q145.96-0.88 146.68-0.68Q147.40-0.48 149-0.48L149-0.48Q149.08-0.48 149.08-0.24Q149.08 0 149 0L149 0Q147.80 0 147.12-0.04L147.12-0.04L144.32-0.08L141.64-0.04Q140.92 0 139.68 0L139.68 0Q139.56 0 139.56-0.24Q139.56-0.48 139.68-0.48L139.68-0.48Q141.24-0.48 141.98-0.68Q142.72-0.88 143-1.46Q143.28-2.04 143.28-3.24L143.28-3.24L143.28-21.76Q143.28-22.96 143-23.52Q142.72-24.08 141.98-24.30Q141.24-24.52 139.68-24.52L139.68-24.52Q139.56-24.52 139.56-24.76Q139.56-25 139.68-25L139.68-25L141.64-24.96Q143.32-24.88 144.32-24.88L144.32-24.88Q145.44-24.88 147.12-24.96L147.12-24.96L149-25Q149.08-25 149.08-24.76Q149.08-24.52 149-24.52L149-24.52Q147.44-24.52 146.70-24.28Q145.96-24.04 145.70-23.46Q145.44-22.88 145.44-21.68L145.44-21.68L145.44-3.24Z M163.96-14.12Q167.08-13.92 169.00-12.04Q170.92-10.16 170.92-7.40L170.92-7.40Q170.92-5.24 169.92-3.52Q168.92-1.80 167.16-0.82Q165.40 0.16 163.28 0.16L163.28 0.16Q161.92 0.16 160.40 0.04L160.40 0.04Q159.84 0 159.08-0.04Q158.32-0.08 157.36-0.08L157.36-0.08L154.72-0.04Q154.00 0 152.72 0L152.72 0Q152.64 0 152.64-0.24Q152.64-0.48 152.72-0.48L152.72-0.48Q154.32-0.48 155.06-0.68Q155.80-0.88 156.08-1.46Q156.36-2.04 156.36-3.24L156.36-3.24L156.36-21.76Q156.36-22.96 156.10-23.52Q155.84-24.08 155.10-24.30Q154.36-24.52 152.80-24.52L152.80-24.52Q152.68-24.52 152.68-24.76Q152.68-25 152.80-25L152.80-25L154.72-24.96Q156.32-24.88 157.36-24.88L157.36-24.88Q158.08-24.88 158.72-24.92Q159.36-24.96 159.84-25L159.84-25Q161.08-25.12 162.04-25.12L162.04-25.12Q165.36-25.12 166.94-23.62Q168.52-22.12 168.52-19.80L168.52-19.80Q168.52-17.84 167.28-16.38Q166.04-14.92 163.96-14.12L163.96-14.12ZM161.12-24.60Q160.00-24.60 159.48-24.44Q158.96-24.28 158.70-23.68Q158.44-23.08 158.44-21.68L158.44-21.68L158.44-14.08L160.32-14.04Q163.48-14.04 164.92-15.54Q166.36-17.04 166.36-19.52L166.36-19.52Q166.36-21.76 165.10-23.18Q163.84-24.60 161.12-24.60L161.12-24.60ZM162.72-0.48Q165.68-0.48 167.14-2.02Q168.60-3.56 168.60-6.40L168.60-6.40Q168.60-9.44 166.74-11.34Q164.88-13.24 161.72-13.28L161.72-13.28Q160.24-13.32 158.44-13.20L158.44-13.20L158.44-3.24Q158.44-2.16 158.78-1.58Q159.12-1 160.04-0.74Q160.96-0.48 162.72-0.48L162.72-0.48Z"/></g>
</svg>
</g></svg></svg>