<svg version="1.1" preserveAspectRatio="none" xmlns="http://www.w3.org/2000/svg" width="500" height="500" viewBox="0 0 500 500"><rect width="100%" height="100%" fill="#EFE3DC" fill-opacity="1"/><svg viewBox="167.3568 286.1343 353.1091 104.8" width="333" height="98.83177748746775" x="83.5px" y="200.5841px" xmlns="http://www.w3.org/2000/svg" xmlns:xlink="http://www.w3.org/1999/xlink" preserveAspectRatio="none"><defs></defs><style>.companyName {fill:#4F4F4F;fill-opacity:1;}.icon3-str {stroke:#828181;stroke-opacity:1;}.text {fill:#4F4F4F;fill-opacity:1;}</style><g opacity="1" transform="rotate(0 245.118 374.1343)">
<svg width="197.5867" height="16.8" x="245.118" y="374.1343" version="1.1" preserveAspectRatio="none" viewBox="3.64 -29.68 443.16 37.68">
  <g transform="matrix(1 0 0 1 0 0)" class="text"><path id="id-6izo4zJp17" d="M14.96-21.40Q19-21.40 21.38-19.06Q23.76-16.72 23.76-12.20L23.76-12.20L23.76 0L19.92 0L19.92-11.76Q19.92-14.84 18.44-16.40Q16.96-17.96 14.20-17.96L14.20-17.96Q11.08-17.96 9.28-16.14Q7.48-14.32 7.48-10.92L7.48-10.92L7.48 0L3.64 0L3.64-21.20L7.32-21.20L7.32-18Q8.48-19.64 10.46-20.52Q12.44-21.40 14.96-21.40L14.96-21.40Z M44.08 0.24Q40.92 0.24 38.40-1.16Q35.88-2.56 34.46-5.02Q33.04-7.48 33.04-10.60L33.04-10.60Q33.04-13.72 34.46-16.18Q35.88-18.64 38.40-20.02Q40.92-21.40 44.08-21.40L44.08-21.40Q47.24-21.40 49.74-20.02Q52.24-18.64 53.66-16.18Q55.08-13.72 55.08-10.60L55.08-10.60Q55.08-7.48 53.66-5.02Q52.24-2.56 49.74-1.16Q47.24 0.24 44.08 0.24L44.08 0.24ZM44.08-3.12Q46.12-3.12 47.74-4.06Q49.36-5 50.28-6.70Q51.20-8.40 51.20-10.60L51.20-10.60Q51.20-12.80 50.28-14.50Q49.36-16.20 47.74-17.12Q46.12-18.04 44.08-18.04L44.08-18.04Q42.04-18.04 40.42-17.12Q38.80-16.20 37.86-14.50Q36.92-12.80 36.92-10.60L36.92-10.60Q36.92-8.40 37.86-6.70Q38.80-5 40.42-4.06Q42.04-3.12 44.08-3.12L44.08-3.12Z M75.12-4L76.32-1.24Q75.48-0.52 74.24-0.14Q73 0.24 71.68 0.24L71.68 0.24Q68.48 0.24 66.72-1.48Q64.96-3.20 64.96-6.40L64.96-6.40L64.96-18.04L61.36-18.04L61.36-21.20L64.96-21.20L64.96-25.84L68.80-25.84L68.80-21.20L74.88-21.20L74.88-18.04L68.80-18.04L68.80-6.56Q68.80-4.84 69.66-3.92Q70.52-3 72.12-3L72.12-3Q73.88-3 75.12-4L75.12-4Z M107.44-21.40Q111.84-21.40 114.18-19.24Q116.52-17.08 116.52-12.80L116.52-12.80L116.52 0L112.88 0L112.88-2.80Q111.92-1.32 110.14-0.54Q108.36 0.24 105.92 0.24L105.92 0.24Q102.36 0.24 100.22-1.48Q98.08-3.20 98.08-6L98.08-6Q98.08-8.80 100.12-10.50Q102.16-12.20 106.60-12.20L106.60-12.20L112.68-12.20L112.68-12.96Q112.68-15.44 111.24-16.76Q109.80-18.08 107.00-18.08L107.00-18.08Q105.12-18.08 103.32-17.46Q101.52-16.84 100.28-15.80L100.28-15.80L98.68-18.68Q100.32-20 102.60-20.70Q104.88-21.40 107.44-21.40L107.44-21.40ZM106.56-2.72Q108.76-2.72 110.36-3.70Q111.96-4.68 112.68-6.48L112.68-6.48L112.68-9.44L106.76-9.44Q101.88-9.44 101.88-6.16L101.88-6.16Q101.88-4.56 103.12-3.64Q104.36-2.72 106.56-2.72L106.56-2.72Z M127.64 0L127.64-29.68L131.48-29.68L131.48 0L127.64 0Z M151.88 0.24Q148.72 0.24 146.20-1.16Q143.68-2.56 142.26-5.02Q140.84-7.48 140.84-10.60L140.84-10.60Q140.84-13.72 142.26-16.18Q143.68-18.64 146.20-20.02Q148.72-21.40 151.88-21.40L151.88-21.40Q155.04-21.40 157.54-20.02Q160.04-18.64 161.46-16.18Q162.88-13.72 162.88-10.60L162.88-10.60Q162.88-7.48 161.46-5.02Q160.04-2.56 157.54-1.16Q155.04 0.24 151.88 0.24L151.88 0.24ZM151.88-3.12Q153.92-3.12 155.54-4.06Q157.16-5 158.08-6.70Q159.00-8.40 159.00-10.60L159.00-10.60Q159.00-12.80 158.08-14.50Q157.16-16.20 155.54-17.12Q153.92-18.04 151.88-18.04L151.88-18.04Q149.84-18.04 148.22-17.12Q146.60-16.20 145.66-14.50Q144.72-12.80 144.72-10.60L144.72-10.60Q144.72-8.40 145.66-6.70Q146.60-5 148.22-4.06Q149.84-3.12 151.88-3.12L151.88-3.12Z M183.52-21.40Q187.56-21.40 189.94-19.06Q192.32-16.72 192.32-12.20L192.32-12.20L192.32 0L188.48 0L188.48-11.76Q188.48-14.84 187.00-16.40Q185.52-17.96 182.76-17.96L182.76-17.96Q179.64-17.96 177.84-16.14Q176.04-14.32 176.04-10.92L176.04-10.92L176.04 0L172.20 0L172.20-21.20L175.88-21.20L175.88-18Q177.04-19.64 179.02-20.52Q181.00-21.40 183.52-21.40L183.52-21.40Z M222.72-10.48Q222.72-10.04 222.64-9.32L222.64-9.32L205.44-9.32Q205.80-6.52 207.90-4.82Q210.00-3.12 213.12-3.12L213.12-3.12Q216.92-3.12 219.24-5.68L219.24-5.68L221.36-3.20Q219.92-1.52 217.78-0.64Q215.64 0.24 213.00 0.24L213.00 0.24Q209.64 0.24 207.04-1.14Q204.44-2.52 203.02-5Q201.60-7.48 201.60-10.60L201.60-10.60Q201.60-13.68 202.98-16.16Q204.36-18.64 206.78-20.02Q209.20-21.40 212.24-21.40L212.24-21.40Q215.28-21.40 217.66-20.02Q220.04-18.64 221.38-16.16Q222.72-13.68 222.72-10.48L222.72-10.48ZM212.24-18.16Q209.48-18.16 207.62-16.48Q205.76-14.80 205.44-12.08L205.44-12.08L219.04-12.08Q218.72-14.76 216.86-16.46Q215.00-18.16 212.24-18.16L212.24-18.16Z M254.52-21.40Q258.92-21.40 261.26-19.24Q263.60-17.08 263.60-12.80L263.60-12.80L263.60 0L259.96 0L259.96-2.80Q259-1.32 257.22-0.54Q255.44 0.24 253.00 0.24L253.00 0.24Q249.44 0.24 247.30-1.48Q245.16-3.20 245.16-6L245.16-6Q245.16-8.80 247.20-10.50Q249.24-12.20 253.68-12.20L253.68-12.20L259.76-12.20L259.76-12.96Q259.76-15.44 258.32-16.76Q256.88-18.08 254.08-18.08L254.08-18.08Q252.20-18.08 250.40-17.46Q248.60-16.84 247.36-15.80L247.36-15.80L245.76-18.68Q247.40-20 249.68-20.70Q251.96-21.40 254.52-21.40L254.52-21.40ZM253.64-2.72Q255.84-2.72 257.44-3.70Q259.04-4.68 259.76-6.48L259.76-6.48L259.76-9.44L253.84-9.44Q248.96-9.44 248.96-6.16L248.96-6.16Q248.96-4.56 250.20-3.64Q251.44-2.72 253.64-2.72L253.64-2.72Z M286.04-21.40Q290.08-21.40 292.46-19.06Q294.84-16.72 294.84-12.20L294.84-12.20L294.84 0L291.00 0L291.00-11.76Q291.00-14.84 289.52-16.40Q288.04-17.96 285.28-17.96L285.28-17.96Q282.16-17.96 280.36-16.14Q278.56-14.32 278.56-10.92L278.56-10.92L278.56 0L274.72 0L274.72-21.20L278.40-21.20L278.40-18Q279.56-19.64 281.54-20.52Q283.52-21.40 286.04-21.40L286.04-21.40Z M320.56-21.20L324.32-21.20L314.04 2.12Q312.68 5.36 310.86 6.68Q309.04 8 306.48 8L306.48 8Q304.92 8 303.46 7.50Q302.00 7 301.04 6.04L301.04 6.04L302.68 3.16Q304.32 4.72 306.48 4.72L306.48 4.72Q307.88 4.72 308.82 3.98Q309.76 3.24 310.52 1.44L310.52 1.44L311.20-0.04L301.84-21.20L305.84-21.20L313.24-4.24L320.56-21.20Z M358.44-21.40Q362.44-21.40 364.78-19.08Q367.12-16.76 367.12-12.20L367.12-12.20L367.12 0L363.28 0L363.28-11.76Q363.28-14.84 361.86-16.40Q360.44-17.96 357.80-17.96L357.80-17.96Q354.88-17.96 353.16-16.14Q351.44-14.32 351.44-10.92L351.44-10.92L351.44 0L347.60 0L347.60-11.76Q347.60-14.84 346.18-16.40Q344.76-17.96 342.12-17.96L342.12-17.96Q339.20-17.96 337.48-16.14Q335.76-14.32 335.76-10.92L335.76-10.92L335.76 0L331.92 0L331.92-21.20L335.60-21.20L335.60-18.04Q336.76-19.68 338.64-20.54Q340.52-21.40 342.92-21.40L342.92-21.40Q345.40-21.40 347.32-20.40Q349.24-19.40 350.28-17.48L350.28-17.48Q351.48-19.32 353.62-20.36Q355.76-21.40 358.44-21.40L358.44-21.40Z M387.40 0.24Q384.24 0.24 381.72-1.16Q379.20-2.56 377.78-5.02Q376.36-7.48 376.36-10.60L376.36-10.60Q376.36-13.72 377.78-16.18Q379.20-18.64 381.72-20.02Q384.24-21.40 387.40-21.40L387.40-21.40Q390.56-21.40 393.06-20.02Q395.56-18.64 396.98-16.18Q398.40-13.72 398.40-10.60L398.40-10.60Q398.40-7.48 396.98-5.02Q395.56-2.56 393.06-1.16Q390.56 0.24 387.40 0.24L387.40 0.24ZM387.40-3.12Q389.44-3.12 391.06-4.06Q392.68-5 393.60-6.70Q394.52-8.40 394.52-10.60L394.52-10.60Q394.52-12.80 393.60-14.50Q392.68-16.20 391.06-17.12Q389.44-18.04 387.40-18.04L387.40-18.04Q385.36-18.04 383.74-17.12Q382.12-16.20 381.18-14.50Q380.24-12.80 380.24-10.60L380.24-10.60Q380.24-8.40 381.18-6.70Q382.12-5 383.74-4.06Q385.36-3.12 387.40-3.12L387.40-3.12Z M411.40-17.64Q412.40-19.48 414.36-20.44Q416.32-21.40 419.12-21.40L419.12-21.40L419.12-17.68Q418.80-17.72 418.24-17.72L418.24-17.72Q415.12-17.72 413.34-15.86Q411.56-14 411.56-10.56L411.56-10.56L411.56 0L407.72 0L407.72-21.20L411.40-21.20L411.40-17.64Z M446.80-10.48Q446.80-10.04 446.72-9.32L446.72-9.32L429.52-9.32Q429.88-6.52 431.98-4.82Q434.08-3.12 437.20-3.12L437.20-3.12Q441-3.12 443.32-5.68L443.32-5.68L445.44-3.20Q444-1.52 441.86-0.64Q439.72 0.24 437.08 0.24L437.08 0.24Q433.72 0.24 431.12-1.14Q428.52-2.52 427.10-5Q425.68-7.48 425.68-10.60L425.68-10.60Q425.68-13.68 427.06-16.16Q428.44-18.64 430.86-20.02Q433.28-21.40 436.32-21.40L436.32-21.40Q439.36-21.40 441.74-20.02Q444.12-18.64 445.46-16.16Q446.80-13.68 446.80-10.48L446.80-10.48ZM436.32-18.16Q433.56-18.16 431.70-16.48Q429.84-14.80 429.52-12.08L429.52-12.08L443.12-12.08Q442.80-14.76 440.94-16.46Q439.08-18.16 436.32-18.16L436.32-18.16Z"/></g>
</svg>
</g><g opacity="1" transform="rotate(0 167.3568 286.1343)">
<svg width="353.1091" height="70" x="167.3568" y="286.1343" version="1.1" preserveAspectRatio="none" viewBox="0 -33.4375 175.5664 34.8047">
  <g transform="matrix(1 0 0 1 0 0)" class="companyName"><path id="id-D6z1nYkh8" d="M26.99-18.87L26.50-19.47Q27.66-20.61 28.58-21.85Q29.51-23.09 30.17-24.30Q30.82-25.51 31.17-26.62Q31.52-27.73 31.52-28.65L31.52-28.65Q31.52-29.04 31.45-29.41Q31.37-29.79 31.16-30.07Q30.96-30.35 30.62-30.52Q30.27-30.68 29.75-30.68L29.75-30.68Q28.63-30.68 27.49-29.92Q26.35-29.16 25.29-27.71L25.29-27.71Q24.47-26.60 23.80-25.21Q23.13-23.81 22.50-22.23Q21.88-20.64 21.27-18.93Q20.66-17.21 19.98-15.45L19.98-15.45Q19.02-12.99 18.08-10.94Q17.13-8.89 16.14-7.23Q15.16-5.57 14.13-4.29Q13.11-3.01 11.99-2.07L11.99-2.07Q12.93-1.80 14.07-1.51Q15.21-1.23 16.46-1.00Q17.71-0.76 19.00-0.61Q20.29-0.45 21.56-0.45L21.56-0.45Q23.81-0.45 25.49-1.02Q27.17-1.58 28.55-2.74Q29.94-3.91 31.18-5.65Q32.42-7.40 33.77-9.79L33.77-9.79L34.77-11.58L35.29-11.21L34.28-9.41Q32.42-6.13 30.68-4.03Q28.95-1.93 27.28-0.73Q25.61 0.47 23.97 0.92Q22.34 1.37 20.70 1.37L20.70 1.37Q19.59 1.37 18.33 1.17Q17.07 0.98 15.75 0.65Q14.43 0.33 13.07-0.08Q11.70-0.49 10.37-0.90L10.37-0.90Q8.93-0.04 7.36 0.36Q5.80 0.76 4.00 0.76L4.00 0.76Q2.77 0.76 2.00 0.60Q1.23 0.43 0.78 0.16Q0.33-0.12 0.17-0.47Q0-0.82 0-1.17L0-1.17Q0-1.88 0.45-2.30Q0.90-2.73 1.58-2.98Q2.27-3.22 3.09-3.31Q3.91-3.40 4.65-3.40L4.65-3.40Q6.27-3.40 7.72-3.13Q9.18-2.87 10.41-2.54L10.41-2.54Q11.02-3.24 11.61-4.18Q12.21-5.12 12.84-6.34Q13.48-7.56 14.16-9.09Q14.84-10.63 15.63-12.50L15.63-12.50Q16.86-15.43 17.84-17.92Q18.83-20.41 19.77-22.44Q20.70-24.47 21.67-26.08Q22.64-27.70 23.85-28.87L23.85-28.87Q25.20-30.18 26.66-30.80Q28.13-31.43 29.49-31.43L29.49-31.43Q30.41-31.43 31.03-31.17Q31.64-30.92 32.00-30.48Q32.36-30.04 32.51-29.45Q32.66-28.87 32.66-28.18L32.66-28.18Q32.66-25.88 31.20-23.53Q29.75-21.17 26.99-18.87L26.99-18.87ZM4.02 0.06L4.02 0.06Q5.64 0.06 6.86-0.23Q8.07-0.53 9.12-1.31L9.12-1.31Q8.48-1.50 7.76-1.71Q7.05-1.91 6.29-2.08Q5.53-2.25 4.76-2.35Q3.98-2.46 3.24-2.46L3.24-2.46Q2.09-2.46 1.44-2.16Q0.78-1.86 0.78-1.17L0.78-1.17Q0.78-0.92 0.91-0.69Q1.04-0.47 1.39-0.30Q1.74-0.14 2.37-0.04Q3.01 0.06 4.02 0.06Z M33.98-9.47L38.96-23.14L41.86-23.14L36.88-9.47Q36.60-8.71 36.33-7.92Q36.05-7.13 35.85-6.36Q35.64-5.59 35.52-4.87Q35.39-4.16 35.39-3.55L35.39-3.55Q35.39-2.21 36.11-1.41Q36.84-0.61 38.32-0.61L38.32-0.61Q39.63-0.61 40.86-1.17Q42.09-1.74 43.29-2.88Q44.49-4.02 45.70-5.74Q46.91-7.46 48.20-9.79L48.20-9.79L49.16-11.50L53.42-23.14L56.31-23.14L51.33-9.47Q51.05-8.71 50.78-7.92Q50.51-7.13 50.30-6.36Q50.10-5.59 49.97-4.87Q49.84-4.16 49.84-3.55L49.84-3.55Q49.84-2.21 50.56-1.41Q51.27-0.61 52.77-0.61L52.77-0.61Q54.08-0.61 55.30-1.17Q56.52-1.74 57.72-2.88Q58.93-4.02 60.14-5.75Q61.35-7.48 62.66-9.79L62.66-9.79L63.67-11.58L64.18-11.21L63.18-9.41Q61.78-6.88 60.48-5.03Q59.18-3.18 57.88-1.98Q56.58-0.78 55.22-0.21Q53.87 0.37 52.34 0.37L52.34 0.37Q51.15 0.37 50.24 0.01Q49.34-0.35 48.72-1.02Q48.11-1.68 47.79-2.62Q47.48-3.55 47.48-4.71L47.48-4.71Q47.48-5.47 47.62-6.36Q47.75-7.25 48.03-8.18L48.03-8.18Q46.72-5.98 45.51-4.37Q44.30-2.75 43.09-1.70Q41.88-0.64 40.60-0.14Q39.32 0.37 37.89 0.37L37.89 0.37Q36.70 0.37 35.79 0.01Q34.88-0.35 34.27-1.02Q33.65-1.68 33.34-2.62Q33.03-3.55 33.03-4.71L33.03-4.71Q33.03-5.72 33.27-6.93Q33.52-8.14 33.98-9.47L33.98-9.47Z M78.34-18.46L78.34-18.46Q77.68-18.46 77.29-18.84Q76.91-19.22 76.91-19.88L76.91-19.88Q76.91-20.51 77.25-20.90Q77.58-21.29 78.13-21.29L78.13-21.29Q78.32-21.29 78.50-21.21L78.50-21.21Q78.59-21.17 78.63-21.16Q78.67-21.15 78.71-21.15L78.71-21.15Q78.89-21.15 78.89-21.41L78.89-21.41Q78.89-21.66 78.69-21.90Q78.50-22.15 78.16-22.33Q77.83-22.52 77.39-22.63Q76.95-22.73 76.48-22.73L76.48-22.73Q75.27-22.73 74.03-22.03Q72.79-21.33 71.63-20.11Q70.47-18.89 69.44-17.25Q68.42-15.61 67.66-13.74Q66.89-11.88 66.46-9.88Q66.02-7.89 66.02-5.98L66.02-5.98Q66.02-4.53 66.28-3.52Q66.54-2.50 67.10-1.86Q67.66-1.21 68.54-0.91Q69.41-0.61 70.64-0.61L70.64-0.61Q72.46-0.61 74.19-1.21Q75.92-1.82 77.53-2.98Q79.14-4.14 80.60-5.85Q82.05-7.56 83.30-9.79L83.30-9.79L84.32-11.58L84.84-11.21L83.83-9.41Q81.04-4.45 77.66-2.04Q74.28 0.37 70.27 0.37L70.27 0.37Q66.64 0.37 64.81-1.50Q62.99-3.38 62.99-6.95L62.99-6.95Q62.99-8.01 63.14-9.12Q63.30-10.23 63.59-11.37L63.59-11.37Q64.30-13.98 65.58-16.21Q66.86-18.44 68.51-20.06Q70.16-21.68 72.08-22.60Q74.00-23.52 76.00-23.52L76.00-23.52Q78.09-23.52 79.18-22.42L79.18-22.42Q79.63-21.97 79.86-21.44Q80.10-20.90 80.10-20.33L80.10-20.33Q80.10-19.47 79.62-18.96Q79.14-18.46 78.34-18.46Z M83.55-9.47L88.54-23.14L91.43-23.14L86.45-9.47Q86.17-8.71 85.90-7.92Q85.63-7.13 85.42-6.36Q85.21-5.59 85.09-4.87Q84.96-4.16 84.96-3.55L84.96-3.55Q84.96-2.21 85.67-1.41Q86.39-0.61 87.89-0.61L87.89-0.61Q89.20-0.61 90.42-1.17Q91.64-1.74 92.84-2.88Q94.04-4.02 95.25-5.75Q96.46-7.48 97.77-9.79L97.77-9.79L98.79-11.58L99.32-11.21L98.30-9.41Q96.88-6.89 95.58-5.05Q94.28-3.20 92.98-2.00Q91.68-0.80 90.33-0.21Q88.98 0.37 87.46 0.37L87.46 0.37Q86.27 0.37 85.36 0.01Q84.45-0.35 83.84-1.02Q83.22-1.68 82.91-2.62Q82.60-3.55 82.60-4.71L82.60-4.71Q82.60-5.72 82.84-6.93Q83.09-8.14 83.55-9.47L83.55-9.47ZM90.10-28.26L90.10-28.26Q90.10-28.95 90.58-29.43Q91.05-29.92 91.74-29.92L91.74-29.92Q92.42-29.92 92.90-29.44Q93.38-28.96 93.38-28.28L93.38-28.28Q93.38-27.95 93.25-27.65Q93.13-27.34 92.90-27.13Q92.68-26.91 92.37-26.79Q92.07-26.66 91.72-26.66L91.72-26.66Q91.04-26.66 90.57-27.12Q90.10-27.58 90.10-28.26Z M98.71-11.41L98.71-11.41Q99.41-13.52 100.39-15.24Q101.37-16.97 102.51-18.32Q103.65-19.67 104.91-20.64Q106.17-21.62 107.43-22.26Q108.69-22.89 109.91-23.20Q111.13-23.52 112.21-23.52L112.21-23.52Q113.32-23.52 114.06-23.17Q114.80-22.83 115.26-22.22Q115.72-21.60 115.92-20.73Q116.11-19.86 116.11-18.81L116.11-18.81L121.43-33.44L124.32-33.44L115.61-9.47Q115.33-8.71 115.06-7.91Q114.79-7.11 114.58-6.35Q114.38-5.59 114.25-4.87Q114.12-4.16 114.12-3.55L114.12-3.55Q114.12-2.21 114.83-1.41Q115.55-0.61 117.05-0.61L117.05-0.61Q118.36-0.61 119.59-1.16Q120.82-1.72 122.02-2.86Q123.22-4.00 124.43-5.73Q125.64-7.46 126.93-9.79L126.93-9.79L127.93-11.58L128.46-11.21L127.44-9.41Q126.02-6.89 124.72-5.05Q123.42-3.20 122.13-2.00Q120.84-0.80 119.49-0.21Q118.14 0.37 116.62 0.37L116.62 0.37Q115.43 0.37 114.52 0.01Q113.61-0.35 113.00-1.02Q112.38-1.68 112.07-2.62Q111.76-3.55 111.76-4.71L111.76-4.71Q111.76-5.47 111.89-6.36Q112.03-7.25 112.30-8.20L112.30-8.20Q109.75-3.91 107.25-1.77Q104.75 0.37 102.17 0.37L102.17 0.37Q100.96 0.37 100.11-0.07Q99.26-0.51 98.71-1.30Q98.16-2.09 97.91-3.15Q97.66-4.22 97.66-5.49L97.66-5.49Q97.66-6.86 97.93-8.37Q98.20-9.88 98.71-11.41ZM102.87-0.61L102.87-0.61Q103.93-0.61 105.02-1.16Q106.11-1.72 107.20-2.69Q108.28-3.65 109.30-4.95Q110.31-6.25 111.22-7.72Q112.13-9.20 112.89-10.76Q113.65-12.32 114.21-13.84Q114.77-15.35 115.07-16.73Q115.37-18.11 115.37-19.20L115.37-19.20Q115.37-20.20 115.13-20.87Q114.88-21.54 114.48-21.96Q114.08-22.38 113.56-22.56Q113.05-22.73 112.50-22.73L112.50-22.73Q111.41-22.73 110.07-22.06Q108.73-21.39 107.34-20.01Q105.96-18.63 104.62-16.53Q103.28-14.43 102.17-11.60L102.17-11.60Q101.25-9.24 100.79-7.23Q100.33-5.21 100.33-3.87L100.33-3.87Q100.33-2.34 100.95-1.47Q101.56-0.61 102.87-0.61Z M127.17-9.47L135.88-33.44L138.79-33.44L130.06-9.47Q129.79-8.71 129.51-7.92Q129.24-7.13 129.03-6.36Q128.83-5.59 128.70-4.87Q128.57-4.16 128.57-3.55L128.57-3.55Q128.57-2.21 129.29-1.41Q130-0.61 131.50-0.61L131.50-0.61Q132.81-0.61 134.03-1.17Q135.25-1.74 136.46-2.88Q137.66-4.02 138.87-5.75Q140.08-7.48 141.39-9.79L141.39-9.79L142.40-11.58L142.93-11.21L141.91-9.41Q140.49-6.89 139.19-5.05Q137.89-3.20 136.59-2.00Q135.29-0.80 133.95-0.21Q132.60 0.37 131.07 0.37L131.07 0.37Q129.88 0.37 128.97 0.01Q128.07-0.35 127.45-1.02Q126.84-1.68 126.52-2.62Q126.21-3.55 126.21-4.71L126.21-4.71Q126.21-5.72 126.45-6.92Q126.68-8.13 127.17-9.47L127.17-9.47Z M141.62-9.47L146.60-23.14L149.49-23.14L144.51-9.47Q144.24-8.71 143.96-7.92Q143.69-7.13 143.49-6.36Q143.28-5.59 143.15-4.87Q143.03-4.16 143.03-3.55L143.03-3.55Q143.03-2.21 143.74-1.41Q144.45-0.61 145.96-0.61L145.96-0.61Q147.27-0.61 148.49-1.17Q149.71-1.74 150.91-2.88Q152.11-4.02 153.32-5.75Q154.53-7.48 155.84-9.79L155.84-9.79L156.86-11.58L157.38-11.21L156.37-9.41Q154.94-6.89 153.64-5.05Q152.34-3.20 151.04-2.00Q149.75-0.80 148.40-0.21Q147.05 0.37 145.53 0.37L145.53 0.37Q144.34 0.37 143.43 0.01Q142.52-0.35 141.90-1.02Q141.29-1.68 140.98-2.62Q140.66-3.55 140.66-4.71L140.66-4.71Q140.66-5.72 140.91-6.93Q141.15-8.14 141.62-9.47L141.62-9.47ZM148.16-28.26L148.16-28.26Q148.16-28.95 148.64-29.43Q149.12-29.92 149.80-29.92L149.80-29.92Q150.49-29.92 150.97-29.44Q151.45-28.96 151.45-28.28L151.45-28.28Q151.45-27.95 151.32-27.65Q151.19-27.34 150.97-27.13Q150.74-26.91 150.44-26.79Q150.14-26.66 149.79-26.66L149.79-26.66Q149.10-26.66 148.63-27.12Q148.16-27.58 148.16-28.26Z M167.70-33.44L161.04-15.14Q163.55-19.34 166.03-21.43Q168.50-23.52 171.05-23.52L171.05-23.52Q172.25-23.52 173.11-23.08Q173.96-22.64 174.51-21.85Q175.06-21.05 175.31-19.98Q175.57-18.91 175.57-17.66L175.57-17.66Q175.57-16.29 175.29-14.79Q175.02-13.28 174.51-11.74L174.51-11.74Q173.79-9.63 172.81-7.91Q171.84-6.19 170.69-4.84Q169.55-3.50 168.30-2.51Q167.05-1.52 165.79-0.89Q164.53-0.25 163.31 0.06Q162.09 0.37 161.02 0.37L161.02 0.37Q159.57 0.37 158.47 0.01Q157.36-0.35 156.62-1.02Q155.88-1.68 155.50-2.62Q155.12-3.55 155.12-4.71L155.12-4.71Q155.12-5.72 155.36-6.93Q155.61-8.14 156.07-9.47L156.07-9.47L164.79-33.44L167.70-33.44ZM170.43-22.54L170.43-22.54Q169.38-22.54 168.26-21.95Q167.15-21.37 166.04-20.35Q164.94-19.34 163.88-17.99Q162.81-16.64 161.86-15.13Q160.90-13.61 160.10-12.00Q159.30-10.39 158.72-8.86Q158.14-7.32 157.81-5.96Q157.48-4.59 157.48-3.55L157.48-3.55Q157.48-2.09 158.26-1.25Q159.04-0.41 160.70-0.41L160.70-0.41Q161.52-0.41 162.72-0.86Q163.93-1.31 165.30-2.53Q166.68-3.75 168.15-5.93Q169.63-8.11 171.02-11.56L171.02-11.56Q171.95-13.91 172.42-15.83Q172.89-17.75 172.89-19.16L172.89-19.16Q172.89-20.80 172.29-21.67Q171.68-22.54 170.43-22.54Z"/></g>
</svg>
</g></svg></svg>