<svg version="1.1" preserveAspectRatio="none" xmlns="http://www.w3.org/2000/svg" width="500" height="500" viewBox="0 0 500 500"><rect width="100%" height="100%" fill="#373737" fill-opacity="1"/><svg viewBox="114.3238 245.908 486.7596 218.2" width="333" height="149.27409752165136" x="83.5px" y="175.363px" xmlns="http://www.w3.org/2000/svg" xmlns:xlink="http://www.w3.org/1999/xlink" preserveAspectRatio="none"><defs></defs><style>.background {fill:#373737;fill-opacity:1;}.companyName {fill:#FF87B7;fill-opacity:1;}.icon3 {fill:#BCBCBC;fill-opacity:1;}.icon3-str {stroke:#BCBCBC;stroke-opacity:1;}.shapeStroke-str {stroke:#F5F5F5;stroke-opacity:1;}</style><g opacity="1" transform="rotate(0 114.3238 245.908)">
<svg width="245.3798" height="218.2" x="114.3238" y="245.908" version="1.1" preserveAspectRatio="none" viewBox="0 0 245.3798 218.2">
  <rect x="0" y="0" width="245.3798" height="218.2" class="companyName shapeStroke-str" style="stroke-width:0;" rx="0px" ry="0px" />
</svg>
</g><g opacity="1" transform="rotate(0 357.7036 245.908)">
<svg width="243.3798" height="218.2" x="357.7036" y="245.908" version="1.1" preserveAspectRatio="none" viewBox="0 0 243.3798 218.2">
  <rect x="0" y="0" width="243.3798" height="218.2" class="icon3 shapeStroke-str" style="stroke-width:0;" rx="0px" ry="0px" />
</svg>
</g><g opacity="1" transform="rotate(0 246.0744 387.908)">
<svg width="223.2584" height="16.2" x="246.0744" y="387.908" version="1.1" preserveAspectRatio="none" viewBox="2.88 -29.68 520.36 37.760000000000005">
  <g transform="matrix(1 0 0 1 0 0)" class="background"><path id="id-6izo4zJp17" d="M15.96-21.84Q19.96-21.84 22.42-19.44Q24.88-17.04 24.88-12.32L24.88-12.32L24.88 0L18.64 0L18.64-11.36Q18.64-13.92 17.52-15.18Q16.40-16.44 14.28-16.44L14.28-16.44Q11.92-16.44 10.52-14.98Q9.12-13.52 9.12-10.64L9.12-10.64L9.12 0L2.88 0L2.88-21.52L8.84-21.52L8.84-19Q10.08-20.36 11.92-21.10Q13.76-21.84 15.96-21.84L15.96-21.84Z M49 0.32Q45.60 0.32 42.90-1.10Q40.20-2.52 38.68-5.04Q37.16-7.56 37.16-10.76L37.16-10.76Q37.16-13.96 38.68-16.48Q40.20-19 42.90-20.42Q45.60-21.84 49-21.84L49-21.84Q52.40-21.84 55.08-20.42Q57.76-19 59.28-16.48Q60.80-13.96 60.80-10.76L60.80-10.76Q60.80-7.56 59.28-5.04Q57.76-2.52 55.08-1.10Q52.40 0.32 49 0.32L49 0.32ZM49-4.80Q51.40-4.80 52.94-6.42Q54.48-8.04 54.48-10.76L54.48-10.76Q54.48-13.48 52.94-15.10Q51.40-16.72 49-16.72L49-16.72Q46.60-16.72 45.04-15.10Q43.48-13.48 43.48-10.76L43.48-10.76Q43.48-8.04 45.04-6.42Q46.60-4.80 49-4.80L49-4.80Z M85.16-5.44L86.84-1.04Q85.92-0.36 84.58-0.02Q83.24 0.32 81.76 0.32L81.76 0.32Q77.92 0.32 75.82-1.64Q73.72-3.60 73.72-7.40L73.72-7.40L73.72-16.24L70.40-16.24L70.40-21.04L73.72-21.04L73.72-26.28L79.96-26.28L79.96-21.04L85.32-21.04L85.32-16.24L79.96-16.24L79.96-7.48Q79.96-6.12 80.66-5.38Q81.36-4.64 82.64-4.64L82.64-4.64Q84.12-4.64 85.16-5.44L85.16-5.44Z M126.36-21.84Q131.36-21.84 134.04-19.46Q136.72-17.08 136.72-12.28L136.72-12.28L136.72 0L130.88 0L130.88-2.68Q129.12 0.32 124.32 0.32L124.32 0.32Q121.84 0.32 120.02-0.52Q118.20-1.36 117.24-2.84Q116.28-4.32 116.28-6.20L116.28-6.20Q116.28-9.20 118.54-10.92Q120.80-12.64 125.52-12.64L125.52-12.64L130.48-12.64Q130.48-14.68 129.24-15.78Q128-16.88 125.52-16.88L125.52-16.88Q123.80-16.88 122.14-16.34Q120.48-15.80 119.32-14.88L119.32-14.88L117.08-19.24Q118.84-20.48 121.30-21.16Q123.76-21.84 126.36-21.84L126.36-21.84ZM125.88-3.88Q127.48-3.88 128.72-4.62Q129.96-5.36 130.48-6.80L130.48-6.80L130.48-9L126.20-9Q122.36-9 122.36-6.48L122.36-6.48Q122.36-5.28 123.30-4.58Q124.24-3.88 125.88-3.88L125.88-3.88Z M150.36 0L150.36-29.68L156.60-29.68L156.60 0L150.36 0Z M180.64 0.32Q177.24 0.32 174.54-1.10Q171.84-2.52 170.32-5.04Q168.80-7.56 168.80-10.76L168.80-10.76Q168.80-13.96 170.32-16.48Q171.84-19 174.54-20.42Q177.24-21.84 180.64-21.84L180.64-21.84Q184.04-21.84 186.72-20.42Q189.40-19 190.92-16.48Q192.44-13.96 192.44-10.76L192.44-10.76Q192.44-7.56 190.92-5.04Q189.40-2.52 186.72-1.10Q184.04 0.32 180.64 0.32L180.64 0.32ZM180.64-4.80Q183.04-4.80 184.58-6.42Q186.12-8.04 186.12-10.76L186.12-10.76Q186.12-13.48 184.58-15.10Q183.04-16.72 180.64-16.72L180.64-16.72Q178.24-16.72 176.68-15.10Q175.12-13.48 175.12-10.76L175.12-10.76Q175.12-8.04 176.68-6.42Q178.24-4.80 180.64-4.80L180.64-4.80Z M217.68-21.84Q221.68-21.84 224.14-19.44Q226.60-17.04 226.60-12.32L226.60-12.32L226.60 0L220.36 0L220.36-11.36Q220.36-13.92 219.24-15.18Q218.12-16.44 216-16.44L216-16.44Q213.64-16.44 212.24-14.98Q210.84-13.52 210.84-10.64L210.84-10.64L210.84 0L204.60 0L204.60-21.52L210.56-21.52L210.56-19Q211.80-20.36 213.64-21.10Q215.48-21.84 217.68-21.84L217.68-21.84Z M261.56-10.68Q261.56-10.56 261.44-9L261.44-9L245.16-9Q245.60-7 247.24-5.84Q248.88-4.68 251.32-4.68L251.32-4.68Q253.00-4.68 254.30-5.18Q255.60-5.68 256.72-6.76L256.72-6.76L260.04-3.16Q257 0.32 251.16 0.32L251.16 0.32Q247.52 0.32 244.72-1.10Q241.92-2.52 240.40-5.04Q238.88-7.56 238.88-10.76L238.88-10.76Q238.88-13.92 240.38-16.46Q241.88-19 244.50-20.42Q247.12-21.84 250.36-21.84L250.36-21.84Q253.52-21.84 256.08-20.48Q258.64-19.12 260.10-16.58Q261.56-14.04 261.56-10.68L261.56-10.68ZM250.40-17.12Q248.28-17.12 246.84-15.92Q245.40-14.72 245.08-12.64L245.08-12.64L255.68-12.64Q255.36-14.68 253.92-15.90Q252.48-17.12 250.40-17.12L250.40-17.12Z M301.72-21.84Q306.72-21.84 309.40-19.46Q312.08-17.08 312.08-12.28L312.08-12.28L312.08 0L306.24 0L306.24-2.68Q304.48 0.32 299.68 0.32L299.68 0.32Q297.20 0.32 295.38-0.52Q293.56-1.36 292.60-2.84Q291.64-4.32 291.64-6.20L291.64-6.20Q291.64-9.20 293.90-10.92Q296.16-12.64 300.88-12.64L300.88-12.64L305.84-12.64Q305.84-14.68 304.60-15.78Q303.36-16.88 300.88-16.88L300.88-16.88Q299.16-16.88 297.50-16.34Q295.84-15.80 294.68-14.88L294.68-14.88L292.44-19.24Q294.20-20.48 296.66-21.16Q299.12-21.84 301.72-21.84L301.72-21.84ZM301.24-3.88Q302.84-3.88 304.08-4.62Q305.32-5.36 305.84-6.80L305.84-6.80L305.84-9L301.56-9Q297.72-9 297.72-6.48L297.72-6.48Q297.72-5.28 298.66-4.58Q299.60-3.88 301.24-3.88L301.24-3.88Z M338.80-21.84Q342.80-21.84 345.26-19.44Q347.72-17.04 347.72-12.32L347.72-12.32L347.72 0L341.48 0L341.48-11.36Q341.48-13.92 340.36-15.18Q339.24-16.44 337.12-16.44L337.12-16.44Q334.76-16.44 333.36-14.98Q331.96-13.52 331.96-10.64L331.96-10.64L331.96 0L325.72 0L325.72-21.52L331.68-21.52L331.68-19Q332.92-20.36 334.76-21.10Q336.60-21.84 338.80-21.84L338.80-21.84Z M376.32-21.52L382.32-21.52L372.60 1.32Q371.12 5.04 368.94 6.56Q366.76 8.08 363.68 8.08L363.68 8.08Q362.00 8.08 360.36 7.56Q358.72 7.04 357.68 6.12L357.68 6.12L359.96 1.68Q360.68 2.32 361.62 2.68Q362.56 3.04 363.48 3.04L363.48 3.04Q364.76 3.04 365.56 2.42Q366.36 1.80 367.00 0.36L367.00 0.36L367.08 0.16L357.76-21.52L364.20-21.52L370.24-6.92L376.32-21.52Z M420.44-21.84Q424.48-21.84 426.86-19.46Q429.24-17.08 429.24-12.32L429.24-12.32L429.24 0L423.00 0L423.00-11.36Q423.00-13.92 421.94-15.18Q420.88-16.44 418.92-16.44L418.92-16.44Q416.72-16.44 415.44-15.02Q414.16-13.60 414.16-10.80L414.16-10.80L414.16 0L407.92 0L407.92-11.36Q407.92-16.44 403.84-16.44L403.84-16.44Q401.68-16.44 400.40-15.02Q399.12-13.60 399.12-10.80L399.12-10.80L399.12 0L392.88 0L392.88-21.52L398.84-21.52L398.84-19.04Q400.04-20.40 401.78-21.12Q403.52-21.84 405.60-21.84L405.60-21.84Q407.88-21.84 409.72-20.94Q411.56-20.04 412.68-18.32L412.68-18.32Q414.00-20 416.02-20.92Q418.04-21.84 420.44-21.84L420.44-21.84Z M453.32 0.32Q449.92 0.32 447.22-1.10Q444.52-2.52 443.00-5.04Q441.48-7.56 441.48-10.76L441.48-10.76Q441.48-13.96 443.00-16.48Q444.52-19 447.22-20.42Q449.92-21.84 453.32-21.84L453.32-21.84Q456.72-21.84 459.40-20.42Q462.08-19 463.60-16.48Q465.12-13.96 465.12-10.76L465.12-10.76Q465.12-7.56 463.60-5.04Q462.08-2.52 459.40-1.10Q456.72 0.32 453.32 0.32L453.32 0.32ZM453.32-4.80Q455.72-4.80 457.26-6.42Q458.80-8.04 458.80-10.76L458.80-10.76Q458.80-13.48 457.26-15.10Q455.72-16.72 453.32-16.72L453.32-16.72Q450.92-16.72 449.36-15.10Q447.80-13.48 447.80-10.76L447.80-10.76Q447.80-8.04 449.36-6.42Q450.92-4.80 453.32-4.80L453.32-4.80Z M483.24-18.68Q484.36-20.24 486.26-21.04Q488.16-21.84 490.64-21.84L490.64-21.84L490.64-16.08Q489.60-16.16 489.24-16.16L489.24-16.16Q486.56-16.16 485.04-14.66Q483.52-13.16 483.52-10.16L483.52-10.16L483.52 0L477.28 0L477.28-21.52L483.24-21.52L483.24-18.68Z M523.24-10.68Q523.24-10.56 523.12-9L523.12-9L506.84-9Q507.28-7 508.92-5.84Q510.56-4.68 513-4.68L513-4.68Q514.68-4.68 515.98-5.18Q517.28-5.68 518.40-6.76L518.40-6.76L521.72-3.16Q518.68 0.32 512.84 0.32L512.84 0.32Q509.20 0.32 506.40-1.10Q503.60-2.52 502.08-5.04Q500.56-7.56 500.56-10.76L500.56-10.76Q500.56-13.92 502.06-16.46Q503.56-19 506.18-20.42Q508.80-21.84 512.04-21.84L512.04-21.84Q515.20-21.84 517.76-20.48Q520.32-19.12 521.78-16.58Q523.24-14.04 523.24-10.68L523.24-10.68ZM512.08-17.12Q509.96-17.12 508.52-15.92Q507.08-14.72 506.76-12.64L506.76-12.64L517.36-12.64Q517.04-14.68 515.60-15.90Q514.16-17.12 512.08-17.12L512.08-17.12Z"/></g>
</svg>
</g><g opacity="1" transform="rotate(0 164.3238 305.908)">
<svg width="386.7596" height="60" x="164.3238" y="305.908" version="1.1" preserveAspectRatio="none" viewBox="-0.4687 -31.0547 209.7461 32.539">
  <g transform="matrix(1 0 0 1 0 0)" class="background"><path id="id-D6z1nYkh8" d="M14.84-15.55L14.84-15.55Q11.89-15.08 10.01-15.08Q8.13-15.08 6.88-15.35Q5.63-15.63 4.53-16.19L4.53-16.19Q2.05-17.48 1.66-19.77L1.66-19.77Q1.50-20.96 2.30-21.23L2.30-21.23Q2.54-21.31 2.86-21.31Q3.18-21.31 3.54-21.15L3.54-21.15Q4.80-20.23 7.95-19.77L7.95-19.77Q8.67-19.67 9.10-19.67Q9.53-19.67 10.23-19.71Q10.94-19.75 11.72-19.86L11.72-19.86Q13.61-20.14 14.78-20.77Q15.94-21.41 16.89-22.17Q17.85-22.93 18.69-23.67L18.69-23.67L20.31-25.12Q21.95-26.58 23.30-27.03Q24.65-27.48 25.41-27.48Q26.17-27.48 26.85-27.26Q27.52-27.03 28.20-26.64L28.20-26.64Q29.92-25.66 29.92-24.61L29.92-24.61Q29.92-23.20 28.36-21.48L28.36-21.48Q26.74-19.73 24.43-18.65L24.43-18.65Q17.32-10.14 16.29-8.79L16.29-8.79L19.06-7.77Q24.24-5.82 26.84-5.82L26.84-5.82Q28.20-5.82 30.12-6.93L30.12-6.93Q30.72-7.29 31.21-7.81L31.21-7.81Q32.17-8.85 33.07-8.85Q33.96-8.85 34.38-8.32Q34.80-7.79 34.66-7.05Q34.51-6.31 34.06-5.46Q33.61-4.61 32.92-3.68Q32.23-2.75 31.32-1.83Q30.41-0.90 29.38-0.16L29.38-0.16Q27.01 1.48 24.88 1.48L24.88 1.48Q23.48 1.48 20.45 0.57L20.45 0.57L13.24-1.56Q11.84-1.97 10.59-2.27L10.59-2.27Q8.09-0.12 5.18 0.35L5.18 0.35Q4.12 0.51 2.95 0.51Q1.78 0.51 1.11 0.21Q0.45-0.10 0.10-0.59L0.10-0.59Q-0.47-1.41-0.47-3.13L-0.47-3.13Q-0.47-4.12 1.09-5.84L1.09-5.84Q3.81-8.79 7.11-9.92L7.11-9.92Q8.28-10.33 9.15-10.33Q10.02-10.33 11.02-10.20L11.02-10.20Q14.43-14.36 14.84-15.55ZM23.48-18.24L23.34-18.20Q23.26-18.11 23.30-18.13Q23.34-18.14 23.48-18.24L23.48-18.24Z M60.37-9.82L60.37-9.82Q60.37-7.85 62.11-7.85L62.11-7.85Q63.85-7.85 68.13-11.19L68.13-11.19L69.84-12.60Q71.54-14.00 73.09-14.00L73.09-14.00Q73.65-14.00 73.83-13.70Q74.00-13.40 74.00-12.94Q74.00-12.48 73.84-11.98Q73.67-11.48 73.38-10.94L73.38-10.94Q72.73-9.71 72.13-9.02Q71.52-8.34 70.71-7.61Q69.90-6.88 68.79-5.97Q67.68-5.06 66.33-4.11Q64.98-3.16 63.61-2.38L63.61-2.38Q60.53-0.59 58.54-0.59L58.54-0.59Q56.15-0.59 54.80-2.27L54.80-2.27Q53.54-3.83 53.38-6.45L53.38-6.45Q49.86-2.83 45.94-0.88L45.94-0.88Q43.54 0.31 41.88 0.31Q40.21 0.31 38.96-0.09Q37.71-0.49 36.78-1.29L36.78-1.29Q34.75-2.99 34.75-6.02L34.75-6.02Q34.75-10.35 37.85-14.38L37.85-14.38Q38.83-15.63 40.04-16.56L40.04-16.56Q42.66-18.20 45.59-18.20L45.59-18.20Q46.88-18.20 47.42-17.40L47.42-17.40Q47.64-17.09 47.64-16.59Q47.64-16.09 47.35-15.44Q47.07-14.79 46.66-14.07Q46.25-13.36 45.75-12.60Q45.25-11.84 44.84-11.11L44.84-11.11Q43.87-9.39 43.87-8.64Q43.87-7.89 44.30-7.54Q44.73-7.19 45.35-7.19L45.35-7.19Q46.74-7.19 47.71-7.86Q48.69-8.54 49.65-9.41L49.65-9.41L51.48-11.21L53.26-13.05Q55.16-14.98 56.14-15.46Q57.13-15.94 57.58-15.82Q58.03-15.70 58.50-15.40Q58.96-15.10 59.41-14.67L59.41-14.67Q60.47-13.65 60.59-12.83L60.59-12.83Q60.63-12.30 60.50-11.26Q60.37-10.21 60.37-9.82Z M97.54-12.60L97.54-12.60Q97.54-11.68 95.14-9.04L95.14-9.04Q92.68-6.37 90.31-4.69L90.31-4.69Q85.74-1.29 80.18-0.04L80.18-0.04Q78.07 0.45 76.18 0.45Q74.30 0.45 73.06 0.13Q71.82-0.20 70.83-0.73Q69.84-1.27 69.12-1.97Q68.40-2.68 67.91-3.46L67.91-3.46Q66.95-4.98 66.95-6.27Q66.95-7.56 67.24-8.54Q67.52-9.51 68.03-10.39L68.03-10.39Q69.80-13.59 75.18-16.05L75.18-16.05Q79.41-18.03 83.26-18.61L83.26-18.61Q84.92-18.87 85.63-18.87Q86.33-18.87 86.81-18.72Q87.29-18.57 87.64-18.32L87.64-18.32Q88.42-17.75 88.42-16.78Q88.42-15.80 87.91-14.93Q87.40-14.06 86.62-13.48L86.62-13.48Q85.10-12.34 83.22-12.34L83.22-12.34Q80.66-12.34 79.00-13.01L79.00-13.01Q77.85-12.60 77.05-11.50L77.05-11.50Q76.39-10.61 76.39-9.89Q76.39-9.18 76.71-8.51Q77.03-7.83 77.62-7.30L77.62-7.30Q78.91-6.17 80.72-6.17L80.72-6.17Q84.94-6.17 90.55-10.64L90.55-10.64L92.32-12.03Q95.14-14.18 96.34-14.18Q97.54-14.18 97.54-12.60Z M109.96-22.59Q109.39-22.11 108.73-21.81Q108.07-21.50 107.25-21.50Q106.43-21.50 105.66-21.78Q104.90-22.05 104.34-22.54L104.34-22.54Q103.11-23.59 103.11-25.23L103.11-25.23Q103.11-27.75 107.32-28.98L107.32-28.98Q108.75-29.41 109.67-29.41Q110.59-29.41 111.04-29.21Q111.50-29.00 111.80-28.67L111.80-28.67Q112.38-28.01 112.38-27.31Q112.38-26.62 112.22-26.05Q112.05-25.49 111.74-24.88Q111.43-24.28 110.98-23.67Q110.53-23.07 109.96-22.59ZM105.04-1.08Q103.55-0.31 102.15 0.15Q100.74 0.61 99.38 0.61Q98.03 0.61 96.57-0.05Q95.12-0.70 93.98-1.80L93.98-1.80Q91.46-4.24 91.46-7.23L91.46-7.23Q91.46-9.98 93.11-12.81L93.11-12.81Q94.61-15.37 96.93-17.11L96.93-17.11Q99.26-18.85 101.25-18.85L101.25-18.85Q104.10-18.85 104.30-17.25L104.30-17.25Q104.36-16.76 104.36-16.11Q104.36-15.47 104.05-14.64Q103.75-13.81 103.27-12.98Q102.79-12.15 102.22-11.36Q101.64-10.57 101.11-9.92L101.11-9.92Q100.10-8.69 99.49-8.14L99.49-8.14Q99.49-7.48 100.49-6.78L100.49-6.78Q101.43-6.11 102.08-6.11Q102.73-6.11 103.62-6.43Q104.51-6.74 105.46-7.27Q106.41-7.79 107.39-8.48Q108.38-9.16 109.34-9.88L109.34-9.88L112.91-12.68Q115.04-14.22 116.37-14.22L116.37-14.22Q116.89-14.22 117.18-13.84Q117.46-13.46 117.46-12.95Q117.46-12.44 116.95-11.55Q116.45-10.66 115.56-9.59Q114.67-8.52 113.48-7.34Q112.29-6.17 110.90-5.04Q109.51-3.91 108.02-2.88Q106.52-1.86 105.04-1.08Z M146.23-14.43L146.23-14.43Q147.11-14.43 147.11-13.54L147.11-13.54Q147.11-12.11 145.23-9.51L145.23-9.51Q143.93-7.70 139.84-4.47L139.84-4.47Q134.98-0.66 132.03-0.66L132.03-0.66Q129.80-0.66 128.67-2.54L128.67-2.54Q127.99-3.67 127.56-5.86L127.56-5.86L125.82-4.61Q118.65 0.35 115.12 0.35L115.12 0.35Q112.17 0.35 110.39-1.80L110.39-1.80Q108.83-3.73 108.83-6.43L108.83-6.43Q108.83-9.39 110.86-11.11L110.86-11.11Q115-14.59 121.15-16.84L121.15-16.84Q123.65-17.75 124.32-17.75Q124.98-17.75 125.54-17.53Q126.09-17.30 126.64-16.95L126.64-16.95Q127.93-16.07 127.93-15.25L127.93-15.25Q127.93-14.59 127.11-14.18L127.11-14.18Q126.86-14.04 126.25-13.81Q125.64-13.57 124.77-13.16L124.77-13.16Q122.40-12.05 120.16-10.47L120.16-10.47Q118.55-9.10 118.55-8.29Q118.55-7.48 119.69-7.48L119.69-7.48Q120.63-7.48 123.44-9.14L123.44-9.14Q123.44-9.14 125.10-10.16L125.10-10.16Q126.88-11.27 127.95-12.19L127.95-12.19Q127.95-12.19 128.85-15.12L128.85-15.12Q130.51-20.35 132.54-23.77L132.54-23.77Q136.13-30.66 139.77-30.66L139.77-30.66Q141.09-30.66 141.88-30.18L141.88-30.18Q143.28-29.30 143.28-28.23Q143.28-27.17 142.89-25.98Q142.50-24.79 141.87-23.61Q141.23-22.44 140.41-21.29L140.41-21.29L137.07-16.88Q136.23-15.80 135.59-14.79L135.59-14.79Q134.45-12.34 134.45-10.61L134.45-10.61Q134.45-8.11 136.27-8.11L136.27-8.11Q137.30-8.11 140-10.27L140-10.27L142.30-12.23Q143.93-13.67 145.51-14.26L145.51-14.26Q145.96-14.43 146.23-14.43Z M165.90-13.79L165.90-13.79Q167.15-13.79 167.15-12.75L167.15-12.75Q167.15-11.48 165.63-9.73L165.63-9.73Q163.11-6.80 159.69-4.02L159.69-4.02Q154.12 0.43 149.75 0.43L149.75 0.43Q146.60 0.43 144.59-2.30L144.59-2.30Q142.50-5.16 142.50-9.96L142.50-9.96Q142.50-16.27 148.65-23.91L148.65-23.91Q152.56-28.77 156.02-30.51L156.02-30.51Q157.09-31.05 157.67-31.05Q158.24-31.05 158.72-30.87Q159.20-30.68 159.61-30.35L159.61-30.35Q160.57-29.55 160.57-28.42Q160.57-27.29 159.94-25.73Q159.32-24.18 158.13-22.42L158.13-22.42Q155.61-18.69 151.31-15.27L151.31-15.27Q150.20-13.14 150.20-10.16L150.20-10.16Q150.20-8.81 151.05-7.62L151.05-7.62Q151.93-6.43 152.99-6.43L152.99-6.43Q154.43-6.43 158.52-9.41L158.52-9.41L161.99-12.09Q164.12-13.79 165.90-13.79Z M179.73-22.59Q179.16-22.11 178.50-21.81Q177.83-21.50 177.01-21.50Q176.19-21.50 175.43-21.78Q174.67-22.05 174.10-22.54L174.10-22.54Q172.87-23.59 172.87-25.23L172.87-25.23Q172.87-27.75 177.09-28.98L177.09-28.98Q178.52-29.41 179.43-29.41Q180.35-29.41 180.81-29.21Q181.27-29.00 181.56-28.67L181.56-28.67Q182.15-28.01 182.15-27.31Q182.15-26.62 181.98-26.05Q181.82-25.49 181.50-24.88Q181.19-24.28 180.74-23.67Q180.29-23.07 179.73-22.59ZM174.80-1.08Q173.32-0.31 171.91 0.15Q170.51 0.61 169.15 0.61Q167.79 0.61 166.34-0.05Q164.88-0.70 163.75-1.80L163.75-1.80Q161.23-4.24 161.23-7.23L161.23-7.23Q161.23-9.98 162.87-12.81L162.87-12.81Q164.38-15.37 166.70-17.11L166.70-17.11Q169.02-18.85 171.02-18.85L171.02-18.85Q173.87-18.85 174.06-17.25L174.06-17.25Q174.12-16.76 174.12-16.11Q174.12-15.47 173.82-14.64Q173.52-13.81 173.04-12.98Q172.56-12.15 171.98-11.36Q171.41-10.57 170.88-9.92L170.88-9.92Q169.86-8.69 169.26-8.14L169.26-8.14Q169.26-7.48 170.25-6.78L170.25-6.78Q171.19-6.11 171.85-6.11Q172.50-6.11 173.39-6.43Q174.28-6.74 175.22-7.27Q176.17-7.79 177.16-8.48Q178.14-9.16 179.10-9.88L179.10-9.88L182.68-12.68Q184.80-14.22 186.13-14.22L186.13-14.22Q186.66-14.22 186.94-13.84Q187.23-13.46 187.23-12.95Q187.23-12.44 186.72-11.55Q186.21-10.66 185.32-9.59Q184.43-8.52 183.24-7.34Q182.05-6.17 180.66-5.04Q179.28-3.91 177.78-2.88Q176.29-1.86 174.80-1.08Z M201.17-11.88Q201.17-12.46 200.35-12.46Q199.53-12.46 198.55-12.15Q197.58-11.84 196.41-11.33Q195.23-10.82 193.96-10.18Q192.70-9.53 191.52-8.87L191.52-8.87Q189.00-7.44 188.10-6.69Q187.19-5.94 186.61-5.37Q186.04-4.80 185.47-4.34L185.47-4.34Q184.14-3.24 183.46-3.24Q182.77-3.24 182.23-3.47Q181.68-3.69 181.23-4.10L181.23-4.10Q180.18-5.10 180.18-6.46L180.18-6.46Q180.18-8.89 184.45-15.98L184.45-15.98Q186.29-19.02 188.01-21.34Q189.73-23.65 191.31-25.28Q192.89-26.91 194.34-28.05L194.34-28.05Q197.30-30.37 199.06-30.37L199.06-30.37Q199.57-30.37 199.90-30Q200.23-29.63 200.23-29.20L200.23-29.20Q200.23-28.22 199.62-27.18Q199.00-26.13 197.99-24.55L197.99-24.55L193.83-18.24Q191.88-15.23 191.79-14.87Q191.70-14.51 191.70-14.36Q191.70-14.20 191.91-14.20Q192.13-14.20 193.13-14.65L193.13-14.65Q193.13-14.65 195.63-15.78L195.63-15.78Q201.27-18.24 204.75-18.24L204.75-18.24Q206.72-18.24 208.05-16.43L208.05-16.43Q209.28-14.73 209.28-12.75Q209.28-10.78 208.67-9.36Q208.07-7.93 206.88-7.11Q205.70-6.29 204.53-5.59L204.53-5.59L202.03-4.10Q194.94-0.14 191.74-0.14L191.74-0.14Q187.30-0.14 187.30-2.44L187.30-2.44Q187.30-3.69 188.52-4.30L188.52-4.30Q199.67-10.33 200.16-10.64L200.16-10.64Q201.17-11.29 201.17-11.88Z"/></g>
</svg>
</g></svg></svg>