<svg version="1.1" preserveAspectRatio="none" xmlns="http://www.w3.org/2000/svg" width="500" height="500" viewBox="0 0 500 500"><rect width="100%" height="100%" fill="#EFEBE5" fill-opacity="1"/><svg viewBox="71.7713 98.0213 334.4342 296.7754" width="333" height="295.50269739159455" x="83.5px" y="102.2487px" xmlns="http://www.w3.org/2000/svg" xmlns:xlink="http://www.w3.org/1999/xlink" preserveAspectRatio="none"><defs></defs><style>.companyName {fill:#FF7E73;fill-opacity:1;}.icon1 {fill:#776464;fill-opacity:1;}.icon2 {fill:#FF7E73;fill-opacity:1;}.icon3 {fill:#493838;fill-opacity:1;}.icon3-str {stroke:#493838;stroke-opacity:1;}.text {fill:#776464;fill-opacity:1;}</style><g opacity="1" transform="rotate(0 132.2404 373.7967)">
<svg width="213.4961" height="21" x="132.2404" y="373.7967" version="1.1" preserveAspectRatio="none" viewBox="3.24 -31 396.04 38.96">
  <g transform="matrix(1 0 0 1 0 0)" class="text"><path id="id-6izo4zJp17" d="M13.52-17.20Q15.84-17.20 17.36-15.82Q18.88-14.44 18.92-12.24L18.92-12.24L18.92 0L15.16 0L15.16-10.96Q15.08-12.36 14.32-13.16Q13.56-13.96 12.04-14L12.04-14Q9.84-14 8.40-12.24Q6.96-10.48 6.96-7.76L6.96-7.76L6.96 0L3.24 0L3.24-16.56L6.60-16.56L6.84-13.36Q7.72-15.16 9.48-16.18Q11.24-17.20 13.52-17.20L13.52-17.20Z M27.92-8.44Q27.92-10.88 29.10-12.90Q30.28-14.92 32.38-16.08Q34.48-17.24 37.12-17.24L37.12-17.24Q39.76-17.24 41.82-16.08Q43.88-14.92 45.02-12.92Q46.16-10.92 46.16-8.44L46.16-8.44Q46.16-5.96 45.02-3.94Q43.88-1.92 41.80-0.76Q39.72 0.40 37.04 0.40L37.04 0.40Q34.44 0.40 32.36-0.70Q30.28-1.80 29.10-3.80Q27.92-5.80 27.92-8.44L27.92-8.44ZM31.68-8.40Q31.68-6.84 32.38-5.52Q33.08-4.20 34.30-3.44Q35.52-2.68 37-2.68L37-2.68Q39.32-2.68 40.84-4.32Q42.36-5.96 42.36-8.40L42.36-8.40Q42.36-10.84 40.84-12.50Q39.32-14.16 37-14.16L37-14.16Q35.48-14.16 34.28-13.38Q33.08-12.60 32.38-11.28Q31.68-9.96 31.68-8.40L31.68-8.40Z M56.76-23.84L60.52-23.84L60.52-16.52L65.04-16.52L65.04-13.56L60.52-13.56L60.52 0L56.76 0L56.76-13.56L53.72-13.56L53.72-16.52L56.76-16.52L56.76-23.84Z M103.76-16.56L107.20-16.56L107.20 0L103.48 0L103.48-2.72Q102.60-1.56 100.92-0.58Q99.24 0.40 97.12 0.40L97.12 0.40Q94.76 0.40 92.86-0.62Q90.96-1.64 89.86-3.60Q88.76-5.56 88.76-8.28L88.76-8.28Q88.76-11 89.90-13.02Q91.04-15.04 92.98-16.14Q94.92-17.24 97.28-17.24L97.28-17.24Q99.40-17.24 100.96-16.32Q102.52-15.40 103.48-13.92L103.48-13.92L103.76-16.56ZM98.12-2.68Q100.16-2.68 101.62-3.82Q103.08-4.96 103.48-6.92L103.48-6.92L103.48-10.20Q103-11.96 101.48-13.06Q99.96-14.16 98.00-14.16L98.00-14.16Q96.52-14.16 95.26-13.44Q94.00-12.72 93.26-11.42Q92.52-10.12 92.52-8.48L92.52-8.48Q92.52-6.88 93.28-5.56Q94.04-4.24 95.32-3.46Q96.60-2.68 98.12-2.68L98.12-2.68Z M117.68-31L121.40-31L121.40 0L117.68 0L117.68-31Z M130.44-8.44Q130.44-10.88 131.62-12.90Q132.80-14.92 134.90-16.08Q137-17.24 139.64-17.24L139.64-17.24Q142.28-17.24 144.34-16.08Q146.40-14.92 147.54-12.92Q148.68-10.92 148.68-8.44L148.68-8.44Q148.68-5.96 147.54-3.94Q146.40-1.92 144.32-0.76Q142.24 0.40 139.56 0.40L139.56 0.40Q136.96 0.40 134.88-0.70Q132.80-1.80 131.62-3.80Q130.44-5.80 130.44-8.44L130.44-8.44ZM134.20-8.40Q134.20-6.84 134.90-5.52Q135.60-4.20 136.82-3.44Q138.04-2.68 139.52-2.68L139.52-2.68Q141.84-2.68 143.36-4.32Q144.88-5.96 144.88-8.40L144.88-8.40Q144.88-10.84 143.36-12.50Q141.84-14.16 139.52-14.16L139.52-14.16Q138-14.16 136.80-13.38Q135.60-12.60 134.90-11.28Q134.20-9.96 134.20-8.40L134.20-8.40Z M167.96-17.20Q170.28-17.20 171.80-15.82Q173.32-14.44 173.36-12.24L173.36-12.24L173.36 0L169.60 0L169.60-10.96Q169.52-12.36 168.76-13.16Q168.00-13.96 166.48-14L166.48-14Q164.28-14 162.84-12.24Q161.40-10.48 161.40-7.76L161.40-7.76L161.40 0L157.68 0L157.68-16.56L161.04-16.56L161.28-13.36Q162.16-15.16 163.92-16.18Q165.68-17.20 167.96-17.20L167.96-17.20Z M191.56-2.80Q193.64-2.80 195.60-4.24L195.60-4.24L197.32-1.48Q196.00-0.60 194.46-0.10Q192.92 0.40 191.48 0.40L191.48 0.40Q188.72 0.40 186.66-0.74Q184.60-1.88 183.48-3.88Q182.36-5.88 182.36-8.40L182.36-8.40Q182.36-10.84 183.58-12.86Q184.80-14.88 186.92-16.06Q189.04-17.24 191.56-17.24L191.56-17.24Q194.80-17.24 196.98-15.34Q199.16-13.44 199.96-10.04L199.96-10.04L186.84-5.44Q187.56-4.20 188.78-3.50Q190.00-2.80 191.56-2.80L191.56-2.80ZM191.28-14.28Q189.00-14.28 187.52-12.68Q186.04-11.08 186.04-8.60L186.04-8.60Q186.04-8 186.08-7.68L186.08-7.68L195.72-11.24Q195.12-12.60 194.02-13.44Q192.92-14.28 191.28-14.28L191.28-14.28Z M238.80-16.56L242.24-16.56L242.24 0L238.52 0L238.52-2.72Q237.64-1.56 235.96-0.58Q234.28 0.40 232.16 0.40L232.16 0.40Q229.80 0.40 227.90-0.62Q226.00-1.64 224.90-3.60Q223.80-5.56 223.80-8.28L223.80-8.28Q223.80-11 224.94-13.02Q226.08-15.04 228.02-16.14Q229.96-17.24 232.32-17.24L232.32-17.24Q234.44-17.24 236.00-16.32Q237.56-15.40 238.52-13.92L238.52-13.92L238.80-16.56ZM233.16-2.68Q235.20-2.68 236.66-3.82Q238.12-4.96 238.52-6.92L238.52-6.92L238.52-10.20Q238.04-11.96 236.52-13.06Q235.00-14.16 233.04-14.16L233.04-14.16Q231.56-14.16 230.30-13.44Q229.04-12.72 228.30-11.42Q227.56-10.12 227.56-8.48L227.56-8.48Q227.56-6.88 228.32-5.56Q229.08-4.24 230.36-3.46Q231.64-2.68 233.16-2.68L233.16-2.68Z M263.00-17.20Q265.32-17.20 266.84-15.82Q268.36-14.44 268.40-12.24L268.40-12.24L268.40 0L264.64 0L264.64-10.96Q264.56-12.36 263.80-13.16Q263.04-13.96 261.52-14L261.52-14Q259.32-14 257.88-12.24Q256.44-10.48 256.44-7.76L256.44-7.76L256.44 0L252.72 0L252.72-16.56L256.08-16.56L256.32-13.36Q257.20-15.16 258.96-16.18Q260.72-17.20 263.00-17.20L263.00-17.20Z M290.56-16.56L294-16.56L283.32 7.96L279.64 7.96L283.44-0.56L275.76-16.56L279.96-16.56L285.32-4.76L290.56-16.56Z M323.24-17.24Q325.64-17.24 327.06-15.88Q328.48-14.52 328.56-12.28L328.56-12.28L328.56 0L324.84 0L324.84-10.92Q324.72-13.84 322.20-14L322.20-14Q320.76-14 319.62-13.14Q318.48-12.28 317.84-10.88Q317.20-9.48 317.16-7.88L317.16-7.88L317.16 0L313.40 0L313.40-10.92Q313.28-13.84 310.68-14L310.68-14Q309.28-14 308.14-13.14Q307-12.28 306.36-10.86Q305.72-9.44 305.72-7.84L305.72-7.84L305.72 0L302 0L302-16.56L305.36-16.56L305.64-13.44Q306.60-15.24 308.26-16.24Q309.92-17.24 312.04-17.24L312.04-17.24Q314.04-17.24 315.40-16.30Q316.76-15.36 317.16-13.72L317.16-13.72Q318.20-15.36 319.80-16.30Q321.40-17.24 323.24-17.24L323.24-17.24Z M337.56-8.44Q337.56-10.88 338.74-12.90Q339.92-14.92 342.02-16.08Q344.12-17.24 346.76-17.24L346.76-17.24Q349.40-17.24 351.46-16.08Q353.52-14.92 354.66-12.92Q355.80-10.92 355.80-8.44L355.80-8.44Q355.80-5.96 354.66-3.94Q353.52-1.92 351.44-0.76Q349.36 0.40 346.68 0.40L346.68 0.40Q344.08 0.40 342-0.70Q339.92-1.80 338.74-3.80Q337.56-5.80 337.56-8.44L337.56-8.44ZM341.32-8.40Q341.32-6.84 342.02-5.52Q342.72-4.20 343.94-3.44Q345.16-2.68 346.64-2.68L346.64-2.68Q348.96-2.68 350.48-4.32Q352-5.96 352-8.40L352-8.40Q352-10.84 350.48-12.50Q348.96-14.16 346.64-14.16L346.64-14.16Q345.12-14.16 343.92-13.38Q342.72-12.60 342.02-11.28Q341.32-9.96 341.32-8.40L341.32-8.40Z M368.40-12.64Q369.04-14 370.22-15.04Q371.40-16.08 372.72-16.64Q374.04-17.20 375.04-17.24L375.04-17.24L374.88-13.52Q373.08-13.60 371.62-12.80Q370.16-12 369.34-10.58Q368.52-9.16 368.52-7.56L368.52-7.56L368.52 0L364.80 0L364.80-16.56L368.12-16.56L368.40-12.64Z M390.88-2.80Q392.96-2.80 394.92-4.24L394.92-4.24L396.64-1.48Q395.32-0.60 393.78-0.10Q392.24 0.40 390.80 0.40L390.80 0.40Q388.04 0.40 385.98-0.74Q383.92-1.88 382.80-3.88Q381.68-5.88 381.68-8.40L381.68-8.40Q381.68-10.84 382.90-12.86Q384.12-14.88 386.24-16.06Q388.36-17.24 390.88-17.24L390.88-17.24Q394.12-17.24 396.30-15.34Q398.48-13.44 399.28-10.04L399.28-10.04L386.16-5.44Q386.88-4.20 388.10-3.50Q389.32-2.80 390.88-2.80L390.88-2.80ZM390.60-14.28Q388.32-14.28 386.84-12.68Q385.36-11.08 385.36-8.60L385.36-8.60Q385.36-8 385.40-7.68L385.40-7.68L395.04-11.24Q394.44-12.60 393.34-13.44Q392.24-14.28 390.60-14.28L390.60-14.28Z"/></g>
</svg>
</g><g opacity="1" transform="rotate(0 71.7713 301.7967)">
<svg width="334.4342" height="50" x="71.7713" y="301.7967" version="1.1" preserveAspectRatio="none" viewBox="1.04 -27.12 186.48000000000002 27.88">
  <g transform="matrix(1 0 0 1 0 0)" class="companyName"><path id="id-D6z1nYkh8" d="M23.56-9.20L23.56-7.76Q23.56-2.96 23.04 0L23.04 0L1.28 0L1.04-1.28Q2.20-2.04 4.44-2.92L4.44-2.92L4.44-23.84L1.36-24.28L1.40-26.32L13.64-26.32L13.88-25.04Q12.40-24.16 10.52-23.40L10.52-23.40L10.52-3.36L18.52-4L20.08-9.52L23.56-9.20Z M52.32-26.32L52.56-25.04Q51.08-24.16 49.20-23.40L49.20-23.40L49.20-11.44Q49.16-5.04 46.38-2.14Q43.60 0.76 38.80 0.76L38.80 0.76Q33.32 0.76 30.12-2.50Q26.92-5.76 26.84-11.48L26.84-11.48L26.84-23.84L23.76-24.28L23.80-26.32L36.04-26.32L36.28-25.04Q34.80-24.16 32.92-23.40L32.92-23.40L32.92-10.60Q32.92-6.80 34.64-4.84Q36.36-2.88 39.36-2.88L39.36-2.88Q41.32-2.88 42.84-3.84L42.84-3.84Q44.80-5.68 44.88-11.04L44.88-11.04L44.88-23.80L41.48-24.28L41.52-26.32L52.32-26.32Z M75.56-5.72L76.52-2.88L68.32 0.64Q63.40 0.80 60.22-1.12Q57.04-3.04 55.60-6.14Q54.16-9.24 54.16-12.84L54.16-12.84Q54.16-16.52 55.68-19.80Q57.20-23.08 60.24-25.10Q63.28-27.12 67.60-27.12L67.60-27.12Q72.24-27.12 75.84-24.60L75.84-24.60Q75.92-23.32 75.68-21.16Q75.44-19 74.96-17.40L74.96-17.40L71.28-17.40L70.32-22.40Q67.56-23.60 64.28-23.60L64.28-23.60Q62.32-22.12 61.34-19.44Q60.36-16.76 60.36-13.80L60.36-13.80Q60.36-9.04 62.68-6.24Q65-3.44 68.96-3.56L68.96-3.56L75.56-5.72Z M88.32-2.56L92-2.04L91.96 0L79.08 0L78.84-1.28Q80-2.04 82.24-2.92L82.24-2.92L82.24-23.84L79.16-24.28L79.20-26.32L91.44-26.32L91.68-25.04Q90.20-24.16 88.32-23.40L88.32-23.40L88.32-2.56Z M107.56-26.64L107.56-26.64Q111.68-26.64 114.66-24.72Q117.64-22.80 119.20-19.76Q120.76-16.72 120.76-13.36L120.76-13.36Q120.76-7.52 117.14-3.84Q113.52-0.16 107.52 0L107.52 0L94.36 0L94.12-1.28Q95.28-2.04 97.52-2.92L97.52-2.92L97.52-23.92L94.68-24.28L94.72-26.32Q100.48-26.64 107.56-26.64ZM106.64-3.32L106.64-3.32Q110.08-3.32 112.22-6.08Q114.36-8.84 114.36-13.12L114.36-13.12Q114.36-16.44 112.98-19.32Q111.60-22.20 109.40-23.52L109.40-23.52L103.60-22.92L103.60-3.80Q105.24-3.32 106.64-3.32Z M145.68-9.20L145.68-7.76Q145.68-2.96 145.16 0L145.16 0L123.40 0L123.16-1.28Q124.32-2.04 126.56-2.92L126.56-2.92L126.56-23.84L123.48-24.28L123.52-26.32L135.76-26.32L136-25.04Q134.52-24.16 132.64-23.40L132.64-23.40L132.64-3.36L140.64-4L142.20-9.52L145.68-9.20Z M157.28-2.56L160.96-2.04L160.92 0L148.04 0L147.80-1.28Q148.96-2.04 151.20-2.92L151.20-2.92L151.20-23.84L148.12-24.28L148.16-26.32L160.40-26.32L160.64-25.04Q159.16-24.16 157.28-23.40L157.28-23.40L157.28-2.56Z M181.16-13.96L181.16-13.96Q184.20-13.40 185.86-11.56Q187.52-9.72 187.52-7.28L187.52-7.28Q187.52-4.04 184.74-2.08Q181.96-0.12 177.16 0L177.16 0L163.32 0L163.08-1.28Q164.24-2.04 166.48-2.92L166.48-2.92L166.48-23.92L163.64-24.28L163.68-26.32Q169.52-26.64 176.16-26.64L176.16-26.64Q180.72-26.64 183.48-24.76Q186.24-22.88 186.24-19.88L186.24-19.88Q186.24-17.88 184.94-16.16Q183.64-14.44 181.16-13.96ZM176.92-23.52L172.56-22.92L172.56-15.04L174.40-15.04Q177.24-15.04 178.66-16.26Q180.08-17.48 180.08-19.24L180.08-19.24Q180.08-20.68 179.18-21.94Q178.28-23.20 176.92-23.52L176.92-23.52ZM172.56-3.40L175.76-3.08L176.44-3.04Q178.68-3.04 179.88-4.32Q181.08-5.60 181.08-7.36L181.08-7.36Q181.08-9.40 179.62-10.88Q178.16-12.36 175.96-12.40L175.96-12.40L172.56-12.40L172.56-3.40Z"/></g>
</svg>
</g><g opacity="1" transform="rotate(0 138.6581 98.0213)">
<svg width="200.6605" height="173.7754" x="138.6581" y="98.0213" version="1.1" preserveAspectRatio="none" viewBox="4.999997138977051 11.02911376953125 90 77.9415283203125">
  <g transform="matrix(1 0 0 1 0 0)" class="icon1"><g transform="translate(0,-952.36216)"><path style="opacity:1;stroke-width:4;stroke-linecap:butt;stroke-linejoin:miter;stroke-miterlimit:4;stroke-dasharray:none;stroke-dashoffset:0" d="m 27.500001,963.39143 -10.872091,18.8297 c 14.328811,-0.017 28.644211,-0.021 42.973291,-0.021 l -10.76841,-18.8087 z m 23.40702,0 c 7.08318,12.4059 14.19201,24.797 21.33459,37.16897 l 10.814041,-18.88597 -10.55565,-18.283 z m 33.189301,20.0847 c -7.06914,12.4808 -14.290381,24.90997 -21.420721,37.25527 l 21.687841,0.053 L 95,1002.3624 Z m -46.780741,0.5309 -21.726541,0.014 -10.5890399,18.34107 10.9458899,18.9581 c 7.05528,-12.327 14.882941,-26.08758 21.369691,-37.31318 z m -9.51678,20.22897 -10.812241,18.8859 10.513441,18.211 21.50154,0 c -7.10856,-12.2198 -14.19282,-25.0183 -21.20274,-37.0969 z m 12.50685,18.2882 10.76841,18.8087 21.425941,0 10.82637,-18.7506 c -14.340241,-0.056 -28.680481,-0.058 -43.020721,-0.058 z"></path></g></g>
</svg>
</g></svg></svg>