<svg version="1.1" preserveAspectRatio="none" xmlns="http://www.w3.org/2000/svg" width="500" height="500" viewBox="0 0 500 500"><rect width="100%" height="100%" fill="#252A37" fill-opacity="1"/><svg viewBox="54.5922 62.6789 345.1829 342.5933" width="333" height="330.50179745288654" x="83.5px" y="84.7491px" xmlns="http://www.w3.org/2000/svg" xmlns:xlink="http://www.w3.org/1999/xlink" preserveAspectRatio="none"><defs></defs><style>.companyName {fill:#F4D529;fill-opacity:1;}.icon1 {fill:#E3E3E3;fill-opacity:1;}.icon2 {fill:#575757;fill-opacity:1;}.icon3 {fill:#949494;fill-opacity:1;}.icon3-str {stroke:#949494;stroke-opacity:1;}.text {fill:#E3E3E3;fill-opacity:1;}</style><g opacity="1" transform="rotate(0 124.4809 383.6722)">
<svg width="205.4055" height="21.6" x="124.4809" y="383.6722" version="1.1" preserveAspectRatio="none" viewBox="3.24 -31 370.44 38.96">
  <g transform="matrix(1 0 0 1 0 0)" class="text"><path id="id-6izo4zJp17" d="M13.52-17.20Q15.84-17.20 17.36-15.82Q18.88-14.44 18.92-12.24L18.92-12.24L18.92 0L15.16 0L15.16-10.96Q15.08-12.36 14.32-13.16Q13.56-13.96 12.04-14L12.04-14Q9.84-14 8.40-12.24Q6.96-10.48 6.96-7.76L6.96-7.76L6.96 0L3.24 0L3.24-16.56L6.60-16.56L6.84-13.36Q7.72-15.16 9.48-16.18Q11.24-17.20 13.52-17.20L13.52-17.20Z M26.32-8.44Q26.32-10.88 27.50-12.90Q28.68-14.92 30.78-16.08Q32.88-17.24 35.52-17.24L35.52-17.24Q38.16-17.24 40.22-16.08Q42.28-14.92 43.42-12.92Q44.56-10.92 44.56-8.44L44.56-8.44Q44.56-5.96 43.42-3.94Q42.28-1.92 40.20-0.76Q38.12 0.40 35.44 0.40L35.44 0.40Q32.84 0.40 30.76-0.70Q28.68-1.80 27.50-3.80Q26.32-5.80 26.32-8.44L26.32-8.44ZM30.08-8.40Q30.08-6.84 30.78-5.52Q31.48-4.20 32.70-3.44Q33.92-2.68 35.40-2.68L35.40-2.68Q37.72-2.68 39.24-4.32Q40.76-5.96 40.76-8.40L40.76-8.40Q40.76-10.84 39.24-12.50Q37.72-14.16 35.40-14.16L35.40-14.16Q33.88-14.16 32.68-13.38Q31.48-12.60 30.78-11.28Q30.08-9.96 30.08-8.40L30.08-8.40Z M53.56-23.84L57.32-23.84L57.32-16.52L61.84-16.52L61.84-13.56L57.32-13.56L57.32 0L53.56 0L53.56-13.56L50.52-13.56L50.52-16.52L53.56-16.52L53.56-23.84Z M97.36-16.56L100.80-16.56L100.80 0L97.08 0L97.08-2.72Q96.20-1.56 94.52-0.58Q92.84 0.40 90.72 0.40L90.72 0.40Q88.36 0.40 86.46-0.62Q84.56-1.64 83.46-3.60Q82.36-5.56 82.36-8.28L82.36-8.28Q82.36-11 83.50-13.02Q84.64-15.04 86.58-16.14Q88.52-17.24 90.88-17.24L90.88-17.24Q93-17.24 94.56-16.32Q96.12-15.40 97.08-13.92L97.08-13.92L97.36-16.56ZM91.72-2.68Q93.76-2.68 95.22-3.82Q96.68-4.96 97.08-6.92L97.08-6.92L97.08-10.20Q96.60-11.96 95.08-13.06Q93.56-14.16 91.60-14.16L91.60-14.16Q90.12-14.16 88.86-13.44Q87.60-12.72 86.86-11.42Q86.12-10.12 86.12-8.48L86.12-8.48Q86.12-6.88 86.88-5.56Q87.64-4.24 88.92-3.46Q90.20-2.68 91.72-2.68L91.72-2.68Z M109.68-31L113.40-31L113.40 0L109.68 0L109.68-31Z M120.84-8.44Q120.84-10.88 122.02-12.90Q123.20-14.92 125.30-16.08Q127.40-17.24 130.04-17.24L130.04-17.24Q132.68-17.24 134.74-16.08Q136.80-14.92 137.94-12.92Q139.08-10.92 139.08-8.44L139.08-8.44Q139.08-5.96 137.94-3.94Q136.80-1.92 134.72-0.76Q132.64 0.40 129.96 0.40L129.96 0.40Q127.36 0.40 125.28-0.70Q123.20-1.80 122.02-3.80Q120.84-5.80 120.84-8.44L120.84-8.44ZM124.60-8.40Q124.60-6.84 125.30-5.52Q126.00-4.20 127.22-3.44Q128.44-2.68 129.92-2.68L129.92-2.68Q132.24-2.68 133.76-4.32Q135.28-5.96 135.28-8.40L135.28-8.40Q135.28-10.84 133.76-12.50Q132.24-14.16 129.92-14.16L129.92-14.16Q128.40-14.16 127.20-13.38Q126.00-12.60 125.30-11.28Q124.60-9.96 124.60-8.40L124.60-8.40Z M156.76-17.20Q159.08-17.20 160.60-15.82Q162.12-14.44 162.16-12.24L162.16-12.24L162.16 0L158.40 0L158.40-10.96Q158.32-12.36 157.56-13.16Q156.80-13.96 155.28-14L155.28-14Q153.08-14 151.64-12.24Q150.20-10.48 150.20-7.76L150.20-7.76L150.20 0L146.48 0L146.48-16.56L149.84-16.56L150.08-13.36Q150.96-15.16 152.72-16.18Q154.48-17.20 156.76-17.20L156.76-17.20Z M178.76-2.80Q180.84-2.80 182.80-4.24L182.80-4.24L184.52-1.48Q183.20-0.60 181.66-0.10Q180.12 0.40 178.68 0.40L178.68 0.40Q175.92 0.40 173.86-0.74Q171.80-1.88 170.68-3.88Q169.56-5.88 169.56-8.40L169.56-8.40Q169.56-10.84 170.78-12.86Q172.00-14.88 174.12-16.06Q176.24-17.24 178.76-17.24L178.76-17.24Q182.00-17.24 184.18-15.34Q186.36-13.44 187.16-10.04L187.16-10.04L174.04-5.44Q174.76-4.20 175.98-3.50Q177.20-2.80 178.76-2.80L178.76-2.80ZM178.48-14.28Q176.20-14.28 174.72-12.68Q173.24-11.08 173.24-8.60L173.24-8.60Q173.24-8 173.28-7.68L173.28-7.68L182.92-11.24Q182.32-12.60 181.22-13.44Q180.12-14.28 178.48-14.28L178.48-14.28Z M222.80-16.56L226.24-16.56L226.24 0L222.52 0L222.52-2.72Q221.64-1.56 219.96-0.58Q218.28 0.40 216.16 0.40L216.16 0.40Q213.80 0.40 211.90-0.62Q210.00-1.64 208.90-3.60Q207.80-5.56 207.80-8.28L207.80-8.28Q207.80-11 208.94-13.02Q210.08-15.04 212.02-16.14Q213.96-17.24 216.32-17.24L216.32-17.24Q218.44-17.24 220.00-16.32Q221.56-15.40 222.52-13.92L222.52-13.92L222.80-16.56ZM217.16-2.68Q219.20-2.68 220.66-3.82Q222.12-4.96 222.52-6.92L222.52-6.92L222.52-10.20Q222.04-11.96 220.52-13.06Q219.00-14.16 217.04-14.16L217.04-14.16Q215.56-14.16 214.30-13.44Q213.04-12.72 212.30-11.42Q211.56-10.12 211.56-8.48L211.56-8.48Q211.56-6.88 212.32-5.56Q213.08-4.24 214.36-3.46Q215.64-2.68 217.16-2.68L217.16-2.68Z M245.40-17.20Q247.72-17.20 249.24-15.82Q250.76-14.44 250.80-12.24L250.80-12.24L250.80 0L247.04 0L247.04-10.96Q246.96-12.36 246.20-13.16Q245.44-13.96 243.92-14L243.92-14Q241.72-14 240.28-12.24Q238.84-10.48 238.84-7.76L238.84-7.76L238.84 0L235.12 0L235.12-16.56L238.48-16.56L238.72-13.36Q239.60-15.16 241.36-16.18Q243.12-17.20 245.40-17.20L245.40-17.20Z M271.36-16.56L274.80-16.56L264.12 7.96L260.44 7.96L264.24-0.56L256.56-16.56L260.76-16.56L266.12-4.76L271.36-16.56Z M302.44-17.24Q304.84-17.24 306.26-15.88Q307.68-14.52 307.76-12.28L307.76-12.28L307.76 0L304.04 0L304.04-10.92Q303.92-13.84 301.40-14L301.40-14Q299.96-14 298.82-13.14Q297.68-12.28 297.04-10.88Q296.40-9.48 296.36-7.88L296.36-7.88L296.36 0L292.60 0L292.60-10.92Q292.48-13.84 289.88-14L289.88-14Q288.48-14 287.34-13.14Q286.20-12.28 285.56-10.86Q284.92-9.44 284.92-7.84L284.92-7.84L284.92 0L281.20 0L281.20-16.56L284.56-16.56L284.84-13.44Q285.80-15.24 287.46-16.24Q289.12-17.24 291.24-17.24L291.24-17.24Q293.24-17.24 294.60-16.30Q295.96-15.36 296.36-13.72L296.36-13.72Q297.40-15.36 299.00-16.30Q300.60-17.24 302.44-17.24L302.44-17.24Z M315.16-8.44Q315.16-10.88 316.34-12.90Q317.52-14.92 319.62-16.08Q321.72-17.24 324.36-17.24L324.36-17.24Q327.00-17.24 329.06-16.08Q331.12-14.92 332.26-12.92Q333.40-10.92 333.40-8.44L333.40-8.44Q333.40-5.96 332.26-3.94Q331.12-1.92 329.04-0.76Q326.96 0.40 324.28 0.40L324.28 0.40Q321.68 0.40 319.60-0.70Q317.52-1.80 316.34-3.80Q315.16-5.80 315.16-8.44L315.16-8.44ZM318.92-8.40Q318.92-6.84 319.62-5.52Q320.32-4.20 321.54-3.44Q322.76-2.68 324.24-2.68L324.24-2.68Q326.56-2.68 328.08-4.32Q329.60-5.96 329.60-8.40L329.60-8.40Q329.60-10.84 328.08-12.50Q326.56-14.16 324.24-14.16L324.24-14.16Q322.72-14.16 321.52-13.38Q320.32-12.60 319.62-11.28Q318.92-9.96 318.92-8.40L318.92-8.40Z M344.40-12.64Q345.04-14 346.22-15.04Q347.40-16.08 348.72-16.64Q350.04-17.20 351.04-17.24L351.04-17.24L350.88-13.52Q349.08-13.60 347.62-12.80Q346.16-12 345.34-10.58Q344.52-9.16 344.52-7.56L344.52-7.56L344.52 0L340.80 0L340.80-16.56L344.12-16.56L344.40-12.64Z M365.28-2.80Q367.36-2.80 369.32-4.24L369.32-4.24L371.04-1.48Q369.72-0.60 368.18-0.10Q366.64 0.40 365.20 0.40L365.20 0.40Q362.44 0.40 360.38-0.74Q358.32-1.88 357.20-3.88Q356.08-5.88 356.08-8.40L356.08-8.40Q356.08-10.84 357.30-12.86Q358.52-14.88 360.64-16.06Q362.76-17.24 365.28-17.24L365.28-17.24Q368.52-17.24 370.70-15.34Q372.88-13.44 373.68-10.04L373.68-10.04L360.56-5.44Q361.28-4.20 362.50-3.50Q363.72-2.80 365.28-2.80L365.28-2.80ZM365.00-14.28Q362.72-14.28 361.24-12.68Q359.76-11.08 359.76-8.60L359.76-8.60Q359.76-8 359.80-7.68L359.80-7.68L369.44-11.24Q368.84-12.60 367.74-13.44Q366.64-14.28 365.00-14.28L365.00-14.28Z"/></g>
</svg>
</g><g opacity="1" transform="rotate(0 54.5922 299.6722)">
<svg width="345.1829" height="60" x="54.5922" y="299.6722" version="1.1" preserveAspectRatio="none" viewBox="1.2 -19.08 116.47999999999999 20.24">
  <g transform="matrix(1 0 0 1 0 0)" class="companyName"><path id="id-D6z1nYkh8" d="M4.08 0.20L3.92 0.28L3.12 0.20Q2.44 0.12 1.84-0.30Q1.24-0.72 1.20-1.36L1.20-1.36Q1.20-1.48 1.24-1.52L1.24-1.52L1.44-1.56L1.52-1.92Q1.44-1.92 1.36-2L1.36-2L1.40-2.16L1.48-2.24L1.40-2.56Q1.40-2.60 1.44-2.60L1.44-2.60Q1.48-2.56 1.52-2.56L1.52-2.56L1.84-2.96L1.92-2.92Q1.84-2.92 1.82-2.76Q1.80-2.60 1.80-2.40L1.80-2.40L1.80-2.24Q1.80-2.20 1.84-2.16L1.84-2.16L1.92-2.16Q1.96-2.20 1.96-2.32L1.96-2.32L1.96-2.60Q1.96-2.68 2.02-2.94Q2.08-3.20 2.08-3.28L2.08-3.28L2.08-4.52Q2.08-4.60 2.14-5.20Q2.20-5.80 2.28-6.48Q2.36-7.16 2.42-7.74Q2.48-8.32 2.48-8.40L2.48-8.40L2.72-8.80L2.48-9.36Q2.48-9.56 2.56-10.06Q2.64-10.56 2.64-10.72L2.64-10.72L2.76-11.28L3.04-11.68L2.80-11.84L2.80-12.60L3-13.24L2.88-13.28L3.32-16.32Q3.32-16.36 3.30-16.38Q3.28-16.40 3.28-16.44L3.28-16.44Q3.28-16.76 3.40-17.18Q3.52-17.60 3.52-17.72L3.52-17.72L4.24-17.76L4.96-18L5.44-18Q5.60-18 6-17.76Q6.40-17.52 6.60-17.32L6.60-17.32L7.08-16.88Q7.12-16.80 7.20-16.60Q7.28-16.40 7.32-16.40L7.32-16.40L7.36-16.20Q7.32-16.12 7.26-15.70Q7.20-15.28 7.04-14.80L7.04-14.80Q7.08-14.72 7.08-14.60L7.08-14.60Q7.08-14.48 7.02-14.38Q6.96-14.28 6.88-14.20L6.88-14.20L6.88-14.16L6.84-14.12Q6.84-14.08 6.88-14.08L6.88-14.08L7.04-14.08Q7.04-13.92 6.84-13.72L6.84-13.72Q6.92-13.64 6.92-13.60L6.92-13.60Q6.92-13.52 6.78-13.34Q6.64-13.16 6.64-12.84L6.64-12.84L6.68-12.72Q6.64-12.64 6.60-12.64Q6.56-12.64 6.56-12.60L6.56-12.60Q6.56-12.52 6.68-12.40L6.68-12.40Q6.64-12.20 6.52-12.20Q6.40-12.20 6.40-11.84L6.40-11.84Q6.40-11.76 6.64-11.72L6.64-11.72Q6.36-11.56 6.36-11.56L6.36-11.56Q6.36-11.52 6.40-11.52L6.40-11.52Q6.44-11.52 6.44-11.50Q6.44-11.48 6.52-11.48L6.52-11.48L6.68-11.04Q6.56-10.88 6.48-10.78Q6.40-10.68 6.40-10.52L6.40-10.52L6.40-10.48L6.40-10.40Q6.40-10.32 6.48-10.24L6.48-10.24Q6.48-9.68 6.38-9.38Q6.28-9.08 6.28-8.88L6.28-8.88Q6.28-8.76 6.32-8.72L6.32-8.72L6.44-8.64Q6.40-8.36 6.30-8.06Q6.20-7.76 6.12-7.72L6.12-7.72L6.04-7.72L6-7.56L6.20-7.60Q6.12-7.52 6.04-7.46Q5.96-7.40 5.96-7.32L5.96-7.32Q5.96-7.28 6-7.28L6-7.28L6.24-7.28L6-6.48L6.20-6.48Q6.24-6.36 6.22-6.18Q6.20-6 6.28-5.92L6.28-5.92L6.20-5.80Q6.20-5.36 6.18-5.14Q6.16-4.92 6.12-4.60L6.12-4.60L6.04-4.52L6.24-4.32Q6.20-4.24 6.18-4.24Q6.16-4.24 6.08-4.16L6.08-4.16L6.12-4.28Q5.88-4.12 5.80-4.08L5.80-4.08L6.20-4.04Q5.96-3.80 5.84-3.80L5.84-3.80L5.80-3.80L5.68-3.80L5.68-3.60Q5.68-3.04 5.84-2.56Q6-2.08 6.60-2.08L6.60-2.08Q6.68-2.08 6.72-2.10Q6.76-2.12 6.80-2.12L6.80-2.12Q6.80-2 6.88-2L6.88-2Q7.04-2 7.46-2.12Q7.88-2.24 8.44-2.24L8.44-2.24L8.80-2.24Q9.12-2.24 9.24-2.42Q9.36-2.60 9.52-2.68L9.52-2.68Q9.64-2.64 9.64-2.62Q9.64-2.60 9.72-2.52L9.72-2.52Q9.96-2.76 10.24-2.76L10.24-2.76Q10.28-2.72 10.46-2.72Q10.64-2.72 10.64-2.56L10.64-2.56L10.80-2.64Q10.88-2.68 10.90-2.72Q10.92-2.76 10.96-2.76L10.96-2.76Q11.24-2.48 11.68-2.44L11.68-2.44L11.60-2.24Q11.64-2.20 11.68-2.20L11.68-2.20Q11.76-2.20 11.78-2.26Q11.80-2.32 12-2.32L12-2.32Q12-2.28 12.40-2.12Q12.80-1.96 12.80-1.76L12.80-1.76Q12.80-1.68 12.76-1.64L12.76-1.64L12.80-1.32Q12.52-1.20 12.28-1.12Q12.04-1.04 11.88-0.88L11.88-0.88Q11.76-0.88 11.66-0.96Q11.56-1.04 11.60-1L11.60-1Q11.56-0.92 11.56-0.80L11.56-0.80L11.56-0.76Q11.56-0.72 11.64-0.72L11.64-0.72Q11.24-0.68 10.94-0.62Q10.64-0.56 10.28-0.56L10.28-0.56Q10.16-0.56 10.04-0.58Q9.92-0.60 9.76-0.60L9.76-0.60Q9.40-0.60 8.86-0.30Q8.32 0 7.72 0L7.72 0L7.40 0Q7.24 0 6.96 0.02Q6.68 0.04 6.42 0.08Q6.16 0.12 5.98 0.20Q5.80 0.28 5.80 0.44L5.80 0.44L5.72 0.28Q5.64 0.48 5.54 0.56Q5.44 0.64 5.36 0.80L5.36 0.80Q5.28 0.72 5.28 0.60L5.28 0.60Q5.28 0.40 5.36 0.20L5.36 0.20Q5.24 0.28 4.84 0.28L4.84 0.28Q4.76 0.08 4.64 0.02Q4.52-0.04 4.52-0.08L4.52-0.08L4.08 0.20ZM12.60-1.80L12.60-1.80Q12.52-1.80 12.48-1.76L12.48-1.76Q12.48-1.72 12.56-1.64L12.56-1.64Q12.64-1.64 12.64-1.76L12.64-1.76Q12.64-1.80 12.60-1.80Z M14.88-4.48L14.76-6.64L14.84-7.92Q15-8.28 15-8.76L15-8.76Q15-9.04 14.88-9.40L14.88-9.40L14.76-9.88L14.88-10.60Q14.88-10.72 14.82-10.98Q14.76-11.24 14.76-11.32L14.76-11.32L14.92-12.76L15.20-13.48L15.20-14.20Q15.20-14.28 15.28-14.52Q15.36-14.76 15.36-14.84L15.36-14.84L15.48-14.92L15.48-14.48L15.56-14.48Q15.64-14.88 15.82-15.20Q16-15.52 16-15.84L16-15.84L16-15.92L15.72-16.12Q15.72-16.32 15.78-16.50Q15.84-16.68 15.84-16.84L15.84-16.84L16.08-17.36L16.40-17.48Q16.44-17.48 16.82-17.44Q17.20-17.40 17.66-17.36Q18.12-17.32 18.50-17.28Q18.88-17.24 18.88-17.24L18.88-17.24L19.48-16.76L19.72-16.04L19.72-15.72Q19.72-14.68 19.48-13.70Q19.24-12.72 19.24-11.56L19.24-11.56L19.24-10.36L19.24-10.12Q18.92-9.44 18.78-8.78Q18.64-8.12 18.64-7.32L18.64-7.32L18.64-6.84Q18.64-6.48 18.70-5.90Q18.76-5.32 18.76-5.04L18.76-5.04Q18.76-5 18.82-4.76Q18.88-4.52 18.96-4.24Q19.04-3.96 19.10-3.74Q19.16-3.52 19.20-3.48L19.20-3.48Q19.52-2.80 19.78-2.48Q20.04-2.16 20.26-2.04Q20.48-1.92 20.72-1.94Q20.96-1.96 21.20-1.96L21.20-1.96Q21.48-1.96 21.64-2.04L21.64-2.04Q22.04-2.04 22.48-2.20Q22.92-2.36 23.32-2.66Q23.72-2.96 23.98-3.36Q24.24-3.76 24.24-4.20L24.24-4.20L24.24-4.28L24.72-6.40Q24.68-6.44 24.66-6.68Q24.64-6.92 24.62-7.20Q24.60-7.48 24.60-7.72Q24.60-7.96 24.60-8.04L24.60-8.04L24.64-8.48Q24.64-8.64 24.74-8.84Q24.84-9.04 24.84-9.12L24.84-9.12L25.04-9.04L24.88-9.72L25-10.08Q24.92-10.20 24.90-10.44Q24.88-10.68 24.88-10.80L24.88-10.80Q24.80-10.80 24.68-10.72Q24.56-10.64 24.56-10.60L24.56-10.60L24.40-10.68L24.40-11.24Q24.40-11.92 24.44-12.30Q24.48-12.68 24.48-13.28L24.48-13.28L23.92-15.08L24.16-15.16Q24.24-15.20 24.34-15.24Q24.44-15.28 24.52-15.28L24.52-15.28L24.76-15.32Q25.12-15.40 25.24-15.42Q25.36-15.44 25.68-15.44L25.68-15.44Q25.88-15.44 25.96-15.38Q26.04-15.32 26.24-15.32L26.24-15.32L26.32-15.32Q26.28-15.36 26.24-15.36L26.24-15.36Q26.20-15.36 26.20-15.40L26.20-15.40Q26.20-15.44 26.32-15.44L26.32-15.44Q26.64-15.44 27-15.16Q27.36-14.88 27.44-14.36L27.44-14.36Q27.56-14.04 27.72-13.76L27.72-13.76Q27.80-13.52 27.90-13.24Q28-12.96 28-12.76L28-12.76Q28-12.72 27.98-12.68Q27.96-12.64 27.96-12.56L27.96-12.56L27.96-12.40Q27.96-12.08 28.02-11.82Q28.08-11.56 28.12-11.24L28.12-11.24L28.04-11L28.04-8L28.04-7.92Q28.04-7 28.02-6.54Q28-6.08 27.94-5.74Q27.88-5.40 27.78-5.10Q27.68-4.80 27.56-4.20L27.56-4.20Q27.44-3.88 27.28-3.68Q27.12-3.48 27.04-3.16L27.04-3.16Q26.80-2.68 26.80-2.34Q26.80-2 26.48-1.44L26.48-1.44Q25.80-0.76 25.10-0.38Q24.40 0 23.78 0.16Q23.16 0.32 22.62 0.34Q22.08 0.36 21.72 0.36L21.72 0.36Q20.76 0.36 19.84 0.24Q18.92 0.12 18.08-0.26Q17.24-0.64 16.54-1.36Q15.84-2.08 15.32-3.28L15.32-3.28Q15.20-3.52 15.04-3.96Q14.88-4.40 14.88-4.48L14.88-4.48ZM15.60-15.80L15.76-15.80L15.76-15.72Q15.76-15.68 15.72-15.58Q15.68-15.48 15.64-15.40L15.64-15.40L15.56-15.12L15.40-15.12L15.60-15.80Z M41.72-2.88L41.88-2.76L42.16-2.32L42-2.12L42.32-1.56L41.88-1.24L40.32-0.68Q40.12-0.60 39.98-0.60Q39.84-0.60 39.72-0.52L39.72-0.52L38.48-0.52Q38-0.44 37.74-0.28Q37.48-0.12 36.80-0.12L36.80-0.12L36.56-0.12Q36.40-0.12 36.26-0.18Q36.12-0.24 35.88-0.24L35.88-0.24Q35.80-0.24 35.42-0.16Q35.04-0.08 34.96-0.08L34.96-0.08L33.28-0.08Q32.76-0.08 32.22-0.46Q31.68-0.84 31.12-1L31.12-1L31.04-1.32L30.24-2.40Q30.20-2.44 30.16-2.48Q30.12-2.52 30.12-2.72L30.12-2.72Q30.12-3.48 30.36-4.22Q30.60-4.96 30.60-5.52L30.60-5.52L30.72-5.68Q30.72-6.24 30.70-6.26Q30.68-6.28 30.60-6.44L30.60-6.44Q30.60-6.60 30.72-6.72L30.72-6.72Q30.68-6.76 30.68-6.80L30.68-6.80Q30.68-6.88 30.80-7.02Q30.92-7.16 30.92-7.24L30.92-7.24L30.80-7.32Q31.08-8 31.16-8.36Q31.24-8.72 31.36-9.16L31.36-9.16Q31.36-9.68 31.46-9.78Q31.56-9.88 31.68-9.90Q31.80-9.92 31.90-9.98Q32-10.04 32-10.44L32-10.44Q32.12-10.88 32.36-11.46Q32.60-12.04 33.02-12.54Q33.44-13.04 34.08-13.38Q34.72-13.72 35.64-13.72L35.64-13.72Q35.92-13.68 36.08-13.68Q36.24-13.68 36.36-13.68L36.36-13.68L36.68-13.68L36.80-13.68L36.60-13.44L35.84-13.32Q36.48-13.32 37.26-13.16Q38.04-13 38.76-13L38.76-13Q38.76-13.20 38.52-13.26Q38.28-13.32 37.98-13.36Q37.68-13.40 37.40-13.42Q37.12-13.44 37.04-13.56L37.04-13.56Q37.08-13.56 37.22-13.60Q37.36-13.64 37.44-13.64L37.44-13.64L37.92-13.60L38-13.68Q38.40-13.68 38.60-13.62Q38.80-13.56 38.94-13.48Q39.08-13.40 39.26-13.34Q39.44-13.28 39.80-13.28L39.80-13.28L41.28-13.28L41.52-13.20Q41.76-13.12 41.80-13.12L41.80-13.12L41.68-12.96L41.80-12.76L41.80-12.56L41.48-12.24L41.76-11.88L41.12-11.48Q40.92-11.36 40.54-11.20Q40.16-11.04 39.92-11.04L39.92-11.04Q39.64-11.04 39.52-11.06Q39.40-11.08 39.28-11.08Q39.16-11.08 38.98-11.10Q38.80-11.12 38.40-11.12L38.40-11.12Q37.76-11.12 37.28-10.80Q36.80-10.48 36.44-10.06Q36.08-9.64 35.80-9.22Q35.52-8.80 35.28-8.60L35.28-8.60L35.32-8.52Q35.32-7.96 34.96-7.32Q34.60-6.68 34.36-6.28L34.36-6.28L34.28-6.08L34.36-5.92Q34.28-5.56 34.12-5.28Q33.96-5 33.96-4.60L33.96-4.60L34.04-4.48L33.96-4.28L34.16-4.20Q33.92-3.96 33.92-3.72L33.92-3.72Q33.92-3.28 34.24-3.14Q34.56-3 34.56-2.76L34.56-2.76L35.80-2.52L36.08-2.20L37-2.44L37.40-2.64L39.20-2.80Q39.28-2.80 39.60-2.78Q39.92-2.76 40.04-2.76L40.04-2.76L40.28-2.76Q40.36-2.76 40.42-2.74Q40.48-2.72 40.56-2.72L40.56-2.72Q40.60-2.72 40.62-2.74Q40.64-2.76 40.68-2.76L40.68-2.76L41.72-2.88Z M52.68-3.64L52.80-3.52L52.60-3.20L52.32-1.96L52.44-1.68L52.68-1.60Q52.80-1.56 53.14-1.56Q53.48-1.56 53.72-1.48L53.72-1.48L54.32-1.48Q54.40-1.48 54.90-1.46Q55.40-1.44 55.96-1.28L55.96-1.28L56.12-1.24Q56.16-1.24 56.36-1.18Q56.56-1.12 56.76-1.06Q56.96-1 57.14-0.94Q57.32-0.88 57.36-0.88L57.36-0.88L57.44-0.60L57.32 0.48L56.96 0.60Q56.76 0.56 55.80 0.44Q54.84 0.32 53.92 0.32L53.92 0.32L52.60 0.32L51.84 0.32Q51.68 0.32 51.54 0.32Q51.40 0.32 51.20 0.36L51.20 0.36Q50.96 0.36 50.42 0.44Q49.88 0.52 49.34 0.62Q48.80 0.72 48.42 0.78Q48.04 0.84 48.20 0.80L48.20 0.80L47.88 0.88Q47.80 0.88 47.60 0.92Q47.40 0.96 47.20 1.02Q47 1.08 46.82 1.12Q46.64 1.16 46.60 1.16L46.60 1.16L46.52 1.12Q46.28 1.12 46.16 1.08L46.16 1.08L45.92 1L45.84 0.48L45.48 0.16L45.44 0L45.12-0.28L45.12-0.68L45.40-0.76L45.48-1.20L45.68-1.32Q45.80-1.36 45.88-1.44Q45.96-1.52 46.12-1.52L46.12-1.52L46.68-1.52L47.04-1.60Q47.16-1.76 47.32-1.88L47.32-1.88L47.96-2.40L48.44-3.40Q48.44-3.52 48.54-3.70Q48.64-3.88 48.72-4.04L48.72-4.04L48.72-4.40Q48.84-4.60 48.96-4.86Q49.08-5.12 49.08-5.32L49.08-5.32L49.28-7.92L49.40-8.04L49.40-8.72Q49.40-8.80 49.42-8.88Q49.44-8.96 49.44-9L49.44-9L49.48-9.20L49.44-9.32L50.32-13.76Q50.32-13.92 50.32-14.14Q50.32-14.36 50.16-14.52L50.16-14.52L50.16-14.40L49.80-14.40Q48.88-14.40 48.40-14.52Q47.92-14.64 47.64-14.84L47.64-14.84L47.08-15.32L46.92-15.52Q46.92-15.68 47.16-15.76L47.16-15.76L47.40-15.84Q48.92-15.84 49.80-15.82Q50.68-15.80 51.24-15.82Q51.80-15.84 52.26-15.90Q52.72-15.96 53.44-16.12L53.44-16.12L54.52-16.64L55.20-16.48L56-16.44Q56.12-16.44 56.34-16.34Q56.56-16.24 56.78-16.12Q57-16 57.18-15.86Q57.36-15.72 57.36-15.68L57.36-15.68Q57.36-15.36 57.08-15.06Q56.80-14.76 56.12-14.64L56.12-14.64Q55.48-14.52 54.98-14.08Q54.48-13.64 54.12-13.10Q53.76-12.56 53.58-11.98Q53.40-11.40 53.40-10.92L53.40-10.92Q53.40-10.84 53.38-10.78Q53.36-10.72 53.28-10.56L53.28-10.56L53.36-10.56Q53.36-10.32 53.34-10.28Q53.32-10.24 53.16-10.08L53.16-10.08Q53.16-10 53.22-9.96Q53.28-9.92 53.28-9.88L53.28-9.88L53.36-9.64Q53.36-9.56 53.32-9.56Q53.28-9.56 53.28-9.48L53.28-9.48L53.28-9.36L53.36-9.32Q53.36-9.16 53.22-9.06Q53.08-8.96 53.08-8.88L53.08-8.88Q53.28-8.88 53.28-8.80L53.28-8.80Q53.28-8.60 53.18-8.32Q53.08-8.04 53.04-7.84L53.04-7.84L52.76-6.60L52.68-6.48L52.68-6Q52.68-5.80 52.60-5.54Q52.52-5.28 52.32-5.16L52.32-5.16L52.60-5.16Q52.60-5.08 52.56-5.02Q52.52-4.96 52.52-4.88L52.52-4.88L52.52-4.80Q52.52-4.72 52.68-4.72L52.68-4.72Q52.88-4.72 52.96-4.80L52.96-4.80L52.96-4.68Q52.96-4.48 52.80-4.12L52.80-4.12L52.68-3.64ZM50.76-6L50.84-6Q50.84-5.88 50.82-5.82Q50.80-5.76 50.80-5.68L50.80-5.68Q50.80-5.64 50.88-5.40L50.88-5.40Q50.92-5.72 50.92-6.04Q50.92-6.36 50.92-6.68L50.92-6.68L50.92-7.28Q50.84-7.08 50.64-7.08L50.64-7.08L50.52-6.72L50.76-6.92Q50.84-6.92 50.84-6.76L50.84-6.76Q50.84-6.64 50.72-6.56Q50.60-6.48 50.52-6.48L50.52-6.48Q50.52-6.24 50.56-6.10Q50.60-5.96 50.60-5.76L50.60-5.76Q50.60-5.56 50.56-5.44L50.56-5.44L50.64-5.56Q50.64-5.64 50.70-5.78Q50.76-5.92 50.76-6L50.76-6ZM49.68-6.24L49.68-7.08Q49.52-7 49.46-7.02Q49.40-7.04 49.40-6.84L49.40-6.84L49.40-6L49.68-6.24ZM50.92-7.92L50.92-8.12Q50.84-8.04 50.80-7.78Q50.76-7.52 50.76-7.40L50.76-7.40Q50.88-7.40 50.90-7.62Q50.92-7.84 50.92-7.92L50.92-7.92ZM49.44-7.56L49.40-7.44Q49.40-7.36 49.42-7.28Q49.44-7.20 49.44-7.16L49.44-7.16L49.48-7.16Q49.56-7.16 49.56-7.36L49.56-7.36Q49.56-7.44 49.56-7.52Q49.56-7.60 49.48-7.60L49.48-7.60L49.44-7.56Z M60.44-6.80L60.44-6.80Q60.44-6.84 60.48-7.08Q60.52-7.32 60.58-7.60Q60.64-7.88 60.68-8.14Q60.72-8.40 60.72-8.48L60.72-8.48L60.84-8.96Q60.84-9.08 61-9.28Q61.16-9.48 61.16-9.56L61.16-9.56L61.36-9.44Q61.36-9.48 61.34-9.52Q61.32-9.56 61.32-9.64L61.32-9.64Q61.32-9.80 61.34-9.92Q61.36-10.04 61.36-10.12L61.36-10.12L61.48-10.44Q61.48-10.48 61.46-10.54Q61.44-10.60 61.44-10.68L61.44-10.68Q61.44-10.84 61.46-10.98Q61.48-11.12 61.48-11.20L61.48-11.20Q61.28-11.20 61.24-11.16L61.24-11.16L61.16-11.12Q61.16-11.28 61.22-11.74Q61.28-12.20 61.40-12.78Q61.52-13.36 61.70-14.04Q61.88-14.72 62.12-15.40L62.12-15.40Q62.24-15.52 62.32-15.82Q62.40-16.12 62.56-16.42Q62.72-16.72 63-16.94Q63.28-17.16 63.80-17.16L63.80-17.16Q63.88-17.16 64.28-17.04Q64.68-16.92 65.28-16.92L65.28-16.92Q65.72-16.92 65.98-16.82Q66.24-16.72 66.24-16.28L66.24-16.28Q66.24-16.04 66.20-15.92L66.20-15.92L65.96-14Q66.56-14.40 66.92-14.64Q67.28-14.88 67.96-15.12L67.96-15.12L68.96-15.56Q69.04-15.52 69.08-15.44Q69.12-15.36 69.32-15.32L69.32-15.32L69.64-15.20Q70.68-14.76 71.50-13.98Q72.32-13.20 72.80-12.04L72.80-12.04Q72.92-11.84 72.90-11.64Q72.88-11.44 72.96-11.20L72.96-11.20L73-11.12Q73.16-10.96 73.18-10.64Q73.20-10.32 73.44-9.92L73.44-9.92L73.52-9.80Q73.76-9.80 73.76-9.60L73.76-9.60Q73.76-9.40 73.72-9.36L73.72-9.36L73.92-9.44Q73.92-9.32 73.94-9.30Q73.96-9.28 73.96-9.12L73.96-9.12Q73.96-9.04 73.92-8.96Q73.88-8.88 73.88-8.84L73.88-8.84L73.88-8.72L74-8.76Q74.16-8.64 74.22-8.22Q74.28-7.80 74.36-7.60L74.36-7.60Q74.28-7.60 74.28-7.48L74.28-7.48L74.28-7.36L74.40-7.36Q74.32-7.08 74.06-6.78Q73.80-6.48 73.76-6.20L73.76-6.20L73.76-6.16Q73.76-6.08 73.70-6.10Q73.64-6.12 73.56-6.08L73.56-6.08Q73.28-5.84 72.98-5.52Q72.68-5.20 72.44-4.90Q72.20-4.60 72.02-4.34Q71.84-4.08 71.84-4.04L71.84-4.04Q71.52-3.76 71.14-3.26Q70.76-2.76 70.44-2.28Q70.12-1.80 69.92-1.46Q69.72-1.12 69.72-1.12L69.72-1.12L69.60-1.16Q69.52-1.08 69.36-0.90Q69.20-0.72 69.02-0.52Q68.84-0.32 68.64-0.16Q68.44 0 68.32 0.04L68.32 0.04Q68.24 0.08 68.06 0.08Q67.88 0.08 67.88 0.20L67.88 0.20Q67.88 0.28 67.92 0.32L67.92 0.32L67.56 0.32L67.36 0.16Q67.28 0.24 67.26 0.20Q67.24 0.16 67.24 0.24L67.24 0.24Q67.04 0.24 66.82 0.14Q66.60 0.04 66.40 0.04L66.40 0.04Q65.52 0 64.82-0.06Q64.12-0.12 63.32-0.12L63.32-0.12L62.84-0.12Q62.84 0.04 62.48 0.04L62.48 0.04L62.36 0Q62.28 0 62.28 0.12L62.28 0.12L62.28 0.20L61.84 0.20L61.72 0.28Q61.64-0.04 61.52-0.12L61.52-0.12Q61.44 0 61.32 0L61.32 0L60.96 0L60.84-0.16Q60.80-0.16 60.80-0.14Q60.80-0.12 60.76-0.12L60.76-0.12L60.68-0.12Q60.24-0.28 60.08-0.62Q59.92-0.96 59.92-0.88L59.92-0.88L59.88-1.12L59.88-1.16Q59.88-1.24 59.92-1.36Q59.96-1.48 59.96-1.60L59.96-1.60Q59.96-1.76 59.92-1.78Q59.88-1.80 59.88-1.88L59.88-1.88Q59.88-1.92 59.90-1.98Q59.92-2.04 59.96-2.28Q60-2.52 60.04-3Q60.08-3.48 60.12-4.32L60.12-4.32L60.16-4.72Q60.24-5.12 60.24-5.12L60.24-5.12Q60.24-5.28 60.16-5.28L60.16-5.28Q60.40-5.60 60.40-6Q60.40-6.40 60.44-6.80ZM64.04-2.52L64.04-2.36Q64.08-2.36 64.08-2.28Q64.08-2.20 64.08-2.16L64.08-2.16Q64.40-2.16 64.68-2.10Q64.96-2.04 65.28-2.04L65.28-2.04Q65.52-2.04 65.84-2.16L65.84-2.16L67.20-2.16Q67.24-2.16 67.50-2.46Q67.76-2.76 68.08-3.18Q68.40-3.60 68.74-4.06Q69.08-4.52 69.36-4.84L69.36-4.84L70.16-5.80Q70.40-6.08 70.44-6.22Q70.48-6.36 70.80-6.92L70.80-6.92L71.04-7.28L70.68-7.80Q70.60-7.92 70.38-8.60Q70.16-9.28 69.86-10.10Q69.56-10.92 69.22-11.64Q68.88-12.36 68.52-12.60L68.52-12.60L68.44-12.60Q68.36-12.60 68.28-12.86Q68.20-13.12 68.12-13.12L68.12-13.12Q68.04-13.12 68-13.08Q67.96-13.04 67.88-12.96L67.88-12.96Q66.92-12.24 66.34-12.04Q65.76-11.84 65.56-11.52L65.56-11.52Q65.20-10.92 65.08-10.24Q64.96-9.56 64.72-8.84L64.72-8.84Q64.72-8.76 64.68-8.72Q64.64-8.68 64.64-8.64L64.64-8.64L64.72-8.52L64.48-8.24Q64.48-8.16 64.56-8.08L64.56-8.08L64.56-8.04Q64.56-7.88 64.50-7.82Q64.44-7.76 64.44-7.68L64.44-7.68Q64.44-7.48 64.60-7.28Q64.76-7.08 64.76-6.88L64.76-6.88L64.80-6.84L64.64-6.76Q64.72-6.68 64.72-6.56L64.72-6.56L64.72-6.48L64.60-6.40L64.68-6.12Q64.68-6.08 64.62-6Q64.56-5.92 64.56-5.84L64.56-5.84L64.48-5.92Q64.40-5.84 64.40-5.76L64.40-5.76Q64.44-5.64 64.52-5.64L64.52-5.64L64.44-5.24L64.36-5.16L64.36-5L64.48-4.80Q64.32-4.76 64.32-4.56L64.32-4.56L64.40-4.32Q64.40-4.12 64.22-3.90Q64.04-3.68 64.04-3.48L64.04-3.48L64.12-3.48Q64.04-3.40 64.02-3.28Q64-3.16 64-3.04L64-3.04Q64-2.64 64.04-2.52L64.04-2.52ZM62.40-10.56L62.24-10.56L62.08-10.28Q62.08-10.12 61.98-9.86Q61.88-9.60 61.88-9.48L61.88-9.48L61.88-8.84L62.08-8.84L62.24-9.16Q62.24-9.32 62.32-9.54Q62.40-9.76 62.40-9.92L62.40-9.92L62.40-10.56ZM61.04-7.96L60.88-7.68Q60.84-7.64 60.84-7.60L60.84-7.60L60.84-7.04L61.04-7.20L61.04-7.96ZM61.36-8.96L61.16-8.96Q61.08-8.88 61.06-8.70Q61.04-8.52 61.04-8.48L61.04-8.48L61.04-8.28L61.20-8.48L61.36-8.96ZM61.92-11.68L61.92-11.76Q61.92-11.84 61.84-11.84L61.84-11.84Q61.76-11.84 61.76-11.76L61.76-11.76Q61.76-11.56 61.88-11.56L61.88-11.56Q61.92-11.56 61.92-11.68L61.92-11.68Z M79.40 0.20L79.24 0.28L78.44 0.20Q77.76 0.12 77.16-0.30Q76.56-0.72 76.52-1.36L76.52-1.36Q76.52-1.48 76.56-1.52L76.56-1.52L76.76-1.56L76.84-1.92Q76.76-1.92 76.68-2L76.68-2L76.72-2.16L76.80-2.24L76.72-2.56Q76.72-2.60 76.76-2.60L76.76-2.60Q76.80-2.56 76.84-2.56L76.84-2.56L77.16-2.96L77.24-2.92Q77.16-2.92 77.14-2.76Q77.12-2.60 77.12-2.40L77.12-2.40L77.12-2.24Q77.12-2.20 77.16-2.16L77.16-2.16L77.24-2.16Q77.28-2.20 77.28-2.32L77.28-2.32L77.28-2.60Q77.28-2.68 77.34-2.94Q77.40-3.20 77.40-3.28L77.40-3.28L77.40-4.52Q77.40-4.60 77.46-5.20Q77.52-5.80 77.60-6.48Q77.68-7.16 77.74-7.74Q77.80-8.32 77.80-8.40L77.80-8.40L78.04-8.80L77.80-9.36Q77.80-9.56 77.88-10.06Q77.96-10.56 77.96-10.72L77.96-10.72L78.08-11.28L78.36-11.68L78.12-11.84L78.12-12.60L78.32-13.24L78.20-13.28L78.64-16.32Q78.64-16.36 78.62-16.38Q78.60-16.40 78.60-16.44L78.60-16.44Q78.60-16.76 78.72-17.18Q78.84-17.60 78.84-17.72L78.84-17.72L79.56-17.76L80.28-18L80.76-18Q80.92-18 81.32-17.76Q81.72-17.52 81.92-17.32L81.92-17.32L82.40-16.88Q82.44-16.80 82.52-16.60Q82.60-16.40 82.64-16.40L82.64-16.40L82.68-16.20Q82.64-16.12 82.58-15.70Q82.52-15.28 82.36-14.80L82.36-14.80Q82.40-14.72 82.40-14.60L82.40-14.60Q82.40-14.48 82.34-14.38Q82.28-14.28 82.20-14.20L82.20-14.20L82.20-14.16L82.16-14.12Q82.16-14.08 82.20-14.08L82.20-14.08L82.36-14.08Q82.36-13.92 82.16-13.72L82.16-13.72Q82.24-13.64 82.24-13.60L82.24-13.60Q82.24-13.52 82.10-13.34Q81.96-13.16 81.96-12.84L81.96-12.84L82-12.72Q81.96-12.64 81.92-12.64Q81.88-12.64 81.88-12.60L81.88-12.60Q81.88-12.52 82-12.40L82-12.40Q81.96-12.20 81.84-12.20Q81.72-12.20 81.72-11.84L81.72-11.84Q81.72-11.76 81.96-11.72L81.96-11.72Q81.68-11.56 81.68-11.56L81.68-11.56Q81.68-11.52 81.72-11.52L81.72-11.52Q81.76-11.52 81.76-11.50Q81.76-11.48 81.84-11.48L81.84-11.48L82-11.04Q81.88-10.88 81.80-10.78Q81.72-10.68 81.72-10.52L81.72-10.52L81.72-10.48L81.72-10.40Q81.72-10.32 81.80-10.24L81.80-10.24Q81.80-9.68 81.70-9.38Q81.60-9.08 81.60-8.88L81.60-8.88Q81.60-8.76 81.64-8.72L81.64-8.72L81.76-8.64Q81.72-8.36 81.62-8.06Q81.52-7.76 81.44-7.72L81.44-7.72L81.36-7.72L81.32-7.56L81.52-7.60Q81.44-7.52 81.36-7.46Q81.28-7.40 81.28-7.32L81.28-7.32Q81.28-7.28 81.32-7.28L81.32-7.28L81.56-7.28L81.32-6.48L81.52-6.48Q81.56-6.36 81.54-6.18Q81.52-6 81.60-5.92L81.60-5.92L81.52-5.80Q81.52-5.36 81.50-5.14Q81.48-4.92 81.44-4.60L81.44-4.60L81.36-4.52L81.56-4.32Q81.52-4.24 81.50-4.24Q81.48-4.24 81.40-4.16L81.40-4.16L81.44-4.28Q81.20-4.12 81.12-4.08L81.12-4.08L81.52-4.04Q81.28-3.80 81.16-3.80L81.16-3.80L81.12-3.80L81-3.80L81-3.60Q81-3.04 81.16-2.56Q81.32-2.08 81.92-2.08L81.92-2.08Q82-2.08 82.04-2.10Q82.08-2.12 82.12-2.12L82.12-2.12Q82.12-2 82.20-2L82.20-2Q82.36-2 82.78-2.12Q83.20-2.24 83.76-2.24L83.76-2.24L84.12-2.24Q84.44-2.24 84.56-2.42Q84.68-2.60 84.84-2.68L84.84-2.68Q84.96-2.64 84.96-2.62Q84.96-2.60 85.04-2.52L85.04-2.52Q85.28-2.76 85.56-2.76L85.56-2.76Q85.60-2.72 85.78-2.72Q85.96-2.72 85.96-2.56L85.96-2.56L86.12-2.64Q86.20-2.68 86.22-2.72Q86.24-2.76 86.28-2.76L86.28-2.76Q86.56-2.48 87-2.44L87-2.44L86.92-2.24Q86.96-2.20 87-2.20L87-2.20Q87.08-2.20 87.10-2.26Q87.12-2.32 87.32-2.32L87.32-2.32Q87.32-2.28 87.72-2.12Q88.12-1.96 88.12-1.76L88.12-1.76Q88.12-1.68 88.08-1.64L88.08-1.64L88.12-1.32Q87.84-1.20 87.60-1.12Q87.36-1.04 87.20-0.88L87.20-0.88Q87.08-0.88 86.98-0.96Q86.88-1.04 86.92-1L86.92-1Q86.88-0.92 86.88-0.80L86.88-0.80L86.88-0.76Q86.88-0.72 86.96-0.72L86.96-0.72Q86.56-0.68 86.26-0.62Q85.96-0.56 85.60-0.56L85.60-0.56Q85.48-0.56 85.36-0.58Q85.24-0.60 85.08-0.60L85.08-0.60Q84.72-0.60 84.18-0.30Q83.64 0 83.04 0L83.04 0L82.72 0Q82.56 0 82.28 0.02Q82 0.04 81.74 0.08Q81.48 0.12 81.30 0.20Q81.12 0.28 81.12 0.44L81.12 0.44L81.04 0.28Q80.96 0.48 80.86 0.56Q80.76 0.64 80.68 0.80L80.68 0.80Q80.60 0.72 80.60 0.60L80.60 0.60Q80.60 0.40 80.68 0.20L80.68 0.20Q80.56 0.28 80.16 0.28L80.16 0.28Q80.08 0.08 79.96 0.02Q79.84-0.04 79.84-0.08L79.84-0.08L79.40 0.20ZM87.92-1.80L87.92-1.80Q87.84-1.80 87.80-1.76L87.80-1.76Q87.80-1.72 87.88-1.64L87.88-1.64Q87.96-1.64 87.96-1.76L87.96-1.76Q87.96-1.80 87.92-1.80Z M97.64-3.64L97.76-3.52L97.56-3.20L97.28-1.96L97.40-1.68L97.64-1.60Q97.76-1.56 98.10-1.56Q98.44-1.56 98.68-1.48L98.68-1.48L99.28-1.48Q99.36-1.48 99.86-1.46Q100.36-1.44 100.92-1.28L100.92-1.28L101.08-1.24Q101.12-1.24 101.32-1.18Q101.52-1.12 101.72-1.06Q101.92-1 102.10-0.94Q102.28-0.88 102.32-0.88L102.32-0.88L102.40-0.60L102.28 0.48L101.92 0.60Q101.72 0.56 100.76 0.44Q99.80 0.32 98.88 0.32L98.88 0.32L97.56 0.32L96.80 0.32Q96.64 0.32 96.50 0.32Q96.36 0.32 96.16 0.36L96.16 0.36Q95.92 0.36 95.38 0.44Q94.84 0.52 94.30 0.62Q93.76 0.72 93.38 0.78Q93 0.84 93.16 0.80L93.16 0.80L92.84 0.88Q92.76 0.88 92.56 0.92Q92.36 0.96 92.16 1.02Q91.96 1.08 91.78 1.12Q91.60 1.16 91.56 1.16L91.56 1.16L91.48 1.12Q91.24 1.12 91.12 1.08L91.12 1.08L90.88 1L90.80 0.48L90.44 0.16L90.40 0L90.08-0.28L90.08-0.68L90.36-0.76L90.44-1.20L90.64-1.32Q90.76-1.36 90.84-1.44Q90.92-1.52 91.08-1.52L91.08-1.52L91.64-1.52L92-1.60Q92.12-1.76 92.28-1.88L92.28-1.88L92.92-2.40L93.40-3.40Q93.40-3.52 93.50-3.70Q93.60-3.88 93.68-4.04L93.68-4.04L93.68-4.40Q93.80-4.60 93.92-4.86Q94.04-5.12 94.04-5.32L94.04-5.32L94.24-7.92L94.36-8.04L94.36-8.72Q94.36-8.80 94.38-8.88Q94.40-8.96 94.40-9L94.40-9L94.44-9.20L94.40-9.32L95.28-13.76Q95.28-13.92 95.28-14.14Q95.28-14.36 95.12-14.52L95.12-14.52L95.12-14.40L94.76-14.40Q93.84-14.40 93.36-14.52Q92.88-14.64 92.60-14.84L92.60-14.84L92.04-15.32L91.88-15.52Q91.88-15.68 92.12-15.76L92.12-15.76L92.36-15.84Q93.88-15.84 94.76-15.82Q95.64-15.80 96.20-15.82Q96.76-15.84 97.22-15.90Q97.68-15.96 98.40-16.12L98.40-16.12L99.48-16.64L100.16-16.48L100.96-16.44Q101.08-16.44 101.30-16.34Q101.52-16.24 101.74-16.12Q101.96-16 102.14-15.86Q102.32-15.72 102.32-15.68L102.32-15.68Q102.32-15.36 102.04-15.06Q101.76-14.76 101.08-14.64L101.08-14.64Q100.44-14.52 99.94-14.08Q99.44-13.64 99.08-13.10Q98.72-12.56 98.54-11.98Q98.36-11.40 98.36-10.92L98.36-10.92Q98.36-10.84 98.34-10.78Q98.32-10.72 98.24-10.56L98.24-10.56L98.32-10.56Q98.32-10.32 98.30-10.28Q98.28-10.24 98.12-10.08L98.12-10.08Q98.12-10 98.18-9.96Q98.24-9.92 98.24-9.88L98.24-9.88L98.32-9.64Q98.32-9.56 98.28-9.56Q98.24-9.56 98.24-9.48L98.24-9.48L98.24-9.36L98.32-9.32Q98.32-9.16 98.18-9.06Q98.04-8.96 98.04-8.88L98.04-8.88Q98.24-8.88 98.24-8.80L98.24-8.80Q98.24-8.60 98.14-8.32Q98.04-8.04 98-7.84L98-7.84L97.72-6.60L97.64-6.48L97.64-6Q97.64-5.80 97.56-5.54Q97.48-5.28 97.28-5.16L97.28-5.16L97.56-5.16Q97.56-5.08 97.52-5.02Q97.48-4.96 97.48-4.88L97.48-4.88L97.48-4.80Q97.48-4.72 97.64-4.72L97.64-4.72Q97.84-4.72 97.92-4.80L97.92-4.80L97.92-4.68Q97.92-4.48 97.76-4.12L97.76-4.12L97.64-3.64ZM95.72-6L95.80-6Q95.80-5.88 95.78-5.82Q95.76-5.76 95.76-5.68L95.76-5.68Q95.76-5.64 95.84-5.40L95.84-5.40Q95.88-5.72 95.88-6.04Q95.88-6.36 95.88-6.68L95.88-6.68L95.88-7.28Q95.80-7.08 95.60-7.08L95.60-7.08L95.48-6.72L95.72-6.92Q95.80-6.92 95.80-6.76L95.80-6.76Q95.80-6.64 95.68-6.56Q95.56-6.48 95.48-6.48L95.48-6.48Q95.48-6.24 95.52-6.10Q95.56-5.96 95.56-5.76L95.56-5.76Q95.56-5.56 95.52-5.44L95.52-5.44L95.60-5.56Q95.60-5.64 95.66-5.78Q95.72-5.92 95.72-6L95.72-6ZM94.64-6.24L94.64-7.08Q94.48-7 94.42-7.02Q94.36-7.04 94.36-6.84L94.36-6.84L94.36-6L94.64-6.24ZM95.88-7.92L95.88-8.12Q95.80-8.04 95.76-7.78Q95.72-7.52 95.72-7.40L95.72-7.40Q95.84-7.40 95.86-7.62Q95.88-7.84 95.88-7.92L95.88-7.92ZM94.40-7.56L94.36-7.44Q94.36-7.36 94.38-7.28Q94.40-7.20 94.40-7.16L94.40-7.16L94.44-7.16Q94.52-7.16 94.52-7.36L94.52-7.36Q94.52-7.44 94.52-7.52Q94.52-7.60 94.44-7.60L94.44-7.60L94.40-7.56Z M114.40 0.12L113.96 0.28Q113.36 0.16 112.68 0.08Q112 0 111.36-0.06Q110.72-0.12 110.20-0.16Q109.68-0.20 109.32-0.20L109.32-0.20L108.48-0.20L108.48 0.24Q108.44 0.24 108.18 0.24Q107.92 0.24 107.72 0.16L107.72 0.16L107.64 0.16L107.56 0.32L106.84 0.44L106 0.20Q105.92 0.28 105.80 0.28Q105.68 0.28 105.56 0.28L105.56 0.28Q105.32 0.28 105.22 0.08Q105.12-0.12 105.08-0.36Q105.04-0.60 105.04-0.82Q105.04-1.04 105-1.12L105-1.12L104.88-1.20Q104.92-1.28 104.92-1.28L104.92-1.28L104.96-1.28L105-1.28Q105-1.36 104.98-1.36Q104.96-1.36 104.96-1.44L104.96-1.44L105-1.88L104.88-1.76Q104.80-1.76 104.80-1.80L104.80-1.80L104.80-1.88Q104.80-2.32 104.96-2.80Q105.12-3.28 105.08-3.24L105.08-3.24L105.36-3.24Q105.28-3.44 105.12-3.38Q104.96-3.32 104.96-3.64L104.96-3.64Q104.96-3.84 105.26-3.90Q105.56-3.96 105.68-3.96L105.68-3.96Q105.72-3.96 105.72-3.88L105.72-3.88L105.80-4Q105.80-4.04 105.82-4.08Q105.84-4.12 105.84-4.20L105.84-4.20L105.84-4.60Q105.64-4.52 105.60-4.54Q105.56-4.56 105.24-4.36L105.24-4.36L105.24-4.52Q105.24-4.84 105.44-4.84L105.44-4.84L105.60-4.84L105.60-5.16Q105.40-5.16 105.34-5.04Q105.28-4.92 105.08-4.92L105.08-4.92Q105.08-5.12 105.12-5.44Q105.16-5.76 105.44-5.84L105.44-5.84L105.44-6.36Q105.36-6.28 105.32-6.28L105.32-6.28L105.24-6.28Q105.32-6.52 105.32-6.80L105.32-6.80L105.32-6.96Q105.24-6.88 105.18-6.60Q105.12-6.32 105-6.20L105-6.20L105-6.28Q105-6.44 105.04-6.76Q105.08-7.08 105.08-7.16L105.08-7.16L105.16-7.44L105.32-7.36L105.60-7.84L105.68-7.84Q105.68-7.92 105.70-7.98Q105.72-8.04 105.72-8.08L105.72-8.08L105.72-8.16L105.60-8.04L105.36-8.28Q105.36-8.48 105.44-8.64Q105.52-8.80 105.60-9L105.60-9Q105.68-9.48 105.80-9.86Q105.92-10.24 106.02-10.68Q106.12-11.12 106.20-11.68Q106.28-12.24 106.28-13.04L106.28-13.04L106.28-13.24L106.08-13.24Q106.08-13.32 106-13.40L106-13.40Q106-13.48 106.10-13.68Q106.20-13.88 106.20-13.96L106.20-13.96Q106.16-14.08 106.16-14.28L106.16-14.28Q106.16-14.44 106.22-14.54Q106.28-14.64 106.42-14.88Q106.56-15.12 106.76-15.58Q106.96-16.04 107.28-16.88L107.28-16.88L107.16-16.88L107.48-17.60Q107.56-17.76 107.70-18.34Q107.84-18.92 108.12-19.08L108.12-19.08L108.28-18.96Q108.24-18.96 108.42-18.98Q108.60-19 108.72-19.08L108.72-19.08Q109.08-18.72 109.44-18.56Q109.80-18.40 110.14-18.28Q110.48-18.16 110.72-18.02Q110.96-17.88 111.08-17.52L111.08-17.52Q111-17.44 110.92-17.08Q110.84-16.72 110.78-16.32Q110.72-15.92 110.70-15.66Q110.68-15.40 110.68-15.48L110.68-15.48L110.76-15.48Q110.88-15.48 111.04-15.50Q111.20-15.52 111.32-15.52L111.32-15.52Q111.96-15.76 112.40-15.88Q112.84-16 113.16-16.08Q113.48-16.16 113.76-16.30Q114.04-16.44 114.32-16.72L114.32-16.72Q114.44-16.68 114.56-16.68L114.56-16.68Q114.72-16.68 114.78-16.76Q114.84-16.84 114.94-16.92Q115.04-17 115.26-17.08Q115.48-17.16 115.96-17.16L115.96-17.16Q116-17.16 116.52-17.02Q117.04-16.88 117.44-16.20L117.44-16.20Q117.24-16.12 117.08-15.56Q116.92-15 116.80-14.28Q116.68-13.56 116.60-12.84Q116.52-12.12 116.52-11.68L116.52-11.68Q116.24-10.80 116.14-10.58Q116.04-10.36 116.04-10.20L116.04-10.20Q116.04-10.08 116.20-9.98Q116.36-9.88 116.56-9.78Q116.76-9.68 116.96-9.58Q117.16-9.48 117.28-9.36L117.28-9.36Q117.40-9.24 117.50-8.94Q117.60-8.64 117.68-8.56L117.68-8.56L117.68-7.76Q117.68-7.28 117.68-6.58Q117.68-5.88 117.52-5.44L117.52-5.44Q117.32-5.36 117.34-5.02Q117.36-4.68 117.28-4.56L117.28-4.56L117.16-4.36L117.28-4.36L116.88-3.80L116.84-3Q116.80-2.16 116.44-1.48Q116.08-0.80 116.04-0.04L116.04-0.04L115.72-0.04L115.32 0.28L115.04 0.32L114.40 0.12ZM108.88-2.36L109.08-2.28L109.20-2.20Q109.80-2.12 110.46-2.02Q111.12-1.92 111.68-1.92L111.68-1.92Q112.16-1.92 112.98-2.02Q113.80-2.12 114.24-2.40L114.24-2.40Q114.24-2.48 114.26-2.76Q114.28-3.04 114.36-3.24L114.36-3.24L114.36-3.28Q114.36-3.40 114.44-3.66Q114.52-3.92 114.52-4L114.52-4L114.68-3.96L114.60-4.40Q114.60-5.20 114.72-5.96Q114.84-6.72 114.92-7.52L114.92-7.52Q114.92-7.76 114.54-7.80Q114.16-7.84 114-7.84L114-7.84Q112.92-7.84 111.70-7.32Q110.48-6.80 109.48-6.20L109.48-6.20L109.28-6.16Q109.20-6.08 109.16-5.76Q109.12-5.44 109-5.44L109-5.44L108.96-5.44L108.72-4.68Q108.72-4.12 108.64-3.60Q108.56-3.08 108.56-2.52L108.56-2.52Q108.56-2.28 108.72-2.28L108.72-2.28L108.88-2.36ZM113.96-10.64L114.20-12Q114.16-12 114.16-12.04L114.16-12.04Q114.16-12.20 114.44-12.96Q114.72-13.72 114.72-14.36L114.72-14.36Q114.72-14.56 114.60-14.64L114.60-14.64Q113.64-14.20 112.64-13.90Q111.64-13.60 110.96-13.04L110.96-13.04L110.40-12.68Q109.92-12.12 109.76-11.76Q109.60-11.40 109.60-11.16L109.60-11.16L109.76-11.32Q109.68-10.92 109.70-10.70Q109.72-10.48 109.48-10.24L109.48-10.24L109.40-10.20L109.72-10.20L109.72-9.92Q109.72-9.84 109.68-9.66Q109.64-9.48 109.64-9.36L109.64-9.36Q109.64-9.24 109.66-9.16Q109.68-9.08 109.68-9L109.68-9Q109.68-8.72 109.56-8.68L109.56-8.68L109.64-8.68Q109.72-8.68 109.80-8.74Q109.88-8.80 110.04-8.80L110.04-8.80Q110.12-8.80 110.20-8.76L110.20-8.76Q110.80-9.08 111.50-9.32Q112.20-9.56 112.80-10L112.80-10L112.92-10.12Q113.08-10.16 113.48-10.26Q113.88-10.36 113.96-10.64L113.96-10.64Z"/></g>
</svg>
</g><g opacity="1" transform="rotate(0 123.6288 62.6789)">
<svg width="207.1097" height="206.9933" x="123.6288" y="62.6789" version="1.1" preserveAspectRatio="none" viewBox="20.040727615356445 20.030696868896484 160.0185546875 159.92857360839844">
  <g transform="matrix(1 0 0 1 0 0)" ><g><path d="M124.8 24C82.8 10.3 37.6 33.2 24 75.2c-13.7 42 9.3 87.1 51.3 100.8s87.1-9.3 100.8-51.3-9.3-87.1-51.3-100.7zm-51 84.2c0-11.4 9.3-20.7 20.7-20.7 11.4 0 20.7 9.3 20.7 20.7 0 11.4-9.3 20.7-20.7 20.7-11.5 0-20.7-9.3-20.7-20.7zm44.6 3.2c0-15.4-12.4-27.8-27.8-27.9S62.7 96 62.7 111.4c0 3.1.5 6.2 1.5 9.1-4.1-7.5-5.6-16.5-3.6-25.5 4.3-19.8 23.9-32.3 43.7-28 19.8 4.3 32.3 23.9 28 43.7-4.1 18.7-21.8 30.9-40.4 28.5 14.7-.7 26.5-12.8 26.5-27.8zm50.4-.9c-10.2 31.2-43.7 48.3-74.9 38.1-7-2.3-13.5-5.8-19.1-10.4 5.7 4.3 12.2 7.2 19.1 8.8 26.6 5.8 53-11 58.8-37.7s-11-53-37.7-58.8c-26.6-5.8-53 11-58.8 37.7-2.5 11.4-.8 22.7 4 32.5-7.6-13.9-9.6-30.7-4.4-46.8C66 42.6 99.5 25.5 130.7 35.7s48.3 43.6 38.1 74.8z" data-color="1" class="icon1"></path></g></g>
</svg>
</g></svg></svg>