<svg version="1.1" preserveAspectRatio="none" xmlns="http://www.w3.org/2000/svg" width="500" height="500" viewBox="0 0 500 500"><rect width="100%" height="100%" fill="#FFFFFF" fill-opacity="1"/><svg viewBox="137.5413 170.2302 380.7515 280.4225" width="333" height="245.25364312418992" x="83.5px" y="127.3732px" xmlns="http://www.w3.org/2000/svg" xmlns:xlink="http://www.w3.org/1999/xlink" preserveAspectRatio="none"><defs></defs><style>.companyName {fill:#727373;fill-opacity:1;}.icon1 {fill:#F1B4BB;fill-opacity:1;}.icon2 {fill:#727373;fill-opacity:1;}.icon3 {fill:#C0777F;fill-opacity:1;}.icon3-str {stroke:#C0777F;stroke-opacity:1;}.text {fill:#727373;fill-opacity:1;}</style><g opacity="1" transform="rotate(0 251.7668 170.2302)">
<svg width="152.3005" height="152.4225" x="251.7668" y="170.2302" version="1.1" preserveAspectRatio="none" viewBox="19.95858383178711 19.925003051757812 160.06216430664062 160.19046020507812">
  <g transform="matrix(1 0 0 1 0 0)" class="icon1"><g><path d="M140.4 55.1c-.3 1.1-.4 2.4-.3 3.7.2 1.7-.5 3.1-.9 4.6-.6 2.1-1.5 4.2-2.5 6.2-.3.6-.4 1.2-.6 1.8-.4 1.2-.9 2.3-1.3 3.4-.9 2-1.4 4.2-2.2 6.3-.7 1.9-1.6 3.7-2.2 5.6-.7 2.1-1.7 4.1-2.4 6.2-.2.7-.6 1.3-.9 1.9-.1.3-.3.4-.6.5-1.7.8-2.2 2.2-2.6 3.9-.4 1.8-.5 3.6-.7 5.4-.1 1.7-.7 3.2-.8 4.8-.1 1.6-.4 3.2-.6 4.8-.3 2.2-.7 4.3-1.1 6.5-.4 2-.6 4.1-.9 6.2-.1 1.2-.6 2.3-.8 3.6-.1.5-.1 1-.2 1.4-.3 1.9-.9 3.6-1.5 5.4-.4 1.3-.5 2.7-.8 4-.4 1.9-.5 3.9-1 5.8-.4 1.7-.6 3.5-1 5.2-.3 1.4-.5 2.9-.9 4.3-.7 2.4-.8 4.9-1.3 7.3-.8 3.5-1.7 6.9-2.5 10.4-.3 1.4-.6 2.8-.9 4.3-.1.7-.8 1.3-1.6 1.2-1.4-.2-2.8.1-4.1.2-2.4.2-4.9.1-7.3 0-1.2 0-2.4-.4-3.7-.2-.5.1-1.1-.1-1.7-.3-.4-.1-.9-1.1-.7-1.7.2-.6.1-1.1 0-1.8-.1-1.2-.5-2.3-.5-3.4 0-1.9-.5-3.8-.6-5.8-.1-.8-.2-1.5-.4-2.3 0-.2-.1-.3-.1-.5.4-1.2 0-2.5.3-3.8.1-.4 0-.7-.1-1-.5-.9-.3-1.9-.2-2.9 0-.3.1-.7 0-1-.4-2-.3-4-.5-6.1-.1-1.1-.1-2.3-.3-3.4-.1-.7-.3-1.4-.3-2.2 0-.9-.2-1.8-.2-2.7v-.2c-.4-1.3-.1-2.8-.6-4.1-.1-.3.1-.7.2-1 .1-.4.1-.7-.2-1-.5-.6-.3-1.3 0-2 .1-.3.2-.6.1-1-.2-.7 0-1.5-.2-2.2-.2-.5-.2-1.1-.3-1.6-.4-1.6 0-2.9.6-4.3.7-1.9 1.2-3.9 1.9-5.8.2-.7.4-1.3.5-2 0-.4.1-.8.3-1.1.6-1.1.6-2.3 1-3.5.1-.2.1-.5.2-.8.4-1.2.8-2.4 1.1-3.6.3-1.2.5-2.4.7-3.7.1-.8.3-1.6.8-2.3.1-.1.2-.3.2-.4.1-1.7 1-3.1 1.3-4.8.1-.6.4-1.2.6-1.7.5-1.1.6-2.3 1.2-3.4.5-.9.8-1.8.9-2.8 0-.4.5-.6.6-1 .4-1.6 1-3.1 1.6-4.6.5-1.2.6-2.5 1.3-3.7.7-1.1 1.4-2.3 2.1-3.4.9-1.3 1.8-2.6 2.8-3.9.8-1 1.3-2.3 2.2-3.2.5-.5.5-1.3 1-1.8.2-.2 0-.5-.3-.7-.5-.3-1.2-.2-1.5.3-1.3 1.7-2.5 3.5-3.8 5.1-.8 1-1.6 2-2.3 3.1-.1.2-.3.4-.5.5-.2.1-.5.1-.5-.3 0-1.1-.3-2.1-.6-3.2-.1-.4-.3-.9-.4-1.3-.2-.5-.2-1.5-.1-2.5 0-.3 0-.6.1-.9.1-.5-.1-.8-.6-.9-.4-.1-.8 0-1.1.4-.4.5-.6 1-.5 1.6.2 1.6.3 3.3.7 4.9.8 3.2.6 6.3-.4 9.4-1 2.8-2 5.5-2.8 8.4-.6 2.2-1.4 4.3-1.9 6.4-1 4.1-2.5 8-3.7 12.1-.6 2-1.2 3.9-1.8 5.9-.5 1.7-1.2 3.3-2 4.9-.1.2-.1.3-.2.5s-.1.7-.5.7-.8-.2-1-.6c-.3-.6-.5-1.2-.8-1.9-.9-2.1-1.8-4.1-2.5-6.2-.5-1.3-.6-2.7-.8-4.1-.2-1.6-.3-3.3-1.1-4.8-.2-.3-.2-.6-.3-1-.1-.7-.2-1.3-.5-1.9-.3-.6-.6-1.3-.5-2.1 0-.6-.6-1.1-.7-1.7l-.9-3.9c-.4-1.8-.3-3.7-.2-5.5 0-.6.1-1.1-.2-1.7-.1-.1-.1-.3-.1-.4 0-1.7-.2-3.4-.6-5.1s.4-3.2.6-4.8c.1-.5.2-1 .2-1.5 0-1.1.6-2 .7-3.1.1-1.4.7-2.7.8-4.1.1-1-.1-2.1.5-3.1.2-.3 0-.8 0-1.2 0-.6 0-1.1.4-1.6.1-.1.1-.3.1-.4-.5-1 .1-2 .2-2.9.1-1.1.4-2.3.6-3.4.1-.7 0-1.4 0-2.2 0-.6.1-1.2.3-1.7.3-.9.1-1.9.4-2.8.3-1 .4-2.1.7-3.1.1-.4.1-.8.2-1.2.1-.4.1-.9.4-1.3.1-.1.1-.3.1-.4-.2-1.1.4-2 .5-3 .1-1.3.6-2.5.8-3.7v-.3c.8-1.6.8-3.4 1.4-5 .3-.8.6-1.7.7-2.6.1-.8.2-1.6.4-2.4.1-.5.4-.9.4-1.5 0-.4.4-.5.7-.5 1.2 0 2.3-.7 3.6-.5.4.1.8-.4 1.3-.4 1.9-.1 3.7-.4 5.6-.4 1.2 0 2.4-.2 3.6-.2.4 0 1 .2 1.4-.2.1-.1.3-.1.5 0 .2.2.5.2.8.2 1.1-.1 2.1.1 3.2.1.8 0 1.6 0 2.4.1 1.2.2 2.3.5 3.5.5.8 0 1.5.2 2.2.4 1.3.4 2.7.4 4 .8 1 .3 2.1.6 3.2.7.3 0 .6.2.9.3 1.3.5 2.7.8 4.1 1.3 1.2.4 2.4.9 3.6 1.2 1 .3 2.1.7 3 1.3.5.3 1.1.4 1.6.7.8.3 1.2 1 1.4 1.7.6 2.5 1.1 5 1.5 7.5.1.9.5 1.7.6 2.6.5 3.3 1.4 6.6 2.1 9.8.3 1.5.6 2.9.9 4.4.3.5.3.9.4 1.5z"></path><path d="M37.2 147.7v-.5c-.6-1.9-.7-3.8-.9-5.8v-.1c.2-1.3-.4-2.5-.6-3.7-.1-1.3-.3-2.6-.3-3.9 0-.9-.1-1.6-.4-2.5-.4-1-.5-2.2-.6-3.3-.1-1 0-2.1-.4-3.1-.2-.7-.5-1.5-.1-2.3.1-.2.1-.4 0-.6-.4-.7-.2-1.5 0-2.2.3-.8-.1-1.5-.2-2.3-.1-.7-.1-1.5 0-2.2 0-.2.1-.5-.1-.6-.9-.7-.7-1.7-.6-2.6.2-1.4-.4-2.6-1.1-3.7-.7-1-1-2.2-1.5-3.3-.5-1.2-.6-2.4-.9-3.7l-1.2-4.5c-.5-1.8-1.2-3.6-1.5-5.4-.1-.5-.1-1-.5-1.4-.1-.1-.1-.2-.1-.3.3-1 0-2 0-3 0-.7-.1-1.3-.4-1.9-.2-.6-.3-1.1-.3-1.7.1-.5 0-1.1-.2-1.7-.4-.7-.3-1.5-.5-2.3-.4-1.2-.1-2.5-.7-3.6-.2-.4-.1-.7.1-1.1.4-1 .7-2.1 1.1-3.1.5-1.2 1-2.5 1.5-3.7s1.2-2.4 1.8-3.7c.9-2 1.9-3.9 3.2-5.7 1-1.4 1.8-3 2.9-4.3.2-.3.4-.3.5.1.5 1.4 1 2.7 1.6 4 1.1 2.5 2.1 4.9 3.2 7.4.5 1.1 1.2 2.2 1.8 3.3.8 1.4 1.3 3 2 4.4.9 1.8 1.6 3.7 2.4 5.5.4.9 1.2 1.6 1.5 2.5.8 1.9 1.9 3.7 2.7 5.6.3.7.6 1.3 1 2 1.4 2.3 2.2 4.9 3.2 7.3.9 2.1 1.7 4.2 2.6 6.3.2.5.2 1 .4 1.5.4 1.2.9 2.5 1.3 3.7.3 1.2.8 2.4-.1 3.6-.5.6-.5 1.4-.4 2.2.1 2 .5 3.9.4 5.9-.1 1.9-.3 3.8-.5 5.7-.2 1.9-.3 3.7-.4 5.6-.1 3-.4 6-.7 9-.2 2-.2 4-.5 5.9-.1 1-.1 2.1-.2 3.1-.1 1.2-.2 2.4-.1 3.6.1 1.3-.2 2.6-.4 3.8-.4 2.3-.8 4.7-.8 7.1 0 .8-.2 1.5-.2 2.3 0 .4-.2.7-.7.3-.6-.4-1.1-1-1.7-1.3-1.1-.6-2-1.5-2.9-2.2-.9-.8-2-1.2-2.7-2.3-.1-.1-.2-.2-.4-.3-1.3-.8-2.1-2-3.2-2.9-1.3-1.2-2.4-2.6-3.7-3.8-.8-.8-1.7-1.7-2.2-2.8-.3-.7-.4-1.5-.6-2.3h.3z"></path><path d="M148.8 114.4c-.1-.7.2-1.3.3-1.9.1-.3.2-.5.1-.8-.4-.6-.2-1.1.1-1.7.5-.9.2-2 .4-2.9.3-1 .3-2 .4-3 .1-1.8.9-3.3 1.3-5 .2-1 .6-2 .8-3.1.2-1.1.4-2.2.8-3.1.4-1 .8-2 .9-3 .2-1.4.6-2.7 1-4 .2-.7.1-1.5.4-2.1.7-1.3.8-2.7 1.2-4.1.3-1.2.7-2.3.9-3.5.2-1.3.4-2.5.8-3.8.4-1.2.7-2.5 1-3.8.1-.5.3-.9.4-1.3.1-.5.1-.9-.4-1.2-.4-.2-.9.1-1 .7-.3.9-.5 1.9-.7 2.8-.2 1-.5 2.1-.8 3-.8 2-1.2 4.1-1.8 6.1-.6 2.1-1.3 4.2-1.8 6.3-.4 1.8-1 3.7-1.4 5.5-.4 1.4-1.1 2.8-1.4 4.2-.6 2.7-2 5.1-2.3 7.8 0 .2 0 .4-.2.4s-.3-.2-.3-.3c-.1-1.8-1.1-3.3-1.5-5-.2-1-.7-1.9-.8-2.9-.1-.7-.5-1-1.2-.9-.6.1-.8.4-.7 1.2.2 1.1.6 2.1.8 3.1.4 1.6.7 3.3 1 4.9l.3 1.2c.2.5.3.9.3 1.4 0 2.6.4 5.3.7 7.9.2 1.6.4 3.3.5 4.9 0 .2 0 .4-.1.5-.6 1.1-1.2 2.1-1.9 3.1-.8 1-1.6 2.1-2.3 3.3-.9 1.4-2 2.6-3 3.9-1.2 1.7-2.5 3.4-3.8 5.1-.9 1.2-1.9 2.3-2.9 3.4-1.5 1.7-2.8 3.6-4.1 5.4-1.2 1.7-1.9 3.5-3.3 5.1-1 1.1-1.6 2.5-2.5 3.7-1.1 1.4-1.9 2.9-3 4.3-.7 1-1.6 1.8-2.4 2.6-.2.2-.3.7-.6.6-.4-.1-.2-.6-.3-.9-.4-1.4-.2-2.7.5-3.9.2-.3-.1-.6 0-.9.1-1 .4-2 .7-3 .2-.8.4-1.6.5-2.5.1-.8.1-1.7.3-2.5.2-.8.4-1.7.5-2.5.1-1 .4-2 .8-2.9.3-.7.1-1.3.1-2s.1-1.4.5-2c.6-.8.6-1.8.8-2.7.2-1.5.5-2.9 1.1-4.3.4-.9.6-1.9.8-2.8.2-.8.5-1.6.6-2.5.1-.6-.1-1.1.1-1.7.5-1 .5-2 .6-3.1v-.1c.7-1.2.4-2.7.9-4 .2-.5.2-1.1.4-1.6.8-1.5.8-3.2 1.2-4.8.4-1.7.7-3.5 1.4-5.2.5-1.3.6-2.7 1.2-3.9.8-1.4 1.1-3 1.3-4.5.1-.6.4-1.1.6-1.7.4-.8.5-1.8.5-2.6 0-1.1.6-2 .8-3.1.4-1.5.9-3 1.4-4.4.4-1.2.7-2.5 1.4-3.6 0-.1.1-.1.1-.2.8-2.9 2.5-5.5 3.6-8.3l1.8-5.1c.4-1.2.8-2.3 1.3-3.5.8-2 1.6-4.1 2.4-6.1.3-.7.6-1.2.7-2 .1-1 .8-1.9 1.3-2.7.6-1 1-2.1 1.6-3.2.4-.7.8-1.5.9-2.4 0-.6.5-.9.7-1.4.4-1 .6-2 1.1-2.9 0-.1 0-.2.1-.2.6-1.5 1.4-1.6 2.6-.5.7.6 1.3 1.3 2.1 1.9.5.4.8 1 1.3 1.4 1.1 1 1.9 2.3 3.1 3.3.3.2.5.6.6.9.6 1.1 1.6 1.8 2.3 2.8.6.9 1.3 1.8 2 2.8.1.1.2.3.3.4 1 .8 1.1 1.9.7 3-.3 1-.2 2.1-.3 3.1-.2 2.2-.5 4.4-.7 6.5-.3 2.3-.6 4.6-1.2 6.9-.7 3.2-1.2 6.5-1.5 9.8-.1 1.6-.4 3.2-.9 4.8-.3.9-.4 1.8-.5 2.7-.1 2.3-.8 4.5-1.4 6.7-.2.8-1 1.4-1.3 2.2-.2.6-.6 1.1-.9 1.6-.7 1-1.1 2.3-1.8 3.3-.6.9-1.2 1.9-2 2.8-.9 1.1-1.6 2.3-2.3 3.5-.7 1.3-1.7 2.5-2.5 3.7-.2.3-.4.2-.5-.1.2-.1.2-.5.3-.8z"></path><path d="M80 122.7c.2 1.1.1 2.2.3 3.3 0 .2.1.4.2.5.9 1 .9 2.3 1 3.5.2 1.6.4 3.3.8 4.9.3 1.3.3 2.7.4 4 .1 1.6.5 3.1.8 4.7.1.4.1.8.1 1.1-.1.9 0 1.7.2 2.6.5 2 .5 4 .7 5.9.1 1.6.5 3.2.6 4.8.1 2.2.4 4.4.5 6.6.1 2.3.2 4.6.3 7 0 1 0 2.1.1 3.1 0 1 .1 2 .2 3 .1.8-.1.9-.9.7-1.4-.4-2.9-.6-4.3-.9-1-.3-2.1-.5-3.2-.9-1.7-.7-3.5-1.1-5.2-1.7-1.2-.4-2.3-1-3.4-1.4-1.5-.4-2.7-1.3-4.1-1.9-.9-.4-1.8-.7-2.6-1.2-.7-.5-1.5-.9-2.2-1.3-.4-.2-.5-.5-.4-.9.1-.8.4-1.5.1-2.3v-.1c.7-1.4.2-3 .4-4.5.2-1.2.4-2.4.2-3.6-.1-.7.1-1.4.3-2.1.2-.6.5-1.2.1-1.9v-.2c.6-1.1.1-2.2.2-3.4.2-1.4 0-2.8.3-4.2.3-1.1.2-2.2.4-3.3.2-1.3.2-2.7.3-4v-.4c-.4-1.4 0-2.8.1-4.2.1-.8.6-1.6.3-2.4-.2-.7-.2-1.3-.1-2 .2-1.6.1-3.2.1-4.8 0-.6.4-1.2.3-1.9-.2-.8-.1-1.5.4-2.2.1-.2.1-.4.1-.6-.2-.9 0-1.7.2-2.5l.9-3.6c.1-.4.2-.8.4-1.2.2-.4.3-.7.1-1.2-.1-.1-.1-.3-.1-.5.1-1.7-.2-3.3.1-5 .1-.7-.4-1.2-.2-1.9.4-1.4.3-2.8.5-4.2 0-.3.1-.5.1-.8-.2-1.6.3-3.2.4-4.8 0-1 .5-1.9.6-2.8 0-.3.1-.7.1-1-.1-.7-.1-1.4.2-2 .3-.7 0-1.4.2-2.1.3-1.1-.1-2.3.5-3.3.2-.3-.2-.6-.1-.9.2-1.4.2-2.7.3-4.1 0-.7.4-1.3.1-2.1v-.2c.2 0 .2.1.2.2.9 2.1 1.9 4.3 1.9 6.7 0 2.4.9 4.5 1.8 6.6.3.7.6 1.4.8 2.2.3 1.2.7 2.3 1 3.4 1.2 4.3 2.7 8.6 3.5 13.1.3 1.8.9 3.6 1.4 5.4.7 2.8 1.4 5.5 2 8.3-.3.3-.3.6-.3.9z"></path><path d="M152 159.9c.2-1.5-.3-2.9-.4-4.3-.1-1.3-.1-2.6.1-3.9 0-.2.2-.4 0-.6-.5-.6-.2-1.4-.2-2 0-.2.1-.4 0-.5-.5-.7-.3-1.3-.1-2 .1-.2 0-.4-.1-.6-.1-.6-.2-1.2 0-1.8 0-.1.1-.3.1-.4-.5-1.9-.3-3.8-.5-5.8-.1-1.3-.4-2.6-.2-3.9.1-.7-.2-1.3-.2-1.9-.1-1-.1-2.1-.4-3.1-.2-.8-.2-1.8-.3-2.6-.1-1.2-.2-2.3.1-3.5.2-.7-.3-1.5-.3-2.2 0-.5.1-.9.5-1.3.6-.8 1.1-1.8 1.6-2.7.6-.9 1.2-1.7 1.7-2.6.7-1.2 1.8-2.2 2.6-3.4.8-1 1.5-2.1 2.1-3.2.5-.9 1.3-1.5 1.8-2.4.1-.2.3-.3.4-.4.6-1.5 1.9-2.3 3.2-3.1.8-.5 1.4-1.1 2.1-1.7 1.2-1 2.6-1.6 3.8-2.6 1.7-1.4 3.6-2.5 5.2-3.9 1-.8 2-1.5 2.8-2.5.3-.4 1-.6 1.4-1 .1-.2.2-.1.4.1.3.5.3 1 .3 1.4-.1 1.1.1 2.1.3 3.1.1 1 .2 2 .1 3-.1.6.2 1.1.1 1.6-.1 1.3-.2 2.7-.2 4.1 0 1.2 0 2.4-.1 3.7-.1.7-.2 1.4-.1 2.2.1.4-.5.8-.4 1.3.1.9-.1 1.8-.3 2.6-.2 1.2-.2 2.5-.6 3.7-.3 1-.3 2-.7 2.9-.6 1.4-.7 3-1.3 4.4-.6 1.5-.8 3.2-1.5 4.7-.6 1.3-1.1 2.5-1.5 3.8v.1c-1.1 1.2-1.6 2.9-2.3 4.3-1.4 2.7-3 5.3-4.7 7.8-.7 1.1-1.5 2.1-2.2 3.2-.5.7-1 1.3-1.3 2.1-.2.4-.7.7-1.1 1.1-1.1 1.4-2.3 2.7-3.5 4-1.4 1.4-2.8 3-4.4 4.3-.4.3-.7.6-1 .9-.1.1-.2.4-.4.3-.4-.3-.4-.6-.4-.8z"></path><path d="M148.4 158.2c.3 1.8-.1 3.7-.6 5.6-.2.6-.6.9-1.1 1.2-.2.1-.5.1-.6.3-.7.9-1.7 1.2-2.6 1.8-1.3.8-2.6 1.6-3.8 2.5-.5.4-1.1.6-1.7.8-1.2.5-2.1 1.6-3.5 1.6-.3 0-.5.3-.8.4-1.5.8-3 1.5-4.6 1.9-1 .3-1.9.8-2.9 1.1-1.6.5-3.2 1.1-4.8 1.5-2.6.6-5.2 1.3-7.8 1.8-.2 0-.4.1-.3-.2.2-.5 0-1 .3-1.5.1-.1.1-.3.1-.5-.1-1.3.5-2.6.6-3.9.1-.8.5-1.6.9-2.3.9-1.7 1.8-3.4 2.6-5.2.1-.3 0-.5 0-.7.1-.6.3-1.1.8-1.5.5-.6 1.1-1.1 1.5-1.8.2-.3.4-.6.8-.8.1-.1.3-.2.4-.3.8-1.5 2.2-2.6 3.1-4 1.1-1.7 2.5-3.2 3.5-4.9.4-.6.8-1.2 1.3-1.8.3-.4.6-.8.7-1.4.2-.8.8-1.4 1.3-2 .8-.9 1.3-1.9 2-2.9.6-.8 1.2-1.5 1.8-2.3.5-.7.9-1.4 1.5-2 .9-.9 1.3-2.2 2.4-3 .6-.5.8-1.4 1.4-2 1.2-1.2 2.1-2.6 2.9-3.9.8-1.3 1.6-2.4 2.6-3.5.5-.5.7-1.2 1.1-1.8.1-.2.3-.6.6-.5.3.1.2.5.2.7l.6 7.8c.1 2.2.1 4.4.1 6.6 0 2.1.1 4.2.2 6.3.1 1.5.1 3.1 0 4.6 0 .6-.1 1.2 0 1.9-.2 2.2-.2 4.2-.2 6.3z"></path><path d="M62.4 62c-.2 2.1-.2 4.4-.2 6.6 0 2.6-.2 5.1-.2 7.7 0 1.3-.2 2.6-.1 3.9 0 1.1-.1 2.3 0 3.4 0 1.6-.1 3.1-.3 4.7-.1.6.1 1.2 0 1.9-.4 2.4-.3 4.9-.6 7.3-.1 1.1 0 2.2 0 3.3v.4c0 .3 0 .6-.3.7-.2 0-.2-.4-.3-.6-.3-.8-.5-1.6-.7-2.4-.1-.3-.2-.5-.4-.7-.3-.4-.7-.7-.6-1.3 0-.4-.4-.6-.6-.9-.6-1.2-.9-2.5-1.5-3.7-.4-.8-.5-1.8-1.1-2.5-.7-.9-.5-2.2-1-3.2-.2-.4-.3-.8-.5-1.2-.3-.4-.6-.9-.6-1.5 0-.4-.3-.8-.6-1-.7-.6-1.1-1.3-1.2-2.2 0-.4-.3-.5-.5-.8-1-1.3-1.6-2.7-2.4-4.1-1.2-2.2-2.6-4.3-3.3-6.8-.1-.2-.2-.4-.4-.5-.5-.4-.9-.8-.7-1.4 0-.1 0-.2-.1-.3-.6-.6-.9-1.5-1.4-2.2-.5-.8-1.1-1.5-1.5-2.4-.5-1.1-.8-2.3-1.5-3.4-.3-.4-.3-1-.5-1.4-.5-1-1.1-2-1.6-3.1-.4-.8-.6-1.8-.8-2.7-.1-.2.1-.5.2-.7.5-.6.8-1.4 1.5-1.8.1 0 .1-.2.2-.3 1-1.7 2.6-2.8 3.9-4.4 1-1.3 2.3-2.4 3.5-3.5.9-.7 1.7-1.7 2.7-2.3 1.2-.8 2.1-1.9 3.4-2.6.6-.3 1.1-.9 1.6-1.3.4-.3.6-.1.7.3.3 1.8.9 3.5 1.4 5.2.5 1.7.9 3.4 1.6 5.1.6 1.5 1 3.1 1.4 4.7.4 1.6 1 3.2 1.5 4.8.7 1.9 1.3 3.8 1.9 5.7.1.6 0 1 0 1.5z"></path><path d="M80.5 22.8c.7-.3.7 0 .6.6-.2 3-1 5.8-1.6 8.7-.6 2.7-1.1 5.4-1.6 8.1-.3 1.7-.8 3.3-.9 5-.2 2-.8 3.9-1 6-.2 2.2-.6 4.4-.9 6.6-.4 2.9-.9 5.9-1.2 8.8-.3 2.5-.9 5-1.5 7.5-.1.6-.2 1.2-.7 1.7-.5.5-.5.5-.9-.1-.2-.4-.3-.9-.4-1.3-.2-.5-.2-1.1-.7-1.5-.1 0-.1-.1-.1-.2-.1-1.7-.7-3.2-1.1-4.8-.5-1.9-.3-3.8-.3-5.8 0-.8-.2-1.7 0-2.5.1-.3 0-.5.2-.8.3-.4.1-.8 0-1.2-.2-.6-.3-1.1.2-1.6.2-.3.2-.5.1-.8-.3-1.3-.3-2.6 0-4 .2-.7.1-1.4.1-2.1 0-.6-.2-1.3.1-1.9 0-.1.1-.2 0-.3-.4-1 0-2 .1-3 .1-1.1 0-2.3.3-3.4.4-1.6.2-3.3.1-4.9-.1-1 .5-1.8.6-2.7.1-.6.3-1.1.1-1.7-.3-1 .3-2 .4-3 0-.6-.1-1.2 0-1.8.1-.4.3-.6.7-.6.3 0 .6-.1.9-.3.9-.5 1.8-1.1 2.9-1.1.7 0 1.4-.4 2.1-.7 1.2-.5 2.4-.5 3.4-.9z"></path><path d="M178.1 83.2c0 .5.4.9.4 1.5 0 .3.1.7.2.9.5 1.2-.2 1.9-1 2.5-2 1.4-3.7 3.1-5.7 4.6-1.5 1.2-3 2.4-4.7 3.3-.9.5-1.5 1.4-2.6 1.7-.5.2-1.1.6-1.5.3-.3-.2 0-.8.1-1.3l.3-1.2c.2-.6.3-1.1.1-1.7-.1-.2-.1-.3 0-.5.4-.5.3-1.1.3-1.7s-.1-1.3.2-1.9c.1-.1.1-.3 0-.4-.3-1 .1-2 .4-2.9.1-.4.2-.7.2-1.1v-.5c.7-1.7.3-3.5.7-5.2.3-1.2.5-2.4.7-3.5.2-.8.4-1.7.4-2.5 0-.4.1-.8.3-1.1.4-.7.4-1.5.4-2.2-.1-1.2.4-2.3.4-3.5 0-.7.4-1.4.3-2.2-.1-.4 0-.7.2-1.1.2-.3.2-.7.1-1 0-.2-.1-.5 0-.7.2-.3.2-.6.1-1-.1-.2-.1-.4 0-.6.1-.3.1-.8.3-.8.4 0 .2.5.3.7.1.1.1.3.2.4 1.2 1.2 1.7 2.8 2.5 4.2.4.7.7 1.4 1 2.2.3.8.8 1.5 1.1 2.3.9 1.9 1.4 3.9 2.1 5.8.4 1.1.6 2.2 1 3.3.4 1.3.9 2.5 1 3.8-.1.4.5.6.2 1.1z"></path><path d="M28.1 107.4c-.5.8-.3 1.7-.3 2.6-.1 2.3.3 4.4 1 6.5 0 .1 0 .2.1.3 1.5 2 1.4 4.3 1.5 6.5.2 2.9.7 5.7 1.1 8.5.2 1.4.5 2.9.7 4.3.1 1.1.4 2.2.6 3.3.2 1.2.3 2.5.4 3.7 0 .1 0 .3-.1.3-.2.1-.2-.1-.3-.2-.2-.5-.5-1-.9-1.4-.5-.7-.8-1.5-1.3-2.2-.7-1.1-1.3-2.2-1.9-3.4-.5-1-.9-2.1-1.5-3.1-.4-.6-.5-1.4-.9-2.1-.7-1.5-1.3-3.1-1.8-4.7-.5-1.7-1.4-3.3-1.5-5.1-.1-.6-.4-1.2-.5-1.7-.1-1-.7-1.9-.6-3 .1-.5-.3-.8-.4-1.3-.3-1.6-.5-3.2-.7-4.9-.2-1.4-.1-2.9-.4-4.3-.3-1.8-.3-3.5-.4-5.3-.1-1.4 0-2.8.1-4.1 0-1 .2-2 .1-2.9 0-.3 0-.7.1-1 .2-.6.2-1.1.2-1.7-.1-.8.2-1.6.3-2.5.2-1.8.7-3.6 1-5.3 0-.2 0-.4.2-.4s.2.2.2.4c.4 2.4 1 4.8 1.6 7.1.6 2.1 1.1 4.3 1.5 6.4.5 2.7 1.6 5.2 2.2 7.9.3 1.1.5 1.9.6 2.8z"></path><path d="M143.1 52.3c-.1-1.2-.1-2.4-.8-3.5-.3-.6-.3-1.4-.4-2.1 0-.5 0-.9-.3-1.2 0-.1-.1-.1-.1-.2 0-1.2-.7-2.2-.8-3.4 0-.2-.1-.3-.2-.5-.8-1.5-1.3-3.1-1.5-4.7-.2-1.4-.4-2.7-.8-4-.2-.6-.6-1.1-.5-1.8 0-.5.3-.6.6-.5.3.1.5.2.7.3.7.6 1.7.8 2.5 1.4 1.2.9 2.6 1.7 3.8 2.6.7.5 1.4 1.2 2.2 1.5.8.3.9.6.6 1.4-.7 1.5-.9 3.2-1.6 4.8-.9 2.1-1.8 4.3-2.4 6.5-.3 1.2-.8 2.4-1.2 3.6 0 .1-.1.2-.2.4-.2-.1 0-.3 0-.4.4-.1.4-.1.4-.2z"></path><path d="M66.1 29.3c-.1 1-.4 2-.4 3 0 2.1-.6 4.1-.9 6.1-.2 1.3-.4 2.7-.4 4 0 .8-.1 1.5-.3 2.2-.2.8-.3 1.6-.3 2.3 0 1-.3 2-.4 3 0 .1-.1.3-.2.3-.2 0-.1-.2-.1-.3 0-.3-.1-.6-.3-.9-.2-.2-.3-.5-.3-.7 0-.4-.2-.8-.4-1.1-.5-.6-.3-1.4-.6-2-.8-1.2-1-2.7-1.7-4-.3-.6-.4-1.3-.7-1.9-.3-.6-.6-1.3-.8-1.9-.4-1.2-.9-2.4-1.3-3.7-.1-.4 0-.6.4-.9 2.3-1.5 4.7-2.8 7.1-4.1.4-.2.8-.2 1.2-.5.2-.2.4 0 .4.2-.1.3-.1.6 0 .9z"></path></g></g>
</svg>
</g><g opacity="1" transform="rotate(0 215.2367 428.6527)">
<svg width="225.3607" height="22" x="215.2367" y="428.6527" version="1.1" preserveAspectRatio="none" viewBox="2.92 -29.46 371.98 36.32">
  <g transform="matrix(1 0 0 1 0 0)" class="text"><path id="id-6izo4zJp17" d="M6.48 0L2.92 0L2.92-20.26L5.04-20.26Q5.80-20.26 6-19.52L6-19.52L6.28-17.32Q7.60-18.78 9.23-19.68Q10.86-20.58 13-20.58L13-20.58Q14.66-20.58 15.93-20.03Q17.20-19.48 18.05-18.47Q18.90-17.46 19.34-16.04Q19.78-14.62 19.78-12.90L19.78-12.90L19.78 0L16.22 0L16.22-12.90Q16.22-15.20 15.17-16.47Q14.12-17.74 11.96-17.74L11.96-17.74Q10.38-17.74 9.01-16.98Q7.64-16.22 6.48-14.92L6.48-14.92L6.48 0Z M36.56-20.58L36.56-20.58Q38.78-20.58 40.57-19.84Q42.36-19.10 43.61-17.74Q44.86-16.38 45.53-14.45Q46.20-12.52 46.20-10.14L46.20-10.14Q46.20-7.74 45.53-5.82Q44.86-3.90 43.61-2.54Q42.36-1.18 40.57-0.45Q38.78 0.28 36.56 0.28L36.56 0.28Q34.34 0.28 32.55-0.45Q30.76-1.18 29.50-2.54Q28.24-3.90 27.56-5.82Q26.88-7.74 26.88-10.14L26.88-10.14Q26.88-12.52 27.56-14.45Q28.24-16.38 29.50-17.74Q30.76-19.10 32.55-19.84Q34.34-20.58 36.56-20.58ZM36.56-2.50L36.56-2.50Q39.56-2.50 41.04-4.51Q42.52-6.52 42.52-10.12L42.52-10.12Q42.52-13.74 41.04-15.76Q39.56-17.78 36.56-17.78L36.56-17.78Q35.04-17.78 33.92-17.26Q32.80-16.74 32.05-15.76Q31.30-14.78 30.93-13.35Q30.56-11.92 30.56-10.12L30.56-10.12Q30.56-8.32 30.93-6.90Q31.30-5.48 32.05-4.51Q32.80-3.54 33.92-3.02Q35.04-2.50 36.56-2.50Z M59.94 0.32L59.94 0.32Q57.54 0.32 56.25-1.02Q54.96-2.36 54.96-4.88L54.96-4.88L54.96-17.28L52.52-17.28Q52.20-17.28 51.98-17.47Q51.76-17.66 51.76-18.06L51.76-18.06L51.76-19.48L55.08-19.90L55.90-26.16Q55.94-26.46 56.16-26.65Q56.38-26.84 56.72-26.84L56.72-26.84L58.52-26.84L58.52-19.86L64.32-19.86L64.32-17.28L58.52-17.28L58.52-5.12Q58.52-3.84 59.14-3.22Q59.76-2.60 60.74-2.60L60.74-2.60Q61.30-2.60 61.71-2.75Q62.12-2.90 62.42-3.08Q62.72-3.26 62.93-3.41Q63.14-3.56 63.30-3.56L63.30-3.56Q63.58-3.56 63.80-3.22L63.80-3.22L64.84-1.52Q63.92-0.66 62.62-0.17Q61.32 0.32 59.94 0.32Z M97.72-12.96L97.72 0L96.14 0Q95.62 0 95.30-0.16Q94.98-0.32 94.88-0.84L94.88-0.84L94.48-2.72Q93.68-2 92.92-1.43Q92.16-0.86 91.32-0.47Q90.48-0.08 89.53 0.12Q88.58 0.32 87.42 0.32L87.42 0.32Q86.24 0.32 85.21-0.01Q84.18-0.34 83.42-1Q82.66-1.66 82.21-2.67Q81.76-3.68 81.76-5.06L81.76-5.06Q81.76-6.26 82.42-7.37Q83.08-8.48 84.55-9.34Q86.02-10.20 88.40-10.75Q90.78-11.30 94.22-11.38L94.22-11.38L94.22-12.96Q94.22-15.32 93.21-16.53Q92.20-17.74 90.22-17.74L90.22-17.74Q88.92-17.74 88.03-17.41Q87.14-17.08 86.49-16.67Q85.84-16.26 85.37-15.93Q84.90-15.60 84.44-15.60L84.44-15.60Q84.08-15.60 83.81-15.79Q83.54-15.98 83.38-16.26L83.38-16.26L82.74-17.40Q84.42-19.02 86.36-19.82Q88.30-20.62 90.66-20.62L90.66-20.62Q92.36-20.62 93.68-20.06Q95.00-19.50 95.90-18.50Q96.80-17.50 97.26-16.08Q97.72-14.66 97.72-12.96L97.72-12.96ZM88.48-2.18L88.48-2.18Q89.42-2.18 90.20-2.37Q90.98-2.56 91.67-2.91Q92.36-3.26 92.99-3.76Q93.62-4.26 94.22-4.90L94.22-4.90L94.22-9.12Q91.76-9.04 90.04-8.73Q88.32-8.42 87.24-7.92Q86.16-7.42 85.67-6.74Q85.18-6.06 85.18-5.22L85.18-5.22Q85.18-4.42 85.44-3.84Q85.70-3.26 86.14-2.89Q86.58-2.52 87.18-2.35Q87.78-2.18 88.48-2.18Z M106.72-29.46L110.28-29.46L110.28 0L106.72 0L106.72-29.46Z M127.96-20.58L127.96-20.58Q130.18-20.58 131.97-19.84Q133.76-19.10 135.01-17.74Q136.26-16.38 136.93-14.45Q137.60-12.52 137.60-10.14L137.60-10.14Q137.60-7.74 136.93-5.82Q136.26-3.90 135.01-2.54Q133.76-1.18 131.97-0.45Q130.18 0.28 127.96 0.28L127.96 0.28Q125.74 0.28 123.95-0.45Q122.16-1.18 120.90-2.54Q119.64-3.90 118.96-5.82Q118.28-7.74 118.28-10.14L118.28-10.14Q118.28-12.52 118.96-14.45Q119.64-16.38 120.90-17.74Q122.16-19.10 123.95-19.84Q125.74-20.58 127.96-20.58ZM127.96-2.50L127.96-2.50Q130.96-2.50 132.44-4.51Q133.92-6.52 133.92-10.12L133.92-10.12Q133.92-13.74 132.44-15.76Q130.96-17.78 127.96-17.78L127.96-17.78Q126.44-17.78 125.32-17.26Q124.20-16.74 123.45-15.76Q122.70-14.78 122.33-13.35Q121.96-11.92 121.96-10.12L121.96-10.12Q121.96-8.32 122.33-6.90Q122.70-5.48 123.45-4.51Q124.20-3.54 125.32-3.02Q126.44-2.50 127.96-2.50Z M148.76 0L145.20 0L145.20-20.26L147.32-20.26Q148.08-20.26 148.28-19.52L148.28-19.52L148.56-17.32Q149.88-18.78 151.51-19.68Q153.14-20.58 155.28-20.58L155.28-20.58Q156.94-20.58 158.21-20.03Q159.48-19.48 160.33-18.47Q161.18-17.46 161.62-16.04Q162.06-14.62 162.06-12.90L162.06-12.90L162.06 0L158.50 0L158.50-12.90Q158.50-15.20 157.45-16.47Q156.40-17.74 154.24-17.74L154.24-17.74Q152.66-17.74 151.29-16.98Q149.92-16.22 148.76-14.92L148.76-14.92L148.76 0Z M178.66-20.58L178.66-20.58Q180.48-20.58 182.02-19.97Q183.56-19.36 184.68-18.21Q185.80-17.06 186.43-15.37Q187.06-13.68 187.06-11.52L187.06-11.52Q187.06-10.68 186.88-10.40Q186.70-10.12 186.20-10.12L186.20-10.12L172.72-10.12Q172.76-8.20 173.24-6.78Q173.72-5.36 174.56-4.41Q175.40-3.46 176.56-2.99Q177.72-2.52 179.16-2.52L179.16-2.52Q180.50-2.52 181.47-2.83Q182.44-3.14 183.14-3.50Q183.84-3.86 184.31-4.17Q184.78-4.48 185.12-4.48L185.12-4.48Q185.56-4.48 185.80-4.14L185.80-4.14L186.80-2.84Q186.14-2.04 185.22-1.45Q184.30-0.86 183.25-0.48Q182.20-0.10 181.08 0.09Q179.96 0.28 178.86 0.28L178.86 0.28Q176.76 0.28 174.99-0.43Q173.22-1.14 171.93-2.51Q170.64-3.88 169.92-5.90Q169.20-7.92 169.20-10.54L169.20-10.54Q169.20-12.66 169.85-14.50Q170.50-16.34 171.72-17.69Q172.94-19.04 174.70-19.81Q176.46-20.58 178.66-20.58ZM178.74-17.96L178.74-17.96Q176.16-17.96 174.68-16.47Q173.20-14.98 172.84-12.34L172.84-12.34L183.86-12.34Q183.86-13.58 183.52-14.61Q183.18-15.64 182.52-16.39Q181.86-17.14 180.91-17.55Q179.96-17.96 178.74-17.96Z M220.60-12.96L220.60 0L219.02 0Q218.50 0 218.18-0.16Q217.86-0.32 217.76-0.84L217.76-0.84L217.36-2.72Q216.56-2 215.80-1.43Q215.04-0.86 214.20-0.47Q213.36-0.08 212.41 0.12Q211.46 0.32 210.30 0.32L210.30 0.32Q209.12 0.32 208.09-0.01Q207.06-0.34 206.30-1Q205.54-1.66 205.09-2.67Q204.64-3.68 204.64-5.06L204.64-5.06Q204.64-6.26 205.30-7.37Q205.96-8.48 207.43-9.34Q208.90-10.20 211.28-10.75Q213.66-11.30 217.10-11.38L217.10-11.38L217.10-12.96Q217.10-15.32 216.09-16.53Q215.08-17.74 213.10-17.74L213.10-17.74Q211.80-17.74 210.91-17.41Q210.02-17.08 209.37-16.67Q208.72-16.26 208.25-15.93Q207.78-15.60 207.32-15.60L207.32-15.60Q206.96-15.60 206.69-15.79Q206.42-15.98 206.26-16.26L206.26-16.26L205.62-17.40Q207.30-19.02 209.24-19.82Q211.18-20.62 213.54-20.62L213.54-20.62Q215.24-20.62 216.56-20.06Q217.88-19.50 218.78-18.50Q219.68-17.50 220.14-16.08Q220.60-14.66 220.60-12.96L220.60-12.96ZM211.36-2.18L211.36-2.18Q212.30-2.18 213.08-2.37Q213.86-2.56 214.55-2.91Q215.24-3.26 215.87-3.76Q216.50-4.26 217.10-4.90L217.10-4.90L217.10-9.12Q214.64-9.04 212.92-8.73Q211.20-8.42 210.12-7.92Q209.04-7.42 208.55-6.74Q208.06-6.06 208.06-5.22L208.06-5.22Q208.06-4.42 208.32-3.84Q208.58-3.26 209.02-2.89Q209.46-2.52 210.06-2.35Q210.66-2.18 211.36-2.18Z M232.76 0L229.20 0L229.20-20.26L231.32-20.26Q232.08-20.26 232.28-19.52L232.28-19.52L232.56-17.32Q233.88-18.78 235.51-19.68Q237.14-20.58 239.28-20.58L239.28-20.58Q240.94-20.58 242.21-20.03Q243.48-19.48 244.33-18.47Q245.18-17.46 245.62-16.04Q246.06-14.62 246.06-12.90L246.06-12.90L246.06 0L242.50 0L242.50-12.90Q242.50-15.20 241.45-16.47Q240.40-17.74 238.24-17.74L238.24-17.74Q236.66-17.74 235.29-16.98Q233.92-16.22 232.76-14.92L232.76-14.92L232.76 0Z M271.24-20.26L259.94 5.98Q259.76 6.38 259.49 6.62Q259.22 6.86 258.66 6.86L258.66 6.86L256.02 6.86L259.72-1.18L251.36-20.26L254.44-20.26Q254.90-20.26 255.16-20.03Q255.42-19.80 255.54-19.52L255.54-19.52L260.96-6.76Q261.14-6.32 261.27-5.88Q261.40-5.44 261.50-4.98L261.50-4.98Q261.64-5.44 261.78-5.88Q261.92-6.32 262.10-6.78L262.10-6.78L267.36-19.52Q267.48-19.84 267.77-20.05Q268.06-20.26 268.40-20.26L268.40-20.26L271.24-20.26Z M281.24 0L277.68 0L277.68-20.26L279.80-20.26Q280.56-20.26 280.76-19.52L280.76-19.52L281.02-17.44Q282.14-18.82 283.53-19.70Q284.92-20.58 286.76-20.58L286.76-20.58Q288.82-20.58 290.09-19.44Q291.36-18.30 291.92-16.36L291.92-16.36Q292.34-17.46 293.03-18.26Q293.72-19.06 294.58-19.58Q295.44-20.10 296.41-20.34Q297.38-20.58 298.38-20.58L298.38-20.58Q299.98-20.58 301.23-20.07Q302.48-19.56 303.35-18.58Q304.22-17.60 304.68-16.17Q305.14-14.74 305.14-12.90L305.14-12.90L305.14 0L301.58 0L301.58-12.90Q301.58-15.28 300.54-16.51Q299.50-17.74 297.52-17.74L297.52-17.74Q296.64-17.74 295.85-17.43Q295.06-17.12 294.46-16.52Q293.86-15.92 293.51-15.01Q293.16-14.10 293.16-12.90L293.16-12.90L293.16 0L289.60 0L289.60-12.90Q289.60-15.34 288.62-16.54Q287.64-17.74 285.76-17.74L285.76-17.74Q284.44-17.74 283.31-17.03Q282.18-16.32 281.24-15.10L281.24-15.10L281.24 0Z M321.92-20.58L321.92-20.58Q324.14-20.58 325.93-19.84Q327.72-19.10 328.97-17.74Q330.22-16.38 330.89-14.45Q331.56-12.52 331.56-10.14L331.56-10.14Q331.56-7.74 330.89-5.82Q330.22-3.90 328.97-2.54Q327.72-1.18 325.93-0.45Q324.14 0.28 321.92 0.28L321.92 0.28Q319.70 0.28 317.91-0.45Q316.12-1.18 314.86-2.54Q313.60-3.90 312.92-5.82Q312.24-7.74 312.24-10.14L312.24-10.14Q312.24-12.52 312.92-14.45Q313.60-16.38 314.86-17.74Q316.12-19.10 317.91-19.84Q319.70-20.58 321.92-20.58ZM321.92-2.50L321.92-2.50Q324.92-2.50 326.40-4.51Q327.88-6.52 327.88-10.12L327.88-10.12Q327.88-13.74 326.40-15.76Q324.92-17.78 321.92-17.78L321.92-17.78Q320.40-17.78 319.28-17.26Q318.16-16.74 317.41-15.76Q316.66-14.78 316.29-13.35Q315.92-11.92 315.92-10.12L315.92-10.12Q315.92-8.32 316.29-6.90Q316.66-5.48 317.41-4.51Q318.16-3.54 319.28-3.02Q320.40-2.50 321.92-2.50Z M342.72 0L339.16 0L339.16-20.26L341.20-20.26Q341.78-20.26 342-20.04Q342.22-19.82 342.30-19.28L342.30-19.28L342.54-16.12Q343.58-18.24 345.11-19.43Q346.64-20.62 348.70-20.62L348.70-20.62Q349.54-20.62 350.22-20.43Q350.90-20.24 351.48-19.90L351.48-19.90L351.02-17.24Q350.88-16.74 350.40-16.74L350.40-16.74Q350.12-16.74 349.54-16.93Q348.96-17.12 347.92-17.12L347.92-17.12Q346.06-17.12 344.81-16.04Q343.56-14.96 342.72-12.90L342.72-12.90L342.72 0Z M366.50-20.58L366.50-20.58Q368.32-20.58 369.86-19.97Q371.40-19.36 372.52-18.21Q373.64-17.06 374.27-15.37Q374.90-13.68 374.90-11.52L374.90-11.52Q374.90-10.68 374.72-10.40Q374.54-10.12 374.04-10.12L374.04-10.12L360.56-10.12Q360.60-8.20 361.08-6.78Q361.56-5.36 362.40-4.41Q363.24-3.46 364.40-2.99Q365.56-2.52 367-2.52L367-2.52Q368.34-2.52 369.31-2.83Q370.28-3.14 370.98-3.50Q371.68-3.86 372.15-4.17Q372.62-4.48 372.96-4.48L372.96-4.48Q373.40-4.48 373.64-4.14L373.64-4.14L374.64-2.84Q373.98-2.04 373.06-1.45Q372.14-0.86 371.09-0.48Q370.04-0.10 368.92 0.09Q367.80 0.28 366.70 0.28L366.70 0.28Q364.60 0.28 362.83-0.43Q361.06-1.14 359.77-2.51Q358.48-3.88 357.76-5.90Q357.04-7.92 357.04-10.54L357.04-10.54Q357.04-12.66 357.69-14.50Q358.34-16.34 359.56-17.69Q360.78-19.04 362.54-19.81Q364.30-20.58 366.50-20.58ZM366.58-17.96L366.58-17.96Q364-17.96 362.52-16.47Q361.04-14.98 360.68-12.34L360.68-12.34L371.70-12.34Q371.70-13.58 371.36-14.61Q371.02-15.64 370.36-16.39Q369.70-17.14 368.75-17.55Q367.80-17.96 366.58-17.96Z"/></g>
</svg>
</g><g opacity="1" transform="rotate(0 137.5413 362.6527)">
<svg width="380.7515" height="50" x="137.5413" y="362.6527" version="1.1" preserveAspectRatio="none" viewBox="2.2461 -27.4219 211.0469 27.7148">
  <g transform="matrix(1 0 0 1 0 0)" class="companyName"><path id="id-D6z1nYkh8" d="M3.37-25.54Q2.25-25.90 2.25-26.57Q2.25-27.25 3.87-27.25L3.87-27.25L5.02-27.25L5.61-27.23L7.34-27.21Q10.90-27.21 11.62-27.04Q12.34-26.88 12.34-26.29L12.34-26.29Q12.34-25.90 11.17-25.32Q10-24.75 9.79-23.71L9.79-23.71Q9.34-21.60 9.34-12.71Q9.34-3.83 9.69-3.22L9.69-3.22Q10.20-2.34 13.62-2.34Q17.05-2.34 18.19-2.89Q19.34-3.44 20.44-5.17Q21.54-6.89 21.99-6.89L21.99-6.89Q22.71-6.89 22.71-5.68L22.71-5.68Q22.71-1.46 21.60-0.53L21.60-0.53Q20.94 0.04 15.10 0.04L15.10 0.04L13.36 0.04L12.77 0.02L11.62 0.02Q2.25 0.02 2.25-0.76L2.25-0.76Q2.25-1.27 3.27-1.88Q4.30-2.48 4.65-3.69Q5-4.90 5-11.39L5-11.39L5.08-19.61Q5.08-23.89 4.79-24.53Q4.49-25.18 3.37-25.54Z M50.33-16.82L50.33-16.82Q50.33-21.86 49.96-23.23Q49.59-24.61 48.81-25.44Q48.04-26.27 48.04-26.64L48.04-26.64Q48.04-27.15 51.22-27.15Q54.39-27.15 54.92-26.86Q55.45-26.56 55.45-25.94L55.45-25.94Q55.45-25.63 54.29-24.90Q53.14-24.18 52.87-23.26Q52.59-22.34 52.59-15.50Q52.59-8.65 52.38-7.09Q52.16-5.53 51.18-3.84Q50.19-2.15 48.07-0.97Q45.95 0.21 43.04 0.21L43.04 0.21L42.20 0.21Q36.09 0.21 33.41-3.46L33.41-3.46Q32.30-4.96 32.01-6.59Q31.71-8.22 31.71-15.44Q31.71-22.66 31.29-23.95L31.29-23.95Q31.07-24.61 29.98-25.16L29.98-25.16Q28.90-25.70 28.90-26.31L28.90-26.31Q28.90-27.19 32.44-27.19L32.44-27.19L34.68-27.19Q37.93-27.19 37.93-26.39L37.93-26.39Q37.93-26.21 37.05-25.41Q36.17-24.61 35.97-23.48L35.97-23.48Q35.80-22.48 35.80-17.13L35.80-17.13Q35.80-16.60 35.80-16.02L35.80-16.02Q35.80-15.53 35.80-15.06L35.80-15.06Q35.80-9.53 36.01-7.99L36.01-7.99Q36.83-1.91 43.45-1.91L43.45-1.91Q47.65-1.91 49.45-5.96L49.45-5.96Q50.33-7.93 50.33-16.45L50.33-16.45Q50.33-16.62 50.33-16.82Z M63-13.24L63-13.95Q63-16.52 64.00-19.14Q64.99-21.76 66.77-23.66Q68.55-25.57 70.96-26.49Q73.37-27.42 75.77-27.42Q78.18-27.42 79.99-26.99Q81.81-26.56 82.88-26.48Q83.96-26.41 84.25-26.21L84.25-26.21Q85.19-25.61 85.19-22.52L85.19-22.52Q85.19-20.31 84.05-20.31L84.05-20.31Q83.63-20.31 82.54-21.92Q81.46-23.54 80.54-24.08L80.54-24.08Q78.47-25.31 76.11-25.31L76.11-25.31Q71.83-25.31 69.41-21.78L69.41-21.78Q67.43-18.87 67.43-14.28L67.43-14.28Q67.43-8.48 69.60-5.43L69.60-5.43Q72.06-1.95 76.73-1.95L76.73-1.95Q79.17-1.95 80.95-3.03L80.95-3.03Q81.83-3.55 83-4.84Q84.17-6.13 84.85-6.13Q85.52-6.13 85.52-5.25Q85.52-4.38 84.85-3.09Q84.17-1.80 83.39-1.31Q82.61-0.82 80.37-0.26Q78.14 0.29 76.55 0.29L76.55 0.29L75.19 0.29Q72.71 0.27 70.30-0.74L70.30-0.74Q65.52-2.79 63.84-7.91L63.84-7.91Q63-10.47 63-13.24L63-13.24Z M101.75-27.13L102.61-27.13Q103.88-27.13 103.88-26.50L103.88-26.50Q103.88-26.02 102.83-25.51Q101.79-25 101.47-24.18Q101.16-23.36 101.16-17.71L101.16-17.71L101.16-16.84L101.18-15.96L101.18-15.08L101.16-14.65Q101.14-14.20 101.14-13.75L101.14-13.75L101.10-12.87L101.08-11.97L101.08-10.20L101.10-8.85L101.14-7.07L101.18-6.19Q101.20-5.74 101.20-5.33L101.20-5.33Q101.20-3.11 101.79-2.34L101.79-2.34Q102.10-1.93 103.10-1.58Q104.11-1.23 104.11-0.74L104.11-0.74Q104.11 0.08 102.86 0.08L102.86 0.08L102 0.08L101.55 0.06Q101.12 0.04 100.67 0.04L100.67 0.04L99.79 0Q99.36-0.02 98.91-0.02L98.91-0.02L97.18 0.02Q93.80 0.02 93.80-0.66L93.80-0.66Q93.80-1.19 94.95-1.72Q96.10-2.25 96.36-2.95L96.36-2.95Q96.86-4.36 96.86-10.06L96.86-10.06L96.86-10.94L96.84-12.25Q96.84-12.70 96.84-13.14L96.84-13.14L96.86-13.57Q96.88-14.02 96.88-14.47L96.88-14.47L96.92-15.35Q96.94-15.80 96.94-16.68L96.94-16.68L96.92-17.56L96.90-18.01L96.88-19.34Q96.88-22.87 96.36-24.22L96.36-24.22Q96.04-25 95.20-25.29L95.20-25.29Q93.70-25.82 93.70-26.31L93.70-26.31Q93.70-27.09 96.71-27.09L96.71-27.09L97.55-27.07L97.98-27.05L99.23-27.05L101.75-27.13Z M122.91-25.43L122.91-25.43L121.94-25.43Q119.73-25.43 119.46-24.53L119.46-24.53Q119.34-24.14 119.34-18.91L119.34-18.91L119.34-13.32L119.32-12.66L119.32-11.00L119.30-10.31L119.30-8.65L119.28-7.30L119.28-5.33Q119.28-3.13 119.68-2.49Q120.08-1.86 122.35-1.86L122.35-1.86L123.32-1.86Q129.81-1.88 132.07-8.20L132.07-8.20Q132.82-10.31 132.82-12.54L132.82-12.54L132.82-13.98Q132.82-16.21 132.17-18.52L132.17-18.52Q130.92-22.97 126.96-24.69L126.96-24.69Q125.24-25.43 122.91-25.43ZM122.86-27.25L124.38-27.25Q126.96-27.25 129.44-26.39L129.44-26.39Q131.92-25.55 133.68-23.79L133.68-23.79Q137.39-20.08 137.39-13.72Q137.39-7.36 133.27-3.46L133.27-3.46Q129.48 0.10 123.27 0.10L123.27 0.10L122.80 0.10L122.31 0.08L120.36 0.04Q119.87 0.02 119.38 0.02L119.38 0.02L117.95-0.02L116.55-0.02Q112.60-0.02 112.60-0.61Q112.60-1.19 113.83-1.69Q115.06-2.19 115.34-3.15Q115.61-4.12 115.61-12.81Q115.61-21.50 115.34-23.00Q115.06-24.49 114.70-24.79Q114.34-25.08 113.39-25.37Q112.45-25.66 112.45-26.07L112.45-26.07L112.45-26.39Q112.45-26.99 116.12-26.99L116.12-26.99L122.86-27.25Z M147.12-25.54Q146.00-25.90 146.00-26.57Q146.00-27.25 147.62-27.25L147.62-27.25L148.77-27.25L149.36-27.23L151.09-27.21Q154.65-27.21 155.37-27.04Q156.09-26.88 156.09-26.29L156.09-26.29Q156.09-25.90 154.92-25.32Q153.75-24.75 153.54-23.71L153.54-23.71Q153.09-21.60 153.09-12.71Q153.09-3.83 153.44-3.22L153.44-3.22Q153.95-2.34 157.37-2.34Q160.80-2.34 161.94-2.89Q163.09-3.44 164.19-5.17Q165.29-6.89 165.74-6.89L165.74-6.89Q166.46-6.89 166.46-5.68L166.46-5.68Q166.46-1.46 165.35-0.53L165.35-0.53Q164.69 0.04 158.85 0.04L158.85 0.04L157.11 0.04L156.52 0.02L155.37 0.02Q146.00 0.02 146.00-0.76L146.00-0.76Q146.00-1.27 147.02-1.88Q148.05-2.48 148.40-3.69Q148.75-4.90 148.75-11.39L148.75-11.39L148.83-19.61Q148.83-23.89 148.54-24.53Q148.24-25.18 147.12-25.54Z M181.60-27.13L182.46-27.13Q183.73-27.13 183.73-26.50L183.73-26.50Q183.73-26.02 182.68-25.51Q181.64-25 181.32-24.18Q181.01-23.36 181.01-17.71L181.01-17.71L181.01-16.84L181.03-15.96L181.03-15.08L181.01-14.65Q180.99-14.20 180.99-13.75L180.99-13.75L180.95-12.87L180.93-11.97L180.93-10.20L180.95-8.85L180.99-7.07L181.03-6.19Q181.05-5.74 181.05-5.33L181.05-5.33Q181.05-3.11 181.64-2.34L181.64-2.34Q181.95-1.93 182.96-1.58Q183.96-1.23 183.96-0.74L183.96-0.74Q183.96 0.08 182.71 0.08L182.71 0.08L181.85 0.08L181.40 0.06Q180.97 0.04 180.52 0.04L180.52 0.04L179.64 0Q179.21-0.02 178.77-0.02L178.77-0.02L177.03 0.02Q173.65 0.02 173.65-0.66L173.65-0.66Q173.65-1.19 174.80-1.72Q175.95-2.25 176.21-2.95L176.21-2.95Q176.71-4.36 176.71-10.06L176.71-10.06L176.71-10.94L176.70-12.25Q176.70-12.70 176.70-13.14L176.70-13.14L176.71-13.57Q176.73-14.02 176.73-14.47L176.73-14.47L176.77-15.35Q176.79-15.80 176.79-16.68L176.79-16.68L176.77-17.56L176.75-18.01L176.73-19.34Q176.73-22.87 176.21-24.22L176.21-24.22Q175.89-25 175.05-25.29L175.05-25.29Q173.55-25.82 173.55-26.31L173.55-26.31Q173.55-27.09 176.56-27.09L176.56-27.09L177.40-27.07L177.83-27.05L179.08-27.05L181.60-27.13Z M201.52-25.33L201.52-25.33L201.16-25.33Q199.35-25.33 199.13-24.65L199.13-24.65Q199.00-24.18 199.00-21.95L199.00-21.95L199.00-19.55L198.98-19.04L198.98-17.13Q198.98-15.53 199.23-15.25Q199.48-14.98 200.48-14.98L200.48-14.98L201.87-14.98Q204.86-14.98 206.20-16.11L206.20-16.11Q207.96-17.60 207.96-19.98L207.96-19.98L207.96-20.53Q207.96-22.99 205.95-24.38L205.95-24.38Q204.56-25.33 201.52-25.33ZM202.67-13.20L202.67-13.20L200.91-13.20Q199.35-13.20 199.15-12.75Q198.96-12.30 198.96-9.57L198.96-9.57L198.96-4.84Q198.96-2.66 199.19-2.32L199.19-2.32Q199.64-1.68 201.69-1.68L201.69-1.68L202.90-1.68Q207.39-1.68 208.80-4.61L208.80-4.61Q209.35-5.78 209.35-7.11L209.35-7.11L209.35-7.32L209.33-7.54Q209.33-10.29 207.51-11.75Q205.70-13.20 202.67-13.20ZM197.53 0.06L195.54 0.06Q192.20 0.06 192.20-0.63L192.20-0.63Q192.20-1.21 193.27-1.61Q194.35-2.01 194.67-2.86Q194.99-3.71 194.99-8.01L194.99-8.01L195.01-8.52Q195.03-9.02 195.03-9.53L195.03-9.53L195.05-10.04L195.05-11.07L195.03-12.60Q195.03-13.38 195.03-14.16L195.03-14.16Q195.03-22.79 194.60-24.08L194.60-24.08Q194.33-24.88 193.16-25.32Q191.98-25.76 191.98-26.29L191.98-26.29Q191.98-27.05 196.09-27.05L196.09-27.05L199.11-27.11L202.18-27.11Q206.69-27.11 209.16-25.44Q211.63-23.77 211.63-20.53L211.63-20.53Q211.63-18.57 210.67-17.22Q209.70-15.86 208.57-15.17Q207.43-14.47 207.43-14.34Q207.43-14.20 208.45-13.73Q209.46-13.26 209.56-13.20L209.56-13.20Q210.91-12.44 211.79-11.33L211.79-11.33Q213.29-9.43 213.29-7.25L213.29-7.25L213.29-6.74Q213.29-5.27 212.63-3.95L212.63-3.95Q211.36-1.48 208.16-0.47L208.16-0.47Q206.03 0.20 203.66 0.20L203.66 0.20L202.12 0.20L199.05 0.12L197.53 0.06Z"/></g>
</svg>
</g></svg></svg>