<svg version="1.1" preserveAspectRatio="none" xmlns="http://www.w3.org/2000/svg" width="500" height="500" viewBox="0 0 500 500"><rect width="100%" height="100%" fill="#111931" fill-opacity="1"/><svg viewBox="-62.6452 141.8931 386.756 128" width="333" height="110.20902067453382" x="83.5px" y="194.8955px" xmlns="http://www.w3.org/2000/svg" xmlns:xlink="http://www.w3.org/1999/xlink" preserveAspectRatio="none"><defs></defs><style>.icon1 {fill:#FFBDBD;fill-opacity:1;}.icon3 {fill:#EBF5C8;fill-opacity:1;}.icon3-str {stroke:#EBF5C8;stroke-opacity:1;}</style><g opacity="1" transform="rotate(0 -62.6452 245.8931)">
<svg width="258.7233" height="24" x="-62.6452" y="245.8931" version="1.1" preserveAspectRatio="none" viewBox="3.96 -29.68 405.64000000000004 37.64">
  <g transform="matrix(1 0 0 1 0 0)" class="icon3"><path id="id-6izo4zJp17" d="M14.68-21.20Q18.64-21.20 20.98-18.90Q23.32-16.60 23.32-12.20L23.32-12.20L23.32 0L20.48 0L20.48-11.92Q20.48-15.20 18.84-16.92Q17.20-18.64 14.16-18.64L14.16-18.64Q10.76-18.64 8.78-16.62Q6.80-14.60 6.80-11.04L6.80-11.04L6.80 0L3.96 0L3.96-21.04L6.68-21.04L6.68-17.16Q7.84-19.08 9.90-20.14Q11.96-21.20 14.68-21.20L14.68-21.20Z M41.72 0.20Q38.68 0.20 36.24-1.18Q33.80-2.56 32.40-5Q31-7.44 31-10.52L31-10.52Q31-13.60 32.40-16.04Q33.80-18.48 36.24-19.84Q38.68-21.20 41.72-21.20L41.72-21.20Q44.76-21.20 47.20-19.84Q49.64-18.48 51.02-16.04Q52.40-13.60 52.40-10.52L52.40-10.52Q52.40-7.44 51.02-5Q49.64-2.56 47.20-1.18Q44.76 0.20 41.72 0.20L41.72 0.20ZM41.72-2.32Q43.96-2.32 45.74-3.34Q47.52-4.36 48.52-6.24Q49.52-8.12 49.52-10.52L49.52-10.52Q49.52-12.92 48.52-14.80Q47.52-16.68 45.74-17.70Q43.96-18.72 41.72-18.72L41.72-18.72Q39.48-18.72 37.70-17.70Q35.92-16.68 34.90-14.80Q33.88-12.92 33.88-10.52L33.88-10.52Q33.88-8.12 34.90-6.24Q35.92-4.36 37.70-3.34Q39.48-2.32 41.72-2.32L41.72-2.32Z M70.28-3.32L71.28-1.28Q70.48-0.56 69.30-0.18Q68.12 0.20 66.84 0.20L66.84 0.20Q63.88 0.20 62.28-1.40Q60.68-3 60.68-5.92L60.68-5.92L60.68-18.64L56.92-18.64L56.92-21.04L60.68-21.04L60.68-25.64L63.52-25.64L63.52-21.04L69.92-21.04L69.92-18.64L63.52-18.64L63.52-6.08Q63.52-4.20 64.46-3.22Q65.40-2.24 67.16-2.24L67.16-2.24Q68.04-2.24 68.86-2.52Q69.68-2.80 70.28-3.32L70.28-3.32Z M98.28-21.20Q102.40-21.20 104.60-19.14Q106.80-17.08 106.80-13.04L106.80-13.04L106.80 0L104.08 0L104.08-3.28Q103.12-1.64 101.26-0.72Q99.40 0.20 96.84 0.20L96.84 0.20Q93.32 0.20 91.24-1.48Q89.16-3.16 89.16-5.92L89.16-5.92Q89.16-8.60 91.10-10.24Q93.04-11.88 97.28-11.88L97.28-11.88L103.96-11.88L103.96-13.16Q103.96-15.88 102.44-17.30Q100.92-18.72 98.00-18.72L98.00-18.72Q96.00-18.72 94.16-18.06Q92.32-17.40 91.00-16.24L91.00-16.24L89.72-18.36Q91.32-19.72 93.56-20.46Q95.80-21.20 98.28-21.20L98.28-21.20ZM97.28-2.04Q99.68-2.04 101.40-3.14Q103.12-4.24 103.96-6.32L103.96-6.32L103.96-9.76L97.36-9.76Q91.96-9.76 91.96-6L91.96-6Q91.96-4.16 93.36-3.10Q94.76-2.04 97.28-2.04L97.28-2.04Z M116.52 0L116.52-29.68L119.36-29.68L119.36 0L116.52 0Z M137.88 0.20Q134.84 0.20 132.40-1.18Q129.96-2.56 128.56-5Q127.16-7.44 127.16-10.52L127.16-10.52Q127.16-13.60 128.56-16.04Q129.96-18.48 132.40-19.84Q134.84-21.20 137.88-21.20L137.88-21.20Q140.92-21.20 143.36-19.84Q145.80-18.48 147.18-16.04Q148.56-13.60 148.56-10.52L148.56-10.52Q148.56-7.44 147.18-5Q145.80-2.56 143.36-1.18Q140.92 0.20 137.88 0.20L137.88 0.20ZM137.88-2.32Q140.12-2.32 141.90-3.34Q143.68-4.36 144.68-6.24Q145.68-8.12 145.68-10.52L145.68-10.52Q145.68-12.92 144.68-14.80Q143.68-16.68 141.90-17.70Q140.12-18.72 137.88-18.72L137.88-18.72Q135.64-18.72 133.86-17.70Q132.08-16.68 131.06-14.80Q130.04-12.92 130.04-10.52L130.04-10.52Q130.04-8.12 131.06-6.24Q132.08-4.36 133.86-3.34Q135.64-2.32 137.88-2.32L137.88-2.32Z M167.08-21.20Q171.04-21.20 173.38-18.90Q175.72-16.60 175.72-12.20L175.72-12.20L175.72 0L172.88 0L172.88-11.92Q172.88-15.20 171.24-16.92Q169.60-18.64 166.56-18.64L166.56-18.64Q163.16-18.64 161.18-16.62Q159.20-14.60 159.20-11.04L159.20-11.04L159.20 0L156.36 0L156.36-21.04L159.08-21.04L159.08-17.16Q160.24-19.08 162.30-20.14Q164.36-21.20 167.08-21.20L167.08-21.20Z M203.88-10.52L203.84-9.64L186.24-9.64Q186.48-6.36 188.76-4.34Q191.04-2.32 194.52-2.32L194.52-2.32Q196.48-2.32 198.12-3.02Q199.76-3.72 200.96-5.08L200.96-5.08L202.56-3.24Q201.16-1.56 199.06-0.68Q196.96 0.20 194.44 0.20L194.44 0.20Q191.20 0.20 188.70-1.18Q186.20-2.56 184.80-5Q183.40-7.44 183.40-10.52L183.40-10.52Q183.40-13.60 184.74-16.04Q186.08-18.48 188.42-19.84Q190.76-21.20 193.68-21.20L193.68-21.20Q196.60-21.20 198.92-19.84Q201.24-18.48 202.56-16.06Q203.88-13.64 203.88-10.52L203.88-10.52ZM193.68-18.76Q190.64-18.76 188.58-16.82Q186.52-14.88 186.24-11.76L186.24-11.76L201.16-11.76Q200.88-14.88 198.82-16.82Q196.76-18.76 193.68-18.76L193.68-18.76Z M231.52-21.20Q235.64-21.20 237.84-19.14Q240.04-17.08 240.04-13.04L240.04-13.04L240.04 0L237.32 0L237.32-3.28Q236.36-1.64 234.50-0.72Q232.64 0.20 230.08 0.20L230.08 0.20Q226.56 0.20 224.48-1.48Q222.40-3.16 222.40-5.92L222.40-5.92Q222.40-8.60 224.34-10.24Q226.28-11.88 230.52-11.88L230.52-11.88L237.20-11.88L237.20-13.16Q237.20-15.88 235.68-17.30Q234.16-18.72 231.24-18.72L231.24-18.72Q229.24-18.72 227.40-18.06Q225.56-17.40 224.24-16.24L224.24-16.24L222.96-18.36Q224.56-19.72 226.80-20.46Q229.04-21.20 231.52-21.20L231.52-21.20ZM230.52-2.04Q232.92-2.04 234.64-3.14Q236.36-4.24 237.20-6.32L237.20-6.32L237.20-9.76L230.60-9.76Q225.20-9.76 225.20-6L225.20-6Q225.20-4.16 226.60-3.10Q228.00-2.04 230.52-2.04L230.52-2.04Z M260.48-21.20Q264.44-21.20 266.78-18.90Q269.12-16.60 269.12-12.20L269.12-12.20L269.12 0L266.28 0L266.28-11.92Q266.28-15.20 264.64-16.92Q263-18.64 259.96-18.64L259.96-18.64Q256.56-18.64 254.58-16.62Q252.60-14.60 252.60-11.04L252.60-11.04L252.60 0L249.76 0L249.76-21.04L252.48-21.04L252.48-17.16Q253.64-19.08 255.70-20.14Q257.76-21.20 260.48-21.20L260.48-21.20Z M293.32-21.04L296.12-21.04L285.60 2.52Q284.32 5.48 282.64 6.72Q280.96 7.96 278.60 7.96L278.60 7.96Q277.08 7.96 275.76 7.48Q274.44 7 273.48 6.04L273.48 6.04L274.80 3.92Q276.40 5.52 278.64 5.52L278.64 5.52Q280.08 5.52 281.10 4.72Q282.12 3.92 283 2L283 2L283.92-0.04L274.52-21.04L277.48-21.04L285.40-3.16L293.32-21.04Z M328.36-21.20Q332.32-21.20 334.58-18.92Q336.84-16.64 336.84-12.20L336.84-12.20L336.84 0L334 0L334-11.92Q334-15.20 332.42-16.92Q330.84-18.64 327.96-18.64L327.96-18.64Q324.68-18.64 322.80-16.62Q320.92-14.60 320.92-11.04L320.92-11.04L320.92 0L318.08 0L318.08-11.92Q318.08-15.20 316.50-16.92Q314.92-18.64 312-18.64L312-18.64Q308.76-18.64 306.86-16.62Q304.96-14.60 304.96-11.04L304.96-11.04L304.96 0L302.12 0L302.12-21.04L304.84-21.04L304.84-17.20Q305.96-19.12 307.96-20.16Q309.96-21.20 312.56-21.20L312.56-21.20Q315.20-21.20 317.14-20.08Q319.08-18.96 320.04-16.76L320.04-16.76Q321.20-18.84 323.38-20.02Q325.56-21.20 328.36-21.20L328.36-21.20Z M355.24 0.20Q352.20 0.20 349.76-1.18Q347.32-2.56 345.92-5Q344.52-7.44 344.52-10.52L344.52-10.52Q344.52-13.60 345.92-16.04Q347.32-18.48 349.76-19.84Q352.20-21.20 355.24-21.20L355.24-21.20Q358.28-21.20 360.72-19.84Q363.16-18.48 364.54-16.04Q365.92-13.60 365.92-10.52L365.92-10.52Q365.92-7.44 364.54-5Q363.16-2.56 360.72-1.18Q358.28 0.20 355.24 0.20L355.24 0.20ZM355.24-2.32Q357.48-2.32 359.26-3.34Q361.04-4.36 362.04-6.24Q363.04-8.12 363.04-10.52L363.04-10.52Q363.04-12.92 362.04-14.80Q361.04-16.68 359.26-17.70Q357.48-18.72 355.24-18.72L355.24-18.72Q353-18.72 351.22-17.70Q349.44-16.68 348.42-14.80Q347.40-12.92 347.40-10.52L347.40-10.52Q347.40-8.12 348.42-6.24Q349.44-4.36 351.22-3.34Q353-2.32 355.24-2.32L355.24-2.32Z M376.44-16.92Q377.44-19.04 379.42-20.12Q381.40-21.20 384.32-21.20L384.32-21.20L384.32-18.44L383.64-18.48Q380.32-18.48 378.44-16.44Q376.56-14.40 376.56-10.72L376.56-10.72L376.56 0L373.72 0L373.72-21.04L376.44-21.04L376.44-16.92Z M409.60-10.52L409.56-9.64L391.96-9.64Q392.20-6.36 394.48-4.34Q396.76-2.32 400.24-2.32L400.24-2.32Q402.20-2.32 403.84-3.02Q405.48-3.72 406.68-5.08L406.68-5.08L408.28-3.24Q406.88-1.56 404.78-0.68Q402.68 0.20 400.16 0.20L400.16 0.20Q396.92 0.20 394.42-1.18Q391.92-2.56 390.52-5Q389.12-7.44 389.12-10.52L389.12-10.52Q389.12-13.60 390.46-16.04Q391.80-18.48 394.14-19.84Q396.48-21.20 399.40-21.20L399.40-21.20Q402.32-21.20 404.64-19.84Q406.96-18.48 408.28-16.06Q409.60-13.64 409.60-10.52L409.60-10.52ZM399.40-18.76Q396.36-18.76 394.30-16.82Q392.24-14.88 391.96-11.76L391.96-11.76L406.88-11.76Q406.60-14.88 404.54-16.82Q402.48-18.76 399.40-18.76L399.40-18.76Z"/></g>
</svg>
</g><g opacity="1" transform="rotate(0 -62.6452 141.8931)">
<svg width="386.756" height="80" x="-62.6452" y="141.8931" version="1.1" preserveAspectRatio="none" viewBox="-0.746 -31.5782 167.311 34.608200000000004">
  <g transform="matrix(1 0 0 1 0 0)" class="icon1"><path id="id-D6z1nYkh8" d="M13.84 1.92Q13 2.16 12.24 2.18Q11.48 2.20 10.70 2.24Q9.92 2.28 8.56 2.28Q7.20 2.28 4.48 2.20L4.48 2.20Q3.84 2.24 3.20 2.24Q2.56 2.24 2 2L2 2Q0.76 1.48 0.32-0.40L0.32-0.40Q0.12-1.28-0.14-1.64Q-0.40-2-0.56-2.32L-0.56-2.32Q-0.96-2.96-0.50-4.44Q-0.04-5.92 0.68-8.10Q1.40-10.28 2.32-12.72L2.32-12.72Q4.48-18.52 6.20-21.92L6.20-21.92Q6.88-23.44 7.38-24.56Q7.88-25.68 8.28-26.50Q8.68-27.32 8.68-27.36L8.68-27.36Q9.08-28.88 11.76-29.92L11.76-29.92Q14.36-31 16.48-30.48L16.48-30.48Q18.84-29.88 18.56-27.36L18.56-27.36Q18-24.88 16.90-22.40Q15.80-19.92 14.40-17.20Q13-14.48 11.36-11.44Q9.72-8.40 8.12-4.84L8.12-4.84Q8.08-4.68 8.28-4.56L8.28-4.56Q8.80-4.60 9.74-4.88Q10.68-5.16 11.70-5.38Q12.72-5.60 13.72-5.60Q14.72-5.60 15.40-5.08L15.40-5.08Q15.36-4.36 15.76-3.94Q16.16-3.52 16.56-3.12L16.56-3.12Q17.56-2.08 16.72-0.36L16.72-0.36Q15.92 1.32 13.84 1.92L13.84 1.92Z M32.40-28.96L32.40-28.96L32.40-28.88Q32.40-28.84 32.42-28.84Q32.44-28.84 32.44-28.80L32.44-28.80L32.44-28.72L32.48-28.72L32.72-28.08Q33.12-26.92 30.64-20.88L30.64-20.88Q28-14.44 28.20-10.84L28.20-10.84Q28.64-8.28 32.48-14.96L32.48-14.96Q35.52-20.16 38.36-26.36L38.36-26.36Q38.72-27.20 39.12-28.10Q39.52-29 40.12-29.60L40.12-29.60Q41.44-31.04 43.32-30.36L43.32-30.36Q43.96-31.12 44.82-31.40Q45.68-31.68 46.46-31.52Q47.24-31.36 47.80-30.78Q48.36-30.20 48.40-29.24L48.40-29.24Q48.52-28.44 47.58-25.44Q46.64-22.44 45.84-19.96Q45.04-17.48 44.20-14.56L44.20-14.56Q42.16-7.64 40.96-1.52L40.96-1.52Q40.92-0.24 39.86 0.60Q38.80 1.44 37.50 1.70Q36.20 1.96 35.04 1.60L35.04 1.60Q33.64 1.20 33.56-0.40L33.56-0.40Q33.56-0.84 33.52-1.28L33.52-1.28Q33.60 0.08 31.56 1.04L31.56 1.04Q31 1.32 30.52 1.56L30.52 1.56Q27.72 2.40 24.64 1.20L24.64 1.20Q23.20 0.60 22.06-0.42Q20.92-1.44 20.48-2.84L20.48-2.84Q19.08-7.32 21-14.60L21-14.60Q21.80-17.72 22.96-20.68Q24.12-23.64 24.66-24.96Q25.20-26.28 25.44-26.78Q25.68-27.28 25.96-27.76L25.96-27.76Q26.64-29.12 27.12-29.60L27.12-29.60L27.60-30.04Q27.68-30.12 27.76-30.14Q27.84-30.16 27.96-30.24L27.96-30.24Q28.28-30.44 28.64-30.52L28.64-30.52L29.20-30.64L29.44-30.64Q30.60-30.80 31.44-30.16L31.44-30.16Q31.44-30.12 31.52-30.12L31.52-30.12L31.84-29.84L31.96-29.72L32.08-29.56Q32.08-29.52 32.10-29.52Q32.12-29.52 32.12-29.48L32.12-29.48L32.16-29.44L32.16-29.36Q32.20-29.36 32.20-29.32L32.20-29.32L32.20-29.28Q32.24-29.24 32.28-29.24L32.28-29.24L32.28-29.20Q32.28-29.16 32.30-29.16Q32.32-29.16 32.32-29.14Q32.32-29.12 32.36-29.08L32.36-29.08L32.36-29.04Q32.36-29 32.40-28.96ZM33.48-2.28L33.48-2.32L33.48-2.44Q33.44-2.40 33.44-2.12L33.44-2.12Q33.44-2.24 33.48-2.28L33.48-2.28Z M64.04-19.92L64.04-19.92Q64.04-21.12 63.20-21.12L63.20-21.12Q62.88-21.12 62.44-20.96Q62-20.80 61.60-20.68L61.60-20.68Q60.12-19.88 59.30-18.94Q58.48-18 57.64-16.84Q56.80-15.68 56.20-14.36Q55.60-13.04 55.28-11.88L55.28-11.88Q54.12-7.60 56.16-6.12L56.16-6.12Q57-5.52 57.94-5.54Q58.88-5.56 59.46-5.92Q60.04-6.28 60.60-6.60Q61.16-6.92 61.90-7.06Q62.64-7.20 63.74-6.86Q64.84-6.52 64.92-5.96Q65-5.40 64.92-4.80Q64.84-4.20 64.90-3.72Q64.96-3.24 65.76-3.12L65.76-3.12Q66.52-2.16 64.80-0.80L64.80-0.80Q64.36-0.44 63.96-0.12L63.96-0.12Q60.52 2.08 56.64 2.32L56.64 2.32Q54.20 2.48 51.44 1.44L51.44 1.44Q47.32-0.12 46.80-5.56L46.80-5.56Q46.12-10.60 48.08-16L48.08-16Q49.72-20.56 53.04-24.44L53.04-24.44Q56.04-28 58.96-29.08L58.96-29.08Q62.44-30.88 66.48-30.48L66.48-30.48Q70.76-29.92 72.08-26.84L72.08-26.84Q73.40-23.76 71.64-19.44L71.64-19.44Q71.04-17.92 69.36-17.04L69.36-17.04Q67.92-16.24 66.24-16.24Q64.56-16.24 64.08-17.30Q63.60-18.36 64.04-19.92Z M85.88-27.04L85.88-27.04Q84.48-22.68 83.30-19.16Q82.12-15.64 81.14-12.68Q80.16-9.72 79.32-7.22Q78.48-4.72 77.76-2.44L77.76-2.44Q77.36 0.20 75.16 1.28L75.16 1.28Q73.88 1.88 72.12 1.88Q70.36 1.88 69.48 1.50Q68.60 1.12 68.34 0.40Q68.08-0.32 68.34-1.34Q68.60-2.36 69.24-4.14Q69.88-5.92 70.86-8.96Q71.84-12 72.92-15.12L72.92-15.12Q75.60-22.92 77.16-25.92L77.16-25.92Q77.76-27.04 78.36-27.42Q78.96-27.80 79.52-27.98Q80.08-28.16 80.56-28.40Q81.04-28.64 81.42-29.60Q81.80-30.56 82.82-30.92Q83.84-31.28 84.74-30.98Q85.64-30.68 86.10-29.70Q86.56-28.72 85.88-27.04Z M108.56-16.24L108.56-16.24Q108.40-14.52 107.94-12.72Q107.48-10.92 106.62-9.20Q105.76-7.48 104.58-5.88Q103.40-4.28 101.96-2.92Q100.52-1.56 98.88-0.64L98.88-0.64Q95.36 1.44 92.08 0.84L92.08 0.84Q91.36 2.40 89.94 2.82Q88.52 3.24 87.14 2.82Q85.76 2.40 84.72 1.24Q83.68 0.08 83.68-1.94Q83.68-3.96 83.96-6.08Q84.24-8.20 84.72-10.16L84.72-10.16Q85.48-13.40 86.60-16.24L86.60-16.24Q89.24-22.68 89.60-25.28L89.60-25.28Q90.12-28.76 91.52-29.60L91.52-29.60Q93.84-30.96 95.92-30.76Q98-30.56 99.68-29.76L99.68-29.76Q102.44-28.44 105.64-25.32L105.64-25.32Q109.16-21.92 108.56-16.24ZM93-5.76L92.84-4.24Q94.88-5.28 96.14-6.38Q97.40-7.48 98.52-8.40L98.52-8.40Q100.24-10.12 101.04-12.48L101.04-12.48Q102.80-17.68 98.80-20.36L98.80-20.36Q98.20-20.80 97-21.56L97-21.56Q96.44-20.28 96.18-18.88Q95.92-17.48 95.48-16.16L95.48-16.16L94.40-12.64L93.52-8.84Q93.44-8.04 93.28-7.30Q93.12-6.56 93-5.76L93-5.76Z M121.28 1.92Q120.44 2.16 119.68 2.18Q118.92 2.20 118.14 2.24Q117.36 2.28 116.00 2.28Q114.64 2.28 111.92 2.20L111.92 2.20Q111.28 2.24 110.64 2.24Q110.00 2.24 109.44 2L109.44 2Q108.20 1.48 107.76-0.40L107.76-0.40Q107.56-1.28 107.30-1.64Q107.04-2 106.88-2.32L106.88-2.32Q106.48-2.96 106.94-4.44Q107.40-5.92 108.12-8.10Q108.84-10.28 109.76-12.72L109.76-12.72Q111.92-18.52 113.64-21.92L113.64-21.92Q114.32-23.44 114.82-24.56Q115.32-25.68 115.72-26.50Q116.12-27.32 116.12-27.36L116.12-27.36Q116.52-28.88 119.20-29.92L119.20-29.92Q121.80-31 123.92-30.48L123.92-30.48Q126.28-29.88 126.00-27.36L126.00-27.36Q125.44-24.88 124.34-22.40Q123.24-19.92 121.84-17.20Q120.44-14.48 118.80-11.44Q117.16-8.40 115.56-4.84L115.56-4.84Q115.52-4.68 115.72-4.56L115.72-4.56Q116.24-4.60 117.18-4.88Q118.12-5.16 119.14-5.38Q120.16-5.60 121.16-5.60Q122.16-5.60 122.84-5.08L122.84-5.08Q122.80-4.36 123.20-3.94Q123.60-3.52 124.00-3.12L124.00-3.12Q125.00-2.08 124.16-0.36L124.16-0.36Q123.36 1.32 121.28 1.92L121.28 1.92Z M143-27.04L143-27.04Q141.60-22.68 140.42-19.16Q139.24-15.64 138.26-12.68Q137.28-9.72 136.44-7.22Q135.60-4.72 134.88-2.44L134.88-2.44Q134.48 0.20 132.28 1.28L132.28 1.28Q131 1.88 129.24 1.88Q127.48 1.88 126.60 1.50Q125.72 1.12 125.46 0.40Q125.20-0.32 125.46-1.34Q125.72-2.36 126.36-4.14Q127-5.92 127.98-8.96Q128.96-12 130.04-15.12L130.04-15.12Q132.72-22.92 134.28-25.92L134.28-25.92Q134.88-27.04 135.48-27.42Q136.08-27.80 136.64-27.98Q137.20-28.16 137.68-28.40Q138.16-28.64 138.54-29.60Q138.92-30.56 139.94-30.92Q140.96-31.28 141.86-30.98Q142.76-30.68 143.22-29.70Q143.68-28.72 143-27.04Z M161.92-30.16L161.92-30.16L162.08-30.12Q163.08-29.52 163.82-28.78Q164.56-28.04 165.18-27.22Q165.80-26.40 166.16-25.44L166.16-25.44Q167.68-21.76 163.52-17.20L163.52-17.20Q161.76-15.28 159.56-13.92L159.56-13.92Q160.12-13.52 160.62-13.34Q161.12-13.16 162.04-12.66Q162.96-12.16 163.24-10.78Q163.52-9.40 163.10-7.68Q162.68-5.96 161.58-4.14Q160.48-2.32 158.72-0.88L158.72-0.88Q154.72 2.44 149.44 1.92L149.44 1.92Q148.68 1.92 148.48 1.80Q148.28 1.68 148.16 1.60Q148.04 1.52 147.64 1.48L147.64 1.48Q146.64 2.28 145.36 2.48Q144.08 2.68 142.94 2.28Q141.80 1.88 141.02 0.92Q140.24-0.04 140.24-1.60L140.24-1.60Q140.36-2.64 140.64-3.24L140.64-3.24Q140.52-3.60 140.52-4.12L140.52-4.12Q141.88-11.36 143.08-15.20L143.08-15.20Q145.52-22.84 148.36-26.72L148.36-26.72Q150.68-30 154.80-30.96L154.80-30.96Q158.76-31.88 161.92-30.16ZM149.32-2.24L149.48-2.24Q149.96-2.36 150.30-2.30Q150.64-2.24 151.12-2.32L151.12-2.32Q152.28-2.44 154.24-3.76L154.24-3.76Q155.48-5 155.56-6.20Q155.64-7.40 155.20-7.74Q154.76-8.08 154.02-8.08Q153.28-8.08 152.38-7.86Q151.48-7.64 150.64-7.60L150.64-7.60L150.64-7.52Q150.44-6.72 150.24-6.12Q150.04-5.52 149.88-4.96L149.88-4.96Q149.52-3.64 149.32-2.24L149.32-2.24ZM156.92-23.04L156.92-23.04Q155.72-23.20 154.32-21.16L154.32-21.16Q153.44-19.88 152.96-17.28L152.96-17.28Q153.80-17.64 154.62-17.90Q155.44-18.16 156.16-18.48L156.16-18.48Q157.92-19.24 158.68-20.32L158.68-20.32Q159.56-21.36 159.24-22.08L159.24-22.08Q158.76-22.72 157.68-23.24L157.68-23.24Q157.36-22.96 156.92-23.04ZM156.44-23.20L156.32-23.20L156.44-23.20Z"/></g>
</svg>
</g></svg></svg>