<svg version="1.1" preserveAspectRatio="none" xmlns="http://www.w3.org/2000/svg" width="500" height="500" viewBox="0 0 500 500"><rect width="100%" height="100%" fill="#414141" fill-opacity="1"/><svg viewBox="65.2937 157.9118 389.192 309.1764" width="333" height="264.53714670394044" x="83.5px" y="117.7314px" xmlns="http://www.w3.org/2000/svg" xmlns:xlink="http://www.w3.org/1999/xlink" preserveAspectRatio="none"><defs></defs><style>.companyName {fill:#E9E9E9;fill-opacity:1;}.icon3-str {stroke:#888888;stroke-opacity:1;}.shape {fill:#282828;fill-opacity:1;}.shapeStroke-str {stroke:#E9E9E9;stroke-opacity:1;}.text {fill:#E9E9E9;fill-opacity:1;}</style><g opacity="1" transform="rotate(0 105.2937 157.9118)">
<svg width="309.192" height="309.1764" x="105.2937" y="157.9118" version="1.1" preserveAspectRatio="none" viewBox="0 0 309.192 309.1764">
  <rect x="0" y="0" width="309.192" height="309.1764" class="shape shapeStroke-str" style="stroke-width:0;" rx="0%" ry="0%" />
</svg>
</g><g opacity="1" transform="rotate(0 126.1769 357.5)">
<svg width="267.4257" height="22" x="126.1769" y="357.5" version="1.1" preserveAspectRatio="none" viewBox="3.72 -29.2 459.47999999999996 37.8">
  <g transform="matrix(1 0 0 1 0 0)" class="text"><path id="id-6izo4zJp17" d="M13.44-20.40Q16.84-20.40 19.04-18.44Q21.24-16.48 21.24-12.80L21.24-12.80L21.24 0L18.04 0L18.04-11.68Q18.04-14.80 16.70-16.20Q15.36-17.60 13.12-17.60L13.12-17.60Q11.52-17.60 10.12-16.90Q8.72-16.20 7.82-14.62Q6.92-13.04 6.92-10.64L6.92-10.64L6.92 0L3.72 0L3.72-20L6.52-20L6.72-16.88Q7.72-18.68 9.48-19.54Q11.24-20.40 13.44-20.40L13.44-20.40Z M42.92-20.40Q47.44-20.40 50.02-17.64Q52.60-14.88 52.60-10L52.60-10Q52.60-5.12 50.02-2.36Q47.44 0.40 42.92 0.40L42.92 0.40Q38.40 0.40 35.82-2.36Q33.24-5.12 33.24-10L33.24-10Q33.24-14.88 35.82-17.64Q38.40-20.40 42.92-20.40L42.92-20.40ZM42.92-17.64Q39.88-17.64 38.16-15.60Q36.44-13.56 36.44-10L36.44-10Q36.44-6.44 38.16-4.40Q39.88-2.36 42.92-2.36L42.92-2.36Q45.96-2.36 47.68-4.40Q49.40-6.44 49.40-10L49.40-10Q49.40-13.56 47.68-15.60Q45.96-17.64 42.92-17.64L42.92-17.64Z M75.56-4.08L76.68-1.40Q74.68 0.40 71.52 0.40L71.52 0.40Q69.08 0.40 67.54-0.92Q66-2.24 65.96-4.96L65.96-4.96L65.96-17.24L61.96-17.24L61.96-20L65.96-20L65.96-24.80L69.16-25.68L69.16-20L76.56-20L76.56-17.24L69.16-17.24L69.16-5.52Q69.16-4.08 69.98-3.34Q70.80-2.60 72.16-2.60L72.16-2.60Q74.08-2.60 75.56-4.08L75.56-4.08Z M123.24-2.32Q124.04-2.32 124.84-2.52L124.84-2.52L124.64 0Q123.52 0.40 122.24 0.40L122.24 0.40Q120.68 0.40 119.78-0.28Q118.88-0.96 118.64-2.56L118.64-2.56Q117.72-1.16 115.94-0.38Q114.16 0.40 112.20 0.40L112.20 0.40Q109.24 0.40 107.32-0.98Q105.40-2.36 105.40-4.96L105.40-4.96Q105.40-7.24 107.40-8.90Q109.40-10.56 113.20-11.20L113.20-11.20L118.52-12.08L118.52-13.20Q118.52-15.20 117.28-16.40Q116.04-17.60 113.84-17.60L113.84-17.60Q111.84-17.60 110.38-16.64Q108.92-15.68 108.12-13.80L108.12-13.80L105.76-15.52Q106.56-17.76 108.74-19.08Q110.92-20.40 113.84-20.40L113.84-20.40Q117.40-20.40 119.56-18.68Q121.72-16.96 121.72-13.60L121.72-13.60L121.72-3.76Q121.72-3.04 122.08-2.68Q122.44-2.32 123.24-2.32L123.24-2.32ZM112.36-2.40Q114.88-2.40 116.70-3.60Q118.52-4.80 118.52-6.72L118.52-6.72L118.52-9.48L114.04-8.64Q111.36-8.16 110.04-7.26Q108.72-6.36 108.72-4.96L108.72-4.96Q108.72-3.72 109.68-3.06Q110.64-2.40 112.36-2.40L112.36-2.40Z M138.52-29.20L138.52-5.36Q138.52-3.84 138.98-3.26Q139.44-2.68 140.68-2.68L140.68-2.68Q141.52-2.68 142.14-2.80Q142.76-2.92 143.60-3.24L143.60-3.24L143.08-0.16Q141.76 0.40 140.12 0.40L140.12 0.40Q137.68 0.40 136.50-0.92Q135.32-2.24 135.32-4.96L135.32-4.96L135.32-29.20L138.52-29.20Z M162.16-20.40Q166.68-20.40 169.26-17.64Q171.84-14.88 171.84-10L171.84-10Q171.84-5.12 169.26-2.36Q166.68 0.40 162.16 0.40L162.16 0.40Q157.64 0.40 155.06-2.36Q152.48-5.12 152.48-10L152.48-10Q152.48-14.88 155.06-17.64Q157.64-20.40 162.16-20.40L162.16-20.40ZM162.16-17.64Q159.12-17.64 157.40-15.60Q155.68-13.56 155.68-10L155.68-10Q155.68-6.44 157.40-4.40Q159.12-2.36 162.16-2.36L162.16-2.36Q165.20-2.36 166.92-4.40Q168.64-6.44 168.64-10L168.64-10Q168.64-13.56 166.92-15.60Q165.20-17.64 162.16-17.64L162.16-17.64Z M193.76-20.40Q197.16-20.40 199.36-18.44Q201.56-16.48 201.56-12.80L201.56-12.80L201.56 0L198.36 0L198.36-11.68Q198.36-14.80 197.02-16.20Q195.68-17.60 193.44-17.60L193.44-17.60Q191.84-17.60 190.44-16.90Q189.04-16.20 188.14-14.62Q187.24-13.04 187.24-10.64L187.24-10.64L187.24 0L184.04 0L184.04-20L186.84-20L187.04-16.88Q188.04-18.68 189.80-19.54Q191.56-20.40 193.76-20.40L193.76-20.40Z M231.96-11.04Q231.96-9.92 231.80-8.80L231.80-8.80L216.72-8.80Q217.00-5.76 218.74-4.08Q220.48-2.40 223.24-2.40L223.24-2.40Q225.44-2.40 226.90-3.16Q228.36-3.92 228.88-5.36L228.88-5.36L231.56-3.96Q230.36-1.84 228.36-0.72Q226.36 0.40 223.24 0.40L223.24 0.40Q218.72 0.40 216.14-2.36Q213.56-5.12 213.56-10L213.56-10Q213.56-14.88 216.02-17.64Q218.48-20.40 223.00-20.40L223.00-20.40Q225.80-20.40 227.84-19.16Q229.88-17.92 230.92-15.80Q231.96-13.68 231.96-11.04L231.96-11.04ZM223.00-17.60Q220.36-17.60 218.74-16.04Q217.12-14.48 216.76-11.64L216.76-11.64L228.88-11.64Q228.56-14.44 227.04-16.02Q225.52-17.60 223.00-17.60L223.00-17.60Z M280.08-2.32Q280.88-2.32 281.68-2.52L281.68-2.52L281.48 0Q280.36 0.40 279.08 0.40L279.08 0.40Q277.52 0.40 276.62-0.28Q275.72-0.96 275.48-2.56L275.48-2.56Q274.56-1.16 272.78-0.38Q271 0.40 269.04 0.40L269.04 0.40Q266.08 0.40 264.16-0.98Q262.24-2.36 262.24-4.96L262.24-4.96Q262.24-7.24 264.24-8.90Q266.24-10.56 270.04-11.20L270.04-11.20L275.36-12.08L275.36-13.20Q275.36-15.20 274.12-16.40Q272.88-17.60 270.68-17.60L270.68-17.60Q268.68-17.60 267.22-16.64Q265.76-15.68 264.96-13.80L264.96-13.80L262.60-15.52Q263.40-17.76 265.58-19.08Q267.76-20.40 270.68-20.40L270.68-20.40Q274.24-20.40 276.40-18.68Q278.56-16.96 278.56-13.60L278.56-13.60L278.56-3.76Q278.56-3.04 278.92-2.68Q279.28-2.32 280.08-2.32L280.08-2.32ZM269.20-2.40Q271.72-2.40 273.54-3.60Q275.36-4.80 275.36-6.72L275.36-6.72L275.36-9.48L270.88-8.64Q268.20-8.16 266.88-7.26Q265.56-6.36 265.56-4.96L265.56-4.96Q265.56-3.72 266.52-3.06Q267.48-2.40 269.20-2.40L269.20-2.40Z M302.04-20.40Q305.44-20.40 307.64-18.44Q309.84-16.48 309.84-12.80L309.84-12.80L309.84 0L306.64 0L306.64-11.68Q306.64-14.80 305.30-16.20Q303.96-17.60 301.72-17.60L301.72-17.60Q300.12-17.60 298.72-16.90Q297.32-16.20 296.42-14.62Q295.52-13.04 295.52-10.64L295.52-10.64L295.52 0L292.32 0L292.32-20L295.12-20L295.32-16.88Q296.32-18.68 298.08-19.54Q299.84-20.40 302.04-20.40L302.04-20.40Z M339.52-20L330.12 3.36Q328.96 6.24 327.52 7.42Q326.08 8.60 323.80 8.60L323.80 8.60Q322.28 8.60 321.26 8.20Q320.24 7.80 319.40 6.92L319.40 6.92L320.52 4.20Q321.68 5.80 323.76 5.80L323.76 5.80Q324.92 5.80 325.82 5.10Q326.72 4.40 327.40 2.56L327.40 2.56L328.44-0.04L320.08-20L323.72-20L328.72-6.96L329.96-3.40L331.40-7.36L336.08-20L339.52-20Z M373.16-20.40Q375.16-20.40 376.90-19.58Q378.64-18.76 379.72-17.04Q380.80-15.32 380.80-12.80L380.80-12.80L380.80 0L377.60 0L377.60-12.48Q377.60-15.08 376.30-16.34Q375.00-17.60 372.88-17.60L372.88-17.60Q371.28-17.60 369.94-16.82Q368.60-16.04 367.78-14.54Q366.96-13.04 366.96-10.96L366.96-10.96L366.96 0L363.76 0L363.76-12.48Q363.76-15.08 362.46-16.34Q361.16-17.60 359.04-17.60L359.04-17.60Q357.60-17.60 356.24-16.86Q354.88-16.12 354.00-14.56Q353.12-13 353.12-10.68L353.12-10.68L353.12 0L349.92 0L349.92-20L352.72-20L352.92-16.88Q353.96-18.64 355.66-19.52Q357.36-20.40 359.32-20.40L359.32-20.40Q361.52-20.40 363.38-19.40Q365.24-18.40 366.20-16.48L366.20-16.48Q367.08-18.40 369.08-19.40Q371.08-20.40 373.16-20.40L373.16-20.40Z M402.48-20.40Q407.00-20.40 409.58-17.64Q412.16-14.88 412.16-10L412.16-10Q412.16-5.12 409.58-2.36Q407.00 0.40 402.48 0.40L402.48 0.40Q397.96 0.40 395.38-2.36Q392.80-5.12 392.80-10L392.80-10Q392.80-14.88 395.38-17.64Q397.96-20.40 402.48-20.40L402.48-20.40ZM402.48-17.64Q399.44-17.64 397.72-15.60Q396.00-13.56 396.00-10L396.00-10Q396.00-6.44 397.72-4.40Q399.44-2.36 402.48-2.36L402.48-2.36Q405.52-2.36 407.24-4.40Q408.96-6.44 408.96-10L408.96-10Q408.96-13.56 407.24-15.60Q405.52-17.64 402.48-17.64L402.48-17.64Z M433.80-20.40Q435.24-20.40 436.00-20L436.00-20L435.36-16.88Q434.40-17.40 432.84-17.40L432.84-17.40Q431.56-17.40 430.34-16.66Q429.12-15.92 428.34-14.42Q427.56-12.92 427.56-10.80L427.56-10.80L427.56 0L424.36 0L424.36-20L426.96-20L427.40-16.72Q429.08-20.40 433.80-20.40L433.80-20.40Z M463.20-11.04Q463.20-9.92 463.04-8.80L463.04-8.80L447.96-8.80Q448.24-5.76 449.98-4.08Q451.72-2.40 454.48-2.40L454.48-2.40Q456.68-2.40 458.14-3.16Q459.60-3.92 460.12-5.36L460.12-5.36L462.80-3.96Q461.60-1.84 459.60-0.72Q457.60 0.40 454.48 0.40L454.48 0.40Q449.96 0.40 447.38-2.36Q444.80-5.12 444.80-10L444.80-10Q444.80-14.88 447.26-17.64Q449.72-20.40 454.24-20.40L454.24-20.40Q457.04-20.40 459.08-19.16Q461.12-17.92 462.16-15.80Q463.20-13.68 463.20-11.04L463.20-11.04ZM454.24-17.60Q451.60-17.60 449.98-16.04Q448.36-14.48 448.00-11.64L448.00-11.64L460.12-11.64Q459.80-14.44 458.28-16.02Q456.76-17.60 454.24-17.60L454.24-17.60Z"/></g>
</svg>
</g><g opacity="1" transform="rotate(0 65.2937 287.5)">
<svg width="389.192" height="50" x="65.2937" y="287.5" version="1.1" preserveAspectRatio="none" viewBox="2.4 -26.8 211.71999999999997 27.200000000000003">
  <g transform="matrix(1 0 0 1 0 0)" class="companyName"><path id="id-D6z1nYkh8" d="M22.80 0L2.40 0L2.40-0.64L5.64-2.24L5.64-24.16L2.40-25.76L2.40-26.40L13.48-26.40L13.48-25.76L9.84-24.16L9.84-2.20L19.32-2.20L22.16-9.08L22.80-9.08L22.80 0Z M43.80 0.40L43.80 0.40Q40.72 0.40 38.28-0.72Q35.84-1.84 34.46-4.24Q33.08-6.64 33.08-10.52L33.08-10.52L33.08-24.16L29.84-25.76L29.84-26.40L40.52-26.40L40.52-25.76L37.28-24.16L37.28-10.96Q37.28-7.64 38.32-5.70Q39.36-3.76 41.12-2.92Q42.88-2.08 45.08-2.08L45.08-2.08Q46.84-2.08 48.34-2.82Q49.84-3.56 50.74-5.22Q51.64-6.88 51.64-9.56L51.64-9.56L51.64-24.24L47.72-25.76L47.72-26.40L57.68-26.40L57.68-25.76L54.44-24.20L54.44-10.52Q54.44-6.64 53.06-4.24Q51.68-1.84 49.28-0.72Q46.88 0.40 43.80 0.40Z M78.08 0.40L78.08 0.40Q73.96 0.40 70.96-1.28Q67.96-2.96 66.32-5.88Q64.68-8.80 64.68-12.52L64.68-12.52Q64.68-15.40 65.80-17.96Q66.92-20.52 68.86-22.52Q70.80-24.52 73.32-25.66Q75.84-26.80 78.68-26.80L78.68-26.80Q80.72-26.80 82.12-26.54Q83.52-26.28 84.62-25.86Q85.72-25.44 86.84-24.88L86.84-24.88L87.08-17.76L86.36-17.76L83.60-22.96Q82.24-23.92 81.14-24.36Q80.04-24.80 78.68-24.80L78.68-24.80Q75.92-24.80 73.72-23.36Q71.52-21.92 70.26-19.38Q69-16.84 69-13.52L69-13.52Q69-9.80 70.22-7.14Q71.44-4.48 73.52-3.08Q75.60-1.68 78.12-1.68L78.12-1.68Q80.20-1.68 81.62-2.24Q83.04-2.80 84.16-3.56L84.16-3.56L86.84-8.04L87.52-8.04L87.04-1.60Q85.28-0.72 83.28-0.16Q81.28 0.40 78.08 0.40Z M106.20 0L95.52 0L95.52-0.64L98.80-2.24L98.80-24.16L95.52-25.76L95.52-26.40L106.20-26.40L106.20-25.76L102.96-24.16L102.96-2.24L106.20-0.64L106.20 0Z M125.04 0L113.16 0L113.16-0.64L116.40-2.24L116.40-24.16L113.16-25.76L113.16-26.40L125.32-26.40Q129.80-26.40 132.96-24.84Q136.12-23.28 137.78-20.56Q139.44-17.84 139.44-14.40L139.44-14.40Q139.44-11.28 138.36-8.64Q137.28-6 135.34-4.08Q133.40-2.16 130.78-1.08Q128.16 0 125.04 0L125.04 0ZM124.24-24.20L124.24-24.20L120.60-24.20L120.60-2.20L124.84-2.20Q128.04-2.20 130.32-3.54Q132.60-4.88 133.84-7.34Q135.08-9.80 135.08-13.16L135.08-13.16Q135.08-16.48 133.82-18.98Q132.56-21.48 130.14-22.84Q127.72-24.20 124.24-24.20Z M166.80 0L146.40 0L146.40-0.64L149.64-2.24L149.64-24.16L146.40-25.76L146.40-26.40L157.48-26.40L157.48-25.76L153.84-24.16L153.84-2.20L163.32-2.20L166.16-9.08L166.80-9.08L166.80 0Z M184.68 0L174 0L174-0.64L177.28-2.24L177.28-24.16L174-25.76L174-26.40L184.68-26.40L184.68-25.76L181.44-24.16L181.44-2.24L184.68-0.64L184.68 0Z M203.32 0L191.64 0L191.64-0.64L194.88-2.24L194.88-24.16L191.64-25.76L191.64-26.40L202.40-26.40Q205.08-26.40 207.22-25.74Q209.36-25.08 210.58-23.78Q211.80-22.48 211.80-20.48L211.80-20.48Q211.80-18.44 210.40-16.74Q209-15.04 206.36-14.32L206.36-14.32Q210-13.84 212.06-12.10Q214.12-10.36 214.12-7.68L214.12-7.68Q214.12-5.48 212.72-3.74Q211.32-2 208.88-1Q206.44 0 203.32 0L203.32 0ZM201.24-24.20L201.24-24.20L199.08-24.20L199.08-14.68L201.44-14.68Q204.28-14.68 205.84-15.92Q207.40-17.16 207.40-19.32L207.40-19.32Q207.40-24.20 201.24-24.20ZM202.72-12.56L202.72-12.56L199.08-12.56L199.08-2.20L203-2.20Q206.08-2.20 207.86-3.66Q209.64-5.12 209.64-7.40L209.64-7.40Q209.64-10.08 207.84-11.32Q206.04-12.56 202.72-12.56Z"/></g>
</svg>
</g></svg></svg>