<svg version="1.1" preserveAspectRatio="none" xmlns="http://www.w3.org/2000/svg" width="500" height="500" viewBox="0 0 500 500"><rect width="100%" height="100%" fill="#F7F7F7" fill-opacity="1"/><svg viewBox="44.3393 172.4477 382.111 166" width="333" height="144.66477018457988" x="83.5px" y="177.6676px" xmlns="http://www.w3.org/2000/svg" xmlns:xlink="http://www.w3.org/1999/xlink" preserveAspectRatio="none"><defs></defs><style>.companyName {fill:#282727;fill-opacity:1;}.icon3-str {stroke:#E17350;stroke-opacity:1;}.shape {fill:#F3CCD5;fill-opacity:0.95;}.shapeStroke-str {stroke:#282727;stroke-opacity:0.1;}.text {fill:#282727;fill-opacity:1;}</style><g opacity="1" transform="rotate(0 44.3393 172.4477)">
<svg width="166" height="166" x="44.3393" y="172.4477" version="1.1" preserveAspectRatio="none" viewBox="0 0 166 166">
  <rect x="0" y="0" width="166" height="166" class="shape shapeStroke-str" style="stroke-width:0;" rx="0px" ry="0px" />
</svg>
</g><g opacity="1" transform="rotate(0 84.3393 278.4477)">
<svg width="212.1933" height="20" x="84.3393" y="278.4477" version="1.1" preserveAspectRatio="none" viewBox="3.96 -29.68 399.24000000000007 37.64">
  <g transform="matrix(1 0 0 1 0 0)" class="text"><path id="id-6izo4zJp17" d="M14.68-21.20Q18.64-21.20 20.98-18.90Q23.32-16.60 23.32-12.20L23.32-12.20L23.32 0L20.48 0L20.48-11.92Q20.48-15.20 18.84-16.92Q17.20-18.64 14.16-18.64L14.16-18.64Q10.76-18.64 8.78-16.62Q6.80-14.60 6.80-11.04L6.80-11.04L6.80 0L3.96 0L3.96-21.04L6.68-21.04L6.68-17.16Q7.84-19.08 9.90-20.14Q11.96-21.20 14.68-21.20L14.68-21.20Z M41.32 0.20Q38.28 0.20 35.84-1.18Q33.40-2.56 32-5Q30.60-7.44 30.60-10.52L30.60-10.52Q30.60-13.60 32-16.04Q33.40-18.48 35.84-19.84Q38.28-21.20 41.32-21.20L41.32-21.20Q44.36-21.20 46.80-19.84Q49.24-18.48 50.62-16.04Q52-13.60 52-10.52L52-10.52Q52-7.44 50.62-5Q49.24-2.56 46.80-1.18Q44.36 0.20 41.32 0.20L41.32 0.20ZM41.32-2.32Q43.56-2.32 45.34-3.34Q47.12-4.36 48.12-6.24Q49.12-8.12 49.12-10.52L49.12-10.52Q49.12-12.92 48.12-14.80Q47.12-16.68 45.34-17.70Q43.56-18.72 41.32-18.72L41.32-18.72Q39.08-18.72 37.30-17.70Q35.52-16.68 34.50-14.80Q33.48-12.92 33.48-10.52L33.48-10.52Q33.48-8.12 34.50-6.24Q35.52-4.36 37.30-3.34Q39.08-2.32 41.32-2.32L41.32-2.32Z M69.48-3.32L70.48-1.28Q69.68-0.56 68.50-0.18Q67.32 0.20 66.04 0.20L66.04 0.20Q63.08 0.20 61.48-1.40Q59.88-3 59.88-5.92L59.88-5.92L59.88-18.64L56.12-18.64L56.12-21.04L59.88-21.04L59.88-25.64L62.72-25.64L62.72-21.04L69.12-21.04L69.12-18.64L62.72-18.64L62.72-6.08Q62.72-4.20 63.66-3.22Q64.60-2.24 66.36-2.24L66.36-2.24Q67.24-2.24 68.06-2.52Q68.88-2.80 69.48-3.32L69.48-3.32Z M96.68-21.20Q100.80-21.20 103-19.14Q105.20-17.08 105.20-13.04L105.20-13.04L105.20 0L102.48 0L102.48-3.28Q101.52-1.64 99.66-0.72Q97.80 0.20 95.24 0.20L95.24 0.20Q91.72 0.20 89.64-1.48Q87.56-3.16 87.56-5.92L87.56-5.92Q87.56-8.60 89.50-10.24Q91.44-11.88 95.68-11.88L95.68-11.88L102.36-11.88L102.36-13.16Q102.36-15.88 100.84-17.30Q99.32-18.72 96.40-18.72L96.40-18.72Q94.40-18.72 92.56-18.06Q90.72-17.40 89.40-16.24L89.40-16.24L88.12-18.36Q89.72-19.72 91.96-20.46Q94.20-21.20 96.68-21.20L96.68-21.20ZM95.68-2.04Q98.08-2.04 99.80-3.14Q101.52-4.24 102.36-6.32L102.36-6.32L102.36-9.76L95.76-9.76Q90.36-9.76 90.36-6L90.36-6Q90.36-4.16 91.76-3.10Q93.16-2.04 95.68-2.04L95.68-2.04Z M114.52 0L114.52-29.68L117.36-29.68L117.36 0L114.52 0Z M135.48 0.20Q132.44 0.20 130-1.18Q127.56-2.56 126.16-5Q124.76-7.44 124.76-10.52L124.76-10.52Q124.76-13.60 126.16-16.04Q127.56-18.48 130-19.84Q132.44-21.20 135.48-21.20L135.48-21.20Q138.52-21.20 140.96-19.84Q143.40-18.48 144.78-16.04Q146.16-13.60 146.16-10.52L146.16-10.52Q146.16-7.44 144.78-5Q143.40-2.56 140.96-1.18Q138.52 0.20 135.48 0.20L135.48 0.20ZM135.48-2.32Q137.72-2.32 139.50-3.34Q141.28-4.36 142.28-6.24Q143.28-8.12 143.28-10.52L143.28-10.52Q143.28-12.92 142.28-14.80Q141.28-16.68 139.50-17.70Q137.72-18.72 135.48-18.72L135.48-18.72Q133.24-18.72 131.46-17.70Q129.68-16.68 128.66-14.80Q127.64-12.92 127.64-10.52L127.64-10.52Q127.64-8.12 128.66-6.24Q129.68-4.36 131.46-3.34Q133.24-2.32 135.48-2.32L135.48-2.32Z M164.28-21.20Q168.24-21.20 170.58-18.90Q172.92-16.60 172.92-12.20L172.92-12.20L172.92 0L170.08 0L170.08-11.92Q170.08-15.20 168.44-16.92Q166.80-18.64 163.76-18.64L163.76-18.64Q160.36-18.64 158.38-16.62Q156.40-14.60 156.40-11.04L156.40-11.04L156.40 0L153.56 0L153.56-21.04L156.28-21.04L156.28-17.16Q157.44-19.08 159.50-20.14Q161.56-21.20 164.28-21.20L164.28-21.20Z M200.68-10.52L200.64-9.64L183.04-9.64Q183.28-6.36 185.56-4.34Q187.84-2.32 191.32-2.32L191.32-2.32Q193.28-2.32 194.92-3.02Q196.56-3.72 197.76-5.08L197.76-5.08L199.36-3.24Q197.96-1.56 195.86-0.68Q193.76 0.20 191.24 0.20L191.24 0.20Q188 0.20 185.50-1.18Q183-2.56 181.60-5Q180.20-7.44 180.20-10.52L180.20-10.52Q180.20-13.60 181.54-16.04Q182.88-18.48 185.22-19.84Q187.56-21.20 190.48-21.20L190.48-21.20Q193.40-21.20 195.72-19.84Q198.04-18.48 199.36-16.06Q200.68-13.64 200.68-10.52L200.68-10.52ZM190.48-18.76Q187.44-18.76 185.38-16.82Q183.32-14.88 183.04-11.76L183.04-11.76L197.96-11.76Q197.68-14.88 195.62-16.82Q193.56-18.76 190.48-18.76L190.48-18.76Z M227.52-21.20Q231.64-21.20 233.84-19.14Q236.04-17.08 236.04-13.04L236.04-13.04L236.04 0L233.32 0L233.32-3.28Q232.36-1.64 230.50-0.72Q228.64 0.20 226.08 0.20L226.08 0.20Q222.56 0.20 220.48-1.48Q218.40-3.16 218.40-5.92L218.40-5.92Q218.40-8.60 220.34-10.24Q222.28-11.88 226.52-11.88L226.52-11.88L233.20-11.88L233.20-13.16Q233.20-15.88 231.68-17.30Q230.16-18.72 227.24-18.72L227.24-18.72Q225.24-18.72 223.40-18.06Q221.56-17.40 220.24-16.24L220.24-16.24L218.96-18.36Q220.56-19.72 222.80-20.46Q225.04-21.20 227.52-21.20L227.52-21.20ZM226.52-2.04Q228.92-2.04 230.64-3.14Q232.36-4.24 233.20-6.32L233.20-6.32L233.20-9.76L226.60-9.76Q221.20-9.76 221.20-6L221.20-6Q221.20-4.16 222.60-3.10Q224-2.04 226.52-2.04L226.52-2.04Z M256.08-21.20Q260.04-21.20 262.38-18.90Q264.72-16.60 264.72-12.20L264.72-12.20L264.72 0L261.88 0L261.88-11.92Q261.88-15.20 260.24-16.92Q258.60-18.64 255.56-18.64L255.56-18.64Q252.16-18.64 250.18-16.62Q248.20-14.60 248.20-11.04L248.20-11.04L248.20 0L245.36 0L245.36-21.04L248.08-21.04L248.08-17.16Q249.24-19.08 251.30-20.14Q253.36-21.20 256.08-21.20L256.08-21.20Z M288.52-21.04L291.32-21.04L280.80 2.52Q279.52 5.48 277.84 6.72Q276.16 7.96 273.80 7.96L273.80 7.96Q272.28 7.96 270.96 7.48Q269.64 7 268.68 6.04L268.68 6.04L270 3.92Q271.60 5.52 273.84 5.52L273.84 5.52Q275.28 5.52 276.30 4.72Q277.32 3.92 278.20 2L278.20 2L279.12-0.04L269.72-21.04L272.68-21.04L280.60-3.16L288.52-21.04Z M323.16-21.20Q327.12-21.20 329.38-18.92Q331.64-16.64 331.64-12.20L331.64-12.20L331.64 0L328.80 0L328.80-11.92Q328.80-15.20 327.22-16.92Q325.64-18.64 322.76-18.64L322.76-18.64Q319.48-18.64 317.60-16.62Q315.72-14.60 315.72-11.04L315.72-11.04L315.72 0L312.88 0L312.88-11.92Q312.88-15.20 311.30-16.92Q309.72-18.64 306.80-18.64L306.80-18.64Q303.56-18.64 301.66-16.62Q299.76-14.60 299.76-11.04L299.76-11.04L299.76 0L296.92 0L296.92-21.04L299.64-21.04L299.64-17.20Q300.76-19.12 302.76-20.16Q304.76-21.20 307.36-21.20L307.36-21.20Q310.00-21.20 311.94-20.08Q313.88-18.96 314.84-16.76L314.84-16.76Q316.00-18.84 318.18-20.02Q320.36-21.20 323.16-21.20L323.16-21.20Z M349.64 0.20Q346.60 0.20 344.16-1.18Q341.72-2.56 340.32-5Q338.92-7.44 338.92-10.52L338.92-10.52Q338.92-13.60 340.32-16.04Q341.72-18.48 344.16-19.84Q346.60-21.20 349.64-21.20L349.64-21.20Q352.68-21.20 355.12-19.84Q357.56-18.48 358.94-16.04Q360.32-13.60 360.32-10.52L360.32-10.52Q360.32-7.44 358.94-5Q357.56-2.56 355.12-1.18Q352.68 0.20 349.64 0.20L349.64 0.20ZM349.64-2.32Q351.88-2.32 353.66-3.34Q355.44-4.36 356.44-6.24Q357.44-8.12 357.44-10.52L357.44-10.52Q357.44-12.92 356.44-14.80Q355.44-16.68 353.66-17.70Q351.88-18.72 349.64-18.72L349.64-18.72Q347.40-18.72 345.62-17.70Q343.84-16.68 342.82-14.80Q341.80-12.92 341.80-10.52L341.80-10.52Q341.80-8.12 342.82-6.24Q343.84-4.36 345.62-3.34Q347.40-2.32 349.64-2.32L349.64-2.32Z M370.44-16.92Q371.44-19.04 373.42-20.12Q375.40-21.20 378.32-21.20L378.32-21.20L378.32-18.44L377.64-18.48Q374.32-18.48 372.44-16.44Q370.56-14.40 370.56-10.72L370.56-10.72L370.56 0L367.72 0L367.72-21.04L370.44-21.04L370.44-16.92Z M403.20-10.52L403.16-9.64L385.56-9.64Q385.80-6.36 388.08-4.34Q390.36-2.32 393.84-2.32L393.84-2.32Q395.80-2.32 397.44-3.02Q399.08-3.72 400.28-5.08L400.28-5.08L401.88-3.24Q400.48-1.56 398.38-0.68Q396.28 0.20 393.76 0.20L393.76 0.20Q390.52 0.20 388.02-1.18Q385.52-2.56 384.12-5Q382.72-7.44 382.72-10.52L382.72-10.52Q382.72-13.60 384.06-16.04Q385.40-18.48 387.74-19.84Q390.08-21.20 393.00-21.20L393.00-21.20Q395.92-21.20 398.24-19.84Q400.56-18.48 401.88-16.06Q403.20-13.64 403.20-10.52L403.20-10.52ZM393.00-18.76Q389.96-18.76 387.90-16.82Q385.84-14.88 385.56-11.76L385.56-11.76L400.48-11.76Q400.20-14.88 398.14-16.82Q396.08-18.76 393.00-18.76L393.00-18.76Z"/></g>
</svg>
</g><g opacity="1" transform="rotate(0 84.3393 212.4477)">
<svg width="342.111" height="50" x="84.3393" y="212.4477" version="1.1" preserveAspectRatio="none" viewBox="1.76 -26.88 187.2 27.36">
  <g transform="matrix(1 0 0 1 0 0)" class="companyName"><path id="id-D6z1nYkh8" d="M1.76 0L1.76-1.32Q3.24-1.32 3.88-1.50Q4.52-1.68 4.72-2.12Q4.92-2.56 4.92-3.56L4.92-3.56L4.92-22.80Q4.92-23.84 4.72-24.28Q4.52-24.72 3.88-24.90Q3.24-25.08 1.76-25.08L1.76-25.08L1.76-26.40L13.12-26.40L13.12-25.08Q11.52-25.08 10.86-24.92Q10.20-24.76 10-24.30Q9.80-23.84 9.80-22.80L9.80-22.80L9.80-4.56Q9.80-3.12 10.18-2.50Q10.56-1.88 11.36-1.74Q12.16-1.60 14.12-1.60L14.12-1.60Q16.40-1.60 17.66-2.12Q18.92-2.64 19.64-3.82Q20.36-5 20.96-7.28L20.96-7.28L22-7.28L21.56 0L1.76 0Z M39.24 0.48Q33.76 0.48 31.30-1.78Q28.84-4.04 28.84-9.12L28.84-9.12L28.84-22.80Q28.84-23.84 28.64-24.28Q28.44-24.72 27.82-24.90Q27.20-25.08 25.72-25.08L25.72-25.08L25.72-26.40L36.88-26.40L36.88-25.08Q35.40-25.08 34.76-24.90Q34.12-24.72 33.92-24.28Q33.72-23.84 33.72-22.80L33.72-22.80L33.72-9.04Q33.72-5.16 35.18-3.16Q36.64-1.16 39.44-1.16L39.44-1.16Q45.08-1.16 45.08-9.04L45.08-9.04L45.08-22.80Q45.08-23.84 44.88-24.28Q44.68-24.72 44.06-24.90Q43.44-25.08 41.96-25.08L41.96-25.08L41.96-26.40L53.12-26.40L53.12-25.08Q51.60-25.08 50.96-24.92Q50.32-24.76 50.14-24.30Q49.96-23.84 49.96-22.80L49.96-22.80L49.96-9.12Q49.96-4.12 47.38-1.82Q44.80 0.48 39.24 0.48L39.24 0.48Z M69.24 0.48Q62.72 0.48 59.34-2.98Q55.96-6.44 55.96-12.88L55.96-12.88Q55.96-19.64 59.44-23.26Q62.92-26.88 69.36-26.88L69.36-26.88Q70.88-26.88 72.06-26.58Q73.24-26.28 74.48-25.80L74.48-25.80Q75.40-25.40 75.80-25.40L75.80-25.40Q76.20-25.40 76.40-25.54Q76.60-25.68 76.76-25.96L76.76-25.96L76.96-26.40L77.96-26.40L78.36-18.84L77.36-18.84Q76.80-21.52 74.98-23.40Q73.16-25.28 69.72-25.28L69.72-25.28Q66.48-25.28 64.62-23.30Q62.76-21.32 62.10-18.66Q61.44-16 61.44-13.40L61.44-13.40Q61.44-8.12 63.36-4.64Q65.28-1.16 69.52-1.16L69.52-1.16Q73.28-1.16 75.02-2.84Q76.76-4.52 77.60-6.84L77.60-6.84L78.68-6.28Q78.32-4.84 77.26-3.30Q76.20-1.76 74.20-0.64Q72.20 0.48 69.24 0.48L69.24 0.48Z M82.40 0L82.40-1.32Q83.88-1.32 84.52-1.50Q85.16-1.68 85.36-2.12Q85.56-2.56 85.56-3.56L85.56-3.56L85.56-22.76Q85.56-23.80 85.36-24.26Q85.16-24.72 84.52-24.90Q83.88-25.08 82.40-25.08L82.40-25.08L82.40-26.40L93.56-26.40L93.56-25.08Q92.08-25.08 91.44-24.90Q90.80-24.72 90.62-24.26Q90.44-23.80 90.44-22.76L90.44-22.76L90.44-3.56Q90.44-2.56 90.64-2.10Q90.84-1.64 91.48-1.48Q92.12-1.32 93.56-1.32L93.56-1.32L93.56 0L82.40 0Z M97.48 0L97.48-1.32Q98.96-1.32 99.60-1.50Q100.24-1.68 100.44-2.12Q100.64-2.56 100.64-3.56L100.64-3.56L100.64-22.80Q100.64-23.84 100.44-24.30Q100.24-24.76 99.60-24.92Q98.96-25.08 97.48-25.08L97.48-25.08L97.48-26.40L110.12-26.40Q116.88-26.32 120.24-23.22Q123.60-20.12 123.60-13.56L123.60-13.56Q123.60-6.40 119.90-3.20Q116.20 0 108.80 0L108.80 0L97.48 0ZM109.00-1.56Q113.72-1.56 115.90-4.44Q118.08-7.32 118.08-13.44L118.08-13.44Q118.08-24.84 109.24-24.84L109.24-24.84Q107.04-24.84 106.28-24.56Q105.52-24.28 105.52-23.40L105.52-23.40L105.52-3.84Q105.52-2.48 106.22-2.02Q106.92-1.56 109.00-1.56L109.00-1.56Z M127.64 0L127.64-1.32Q129.12-1.32 129.76-1.50Q130.40-1.68 130.60-2.12Q130.80-2.56 130.80-3.56L130.80-3.56L130.80-22.80Q130.80-23.84 130.60-24.28Q130.40-24.72 129.76-24.90Q129.12-25.08 127.64-25.08L127.64-25.08L127.64-26.40L139.00-26.40L139.00-25.08Q137.40-25.08 136.74-24.92Q136.08-24.76 135.88-24.30Q135.68-23.84 135.68-22.80L135.68-22.80L135.68-4.56Q135.68-3.12 136.06-2.50Q136.44-1.88 137.24-1.74Q138.04-1.60 140.00-1.60L140.00-1.60Q142.28-1.60 143.54-2.12Q144.80-2.64 145.52-3.82Q146.24-5 146.84-7.28L146.84-7.28L147.88-7.28L147.44 0L127.64 0Z M151.80 0L151.80-1.32Q153.28-1.32 153.92-1.50Q154.56-1.68 154.76-2.12Q154.96-2.56 154.96-3.56L154.96-3.56L154.96-22.76Q154.96-23.80 154.76-24.26Q154.56-24.72 153.92-24.90Q153.28-25.08 151.80-25.08L151.80-25.08L151.80-26.40L162.96-26.40L162.96-25.08Q161.48-25.08 160.84-24.90Q160.20-24.72 160.02-24.26Q159.84-23.80 159.84-22.76L159.84-22.76L159.84-3.56Q159.84-2.56 160.04-2.10Q160.24-1.64 160.88-1.48Q161.52-1.32 162.96-1.32L162.96-1.32L162.96 0L151.80 0Z M166.88 0L166.88-1.32Q168.36-1.32 169.00-1.50Q169.64-1.68 169.84-2.12Q170.04-2.56 170.04-3.56L170.04-3.56L170.04-22.80Q170.04-23.84 169.84-24.30Q169.64-24.76 169.00-24.92Q168.36-25.08 166.88-25.12L166.88-25.12L166.88-26.40L178.60-26.40Q182.96-26.40 185.40-25.02Q187.84-23.64 187.84-20.32L187.84-20.32Q187.84-17.84 186.42-16.34Q185.00-14.84 182.40-14.28L182.40-14.28L182.40-14.24Q185.60-13.68 187.28-11.90Q188.96-10.12 188.96-7.08L188.96-7.08Q188.96-3.24 186.40-1.62Q183.84 0 179.04 0L179.04 0L166.88 0ZM174.92-14.84L177.16-14.84Q179.92-14.84 181.40-16.16Q182.88-17.48 182.88-19.96L182.88-19.96Q182.88-22.32 181.46-23.58Q180.04-24.84 177.20-24.84L177.20-24.84Q175.88-24.84 175.40-24.50Q174.92-24.16 174.92-23.24L174.92-23.24L174.92-14.84ZM177.96-1.56Q180.76-1.56 182.16-2.96Q183.56-4.36 183.56-7.04L183.56-7.04Q183.56-10 181.88-11.64Q180.20-13.28 177.24-13.28L177.24-13.28L174.92-13.28L174.92-4.16Q174.92-2.72 175.60-2.14Q176.28-1.56 177.96-1.56L177.96-1.56Z"/></g>
</svg>
</g></svg></svg>