<svg version="1.1" preserveAspectRatio="none" xmlns="http://www.w3.org/2000/svg" width="500" height="500" viewBox="0 0 500 500"><rect width="100%" height="100%" fill="#EFEFEF" fill-opacity="1"/><svg viewBox="99.5253 259.6127 359.8462 110" width="333" height="101.79348844033923" x="83.5px" y="199.1033px" xmlns="http://www.w3.org/2000/svg" xmlns:xlink="http://www.w3.org/1999/xlink" preserveAspectRatio="none"><defs></defs><style>.companyName {fill:#2D2D2D;fill-opacity:1;}.icon3-str {stroke:#BCBBBB;stroke-opacity:1;}.shape {fill:#FFCABD;fill-opacity:1;}.shapeStroke-str {stroke:#2D2D2D;stroke-opacity:1;}.text {fill:#2D2D2D;fill-opacity:1;}</style><g opacity="1" transform="rotate(0 99.5253 293.6127)">
<svg width="359.8462" height="30" x="99.5253" y="293.6127" version="1.1" preserveAspectRatio="none" viewBox="0 0 359.8462 30">
  <rect x="0" y="0" width="359.8462" height="30" class="shape shapeStroke-str" style="stroke-width:0;" rx="0%" ry="0%" />
</svg>
</g><g opacity="1" transform="rotate(0 143.7362 339.6127)">
<svg width="271.4243" height="30" x="143.7362" y="339.6127" version="1.1" preserveAspectRatio="none" viewBox="3.56 -30.4 343.08 37.92">
  <g transform="matrix(1 0 0 1 0 0)" class="text"><path id="id-6izo4zJp17" d="M11.96-16.08Q14.12-16.08 15.48-14.78Q16.84-13.48 16.92-11.40L16.92-11.40L16.92 0L15 0L15-10.88Q14.92-12.44 14-13.42Q13.08-14.40 11.36-14.44L11.36-14.44Q9.76-14.44 8.42-13.68Q7.08-12.92 6.26-11.54Q5.44-10.16 5.44-8.40L5.44-8.40L5.44 0L3.56 0L3.56-15.64L5.20-15.64L5.36-12.16Q6.12-13.96 7.94-15.02Q9.76-16.08 11.96-16.08L11.96-16.08Z M24.52-7.92Q24.52-10.16 25.62-12.06Q26.72-13.96 28.64-15.06Q30.56-16.16 32.88-16.16L32.88-16.16Q35.20-16.16 37.12-15.06Q39.04-13.96 40.12-12.06Q41.20-10.16 41.20-7.92L41.20-7.92Q41.20-5.64 40.10-3.76Q39-1.88 37.10-0.78Q35.20 0.32 32.84 0.32L32.84 0.32Q30.48 0.32 28.58-0.74Q26.68-1.80 25.60-3.68Q24.52-5.56 24.52-7.92L24.52-7.92ZM26.40-7.88Q26.40-6.08 27.26-4.56Q28.12-3.04 29.60-2.16Q31.08-1.28 32.84-1.28L32.84-1.28Q34.60-1.28 36.08-2.16Q37.56-3.04 38.42-4.56Q39.28-6.08 39.28-7.88L39.28-7.88Q39.28-9.68 38.42-11.22Q37.56-12.76 36.08-13.64Q34.60-14.52 32.84-14.52L32.84-14.52Q31.04-14.52 29.56-13.58Q28.08-12.64 27.24-11.12Q26.40-9.60 26.40-7.88L26.40-7.88Z M50.36-22.52L52.28-22.52L52.28-15.44L57.12-15.44L57.12-13.92L52.28-13.92L52.28 0L50.36 0L50.36-13.92L47.04-13.92L47.04-15.44L50.36-15.44L50.36-22.52Z M91.64-15.64L93.32-15.64L93.32 0L91.44 0L91.44-3.32Q90.52-1.80 88.64-0.74Q86.76 0.32 84.56 0.32L84.56 0.32Q82.32 0.32 80.50-0.70Q78.68-1.72 77.62-3.58Q76.56-5.44 76.56-7.84L76.56-7.84Q76.56-10.40 77.66-12.26Q78.76-14.12 80.70-15.12Q82.64-16.12 85.08-16.12L85.08-16.12Q87.00-16.12 88.76-15.04Q90.52-13.96 91.44-12.24L91.44-12.24L91.64-15.64ZM84.96-1.28Q87.60-1.28 89.44-2.92Q91.28-4.56 91.44-7.12L91.44-7.12L91.44-9.36Q90.96-11.56 89.12-13.04Q87.28-14.52 84.92-14.52L84.92-14.52Q83.12-14.52 81.64-13.70Q80.16-12.88 79.30-11.38Q78.44-9.88 78.44-7.92L78.44-7.92Q78.44-6.12 79.32-4.60Q80.20-3.08 81.70-2.18Q83.20-1.28 84.96-1.28L84.96-1.28Z M102.44-30.40L104.32-30.40L104.32 0L102.44 0L102.44-30.40Z M111.92-7.92Q111.92-10.16 113.02-12.06Q114.12-13.96 116.04-15.06Q117.96-16.16 120.28-16.16L120.28-16.16Q122.60-16.16 124.52-15.06Q126.44-13.96 127.52-12.06Q128.60-10.16 128.60-7.92L128.60-7.92Q128.60-5.64 127.50-3.76Q126.40-1.88 124.50-0.78Q122.60 0.32 120.24 0.32L120.24 0.32Q117.88 0.32 115.98-0.74Q114.08-1.80 113.00-3.68Q111.92-5.56 111.92-7.92L111.92-7.92ZM113.80-7.88Q113.80-6.08 114.66-4.56Q115.52-3.04 117.00-2.16Q118.48-1.28 120.24-1.28L120.24-1.28Q122.00-1.28 123.48-2.16Q124.96-3.04 125.82-4.56Q126.68-6.08 126.68-7.88L126.68-7.88Q126.68-9.68 125.82-11.22Q124.96-12.76 123.48-13.64Q122.00-14.52 120.24-14.52L120.24-14.52Q118.44-14.52 116.96-13.58Q115.48-12.64 114.64-11.12Q113.80-9.60 113.80-7.88L113.80-7.88Z M144.60-16.08Q146.76-16.08 148.12-14.78Q149.48-13.48 149.56-11.40L149.56-11.40L149.56 0L147.64 0L147.64-10.88Q147.56-12.44 146.64-13.42Q145.72-14.40 144-14.44L144-14.44Q142.40-14.44 141.06-13.68Q139.72-12.92 138.90-11.54Q138.08-10.16 138.08-8.40L138.08-8.40L138.08 0L136.20 0L136.20-15.64L137.84-15.64L138.00-12.16Q138.76-13.96 140.58-15.02Q142.40-16.08 144.60-16.08L144.60-16.08Z M165.52-1.32Q168.04-1.32 170.08-3.04L170.08-3.04L171.04-1.68Q169.88-0.76 168.42-0.22Q166.96 0.32 165.48 0.32L165.48 0.32Q163.08 0.32 161.18-0.76Q159.28-1.84 158.22-3.70Q157.16-5.56 157.16-7.88L157.16-7.88Q157.16-10.12 158.28-12.02Q159.40-13.92 161.32-15.04Q163.24-16.16 165.52-16.16L165.52-16.16Q168.24-16.16 170.16-14.56Q172.08-12.96 172.96-10.24L172.96-10.24L159.60-5.08Q160.36-3.40 161.94-2.36Q163.52-1.32 165.52-1.32L165.52-1.32ZM165.40-14.56Q163.64-14.56 162.16-13.68Q160.68-12.80 159.84-11.30Q159-9.80 159-7.96L159-7.96Q159-7.12 159.16-6.48L159.16-6.48L170.68-11Q169.92-12.60 168.56-13.58Q167.20-14.56 165.40-14.56L165.40-14.56Z M208-15.64L209.68-15.64L209.68 0L207.80 0L207.80-3.32Q206.88-1.80 205-0.74Q203.12 0.32 200.92 0.32L200.92 0.32Q198.68 0.32 196.86-0.70Q195.04-1.72 193.98-3.58Q192.92-5.44 192.92-7.84L192.92-7.84Q192.92-10.40 194.02-12.26Q195.12-14.12 197.06-15.12Q199-16.12 201.44-16.12L201.44-16.12Q203.36-16.12 205.12-15.04Q206.88-13.96 207.80-12.24L207.80-12.24L208-15.64ZM201.32-1.28Q203.96-1.28 205.80-2.92Q207.64-4.56 207.80-7.12L207.80-7.12L207.80-9.36Q207.32-11.56 205.48-13.04Q203.64-14.52 201.28-14.52L201.28-14.52Q199.48-14.52 198-13.70Q196.52-12.88 195.66-11.38Q194.80-9.88 194.80-7.92L194.80-7.92Q194.80-6.12 195.68-4.60Q196.56-3.08 198.06-2.18Q199.56-1.28 201.32-1.28L201.32-1.28Z M227.20-16.08Q229.36-16.08 230.72-14.78Q232.08-13.48 232.16-11.40L232.16-11.40L232.16 0L230.24 0L230.24-10.88Q230.16-12.44 229.24-13.42Q228.32-14.40 226.60-14.44L226.60-14.44Q225-14.44 223.66-13.68Q222.32-12.92 221.50-11.54Q220.68-10.16 220.68-8.40L220.68-8.40L220.68 0L218.80 0L218.80-15.64L220.44-15.64L220.60-12.16Q221.36-13.96 223.18-15.02Q225-16.08 227.20-16.08L227.20-16.08Z M252.56-15.64L254.40-15.64L244.32 7.52L242.36 7.52L245.72-0.16L238.48-15.64L240.60-15.64L246.68-2.32L252.56-15.64Z M280.52-16.08Q282.72-16.08 284.04-14.80Q285.36-13.52 285.44-11.40L285.44-11.40L285.44 0L283.56 0L283.56-11Q283.48-12.44 282.62-13.40Q281.76-14.36 280.12-14.44L280.12-14.44Q278.56-14.44 277.24-13.64Q275.92-12.84 275.10-11.50Q274.28-10.16 274.20-8.56L274.20-8.56L274.20 0L272.32 0L272.32-11Q272.24-12.44 271.36-13.40Q270.48-14.36 268.84-14.44L268.84-14.44Q267.28-14.44 265.92-13.64Q264.56-12.84 263.76-11.44Q262.96-10.04 262.96-8.40L262.96-8.40L262.96 0L261.08 0L261.08-15.64L262.72-15.64L262.88-12.20Q263.76-14 265.52-15.04Q267.28-16.08 269.36-16.08L269.36-16.08Q271.24-16.08 272.60-15.06Q273.96-14.04 274.20-12.44L274.20-12.44Q275.12-14.16 276.82-15.12Q278.52-16.08 280.52-16.08L280.52-16.08Z M293.04-7.92Q293.04-10.16 294.14-12.06Q295.24-13.96 297.16-15.06Q299.08-16.16 301.40-16.16L301.40-16.16Q303.72-16.16 305.64-15.06Q307.56-13.96 308.64-12.06Q309.72-10.16 309.72-7.92L309.72-7.92Q309.72-5.64 308.62-3.76Q307.52-1.88 305.62-0.78Q303.72 0.32 301.36 0.32L301.36 0.32Q299 0.32 297.10-0.74Q295.20-1.80 294.12-3.68Q293.04-5.56 293.04-7.92L293.04-7.92ZM294.92-7.88Q294.92-6.08 295.78-4.56Q296.64-3.04 298.12-2.16Q299.60-1.28 301.36-1.28L301.36-1.28Q303.12-1.28 304.60-2.16Q306.08-3.04 306.94-4.56Q307.80-6.08 307.80-7.88L307.80-7.88Q307.80-9.68 306.94-11.22Q306.08-12.76 304.60-13.64Q303.12-14.52 301.36-14.52L301.36-14.52Q299.56-14.52 298.08-13.58Q296.60-12.64 295.76-11.12Q294.92-9.60 294.92-7.88L294.92-7.88Z M319.12-11.92Q319.96-13.80 321.88-14.92Q323.80-16.04 325.72-16.08L325.72-16.08L325.64-14.24Q323.88-14.24 322.40-13.46Q320.92-12.68 320.06-11.30Q319.20-9.92 319.20-8.28L319.20-8.28L319.20 0L317.32 0L317.32-15.64L318.96-15.64L319.12-11.92Z M339.20-1.32Q341.72-1.32 343.76-3.04L343.76-3.04L344.72-1.68Q343.56-0.76 342.10-0.22Q340.64 0.32 339.16 0.32L339.16 0.32Q336.76 0.32 334.86-0.76Q332.96-1.84 331.90-3.70Q330.84-5.56 330.84-7.88L330.84-7.88Q330.84-10.12 331.96-12.02Q333.08-13.92 335-15.04Q336.92-16.16 339.20-16.16L339.20-16.16Q341.92-16.16 343.84-14.56Q345.76-12.96 346.64-10.24L346.64-10.24L333.28-5.08Q334.04-3.40 335.62-2.36Q337.20-1.32 339.20-1.32L339.20-1.32ZM339.08-14.56Q337.32-14.56 335.84-13.68Q334.36-12.80 333.52-11.30Q332.68-9.80 332.68-7.96L332.68-7.96Q332.68-7.12 332.84-6.48L332.84-6.48L344.36-11Q343.60-12.60 342.24-13.58Q340.88-14.56 339.08-14.56L339.08-14.56Z"/></g>
</svg>
</g><g opacity="1" transform="rotate(0 111.5253 259.6127)">
<svg width="335.8462" height="50" x="111.5253" y="259.6127" version="1.1" preserveAspectRatio="none" viewBox="1.12 -25.44 174.64 26">
  <g transform="matrix(1 0 0 1 0 0)" class="companyName"><path id="id-D6z1nYkh8" d="M8.52-21.72L8.52-3.40Q8.52-2.36 8.68-1.90Q8.84-1.44 9.30-1.28Q9.76-1.12 10.80-1.12L10.80-1.12L12.16-1.12Q15.28-1.12 17.56-2.78Q19.84-4.44 20.60-7.28L20.60-7.28Q20.60-7.36 20.76-7.36L20.76-7.36Q20.84-7.36 20.94-7.30Q21.04-7.24 21.04-7.20L21.04-7.20Q20.68-3.24 20.68-0.60L20.68-0.60Q20.68-0.28 20.54-0.14Q20.40 0 20.08 0L20.08 0L1.20 0Q1.12 0 1.12-0.24Q1.12-0.48 1.20-0.48L1.20-0.48Q2.48-0.48 3.06-0.68Q3.64-0.88 3.86-1.46Q4.08-2.04 4.08-3.24L4.08-3.24L4.08-21.76Q4.08-22.96 3.86-23.52Q3.64-24.08 3.04-24.30Q2.44-24.52 1.20-24.52L1.20-24.52Q1.12-24.52 1.12-24.76Q1.12-25 1.20-25L1.20-25L3.24-24.96Q5.08-24.88 6.28-24.88L6.28-24.88Q7.48-24.88 9.32-24.96L9.32-24.96L11.36-25Q11.48-25 11.48-24.76Q11.48-24.52 11.36-24.52L11.36-24.52Q10.12-24.52 9.52-24.30Q8.92-24.08 8.72-23.50Q8.52-22.92 8.52-21.72L8.52-21.72Z M44.64-19.88Q44.64-22.04 43.66-23.28Q42.68-24.52 40.92-24.52L40.92-24.52Q40.84-24.52 40.84-24.76Q40.84-25 40.92-25L40.92-25L42.84-24.96Q44.36-24.88 45.28-24.88L45.28-24.88Q46.04-24.88 47.48-24.96L47.48-24.96L49.32-25Q49.40-25 49.40-24.76Q49.40-24.52 49.32-24.52L49.32-24.52Q47.76-24.52 46.88-23.28Q46-22.04 46-19.88L46-19.88L46-8.76Q46-5.96 44.76-3.84Q43.52-1.72 41.26-0.58Q39 0.56 36.04 0.56L36.04 0.56Q33.08 0.56 30.80-0.56Q28.52-1.68 27.22-3.82Q25.92-5.96 25.92-8.84L25.92-8.84L25.92-21.76Q25.92-22.96 25.70-23.52Q25.48-24.08 24.90-24.30Q24.32-24.52 23.08-24.52L23.08-24.52Q22.96-24.52 22.96-24.76Q22.96-25 23.08-25L23.08-25L25.20-24.96Q27.04-24.88 28.12-24.88L28.12-24.88Q29.32-24.88 31.16-24.96L31.16-24.96L33.20-25Q33.32-25 33.32-24.76Q33.32-24.52 33.20-24.52L33.20-24.52Q31.96-24.52 31.38-24.28Q30.80-24.04 30.58-23.46Q30.36-22.88 30.36-21.68L30.36-21.68L30.36-10.24Q30.36-5.48 32.24-3.20Q34.12-0.92 37.56-0.92L37.56-0.92Q40.88-0.92 42.76-2.94Q44.64-4.96 44.64-8.72L44.64-8.72L44.64-19.88Z M66.76-25.44Q68.52-25.44 70.44-25.14Q72.36-24.84 73.44-24.36L73.44-24.36Q73.80-24.24 73.90-24.06Q74-23.88 74.08-23.44L74.08-23.44L74.56-17.88Q74.56-17.76 74.36-17.72Q74.16-17.68 74.12-17.84L74.12-17.84Q72.76-21 70.48-22.72Q68.20-24.44 65.20-24.44L65.20-24.44Q61.24-24.44 59.08-21.52Q56.92-18.60 56.92-13.68L56.92-13.68Q56.92-10 58.10-6.96Q59.28-3.92 61.42-2.14Q63.56-0.36 66.28-0.36L66.28-0.36Q68.84-0.36 70.86-2.06Q72.88-3.76 74.48-7.24L74.48-7.24Q74.52-7.40 74.74-7.36Q74.96-7.32 74.96-7.20L74.96-7.20L74.36-1.76Q74.28-1.28 74.18-1.14Q74.08-1 73.72-0.84L73.72-0.84Q70.16 0.48 66.40 0.48L66.40 0.48Q61.52 0.48 58.24-1.46Q54.96-3.40 53.42-6.38Q51.88-9.36 51.88-12.60L51.88-12.60Q51.88-16.40 53.94-19.32Q56-22.24 59.42-23.84Q62.84-25.44 66.76-25.44L66.76-25.44Z M85.76-3.24Q85.76-2 85.96-1.44Q86.16-0.88 86.74-0.68Q87.32-0.48 88.60-0.48L88.60-0.48Q88.72-0.48 88.72-0.24Q88.72 0 88.60 0L88.60 0Q87.28 0 86.52-0.04L86.52-0.04L83.48-0.08L80.52-0.04Q79.72 0 78.36 0L78.36 0Q78.28 0 78.28-0.24Q78.28-0.48 78.36-0.48L78.36-0.48Q79.64-0.48 80.24-0.68Q80.84-0.88 81.06-1.46Q81.28-2.04 81.28-3.24L81.28-3.24L81.28-21.76Q81.28-22.96 81.06-23.52Q80.84-24.08 80.24-24.30Q79.64-24.52 78.36-24.52L78.36-24.52Q78.28-24.52 78.28-24.76Q78.28-25 78.36-25L78.36-25L80.52-24.96Q82.36-24.88 83.48-24.88L83.48-24.88Q84.72-24.88 86.56-24.96L86.56-24.96L88.60-25Q88.72-25 88.72-24.76Q88.72-24.52 88.60-24.52L88.60-24.52Q87.36-24.52 86.76-24.28Q86.16-24.04 85.96-23.46Q85.76-22.88 85.76-21.68L85.76-21.68L85.76-3.24Z M103.40 0.16Q102.12 0.16 100.36 0.04L100.36 0.04Q99.72 0 98.78-0.04Q97.84-0.08 96.68-0.08L96.68-0.08L93.72-0.04Q92.92 0 91.56 0L91.56 0Q91.48 0 91.48-0.24Q91.48-0.48 91.56-0.48L91.56-0.48Q92.84-0.48 93.44-0.68Q94.04-0.88 94.26-1.46Q94.48-2.04 94.48-3.24L94.48-3.24L94.48-21.76Q94.48-22.96 94.26-23.52Q94.04-24.08 93.46-24.30Q92.88-24.52 91.64-24.52L91.64-24.52Q91.52-24.52 91.52-24.76Q91.52-25 91.64-25L91.64-25L93.76-24.96Q95.60-24.88 96.68-24.88L96.68-24.88Q98.32-24.88 100.04-25L100.04-25Q102.12-25.08 102.84-25.08L102.84-25.08Q106.88-25.08 110.02-23.48Q113.16-21.88 114.88-19.12Q116.60-16.36 116.60-12.92L116.60-12.92Q116.60-9.04 114.82-6.06Q113.04-3.08 110.02-1.46Q107.00 0.16 103.40 0.16L103.40 0.16ZM103.00-0.76Q105.56-0.76 107.52-2.06Q109.48-3.36 110.58-5.92Q111.68-8.48 111.68-12.04L111.68-12.04Q111.68-15.44 110.64-18.22Q109.60-21 107.68-22.60Q105.76-24.20 103.24-24.20L103.24-24.20Q100.76-24.20 99.84-23.72Q98.92-23.24 98.92-21.68L98.92-21.68L98.92-3.68Q98.92-2.08 99.76-1.42Q100.60-0.76 103.00-0.76L103.00-0.76Z M127.08-21.72L127.08-3.40Q127.08-2.36 127.24-1.90Q127.40-1.44 127.86-1.28Q128.32-1.12 129.36-1.12L129.36-1.12L130.72-1.12Q133.84-1.12 136.12-2.78Q138.40-4.44 139.16-7.28L139.16-7.28Q139.16-7.36 139.32-7.36L139.32-7.36Q139.40-7.36 139.50-7.30Q139.60-7.24 139.60-7.20L139.60-7.20Q139.24-3.24 139.24-0.60L139.24-0.60Q139.24-0.28 139.10-0.14Q138.96 0 138.64 0L138.64 0L119.76 0Q119.68 0 119.68-0.24Q119.68-0.48 119.76-0.48L119.76-0.48Q121.04-0.48 121.62-0.68Q122.20-0.88 122.42-1.46Q122.64-2.04 122.64-3.24L122.64-3.24L122.64-21.76Q122.64-22.96 122.42-23.52Q122.20-24.08 121.60-24.30Q121.00-24.52 119.76-24.52L119.76-24.52Q119.68-24.52 119.68-24.76Q119.68-25 119.76-25L119.76-25L121.80-24.96Q123.64-24.88 124.84-24.88L124.84-24.88Q126.04-24.88 127.88-24.96L127.88-24.96L129.92-25Q130.04-25 130.04-24.76Q130.04-24.52 129.92-24.52L129.92-24.52Q128.68-24.52 128.08-24.30Q127.48-24.08 127.28-23.50Q127.08-22.92 127.08-21.72L127.08-21.72Z M149.44-3.24Q149.44-2 149.64-1.44Q149.84-0.88 150.42-0.68Q151-0.48 152.28-0.48L152.28-0.48Q152.40-0.48 152.40-0.24Q152.40 0 152.28 0L152.28 0Q150.96 0 150.20-0.04L150.20-0.04L147.16-0.08L144.20-0.04Q143.40 0 142.04 0L142.04 0Q141.96 0 141.96-0.24Q141.96-0.48 142.04-0.48L142.04-0.48Q143.32-0.48 143.92-0.68Q144.52-0.88 144.74-1.46Q144.96-2.04 144.96-3.24L144.96-3.24L144.96-21.76Q144.96-22.96 144.74-23.52Q144.52-24.08 143.92-24.30Q143.32-24.52 142.04-24.52L142.04-24.52Q141.96-24.52 141.96-24.76Q141.96-25 142.04-25L142.04-25L144.20-24.96Q146.04-24.88 147.16-24.88L147.16-24.88Q148.40-24.88 150.24-24.96L150.24-24.96L152.28-25Q152.40-25 152.40-24.76Q152.40-24.52 152.28-24.52L152.28-24.52Q151.04-24.52 150.44-24.28Q149.84-24.04 149.64-23.46Q149.44-22.88 149.44-21.68L149.44-21.68L149.44-3.24Z M168.44-14.04Q171.80-13.64 173.78-11.80Q175.76-9.96 175.76-7.24L175.76-7.24Q175.76-5.16 174.56-3.48Q173.36-1.80 171.24-0.82Q169.12 0.16 166.52 0.16L166.52 0.16Q165.40 0.16 163.96 0.04L163.96 0.04Q163.40 0 162.58-0.04Q161.76-0.08 160.76-0.08L160.76-0.08L157.84-0.04Q157.04 0 155.68 0L155.68 0Q155.56 0 155.56-0.24Q155.56-0.48 155.68-0.48L155.68-0.48Q156.84-0.48 157.44-0.70Q158.04-0.92 158.30-1.50Q158.56-2.08 158.56-3.24L158.56-3.24L158.56-21.76Q158.56-23.44 158.00-23.98Q157.44-24.52 155.72-24.52L155.72-24.52Q155.64-24.52 155.64-24.76Q155.64-25 155.72-25L155.72-25L157.84-24.96Q159.68-24.88 160.76-24.88L160.76-24.88Q161.88-24.88 163.08-25L163.08-25Q163.48-25.04 164.28-25.08Q165.08-25.12 165.68-25.12L165.68-25.12Q169.32-25.12 171.32-23.80Q173.32-22.48 173.32-19.96L173.32-19.96Q173.32-18.04 172.06-16.48Q170.80-14.92 168.44-14.04L168.44-14.04ZM165.08-24.24Q163.92-24.24 163.48-23.70Q163.04-23.16 163.04-21.68L163.04-21.68L163.04-14.08L164.64-14.04Q166.72-14.04 167.84-15.60Q168.96-17.16 168.96-19.60L168.96-19.60Q168.96-21.88 167.96-23.06Q166.96-24.24 165.08-24.24L165.08-24.24ZM165.84-0.84Q171.08-0.84 171.08-6.28L171.08-6.28Q171.08-9.36 169.60-11.16Q168.12-12.96 165.12-12.96L165.12-12.96Q163.96-12.96 163.04-12.88L163.04-12.88L163.04-3.24Q163.04-1.92 163.56-1.38Q164.08-0.84 165.84-0.84L165.84-0.84Z"/></g>
</svg>
</g></svg></svg>