<svg version="1.1" preserveAspectRatio="none" xmlns="http://www.w3.org/2000/svg" width="500" height="500" viewBox="0 0 500 500"><rect width="100%" height="100%" fill="#FBFBFB" fill-opacity="1"/><svg viewBox="-304.6114 60.0139 403.1949 154.2962" width="333" height="127.43374134940694" x="83.5px" y="186.2831px" xmlns="http://www.w3.org/2000/svg" xmlns:xlink="http://www.w3.org/1999/xlink" preserveAspectRatio="none"><defs></defs><style>.aL7LgFViNzcolors-1 {fill:#EFEEEE;fill-opacity:1;}.aL7LgFViNzcolors-2 {fill:#E9CE34;fill-opacity:1;}.au3jwtCsGccolors-1 {fill:#EFEEEE;fill-opacity:1;}.au3jwtCsGccolors-2 {fill:#E9CE34;fill-opacity:1;}.companyName {fill:#434343;fill-opacity:1;}.icon2 {fill:#EFEEEE;fill-opacity:1;}.icon3 {fill:#EFDEBE;fill-opacity:1;}.icon3-str {stroke:#EFDEBE;stroke-opacity:1;}.shape {fill:#FFBDEA;fill-opacity:1;}.text {fill:#434343;fill-opacity:1;}</style><g opacity="1" transform="rotate(80 -38.9692 60.0139)">
<svg width="136.4557" height="114.6774" x="-38.9692" y="60.0139" version="1.1" preserveAspectRatio="none" viewBox="20.125 24.89299964904785 59.75 50.21399688720703">
  <g transform="matrix(-1 0 0 -1 100 99.99999618530273)" class="icon3"><path d="M44.75,37.762h10.5c0.414,0,0.75-0.336,0.75-0.75v-4.25c0-0.414-0.336-0.75-0.75-0.75h-10.5c-0.414,0-0.75,0.336-0.75,0.75  v4.25C44,37.426,44.336,37.762,44.75,37.762z M45.5,33.512h9v2.75h-9V33.512z M76.291,34.482H73.49v-2.305  c0-0.414-0.336-0.75-0.75-0.75h-4.25c-0.414,0-0.75,0.336-0.75,0.75v2.305h-4.603l-2.776-5.676c-0.126-0.257-0.388-0.42-0.674-0.42  H40.312c-0.286,0-0.547,0.163-0.674,0.42l-2.775,5.676H23.709c-1.976,0-3.584,1.607-3.584,3.584v33.455  c0,1.978,1.608,3.586,3.584,3.586h52.582c1.977,0,3.584-1.608,3.584-3.586V38.066C79.875,36.09,78.268,34.482,76.291,34.482z   M69.24,32.928h2.75v1.555h-2.75V32.928z M78.375,71.521c0,1.15-0.935,2.086-2.084,2.086H23.709c-1.148,0-2.084-0.936-2.084-2.086  V38.066c0-1.148,0.936-2.084,2.084-2.084H37.33c0.287,0,0.549-0.163,0.674-0.42l2.777-5.676H59.22l2.776,5.676  c0.126,0.257,0.388,0.42,0.674,0.42h13.621c1.149,0,2.084,0.936,2.084,2.084V71.521z M50,39.42c-8.934,0-16.203,7.268-16.203,16.201  S41.066,71.823,50,71.823c8.935,0,16.203-7.269,16.203-16.202S58.935,39.42,50,39.42z M50,70.323  c-8.107,0-14.703-6.596-14.703-14.702S41.893,40.92,50,40.92s14.703,6.595,14.703,14.701S58.107,70.323,50,70.323z M50,42.24  c-7.379,0-13.381,6.002-13.381,13.381S42.621,69.003,50,69.003c7.38,0,13.383-6.003,13.383-13.382S57.38,42.24,50,42.24z M50,67.503  c-6.551,0-11.881-5.33-11.881-11.882c0-6.551,5.33-11.881,11.881-11.881c6.553,0,11.883,5.33,11.883,11.881  C61.883,62.173,56.553,67.503,50,67.503z M66.33,28.622c0.142,0.229,0.387,0.354,0.638,0.354c0.135,0,0.271-0.036,0.395-0.113  c0.352-0.219,0.46-0.681,0.241-1.032L66.4,25.894c-0.218-0.353-0.681-0.462-1.032-0.241c-0.352,0.219-0.46,0.681-0.241,1.032  L66.33,28.622z M73.865,28.863c0.124,0.076,0.261,0.113,0.396,0.113c0.251,0,0.496-0.125,0.638-0.354l1.205-1.938  c0.219-0.352,0.111-0.814-0.24-1.033c-0.354-0.221-0.816-0.111-1.033,0.24l-1.205,1.938C73.406,28.182,73.514,28.645,73.865,28.863z   M70.615,28.977c0.414,0,0.75-0.336,0.75-0.75v-2.584c0-0.414-0.336-0.75-0.75-0.75s-0.75,0.336-0.75,0.75v2.584  C69.865,28.641,70.201,28.977,70.615,28.977z M53.712,49.225c-1.451,0-3.122,1.1-3.71,2.165c-0.508-1.116-2.243-2.165-3.703-2.165  c-2.873,0-5.17,2.315-5.17,5.169c0,6.025,8.873,9.603,8.873,9.603s8.869-3.577,8.869-9.603  C58.882,51.54,56.564,49.225,53.712,49.225z M45.52,52.374c-0.705,0.212-1.41,1.146-1.48,1.619  c-0.055,0.373-0.375,0.641-0.741,0.641c-0.036,0-0.073-0.003-0.11-0.008c-0.41-0.061-0.693-0.442-0.633-0.852  c0.152-1.027,1.229-2.444,2.531-2.836c0.396-0.122,0.816,0.104,0.936,0.502C46.141,51.837,45.916,52.255,45.52,52.374z"></path></g>
</svg>
</g><g opacity="1" transform="rotate(0 -304.6114 90.962)">
<svg width="18.8496" height="20.2388" x="-304.6114" y="90.962" version="1.1" preserveAspectRatio="none" viewBox="26.00017547607422 19.999670028686523 148.99948120117188 160.00106811523438">
  <g transform="matrix(-1 0 0 1 200.9998321533203 0)" ><g><path fill-rule="evenodd" d="M115.12 20.004c19.855-.221 39.097 8.017 50.396 24.742 12.798 18.944 8.233 40.805 9.341 61.895 2.845 54.1-37.294 60.649-82.147 71.32-46.912 11.159-72.85-25.113-65.465-68.702 3.766-22.226 15.96-43.06 30.642-59.897C74.82 29.947 92.493 29.007 115.12 20.004" data-color="1" class="icon3"></path></g></g>
</svg>
</g><g opacity="1" transform="rotate(60 -59.9735 60.1063)">
<svg width="109.8488" height="117.9592" x="-59.9735" y="60.1063" version="1.1" preserveAspectRatio="none" viewBox="26.00017547607422 19.999670028686523 148.99948120117188 160.00106811523438">
  <g transform="matrix(1 0 0 1 0 0)" ><g><path fill-rule="evenodd" d="M115.12 20.004c19.855-.221 39.097 8.017 50.396 24.742 12.798 18.944 8.233 40.805 9.341 61.895 2.845 54.1-37.294 60.649-82.147 71.32-46.912 11.159-72.85-25.113-65.465-68.702 3.766-22.226 15.96-43.06 30.642-59.897C74.82 29.947 92.493 29.007 115.12 20.004" data-color="1" class="shape"></path></g></g>
</svg>
</g><g opacity="1" transform="rotate(0 -265.7618 162.962)">
<svg width="218.8579" height="20.4" x="-265.7618" y="162.962" version="1.1" preserveAspectRatio="none" viewBox="3.28 -29.68 404.76 37.72">
  <g transform="matrix(1 0 0 1 0 0)" class="text"><path id="id-6izo4zJp17" d="M15.40-21.60Q19.44-21.60 21.88-19.24Q24.32-16.88 24.32-12.24L24.32-12.24L24.32 0L19.32 0L19.32-11.60Q19.32-14.40 18-15.82Q16.68-17.24 14.24-17.24L14.24-17.24Q11.48-17.24 9.88-15.58Q8.28-13.92 8.28-10.80L8.28-10.80L8.28 0L3.28 0L3.28-21.36L8.04-21.36L8.04-18.60Q9.28-20.08 11.16-20.84Q13.04-21.60 15.40-21.60L15.40-21.60Z M41.68 0.28Q38.44 0.28 35.84-1.12Q33.24-2.52 31.78-5.02Q30.32-7.52 30.32-10.68L30.32-10.68Q30.32-13.84 31.78-16.32Q33.24-18.80 35.84-20.20Q38.44-21.60 41.68-21.60L41.68-21.60Q44.96-21.60 47.56-20.20Q50.16-18.80 51.62-16.32Q53.08-13.84 53.08-10.68L53.08-10.68Q53.08-7.52 51.62-5.02Q50.16-2.52 47.56-1.12Q44.96 0.28 41.68 0.28L41.68 0.28ZM41.68-4Q44.44-4 46.24-5.84Q48.04-7.68 48.04-10.68L48.04-10.68Q48.04-13.68 46.24-15.52Q44.44-17.36 41.68-17.36L41.68-17.36Q38.92-17.36 37.14-15.52Q35.36-13.68 35.36-10.68L35.36-10.68Q35.36-7.68 37.14-5.84Q38.92-4 41.68-4L41.68-4Z M70.52-4.72L71.92-1.16Q71.04-0.44 69.78-0.08Q68.52 0.28 67.12 0.28L67.12 0.28Q63.60 0.28 61.68-1.56Q59.76-3.40 59.76-6.92L59.76-6.92L59.76-17.20L56.24-17.20L56.24-21.20L59.76-21.20L59.76-26.08L64.76-26.08L64.76-21.20L70.48-21.20L70.48-17.20L64.76-17.20L64.76-7.04Q64.76-5.48 65.52-4.66Q66.28-3.84 67.72-3.84L67.72-3.84Q69.40-3.84 70.52-4.72L70.52-4.72Z M97.64-21.60Q102.36-21.60 104.86-19.34Q107.36-17.08 107.36-12.52L107.36-12.52L107.36 0L102.64 0L102.64-2.60Q101.72-1.20 100.02-0.46Q98.32 0.28 95.92 0.28L95.92 0.28Q93.52 0.28 91.72-0.54Q89.92-1.36 88.94-2.82Q87.96-4.28 87.96-6.12L87.96-6.12Q87.96-9 90.10-10.74Q92.24-12.48 96.84-12.48L96.84-12.48L102.36-12.48L102.36-12.80Q102.36-15.04 101.02-16.24Q99.68-17.44 97.04-17.44L97.04-17.44Q95.24-17.44 93.50-16.88Q91.76-16.32 90.56-15.32L90.56-15.32L88.60-18.96Q90.28-20.24 92.64-20.92Q95.00-21.60 97.64-21.60L97.64-21.60ZM96.96-3.36Q98.84-3.36 100.30-4.22Q101.76-5.08 102.36-6.68L102.36-6.68L102.36-9.16L97.20-9.16Q92.88-9.16 92.88-6.32L92.88-6.32Q92.88-4.96 93.96-4.16Q95.04-3.36 96.96-3.36L96.96-3.36Z M114.96 0L114.96-29.68L119.96-29.68L119.96 0L114.96 0Z M137.32 0.28Q134.08 0.28 131.48-1.12Q128.88-2.52 127.42-5.02Q125.96-7.52 125.96-10.68L125.96-10.68Q125.96-13.84 127.42-16.32Q128.88-18.80 131.48-20.20Q134.08-21.60 137.32-21.60L137.32-21.60Q140.60-21.60 143.20-20.20Q145.80-18.80 147.26-16.32Q148.72-13.84 148.72-10.68L148.72-10.68Q148.72-7.52 147.26-5.02Q145.80-2.52 143.20-1.12Q140.60 0.28 137.32 0.28L137.32 0.28ZM137.32-4Q140.08-4 141.88-5.84Q143.68-7.68 143.68-10.68L143.68-10.68Q143.68-13.68 141.88-15.52Q140.08-17.36 137.32-17.36L137.32-17.36Q134.56-17.36 132.78-15.52Q131.00-13.68 131.00-10.68L131.00-10.68Q131.00-7.68 132.78-5.84Q134.56-4 137.32-4L137.32-4Z M166.84-21.60Q170.88-21.60 173.32-19.24Q175.76-16.88 175.76-12.24L175.76-12.24L175.76 0L170.76 0L170.76-11.60Q170.76-14.40 169.44-15.82Q168.12-17.24 165.68-17.24L165.68-17.24Q162.92-17.24 161.32-15.58Q159.72-13.92 159.72-10.80L159.72-10.80L159.72 0L154.72 0L154.72-21.36L159.48-21.36L159.48-18.60Q160.72-20.08 162.60-20.84Q164.48-21.60 166.84-21.60L166.84-21.60Z M203.60-10.56Q203.60-10.04 203.52-9.08L203.52-9.08L186.76-9.08Q187.20-6.72 189.06-5.34Q190.92-3.96 193.68-3.96L193.68-3.96Q197.20-3.96 199.48-6.28L199.48-6.28L202.16-3.20Q200.72-1.48 198.52-0.60Q196.32 0.28 193.56 0.28L193.56 0.28Q190.04 0.28 187.36-1.12Q184.68-2.52 183.22-5.02Q181.76-7.52 181.76-10.68L181.76-10.68Q181.76-13.80 183.18-16.30Q184.60-18.80 187.12-20.20Q189.64-21.60 192.80-21.60L192.80-21.60Q195.92-21.60 198.38-20.22Q200.84-18.84 202.22-16.34Q203.60-13.84 203.60-10.56L203.60-10.56ZM192.80-17.60Q190.40-17.60 188.74-16.18Q187.08-14.76 186.72-12.40L186.72-12.40L198.84-12.40Q198.52-14.72 196.88-16.16Q195.24-17.60 192.80-17.60L192.80-17.60Z M230.00-21.60Q234.72-21.60 237.22-19.34Q239.72-17.08 239.72-12.52L239.72-12.52L239.72 0L235.00 0L235.00-2.60Q234.08-1.20 232.38-0.46Q230.68 0.28 228.28 0.28L228.28 0.28Q225.88 0.28 224.08-0.54Q222.28-1.36 221.30-2.82Q220.32-4.28 220.32-6.12L220.32-6.12Q220.32-9 222.46-10.74Q224.60-12.48 229.20-12.48L229.20-12.48L234.72-12.48L234.72-12.80Q234.72-15.04 233.38-16.24Q232.04-17.44 229.40-17.44L229.40-17.44Q227.60-17.44 225.86-16.88Q224.12-16.32 222.92-15.32L222.92-15.32L220.96-18.96Q222.64-20.24 225.00-20.92Q227.36-21.60 230.00-21.60L230.00-21.60ZM229.32-3.36Q231.20-3.36 232.66-4.22Q234.12-5.08 234.72-6.68L234.72-6.68L234.72-9.16L229.56-9.16Q225.24-9.16 225.24-6.32L225.24-6.32Q225.24-4.96 226.32-4.16Q227.40-3.36 229.32-3.36L229.32-3.36Z M259.44-21.60Q263.48-21.60 265.92-19.24Q268.36-16.88 268.36-12.24L268.36-12.24L268.36 0L263.36 0L263.36-11.60Q263.36-14.40 262.04-15.82Q260.72-17.24 258.28-17.24L258.28-17.24Q255.52-17.24 253.92-15.58Q252.32-13.92 252.32-10.80L252.32-10.80L252.32 0L247.32 0L247.32-21.36L252.08-21.36L252.08-18.60Q253.32-20.08 255.20-20.84Q257.08-21.60 259.44-21.60L259.44-21.60Z M290.72-21.36L295.52-21.36L285.52 1.72Q284.12 5.20 282.12 6.62Q280.12 8.04 277.28 8.04L277.28 8.04Q275.68 8.04 274.12 7.52Q272.56 7 271.56 6.08L271.56 6.08L273.56 2.40Q274.28 3.08 275.26 3.48Q276.24 3.88 277.24 3.88L277.24 3.88Q278.56 3.88 279.42 3.20Q280.28 2.52 281.00 0.92L281.00 0.92L281.36 0.08L272.04-21.36L277.24-21.36L283.96-5.56L290.72-21.36Z M326.80-21.60Q330.84-21.60 333.20-19.26Q335.56-16.92 335.56-12.24L335.56-12.24L335.56 0L330.56 0L330.56-11.60Q330.56-14.40 329.32-15.82Q328.08-17.24 325.76-17.24L325.76-17.24Q323.24-17.24 321.72-15.58Q320.20-13.92 320.20-10.84L320.20-10.84L320.20 0L315.20 0L315.20-11.60Q315.20-14.40 313.96-15.82Q312.72-17.24 310.40-17.24L310.40-17.24Q307.84-17.24 306.34-15.60Q304.84-13.96 304.84-10.84L304.84-10.84L304.84 0L299.84 0L299.84-21.36L304.60-21.36L304.60-18.64Q305.80-20.08 307.60-20.84Q309.40-21.60 311.60-21.60L311.60-21.60Q314.00-21.60 315.86-20.70Q317.72-19.80 318.80-18.04L318.80-18.04Q320.12-19.72 322.20-20.66Q324.28-21.60 326.80-21.60L326.80-21.60Z M352.96 0.28Q349.72 0.28 347.12-1.12Q344.52-2.52 343.06-5.02Q341.60-7.52 341.60-10.68L341.60-10.68Q341.60-13.84 343.06-16.32Q344.52-18.80 347.12-20.20Q349.72-21.60 352.96-21.60L352.96-21.60Q356.24-21.60 358.84-20.20Q361.44-18.80 362.90-16.32Q364.36-13.84 364.36-10.68L364.36-10.68Q364.36-7.52 362.90-5.02Q361.44-2.52 358.84-1.12Q356.24 0.28 352.96 0.28L352.96 0.28ZM352.96-4Q355.72-4 357.52-5.84Q359.32-7.68 359.32-10.68L359.32-10.68Q359.32-13.68 357.52-15.52Q355.72-17.36 352.96-17.36L352.96-17.36Q350.20-17.36 348.42-15.52Q346.64-13.68 346.64-10.68L346.64-10.68Q346.64-7.68 348.42-5.84Q350.20-4 352.96-4L352.96-4Z M375.12-18.24Q377.28-21.60 382.72-21.60L382.72-21.60L382.72-16.84Q382.08-16.96 381.56-16.96L381.56-16.96Q378.64-16.96 377.00-15.26Q375.36-13.56 375.36-10.36L375.36-10.36L375.36 0L370.36 0L370.36-21.36L375.12-21.36L375.12-18.24Z M408.04-10.56Q408.04-10.04 407.96-9.08L407.96-9.08L391.20-9.08Q391.64-6.72 393.50-5.34Q395.36-3.96 398.12-3.96L398.12-3.96Q401.64-3.96 403.92-6.28L403.92-6.28L406.60-3.20Q405.16-1.48 402.96-0.60Q400.76 0.28 398.00 0.28L398.00 0.28Q394.48 0.28 391.80-1.12Q389.12-2.52 387.66-5.02Q386.20-7.52 386.20-10.68L386.20-10.68Q386.20-13.80 387.62-16.30Q389.04-18.80 391.56-20.20Q394.08-21.60 397.24-21.60L397.24-21.60Q400.36-21.60 402.82-20.22Q405.28-18.84 406.66-16.34Q408.04-13.84 408.04-10.56L408.04-10.56ZM397.24-17.60Q394.84-17.60 393.18-16.18Q391.52-14.76 391.16-12.40L391.16-12.40L403.28-12.40Q402.96-14.72 401.32-16.16Q399.68-17.60 397.24-17.60L397.24-17.60Z"/></g>
</svg>
</g><g opacity="1" transform="rotate(0 -265.7618 90.962)">
<svg width="364.3453" height="60" x="-265.7618" y="90.962" version="1.1" preserveAspectRatio="none" viewBox="1.68 -28.88 178.72 29.44">
  <g transform="matrix(1 0 0 1 0 0)" class="companyName"><path id="id-D6z1nYkh8" d="M11.88-28.32L11.88-27.52Q10.44-27.44 9.78-27.20Q9.12-26.96 8.88-26.28Q8.64-25.60 8.64-24.08L8.64-24.08L8.64-4.24Q8.64-2.72 8.88-2.04Q9.12-1.36 9.78-1.14Q10.44-0.92 11.88-0.92L11.88-0.92L14.80-0.92Q17.28-0.92 18.58-1.62Q19.88-2.32 20.48-3.88Q21.08-5.44 21.36-8.40L21.36-8.40L22.28-8.40Q22.16-7.16 22.16-5.12L22.16-5.12Q22.16-2.84 22.44 0L22.44 0Q19.72-0.12 13.28-0.12L13.28-0.12Q5.60-0.12 1.68 0L1.68 0L1.68-0.80Q3.12-0.88 3.78-1.12Q4.44-1.36 4.68-2.04Q4.92-2.72 4.92-4.24L4.92-4.24L4.92-24.08Q4.92-25.60 4.68-26.28Q4.44-26.96 3.78-27.20Q3.12-27.44 1.68-27.52L1.68-27.52L1.68-28.32Q3.36-28.20 6.80-28.20L6.80-28.20Q10-28.20 11.88-28.32L11.88-28.32Z M49.72-28.32L49.72-27.52Q48.32-27.44 47.64-27.10Q46.96-26.76 46.72-25.98Q46.48-25.20 46.48-23.68L46.48-23.68L46.48-11.64Q46.48-8.76 46.10-6.70Q45.72-4.64 44.84-3.16L44.84-3.16Q43.84-1.44 41.90-0.44Q39.96 0.56 37.52 0.56L37.52 0.56Q33.12 0.56 30.80-1.60L30.80-1.60Q29.04-3.24 28.44-5.32Q27.84-7.40 27.84-11.52L27.84-11.52L27.84-24.08Q27.84-25.60 27.60-26.28Q27.36-26.96 26.70-27.20Q26.04-27.44 24.60-27.52L24.60-27.52L24.60-28.32Q26.28-28.20 29.72-28.20L29.72-28.20Q32.96-28.20 34.80-28.32L34.80-28.32L34.80-27.52Q33.36-27.44 32.70-27.20Q32.04-26.96 31.80-26.28Q31.56-25.60 31.56-24.08L31.56-24.08L31.56-10.84Q31.56-7.64 32-5.52Q32.44-3.40 33.82-2.12Q35.20-0.84 37.88-0.84L37.88-0.84Q42.12-0.84 43.84-3.56Q45.56-6.28 45.56-11.20L45.56-11.20L45.56-23.68Q45.56-25.84 44.78-26.64Q44-27.44 41.92-27.52L41.92-27.52L41.92-28.32Q43.36-28.20 46-28.20L46-28.20Q48.40-28.20 49.72-28.32L49.72-28.32Z M65.40-28.88Q67.80-28.88 69.48-28.20Q71.16-27.52 72.76-26.28L72.76-26.28Q73.20-25.92 73.52-25.92L73.52-25.92Q74.32-25.92 74.56-28.32L74.56-28.32L75.48-28.32Q75.32-25.72 75.32-19.12L75.32-19.12L74.40-19.12Q73.96-21.72 73.60-22.86Q73.24-24 72.40-25.04L72.40-25.04Q71.20-26.60 69.34-27.38Q67.48-28.16 65.32-28.16L65.32-28.16Q62.72-28.16 60.78-26.44Q58.84-24.72 57.76-21.54Q56.68-18.36 56.68-14.08L56.68-14.08Q56.68-9.72 57.84-6.60Q59.00-3.48 61.06-1.86Q63.12-0.24 65.72-0.24L65.72-0.24Q67.72-0.24 69.60-1Q71.48-1.76 72.56-3.28L72.56-3.28Q73.36-4.40 73.72-5.68Q74.08-6.96 74.40-9.60L74.40-9.60L75.32-9.60Q75.32-2.72 75.48 0L75.48 0L74.56 0Q74.44-1.28 74.22-1.82Q74-2.36 73.60-2.36L73.60-2.36Q73.28-2.36 72.76-2.04L72.76-2.04Q70.96-0.76 69.32-0.10Q67.68 0.56 65.36 0.56L65.36 0.56Q61.56 0.56 58.70-1.16Q55.84-2.88 54.26-6.14Q52.68-9.40 52.68-13.92L52.68-13.92Q52.68-18.32 54.30-21.72Q55.92-25.12 58.82-27Q61.72-28.88 65.40-28.88L65.40-28.88Z M89.96-28.32L89.96-27.52Q88.52-27.44 87.86-27.20Q87.20-26.96 86.96-26.28Q86.72-25.60 86.72-24.08L86.72-24.08L86.72-4.24Q86.72-2.72 86.96-2.04Q87.20-1.36 87.86-1.12Q88.52-0.88 89.96-0.80L89.96-0.80L89.96 0Q88.12-0.12 84.88-0.12L84.88-0.12Q81.44-0.12 79.76 0L79.76 0L79.76-0.80Q81.20-0.88 81.86-1.12Q82.52-1.36 82.76-2.04Q83-2.72 83-4.24L83-4.24L83-24.08Q83-25.60 82.76-26.28Q82.52-26.96 81.86-27.20Q81.20-27.44 79.76-27.52L79.76-27.52L79.76-28.32Q81.44-28.20 84.88-28.20L84.88-28.20Q88.08-28.20 89.96-28.32L89.96-28.32Z M104.24-28.32Q111.32-28.32 114.84-24.78Q118.36-21.24 118.36-14.48L118.36-14.48Q118.36-10.12 116.64-6.84Q114.92-3.56 111.66-1.78Q108.40 0 103.88 0L103.88 0L101.56-0.04Q99.32-0.12 98.28-0.12L98.28-0.12Q95-0.12 93.32 0L93.32 0L93.32-0.80Q94.76-0.88 95.42-1.12Q96.08-1.36 96.32-2.04Q96.56-2.72 96.56-4.24L96.56-4.24L96.56-24.08Q96.56-25.60 96.32-26.28Q96.08-26.96 95.42-27.20Q94.76-27.44 93.32-27.52L93.32-27.52L93.32-28.32Q94.72-28.20 97.20-28.20L97.20-28.20L100.60-28.24Q103.32-28.32 104.24-28.32L104.24-28.32ZM103.24-27.60Q102-27.60 101.38-27.32Q100.76-27.04 100.52-26.32Q100.28-25.60 100.28-24.16L100.28-24.16L100.28-4.16Q100.28-2.72 100.52-2Q100.76-1.28 101.38-1Q102-0.72 103.28-0.72L103.28-0.72Q107.52-0.72 109.96-2.26Q112.40-3.80 113.38-6.76Q114.36-9.72 114.36-14.32L114.36-14.32Q114.36-18.92 113.28-21.82Q112.20-24.72 109.78-26.16Q107.36-27.60 103.24-27.60L103.24-27.60Z M132.08-28.32L132.08-27.52Q130.64-27.44 129.98-27.20Q129.32-26.96 129.08-26.28Q128.84-25.60 128.84-24.08L128.84-24.08L128.84-4.24Q128.84-2.72 129.08-2.04Q129.32-1.36 129.98-1.14Q130.64-0.92 132.08-0.92L132.08-0.92L135-0.92Q137.48-0.92 138.78-1.62Q140.08-2.32 140.68-3.88Q141.28-5.44 141.56-8.40L141.56-8.40L142.48-8.40Q142.36-7.16 142.36-5.12L142.36-5.12Q142.36-2.84 142.64 0L142.64 0Q139.92-0.12 133.48-0.12L133.48-0.12Q125.80-0.12 121.88 0L121.88 0L121.88-0.80Q123.32-0.88 123.98-1.12Q124.64-1.36 124.88-2.04Q125.12-2.72 125.12-4.24L125.12-4.24L125.12-24.08Q125.12-25.60 124.88-26.28Q124.64-26.96 123.98-27.20Q123.32-27.44 121.88-27.52L121.88-27.52L121.88-28.32Q123.56-28.20 127-28.20L127-28.20Q130.20-28.20 132.08-28.32L132.08-28.32Z M155.60-28.32L155.60-27.52Q154.16-27.44 153.50-27.20Q152.84-26.96 152.60-26.28Q152.36-25.60 152.36-24.08L152.36-24.08L152.36-4.24Q152.36-2.72 152.60-2.04Q152.84-1.36 153.50-1.12Q154.16-0.88 155.60-0.80L155.60-0.80L155.60 0Q153.76-0.12 150.52-0.12L150.52-0.12Q147.08-0.12 145.40 0L145.40 0L145.40-0.80Q146.84-0.88 147.50-1.12Q148.16-1.36 148.40-2.04Q148.64-2.72 148.64-4.24L148.64-4.24L148.64-24.08Q148.64-25.60 148.40-26.28Q148.16-26.96 147.50-27.20Q146.84-27.44 145.40-27.52L145.40-27.52L145.40-28.32Q147.08-28.20 150.52-28.20L150.52-28.20Q153.72-28.20 155.60-28.32L155.60-28.32Z M172.24-14.96Q176.64-14.36 178.52-12.42Q180.40-10.48 180.40-7.76L180.40-7.76Q180.40-5.48 179.24-3.72Q178.08-1.96 175.92-0.98Q173.76 0 170.80 0L170.80 0Q169.72 0 168.96-0.04L168.96-0.04Q166.40-0.12 163.92-0.12L163.92-0.12Q160.64-0.12 158.96 0L158.96 0L158.96-0.80Q160.40-0.88 161.06-1.12Q161.72-1.36 161.96-2.04Q162.20-2.72 162.20-4.24L162.20-4.24L162.20-24.08Q162.20-25.60 161.96-26.28Q161.72-26.96 161.06-27.20Q160.40-27.44 158.96-27.52L158.96-27.52L158.96-28.32Q160.64-28.20 163.84-28.20L163.84-28.20L168.16-28.24Q168.92-28.28 169.88-28.28L169.88-28.28Q173.96-28.28 176.14-26.56Q178.32-24.84 178.32-22L178.32-22Q178.32-19.68 176.86-17.84Q175.40-16 172.24-15.04L172.24-15.04L172.24-14.96ZM168.88-27.52Q167.64-27.52 167.02-27.24Q166.40-26.96 166.16-26.24Q165.92-25.52 165.92-24.08L165.92-24.08L165.92-15.04L168.60-15.04Q171.88-15.04 173.18-16.82Q174.48-18.60 174.48-21.56L174.48-21.56Q174.48-24.56 173.16-26.04Q171.84-27.52 168.88-27.52L168.88-27.52ZM168.92-0.92Q176.40-0.92 176.40-7.92L176.40-7.92Q176.40-11.08 174.70-12.72Q173-14.36 169.28-14.36L169.28-14.36L165.92-14.36L165.92-4.24Q165.92-2.80 166.16-2.12Q166.40-1.44 167.02-1.18Q167.64-0.92 168.92-0.92L168.92-0.92Z"/></g>
</svg>
</g></svg></svg>